<svg width="24" height="24" viewBox="0 0 24 24" fill="none" xmlns="http://www.w3.org/2000/svg">
<g clip-path="url(#clip0_675_48)">
<path d="M2.61174 21.3851C0.287404 19.0608 -1.10133 15.1657 1.12187 12.9425C3.35303 10.7113 7.25348 12.1214 9.56443 14.4324C11.8884 16.7563 13.2776 20.6517 11.0543 22.8749C8.86917 25.0601 4.97999 23.7534 2.61174 21.3851ZM2.1151 13.9357C0.480358 15.5705 1.94649 18.7334 3.60497 20.3918C5.25807 22.0449 8.4238 23.519 10.0611 21.8817C11.6959 20.2468 10.2294 17.0838 8.57119 15.4256C6.5615 13.4159 3.56082 12.4901 2.1151 13.9357V13.9357Z" fill="white"/>
<path d="M8.29874 20.0536C7.64028 19.8783 6.63609 19.4501 5.59145 18.4055C4.54685 17.3609 4.11861 16.3567 3.94336 15.6982L5.30073 15.3369C5.40795 15.7397 5.7173 16.5449 6.58468 17.4123C7.45201 18.2796 8.25725 18.589 8.66002 18.6962L8.29874 20.0536Z" fill="white"/>
<path d="M12.9454 17.2564C10.7143 15.0253 12.1241 11.125 14.4353 8.81383C16.7593 6.48982 20.6546 5.10071 22.8779 7.32395C25.1097 9.55563 23.6983 13.4563 21.388 15.7665C19.0637 18.0909 15.1685 19.4796 12.9454 17.2564ZM15.4285 9.80706C13.7756 11.4599 12.3012 14.6257 13.9386 16.2632C15.5734 17.8979 18.7363 16.4318 20.3947 14.7733C22.0478 13.1202 23.5219 9.95446 21.8846 8.31719C20.4191 6.85166 17.4086 7.82696 15.4285 9.80706V9.80706Z" fill="white"/>
<path d="M15.7012 14.4344L15.3398 13.0771C15.7427 12.9698 16.5479 12.6605 17.4152 11.7931C18.2826 10.9258 18.5919 10.1205 18.6991 9.71777L20.0565 10.0791C19.8812 10.7376 19.453 11.7417 18.4084 12.7864C17.3638 13.8309 16.3596 14.2592 15.7012 14.4344V14.4344Z" fill="white"/>
<path d="M5.63231 8.43772C2.90357 8.43772 0.0136719 6.84652 0.0136719 4.22374C0.0136719 1.58818 2.92249 0.00976562 5.63231 0.00976562C8.36104 0.00976562 11.2509 1.60096 11.2509 4.22374C11.2509 6.85935 8.34208 8.43772 5.63231 8.43772ZM5.63231 1.41442C3.81215 1.41442 1.41833 2.40504 1.41833 4.22374C1.41833 6.03739 3.80283 7.03306 5.63231 7.03306C7.45246 7.03306 9.84628 6.04245 9.84628 4.22374C9.84628 2.41014 7.46178 1.41442 5.63231 1.41442Z" fill="white"/>
<path d="M5.63192 4.92701C4.35611 4.92701 3.39715 4.44179 3.0127 3.96093L4.10987 3.08382C4.18512 3.16866 4.70011 3.5224 5.63192 3.5224C6.56372 3.5224 7.07871 3.16866 7.15625 3.08105L8.25114 3.96093C7.86668 4.44179 6.90767 4.92701 5.63192 4.92701Z" fill="white"/>
<path d="M19.7253 23.9835C18.15 23.9835 16.916 23.058 16.916 21.8765C16.916 20.695 18.15 19.7695 19.7253 19.7695C21.3007 19.7695 22.5347 20.695 22.5347 21.8765C22.5347 23.058 21.3007 23.9835 19.7253 23.9835ZM19.7253 21.1742C18.8679 21.1742 18.3207 21.5902 18.3207 21.8765C18.3207 22.1629 18.8679 22.5788 19.7253 22.5788C20.5828 22.5788 21.13 22.1629 21.13 21.8765C21.13 21.5902 20.5828 21.1742 19.7253 21.1742Z" fill="white"/>
<path d="M13.7049 3.99326C12.591 2.87932 12.3729 1.35236 13.2083 0.516916C14.0437 -0.318529 15.5708 -0.100385 16.6847 1.01356C17.6633 1.99214 18.1121 3.55913 17.1813 4.4899C16.2706 5.40063 14.7108 4.99909 13.7049 3.99326ZM14.2016 1.51015C13.9991 1.71265 14.0919 2.39373 14.6982 3.00002C15.2289 3.53075 15.9518 3.73284 16.1881 3.49662C16.4589 3.2258 16.1527 2.46794 15.6915 2.00679C15.1184 1.43369 14.4202 1.29158 14.2016 1.51015V1.51015Z" fill="white"/>
</g>
<defs>
<clipPath id="clip0_675_48">
<rect width="24" height="24" fill="white"/>
</clipPath>
</defs>
</svg>
