<svg width="64" height="64" viewBox="0 0 64 64" fill="none" xmlns="http://www.w3.org/2000/svg">
<g clip-path="url(#clip0_0_7996)">
<path d="M51.5703 64H11.9008C5.3276 64 0 58.628 0 52V12C0 5.372 5.3276 0 11.9008 0H51.5703C58.1435 0 63.4711 5.372 63.4711 12V52C63.4711 58.628 58.1435 64 51.5703 64Z" fill="#F2F6FE"/>
<path d="M29.0922 33.332C30.5524 33.332 31.7362 32.1384 31.7362 30.666C31.7362 29.1936 30.5524 28 29.0922 28C27.632 28 26.4482 29.1936 26.4482 30.666C26.4482 32.1384 27.632 33.332 29.0922 33.332Z" fill="#00E1F0"/>
<path d="M34.3793 34.666C32.9215 34.666 31.7354 35.862 31.7354 37.332C31.7354 38.068 32.3264 38.666 33.0583 38.666C33.7902 38.666 34.3813 38.068 34.3813 37.332C35.1112 37.334 35.7023 36.736 35.7023 36C35.7023 35.264 35.1112 34.666 34.3793 34.666V34.666Z" fill="#00E1F0"/>
<path d="M46.2807 37.334C46.0328 37.334 45.7987 37.278 45.5786 37.194C46.013 36.95 46.4116 36.636 46.733 36.232L47.3121 35.502C47.7683 34.928 47.6771 34.088 47.1059 33.628C46.5346 33.168 45.7035 33.262 45.2473 33.836L44.6662 34.568C44.4262 34.872 44.087 35.088 43.6804 35.036C43.2936 35.03 42.9406 34.848 42.7085 34.536C42.5736 34.354 42.3951 34.234 42.2047 34.144C42.2682 33.66 42.3118 33.17 42.3118 32.668C42.3118 31.16 42.0123 29.722 41.4807 28.406C42.3872 27.98 43.1131 27.274 43.5673 26.38L43.6645 26.336C44.0235 26.174 44.331 26.276 44.4817 26.35C44.6325 26.424 44.9022 26.606 44.9974 26.99C45.1482 27.596 45.6877 28 46.2807 28C46.3858 28 46.4949 27.988 46.602 27.96C47.3101 27.782 47.7425 27.058 47.564 26.344C47.3062 25.298 46.606 24.426 45.644 23.954C45.1283 23.7 44.571 23.586 44.0116 23.594C43.9204 23.032 43.7459 22.484 43.4483 21.982C43.0735 21.35 42.2622 21.146 41.6335 21.524C41.0067 21.902 40.8044 22.722 41.1792 23.352C41.4668 23.834 41.5224 24.412 41.3359 24.942C41.1495 25.47 40.7429 25.884 40.2351 26.07L40.2212 26.074L40.245 26.14C38.4381 23.566 35.5997 21.78 32.3389 21.408C32.2854 20.882 32.1862 20.366 32.0037 19.886L32.1406 19.72C32.6939 19.048 33.5111 18.664 34.3779 18.664C35.1118 18.666 35.7029 18.07 35.7029 17.334C35.7029 16.598 35.1118 16 34.3799 16C32.9002 16 31.5197 16.614 30.4824 17.656C29.6275 16.856 28.5525 16.29 27.3346 16.114L26.6325 16.014C25.9085 15.916 25.2401 16.416 25.1349 17.146C25.0318 17.874 25.5336 18.55 26.2576 18.654L26.9597 18.754C28.3601 18.956 29.4549 20.06 29.6989 21.428C27.5825 21.69 25.6467 22.544 24.0599 23.826C23.4252 21.924 21.3981 20.832 19.4701 21.386C18.768 21.588 18.3614 22.326 18.5617 23.034C18.764 23.742 19.4959 24.15 20.1981 23.95C20.7812 23.782 21.3981 24.122 21.5726 24.708L21.8721 25.718C21.9019 25.82 21.9554 25.908 22.007 25.998C20.922 27.492 20.1941 29.258 19.9422 31.18C19.1111 30.962 18.5121 30.212 18.5121 29.336C18.5121 28.596 17.9211 28 17.1911 28C16.4612 28 15.8682 28.596 15.8682 29.334C15.8682 31.512 17.4054 33.404 19.5237 33.83L19.9065 33.908C20.1941 36.556 21.3882 38.932 23.1693 40.712L22.8778 41.694C22.6794 42.364 22.0368 42.782 21.3465 42.682C20.6225 42.578 19.9541 43.084 19.849 43.814C19.7458 44.542 20.2477 45.218 20.9716 45.322C21.17 45.35 21.3644 45.364 21.5587 45.364C22.2411 45.364 22.8936 45.188 23.4688 44.874C23.4688 44.882 23.4708 44.896 23.4708 44.902C23.4649 45.056 23.4093 45.344 23.1039 45.536C22.485 45.926 22.2966 46.75 22.6834 47.374C22.9313 47.778 23.3637 48 23.804 48C24.042 48 24.286 47.934 24.5042 47.798C25.4721 47.188 26.0711 46.14 26.1108 44.994C26.1406 44.14 25.853 43.322 25.3254 42.68C25.3511 42.606 25.3868 42.538 25.4106 42.462L25.4166 42.444C27.0787 43.426 29.0106 44 31.0754 44C31.726 44 32.3607 43.932 32.9816 43.824L33.2592 44.382C33.3941 44.654 33.5607 44.9 33.7392 45.132C33.5389 45.256 33.3068 45.334 33.0589 45.334C32.329 45.334 31.7359 45.932 31.7359 46.668C31.7359 47.404 32.327 48 33.0589 48C34.1895 48 35.2447 47.496 35.9766 46.682C36.3852 46.804 36.8097 46.872 37.2401 46.872C37.7637 46.872 38.2933 46.778 38.811 46.584C39.4933 46.324 39.8404 45.556 39.5845 44.868C39.3287 44.178 38.567 43.832 37.8807 44.088C37.0139 44.418 36.0381 44.034 35.6216 43.192L35.5541 43.058C38.2258 41.882 40.3581 39.69 41.4688 36.966C41.6692 37.11 41.8774 37.238 42.1016 37.34C42.8731 38.942 44.4956 40 46.2807 40C47.0126 40 47.6037 39.404 47.6037 38.666C47.6037 37.928 47.0126 37.334 46.2807 37.334V37.334ZM31.0754 41.334C26.3369 41.334 22.4811 37.446 22.4811 32.668C22.4811 27.89 26.3349 24 31.0754 24C35.8159 24 39.6698 27.888 39.6698 32.666C39.6698 37.444 35.8139 41.334 31.0754 41.334V41.334Z" fill="#0065FF"/>
</g>
<defs>
<clipPath id="clip0_0_7996">
<rect width="63.4711" height="64" fill="white"/>
</clipPath>
</defs>
</svg>
