<svg width="64" height="80" viewBox="0 0 64 80" fill="none" xmlns="http://www.w3.org/2000/svg">
<circle cx="33" cy="27" r="27" fill="#EBF5EF"/>
<path d="M43 55H46L45 59H41L40 55H43Z" fill="#006FDB"/>
<path d="M58.8996 41L56.8696 48.47C56.3316 50.3515 55.1953 52.0066 53.6328 53.1848C52.0703 54.363 50.1665 55.0002 48.2096 55H37.7896C35.8327 55.0002 33.9289 54.363 32.3664 53.1848C30.8039 52.0066 29.6676 50.3515 29.1296 48.47L27.0996 41H31.1696L32.7396 46.68C33.1031 47.9263 33.861 49.0211 34.8996 49.8C35.9382 50.5789 37.2014 51 38.4996 51H47.4996C48.7978 51 50.061 50.5789 51.0996 49.8C52.1382 49.0211 52.8961 47.9263 53.2596 46.68L54.8296 41H58.8996Z" fill="#D6E0EB"/>
<path d="M39 19V21C38.9984 21.5299 38.7872 22.0377 38.4125 22.4125C38.0377 22.7872 37.5299 22.9984 37 23H34C33.7348 23 33.4804 22.8946 33.2929 22.7071C33.1054 22.5196 33 22.2652 33 22V18C33 17.7348 33.1054 17.4804 33.2929 17.2929C33.4804 17.1054 33.7348 17 34 17H37C37.5299 17.0016 38.0377 17.2128 38.4125 17.5875C38.7872 17.9623 38.9984 18.4701 39 19V19Z" fill="#5C6979"/>
<path d="M53 18V22C53 22.2652 52.8946 22.5196 52.7071 22.7071C52.5196 22.8946 52.2652 23 52 23H49C48.4701 22.9984 47.9623 22.7872 47.5875 22.4125C47.2128 22.0377 47.0016 21.5299 47 21V19C47.0016 18.4701 47.2128 17.9623 47.5875 17.5875C47.9623 17.2128 48.4701 17.0016 49 17H52C52.2652 17 52.5196 17.1054 52.7071 17.2929C52.8946 17.4804 53 17.7348 53 18Z" fill="#5C6979"/>
<path d="M63 24V24.88C63.0015 25.6243 62.8972 26.3651 62.69 27.08L58.9 41H54.83L58.76 26.82C58.9201 26.2744 59.0009 25.7086 59 25.14V24C58.9984 23.4701 58.7872 22.9623 58.4125 22.5875C58.0377 22.2128 57.5299 22.0016 57 22H53V18H57C58.5913 18 60.1174 18.6321 61.2426 19.7574C62.3679 20.8826 63 22.4087 63 24Z" fill="#006FDB"/>
<path d="M33 18V22H29C28.4701 22.0016 27.9623 22.2128 27.5876 22.5875C27.2128 22.9623 27.0016 23.4701 27 24V25.14C26.9991 25.7086 27.0799 26.2744 27.24 26.82L31.17 41H27.1L23.31 27.08C23.1029 26.3651 22.9985 25.6243 23 24.88V24C23 22.4087 23.6322 20.8826 24.7574 19.7574C25.8826 18.6321 27.4087 18 29 18H33Z" fill="#006FDB"/>
<path d="M11 63L10.95 63.24C10.3127 63.0785 9.6575 62.9978 9 63C8.32561 63.0012 7.65392 63.0851 7 63.25V62C7 59.3478 8.05357 56.8043 9.92893 54.9289C11.8043 53.0536 14.3478 52 17 52H19C20.3132 52 21.6136 52.2587 22.8268 52.7612C24.0401 53.2638 25.1425 54.0003 26.0711 54.9289C26.9997 55.8575 27.7362 56.9599 28.2388 58.1732C28.7413 59.3864 29 60.6868 29 62V69C29 70.5913 29.6321 72.1174 30.7574 73.2426C31.8826 74.3679 33.4087 75 35 75C36.5906 74.9976 38.1153 74.3647 39.24 73.24C40.3647 72.1153 40.9976 70.5906 41 69V59H45V69C45 71.6522 43.9464 74.1957 42.0711 76.0711C40.1957 77.9464 37.6522 79 35 79C32.3478 79 29.8043 77.9464 27.9289 76.0711C26.0536 74.1957 25 71.6522 25 69V63C25 62.0807 24.8189 61.1705 24.4672 60.3212C24.1154 59.4719 23.5998 58.7003 22.9497 58.0503C22.2997 57.4002 21.5281 56.8846 20.6788 56.5328C19.8295 56.1811 18.9193 56 18 56C17.0807 56 16.1705 56.1811 15.3212 56.5328C14.4719 56.8846 13.7003 57.4002 13.0503 58.0503C12.4002 58.7003 11.8846 59.4719 11.5328 60.3212C11.1811 61.1705 11 62.0807 11 63V63Z" fill="#EDF4FA"/>
<path d="M10.9494 63.24C12.8383 63.7165 14.4882 64.8662 15.5893 66.4732C16.6904 68.0802 17.1669 70.0339 16.9293 71.9674C16.6917 73.9009 15.7564 75.6811 14.299 76.9737C12.8415 78.2663 10.9623 78.9823 9.01428 78.9872C7.06625 78.9921 5.18343 78.2857 3.71948 77.0005C2.25553 75.7153 1.31117 73.9398 1.06378 72.0076C0.816384 70.0753 1.28298 68.1192 2.37594 66.5066C3.46889 64.8941 5.11299 63.736 6.99943 63.25C7.65335 63.0852 8.32504 63.0012 8.99943 63C9.65692 62.9979 10.3121 63.0785 10.9494 63.24ZM12.9994 71C12.9994 70.2089 12.7648 69.4356 12.3253 68.7778C11.8858 68.12 11.2611 67.6073 10.5302 67.3045C9.79926 67.0018 8.99499 66.9226 8.21907 67.0769C7.44314 67.2312 6.73041 67.6122 6.171 68.1716C5.61159 68.731 5.23063 69.4438 5.07629 70.2197C4.92195 70.9956 5.00116 71.7999 5.30391 72.5308C5.60666 73.2617 6.11935 73.8864 6.77715 74.3259C7.43494 74.7654 8.2083 75 8.99943 75C10.0603 75 11.0777 74.5786 11.8279 73.8285C12.578 73.0783 12.9994 72.0609 12.9994 71Z" fill="#EAF1F7"/>
<path d="M9 75C11.2091 75 13 73.2091 13 71C13 68.7909 11.2091 67 9 67C6.79086 67 5 68.7909 5 71C5 73.2091 6.79086 75 9 75Z" fill="#006FDB"/>
<path d="M9 73C8.11513 72.9988 7.25578 72.7034 6.55718 72.1603C5.85858 71.6172 5.36039 70.8572 5.141 70C4.97913 70.5934 4.95629 71.2161 5.07424 71.8198C5.1922 72.4234 5.44778 72.9918 5.82111 73.4806C6.19444 73.9694 6.67547 74.3655 7.22681 74.6382C7.77814 74.9108 8.38493 75.0527 9 75.0527C9.61507 75.0527 10.2219 74.9108 10.7732 74.6382C11.3245 74.3655 11.8056 73.9694 12.1789 73.4806C12.5522 72.9918 12.8078 72.4234 12.9258 71.8198C13.0437 71.2161 13.0209 70.5934 12.859 70C12.6396 70.8572 12.1414 71.6172 11.4428 72.1603C10.7442 72.7034 9.88487 72.9988 9 73V73Z" fill="#004080"/>
<path d="M37 21H34C33.7348 21 33.4804 20.8946 33.2929 20.7071C33.1054 20.5196 33 20.2652 33 20V22C33 22.2652 33.1054 22.5196 33.2929 22.7071C33.4804 22.8946 33.7348 23 34 23H37C37.5299 22.9984 38.0377 22.7872 38.4125 22.4125C38.7872 22.0377 38.9984 21.5299 39 21V19C38.9984 19.5299 38.7872 20.0377 38.4125 20.4125C38.0377 20.7872 37.5299 20.9984 37 21V21Z" fill="#393D48"/>
<path d="M52 21H49C48.4701 20.9984 47.9623 20.7872 47.5875 20.4125C47.2128 20.0377 47.0016 19.5299 47 19V21C47.0016 21.5299 47.2128 22.0377 47.5875 22.4125C47.9623 22.7872 48.4701 22.9984 49 23H52C52.2652 23 52.5196 22.8946 52.7071 22.7071C52.8946 22.5196 53 22.2652 53 22V20C53 20.2652 52.8946 20.5196 52.7071 20.7071C52.5196 20.8946 52.2652 21 52 21Z" fill="#393D48"/>
<path d="M31.3413 47.2C31.8193 48.8711 32.8286 50.3412 34.2164 51.3876C35.6043 52.4341 37.2952 53.0001 39.0333 53H46.9653C48.7035 53.0001 50.3944 52.4341 51.7822 51.3876C53.1701 50.3412 54.1793 48.8711 54.6573 47.2L56.4283 41H54.8283L53.2583 46.68C52.8949 47.9261 52.1371 49.0208 51.0987 49.7997C50.0604 50.5786 48.7974 50.9998 47.4993 51H38.4993C37.2011 51 35.9379 50.5789 34.8993 49.8C33.8608 49.0211 33.1028 47.9263 32.7393 46.68L31.1693 41H29.5693L31.3413 47.2Z" fill="#A8B7D4"/>
<path d="M60.831 25.591C61.0177 24.9383 61.0503 24.2511 60.9262 23.5836C60.8022 22.9161 60.5248 22.2865 60.1159 21.7445C59.7071 21.2025 59.178 20.7628 58.5703 20.46C57.9626 20.1573 57.2929 19.9998 56.614 20H56C55.7348 20 55.4804 19.8946 55.2929 19.7071C55.1054 19.5196 55 19.2652 55 19V18H53V22H57C57.5299 22.0016 58.0377 22.2128 58.4125 22.5875C58.7872 22.9623 58.9984 23.4701 59 24V25.14C59.0009 25.7086 58.9201 26.2744 58.76 26.82L54.83 41H56.43L60.831 25.591Z" fill="#004080"/>
<path d="M30.0001 20H29.3861C28.7072 19.9998 28.0375 20.1573 27.4298 20.46C26.8221 20.7628 26.293 21.2025 25.8842 21.7445C25.4753 22.2865 25.1979 22.9161 25.0739 23.5836C24.9498 24.2511 24.9824 24.9383 25.1691 25.591L29.5711 41H31.1711L27.2401 26.82C27.08 26.2744 26.9992 25.7086 27.0001 25.14V24C27.0017 23.4701 27.2129 22.9623 27.5876 22.5875C27.9624 22.2128 28.4702 22.0016 29.0001 22H33.0001V18H31.0001V19C31.0001 19.2652 30.8947 19.5196 30.7072 19.7071C30.5197 19.8946 30.2653 20 30.0001 20Z" fill="#004080"/>
<path d="M46 51H40C39.4477 51 39 51.4477 39 52C39 52.5523 39.4477 53 40 53H46C46.5523 53 47 52.5523 47 52C47 51.4477 46.5523 51 46 51Z" fill="#95A9D1"/>
<path d="M47 53H39C38.4477 53 38 53.4477 38 54C38 54.5523 38.4477 55 39 55H47C47.5523 55 48 54.5523 48 54C48 53.4477 47.5523 53 47 53Z" fill="#E1ECF7"/>
<path d="M44 56H45.75L46 55H40L41 59H42V58C42 57.4696 42.2107 56.9609 42.5858 56.5858C42.9609 56.2107 43.4696 56 44 56Z" fill="#004080"/>
<path d="M9 66C8.0111 66 7.0444 66.2932 6.22215 66.8427C5.39991 67.3921 4.75904 68.173 4.3806 69.0866C4.00217 70.0002 3.90315 71.0056 4.09608 71.9755C4.289 72.9454 4.76521 73.8363 5.46447 74.5355C6.16373 75.2348 7.05465 75.711 8.02455 75.9039C8.99446 76.0969 9.99979 75.9978 10.9134 75.6194C11.827 75.241 12.6079 74.6001 13.1573 73.7779C13.7068 72.9556 14 71.9889 14 71C14 70.3434 13.8707 69.6932 13.6194 69.0866C13.3681 68.48 12.9998 67.9288 12.5355 67.4645C12.0712 67.0002 11.52 66.6319 10.9134 66.3806C10.3068 66.1293 9.65661 66 9 66ZM9 75C8.20888 75 7.43552 74.7654 6.77772 74.3259C6.11992 73.8864 5.60723 73.2616 5.30448 72.5307C5.00173 71.7998 4.92252 70.9956 5.07686 70.2196C5.2312 69.4437 5.61216 68.731 6.17157 68.1716C6.73098 67.6122 7.44372 67.2312 8.21964 67.0769C8.99557 66.9225 9.79983 67.0017 10.5307 67.3045C11.2616 67.6072 11.8864 68.1199 12.3259 68.7777C12.7654 69.4355 13 70.2089 13 71C13 72.0609 12.5786 73.0783 11.8284 73.8284C11.0783 74.5786 10.0609 75 9 75Z" fill="#C1CFE8"/>
<path d="M10.9496 63.24C10.3123 63.0785 9.65714 62.9979 8.99964 63C8.32525 63.0012 7.65356 63.0852 6.99964 63.25C5.11047 63.7361 3.46379 64.8953 2.36897 66.5098C1.27414 68.1242 0.806509 70.0829 1.05393 72.0179C1.30135 73.9528 2.24679 75.7308 3.71264 77.0179C5.17849 78.305 7.06385 79.0125 9.01454 79.0075C10.9652 79.0026 12.847 78.2855 14.3063 76.9911C15.7656 75.6966 16.702 73.9138 16.9397 71.9777C17.1773 70.0415 16.6997 68.0852 15.5968 66.4763C14.4938 64.8673 12.8412 63.7165 10.9496 63.24V63.24ZM8.99964 78C7.61517 78 6.26179 77.5895 5.11065 76.8203C3.9595 76.0512 3.06229 74.9579 2.53248 73.6788C2.00267 72.3997 1.86404 70.9923 2.13414 69.6344C2.40424 68.2765 3.07092 67.0293 4.04989 66.0503C5.02886 65.0713 6.27614 64.4046 7.63401 64.1345C8.99187 63.8644 10.3993 64.0031 11.6784 64.5329C12.9575 65.0627 14.0508 65.9599 14.8199 67.1111C15.5891 68.2622 15.9996 69.6156 15.9996 71C15.9996 72.8566 15.2621 74.637 13.9494 75.9498C12.6366 77.2625 10.8562 78 8.99964 78V78Z" fill="#C1CFE8"/>
<path d="M41.0001 59V69C40.9983 70.5641 40.3867 72.0659 39.2953 73.1863C38.2039 74.3067 36.7186 74.9573 35.1551 75C34.3403 74.9941 33.5346 74.8277 32.7842 74.5102C32.0338 74.1927 31.3533 73.7305 30.7816 73.1498C30.21 72.5692 29.7584 71.8815 29.4527 71.1262C29.147 70.3709 28.9932 69.5628 29.0001 68.748V62C29.0001 60.6868 28.7414 59.3864 28.2389 58.1732C27.7363 56.9599 26.9997 55.8575 26.0711 54.9289C25.1425 54.0003 24.0401 53.2638 22.8269 52.7612C21.6136 52.2587 20.3133 52 19.0001 52H17.0001C15.0029 52.0007 13.0517 52.5989 11.3973 53.7177C9.743 54.8365 8.46127 56.4247 7.71706 58.278C7.64005 58.4675 7.61068 58.6729 7.6315 58.8764C7.65232 59.0798 7.72271 59.2751 7.8365 59.445C7.95029 59.615 8.10401 59.7544 8.28419 59.8512C8.46438 59.9479 8.66554 59.999 8.87006 60C9.16595 59.9968 9.45112 59.8888 9.675 59.6953C9.89888 59.5018 10.047 59.2353 10.0931 58.943C10.3411 57.5569 11.0688 56.3022 12.1487 55.3985C13.2286 54.4949 14.5919 53.9998 16.0001 54H18.0001C20.387 54 22.6762 54.9482 24.364 56.636C26.0518 58.3239 27.0001 60.6131 27.0001 63V68.726C26.9733 70.7905 27.7279 72.7888 29.1128 74.3202C30.4977 75.8516 32.4103 76.8027 34.4671 76.983C35.5602 77.056 36.6566 76.9037 37.6884 76.5355C38.7203 76.1674 39.6655 75.5912 40.4655 74.8428C41.2655 74.0943 41.9033 73.1895 42.3393 72.1845C42.7753 71.1794 43.0002 70.0955 43.0001 69V63C43.0001 62.4696 43.2108 61.9609 43.5858 61.5858C43.9609 61.2107 44.4696 61 45.0001 61V59H41.0001Z" fill="#D6E0EB"/>
</svg>
