<svg width="64" height="64" viewBox="0 0 64 64" fill="none" xmlns="http://www.w3.org/2000/svg">
<path d="M58 37.25V37.35C57.9999 37.7738 57.8822 38.1892 57.66 38.55L48 54L44 57V59H34V57L32.67 55.01C32.232 54.3526 31.9988 53.58 32 52.79V48.64C32.0011 47.9951 32.158 47.3601 32.4575 46.7889C32.757 46.2178 33.1901 45.7276 33.72 45.36L40.92 40.35C41.2478 40.1197 41.6394 39.9973 42.04 40C42.4444 39.9985 42.8392 40.123 43.1697 40.3562C43.5001 40.5894 43.7497 40.9197 43.8838 41.3012C44.018 41.6827 44.03 42.0966 43.9182 42.4852C43.8064 42.8739 43.5764 43.2181 43.26 43.47L38 48L54.4 35.45C54.7343 35.1993 55.1318 35.0466 55.5479 35.0091C55.9641 34.9716 56.3825 35.0507 56.7562 35.2375C57.13 35.4244 57.4443 35.7117 57.664 36.0671C57.8836 36.4226 58 36.8322 58 37.25V37.25Z" fill="#FEC09B"/>
<path d="M34 59H44V63H34V59Z" fill="#003CBF"/>
<path d="M32 48.64V52.79C32.0012 53.58 31.768 54.3526 31.33 55.01L30 57V59H20V57L16 54L6.34 38.55C6.11782 38.1892 6.00012 37.7738 6 37.35V37.25C6 36.8322 6.11636 36.4226 6.33604 36.0671C6.55571 35.7117 6.87003 35.4244 7.24377 35.2375C7.61751 35.0507 8.0359 34.9716 8.45206 35.0091C8.86823 35.0466 9.26572 35.1993 9.6 35.45L26 48L20.74 43.47C20.3446 43.1532 20.088 42.6951 20.0244 42.1924C19.9608 41.6898 20.0952 41.1822 20.3992 40.7769C20.7031 40.3716 21.1529 40.1004 21.6532 40.0208C22.1535 39.9411 22.6652 40.0592 23.08 40.35L30.28 45.36C30.8099 45.7276 31.243 46.2178 31.5425 46.7889C31.842 47.3601 31.9989 47.9951 32 48.64Z" fill="#FEC09B"/>
<path d="M20 59H30V63H20V59Z" fill="#003CBF"/>
<path d="M40 16V22H35V27H29V22H24V16H29V11H35V16H40Z" fill="#FBFBFB"/>
<path d="M42 0C48 0 52 4.56 52 12C52 28 34 36 32 36C30 36 12 28 12 12C12 4.56 16 0 22 0C25 0 26.71 0.42 28.06 1.51C29.41 2.6 30.42 4.34 32 7C35.17 1.69 36 0 42 0ZM40 22V16H35V11H29V16H24V22H29V27H35V22H40Z" fill="#FF505B"/>
<path d="M32 30.9999C30.109 30.9999 13.921 23.8419 12.164 9.53589C12.0545 10.3526 11.9997 11.1758 12 11.9999C12 27.9999 30 35.9999 32 35.9999C34 35.9999 52 27.9999 52 11.9999C52.0003 11.1758 51.9455 10.3526 51.836 9.53589C50.079 23.8419 33.891 30.9999 32 30.9999Z" fill="#F33060"/>
<path d="M42.493 41.4062L39.5 43.8002C39.032 44.1749 38.6542 44.65 38.3946 45.1904C38.1349 45.7308 38.0001 46.3227 38 46.9222V48.0002L43.26 43.4702C43.5123 43.271 43.7111 43.0122 43.8386 42.7171C43.966 42.422 44.0181 42.0999 43.9901 41.7796C43.9622 41.4594 43.855 41.1511 43.6783 40.8826C43.5017 40.6141 43.261 40.3936 42.978 40.2412C42.978 40.2792 43 40.3122 43 40.3512C42.9998 40.5538 42.9541 40.7537 42.8664 40.9363C42.7786 41.1189 42.651 41.2795 42.493 41.4062Z" fill="#EBA47A"/>
<path d="M55.75 35C55.707 35 55.665 35.008 55.622 35.01C55.892 35.0273 56.152 35.1185 56.3737 35.2736C56.5953 35.4287 56.7701 35.6418 56.8789 35.8895C56.9876 36.1372 57.0263 36.41 56.9905 36.6782C56.9547 36.9463 56.8459 37.1995 56.676 37.41L45.4 51.5C45.1362 51.829 44.8321 52.1237 44.495 52.377L41.533 54.6C41.3676 54.7244 41.2333 54.8856 41.1408 55.0707C41.0483 55.2559 41.0001 55.46 41 55.667C41 56.0205 40.8596 56.3596 40.6096 56.6096C40.3596 56.8596 40.0205 57 39.667 57H34V59H44V57L48 54L57.66 38.55C57.8822 38.1892 57.9999 37.7738 58 37.35V37.25C57.9992 36.6535 57.7619 36.0817 57.3401 35.6599C56.9183 35.2381 56.3465 35.0008 55.75 35V35Z" fill="#EBA47A"/>
<path d="M24.4995 43.8002L21.5075 41.4072C21.3491 41.2805 21.2212 41.1198 21.1333 40.937C21.0454 40.7542 20.9996 40.554 20.9995 40.3512C20.9995 40.3122 21.0185 40.2792 21.0215 40.2412C20.7384 40.3936 20.4978 40.6141 20.3211 40.8826C20.1444 41.1511 20.0373 41.4594 20.0093 41.7796C19.9813 42.0999 20.0334 42.422 20.1609 42.7171C20.2883 43.0122 20.4872 43.271 20.7395 43.4702L25.9995 48.0002V46.9222C25.9994 46.3227 25.8645 45.7308 25.6049 45.1904C25.3453 44.65 24.9675 44.1749 24.4995 43.8002Z" fill="#EBA47A"/>
<path d="M23 55.6672C22.9999 55.4602 22.9517 55.2561 22.8592 55.0709C22.7667 54.8858 22.6324 54.7246 22.467 54.6002L19.508 52.3812C19.1726 52.1276 18.8703 51.8329 18.608 51.5042L7.324 37.4062C7.15409 37.1957 7.0453 36.9425 7.00952 36.6744C6.97375 36.4062 7.01236 36.1334 7.12114 35.8857C7.22992 35.638 7.40469 35.4249 7.62634 35.2698C7.848 35.1147 8.10802 35.0235 8.378 35.0062C8.335 35.0062 8.293 34.9962 8.25 34.9962C7.65281 34.997 7.08037 35.2349 6.65847 35.6575C6.23657 36.0802 5.99973 36.653 6 37.2502V37.3502C6.00012 37.774 6.11782 38.1894 6.34 38.5502L16 54.0002L20 57.0002V59.0002H30V57.0002H24.333C23.9795 57.0002 23.6404 56.8598 23.3904 56.6098C23.1404 56.3598 23 56.0208 23 55.6672V55.6672Z" fill="#EBA47A"/>
<path d="M37 59C37 59.5304 37.2107 60.0391 37.5858 60.4142C37.9609 60.7893 38.4696 61 39 61H44V63H34V59H37Z" fill="#0065FF"/>
<path d="M23 59C23 59.5304 23.2107 60.0391 23.5858 60.4142C23.9609 60.7893 24.4696 61 25 61H30V63H20V59H23Z" fill="#0065FF"/>
<path d="M18.817 1.87794C18.381 2.11094 17.939 2.46094 18.007 2.87794C18.055 3.17194 18.348 3.39694 18.634 3.58494C19.164 3.93394 19.734 4.24494 20.3 4.55394C21.388 5.14494 22.484 5.72894 23.618 6.26394C24.3344 6.6436 25.1136 6.89058 25.918 6.99294C26.1029 7.01217 26.2897 7.00578 26.473 6.97394C26.8116 6.89497 27.117 6.71169 27.346 6.44994C27.7346 6.01971 27.9659 5.47048 28.0023 4.89186C28.0386 4.31323 27.8777 3.73938 27.546 3.26394C25.907 0.734936 21.585 0.399936 18.817 1.87794V1.87794Z" fill="#FF7D85"/>
<path d="M47.0001 7.5C46.7082 7.50005 46.4226 7.41492 46.1783 7.25506C45.9341 7.09519 45.7418 6.86754 45.6251 6.6C45.5091 6.342 44.4641 4.165 42.2121 4.486C41.8182 4.54223 41.4182 4.4397 41.0999 4.20096C40.7817 3.96223 40.5713 3.60685 40.5151 3.213C40.4588 2.81916 40.5614 2.41911 40.8001 2.10086C41.0388 1.78261 41.3942 1.57223 41.7881 1.516C43.1599 1.36573 44.5435 1.66392 45.7317 2.36591C46.9199 3.0679 47.8487 4.13591 48.3791 5.41C48.4767 5.63814 48.5161 5.88692 48.494 6.13406C48.4718 6.38121 48.3887 6.61899 48.252 6.8261C48.1153 7.03322 47.9294 7.20319 47.7109 7.32081C47.4925 7.43842 47.2482 7.49999 47.0001 7.5V7.5Z" fill="#FBFBFB"/>
</svg>
