<svg width="24" height="24" viewBox="0 0 24 24" fill="none" xmlns="http://www.w3.org/2000/svg">
<path d="M18.768 7.75886C18.389 7.32719 17.6984 7.39926 17.4151 7.89607C16.9634 8.68794 16.2019 9.59772 14.9864 9.96597C15.7072 6.77091 14.639 3.60208 12.5914 1.55419C12.2653 1.22803 11.7364 1.22803 11.4103 1.55419L5.63767 7.32681C2.12096 10.8436 2.12059 16.5359 5.63767 20.053C9.15446 23.5697 14.8467 23.5702 18.364 20.053C21.7283 16.6887 21.8822 11.3058 18.768 7.75886V7.75886ZM10.4659 20.3827C9.6177 19.5345 9.61749 18.1614 10.466 17.313L12.0008 15.778L13.5357 17.313H13.5358C14.384 18.1612 14.3842 19.5343 13.5357 20.3828C12.6889 21.2295 11.3135 21.2302 10.4659 20.3827V20.3827ZM15.6513 20.0449C16.0869 18.7122 15.7779 17.1931 14.7168 16.1319L12.5914 14.0065C12.2652 13.6804 11.7364 13.6804 11.4103 14.0065L9.28499 16.1319C8.22513 17.1917 7.91434 18.7104 8.35044 20.0449C4.15812 17.6382 3.42497 11.9016 6.81878 8.50788L11.9621 3.36449C13.4707 5.31613 14.0519 7.97578 13.0336 10.6739C12.8277 11.2196 13.2317 11.8039 13.815 11.8039C15.546 11.8039 17.0576 11.0775 18.171 9.73351C20.4151 13.2232 19.3077 17.9458 15.6513 20.0449V20.0449Z" fill="#0F62F9"/>
</svg>
