<svg width="24" height="24" viewBox="0 0 24 24" fill="none" xmlns="http://www.w3.org/2000/svg">
<path d="M2 12.0002C2 13.2234 2.22004 14.3951 2.62199 15.4784L12 16.348L21.378 15.4784C21.78 14.3951 22 13.2234 22 12.0002C22 10.777 21.78 9.60524 21.378 8.52192L12 7.65234L2.62199 8.52192C2.22004 9.60524 2 10.777 2 12.0002V12.0002Z" fill="#FFDA44"/>
<path d="M21.3781 8.52176C19.9652 4.71379 16.2997 2 12.0001 2C7.70043 2 4.035 4.71379 2.62207 8.52176H21.3781Z" fill="#D80027"/>
<path d="M2.62207 15.4785C4.035 19.2865 7.70043 22.0003 12.0001 22.0003C16.2997 22.0003 19.9652 19.2865 21.3781 15.4785H2.62207Z" fill="#D80027"/>
</svg>
