<svg width="80" height="80" viewBox="0 0 80 80" fill="none" xmlns="http://www.w3.org/2000/svg">
<path d="M59.0596 10.1639C55.6015 7.33243 51.5582 5.30371 47.2212 4.22407C42.8841 3.14442 38.3616 3.04076 33.9796 3.92055C28.3454 5.07569 23.1619 7.82606 19.0467 11.844C14.9315 15.862 12.0581 20.9783 10.7686 26.5833C9.47912 32.1883 9.82801 38.0459 11.7737 43.4582C13.7194 48.8705 17.1799 53.6095 21.7429 57.1106C26.9527 60.9236 31.3884 65.6942 34.8129 71.1672L37.1463 75.0472C37.4426 75.5401 37.8614 75.9479 38.362 76.231C38.8626 76.5141 39.4279 76.6628 40.0029 76.6628C40.578 76.6628 41.1433 76.5141 41.6439 76.231C42.1445 75.9479 42.5633 75.5401 42.8596 75.0472L45.0963 71.3206C48.0783 66.0785 52.1444 61.5329 57.0229 57.9872C60.8483 55.3553 64.0097 51.8705 66.2577 47.8076C68.5057 43.7448 69.7789 39.2152 69.9767 34.5761C70.1745 29.937 69.2916 25.3154 67.3976 21.076C65.5036 16.8365 62.6503 13.0952 59.0629 10.1472L59.0596 10.1639ZM39.9996 46.6672C37.3625 46.6672 34.7847 45.8852 32.592 44.4201C30.3994 42.9551 28.6904 40.8727 27.6812 38.4363C26.6721 36 26.408 33.3191 26.9225 30.7327C27.4369 28.1463 28.7068 25.7705 30.5715 23.9058C32.4362 22.0411 34.812 20.7712 37.3984 20.2567C39.9848 19.7423 42.6657 20.0063 45.1021 21.0155C47.5384 22.0247 49.6208 23.7336 51.0859 25.9263C52.551 28.1189 53.3329 30.6968 53.3329 33.3339C53.3329 36.8701 51.9282 40.2615 49.4277 42.762C46.9272 45.2625 43.5358 46.6672 39.9996 46.6672Z" fill="#0065FF"/>
</svg>
