<svg width="64" height="80" viewBox="0 0 64 80" fill="none" xmlns="http://www.w3.org/2000/svg">
<circle cx="33" cy="27" r="27" fill="#00E1F0"/>
<path d="M51 43V47H49C48.4701 46.9984 47.9623 46.7872 47.5875 46.4125C47.2128 46.0377 47.0016 45.5299 47 45C47.0039 44.4708 47.2159 43.9643 47.5901 43.5901C47.9644 43.2159 48.4708 43.0039 49 43H51Z" fill="#FF505B"/>
<path d="M51 39V43H49C48.4701 42.9984 47.9623 42.7872 47.5875 42.4125C47.2128 42.0377 47.0016 41.5299 47 41C47.0039 40.4708 47.2159 39.9643 47.5901 39.5901C47.9644 39.2159 48.4708 39.0039 49 39H51Z" fill="#FF505B"/>
<path d="M51 35V39H49C48.4701 38.9984 47.9623 38.7872 47.5875 38.4125C47.2128 38.0377 47.0016 37.5299 47 37C47.0039 36.4708 47.2159 35.9643 47.5901 35.5901C47.9644 35.2159 48.4708 35.0039 49 35H51Z" fill="#FF505B"/>
<path d="M53 43C53.5299 43.0016 54.0377 43.2128 54.4125 43.5875C54.7872 43.9623 54.9984 44.4701 55 45C54.9961 45.5292 54.7841 46.0357 54.4099 46.4099C54.0356 46.7841 53.5292 46.9961 53 47H51V43H53Z" fill="#006FDB"/>
<path d="M53 39C53.5299 39.0016 54.0377 39.2128 54.4125 39.5875C54.7872 39.9623 54.9984 40.4701 55 41C54.9961 41.5292 54.7841 42.0357 54.4099 42.4099C54.0356 42.7841 53.5292 42.9961 53 43H51V39H53Z" fill="#006FDB"/>
<path d="M53 35C53.5299 35.0016 54.0377 35.2128 54.4125 35.5875C54.7872 35.9623 54.9984 36.4701 55 37C54.9961 37.5292 54.7841 38.0357 54.4099 38.4099C54.0356 38.7841 53.5292 38.9961 53 39H51V35H53Z" fill="#006FDB"/>
<path d="M49 38C48.5579 37.9983 48.1288 37.8502 47.7798 37.5788C47.4308 37.3075 47.1815 36.9281 47.071 36.5C47.026 36.6629 47.0022 36.831 47 37C47.0016 37.5299 47.2128 38.0377 47.5875 38.4125C47.9623 38.7872 48.4701 38.9984 49 39H51V38H49Z" fill="#D13641"/>
<path d="M54.41 37.41C54.2266 37.598 54.0073 37.7471 53.765 37.8485C53.5228 37.9499 53.2626 38.0014 53 38H51V39H53C53.3063 39.0041 53.6094 38.9368 53.8852 38.8036C54.1611 38.6703 54.4021 38.4746 54.5893 38.2321C54.7764 37.9895 54.9045 37.7067 54.9635 37.4061C55.0225 37.1055 55.0107 36.7953 54.929 36.5C54.8431 36.8453 54.6635 37.1603 54.41 37.41Z" fill="#004080"/>
<path d="M49 42C48.5579 41.9983 48.1288 41.8502 47.7798 41.5788C47.4308 41.3075 47.1815 40.9281 47.071 40.5C47.026 40.6629 47.0022 40.831 47 41C47.0016 41.5299 47.2128 42.0377 47.5875 42.4125C47.9623 42.7872 48.4701 42.9984 49 43H51V42H49Z" fill="#D13641"/>
<path d="M54.41 41.41C54.2266 41.598 54.0073 41.7471 53.765 41.8485C53.5228 41.9499 53.2626 42.0014 53 42H51V43H53C53.3063 43.0041 53.6094 42.9368 53.8852 42.8036C54.1611 42.6703 54.4021 42.4746 54.5893 42.2321C54.7764 41.9895 54.9045 41.7067 54.9635 41.4061C55.0225 41.1055 55.0107 40.7953 54.929 40.5C54.8431 40.8453 54.6635 41.1603 54.41 41.41Z" fill="#004080"/>
<path d="M49 46C48.5579 45.9983 48.1288 45.8502 47.7798 45.5788C47.4308 45.3075 47.1815 44.9281 47.071 44.5C47.026 44.6629 47.0022 44.831 47 45C47.0016 45.5299 47.2128 46.0377 47.5875 46.4125C47.9623 46.7872 48.4701 46.9984 49 47H51V46H49Z" fill="#D13641"/>
<path d="M54.41 45.41C54.2266 45.598 54.0073 45.7471 53.765 45.8485C53.5228 45.9499 53.2626 46.0014 53 46H51V47H53C53.3063 47.0041 53.6094 46.9368 53.8852 46.8036C54.1611 46.6703 54.4021 46.4746 54.5893 46.2321C54.7764 45.9895 54.9045 45.7067 54.9635 45.4061C55.0225 45.1055 55.0107 44.7953 54.929 44.5C54.8431 44.8453 54.6635 45.1603 54.41 45.41Z" fill="#004080"/>
<path d="M51 55C51.5523 55 52 54.5523 52 54C52 53.4477 51.5523 53 51 53C50.4477 53 50 53.4477 50 54C50 54.5523 50.4477 55 51 55Z" fill="#FBFBFB"/>
<path d="M52 54C52 53.8022 51.9414 53.6089 51.8315 53.4444C51.7216 53.28 51.5654 53.1518 51.3827 53.0761C51.2 53.0004 50.9989 52.9806 50.8049 53.0192C50.6109 53.0578 50.4328 53.153 50.2929 53.2929C50.153 53.4328 50.0578 53.6109 50.0192 53.8049C49.9806 53.9989 50.0004 54.2 50.0761 54.3827C50.1518 54.5654 50.28 54.7216 50.4444 54.8315C50.6089 54.9414 50.8022 55 51 55C51.2652 55 51.5196 54.8947 51.7071 54.7071C51.8947 54.5196 52 54.2652 52 54ZM51 58C50.2089 58 49.4355 57.7654 48.7777 57.3259C48.1199 56.8864 47.6072 56.2617 47.3045 55.5307C47.0017 54.7998 46.9225 53.9956 47.0769 53.2196C47.2312 52.4437 47.6122 51.731 48.1716 51.1716C48.731 50.6122 49.4437 50.2312 50.2196 50.0769C50.9956 49.9225 51.7998 50.0017 52.5307 50.3045C53.2617 50.6072 53.8864 51.1199 54.3259 51.7777C54.7654 52.4355 55 53.2089 55 54C55 55.0609 54.5786 56.0783 53.8284 56.8284C53.0783 57.5786 52.0609 58 51 58Z" fill="#FF505B"/>
<path d="M51 32C52.1046 32 53 31.1046 53 30C53 28.8954 52.1046 28 51 28C49.8954 28 49 28.8954 49 30C49 31.1046 49.8954 32 51 32Z" fill="#E63B47"/>
<path d="M37 47.9999C37.2515 47.9776 37.5048 48.0073 37.7443 48.0873C37.9837 48.1672 38.2042 48.2956 38.3918 48.4645C38.5795 48.6334 38.7303 48.8391 38.8349 49.0689C38.9396 49.2986 38.9958 49.5474 39 49.7999C39 52.4999 35.67 53.9999 35 53.9999C34.67 53.9999 31 52.4999 31 49.7999C31.0042 49.5474 31.0604 49.2986 31.1651 49.0689C31.2697 48.8391 31.4205 48.6334 31.6082 48.4645C31.7958 48.2956 32.0163 48.1672 32.2557 48.0873C32.4952 48.0073 32.7485 47.9776 33 47.9999C33.4514 47.9972 33.8913 48.1424 34.2525 48.4132C34.6136 48.6841 34.8762 49.0657 35 49.4999C35.1238 49.0657 35.3864 48.6841 35.7475 48.4132C36.1087 48.1424 36.5486 47.9972 37 47.9999V47.9999Z" fill="#E63B47"/>
<path d="M9 28V58H43V28H9ZM35 54C34.67 54 31 52.5 31 49.8C31.0042 49.5476 31.0604 49.2987 31.1651 49.069C31.2697 48.8393 31.4205 48.6335 31.6082 48.4646C31.7958 48.2958 32.0163 48.1674 32.2557 48.0874C32.4952 48.0075 32.7485 47.9777 33 48C33.4514 47.9973 33.8913 48.1425 34.2525 48.4134C34.6136 48.6842 34.8762 49.0659 35 49.5C35.1238 49.0659 35.3864 48.6842 35.7475 48.4134C36.1087 48.1425 36.5486 47.9973 37 48C37.2515 47.9777 37.5048 48.0075 37.7443 48.0874C37.9837 48.1674 38.2042 48.2958 38.3918 48.4646C38.5795 48.6335 38.7303 48.8393 38.8349 49.069C38.9396 49.2987 38.9958 49.5476 39 49.8C39 52.5 35.67 54 35 54Z" fill="#393D48"/>
<path d="M51 32C51.3956 32 51.7822 31.8827 52.1111 31.6629C52.44 31.4432 52.6964 31.1308 52.8478 30.7654C52.9991 30.3999 53.0387 29.9978 52.9616 29.6098C52.8844 29.2219 52.6939 28.8655 52.4142 28.5858C52.1345 28.3061 51.7781 28.1156 51.3902 28.0384C51.0022 27.9613 50.6001 28.0009 50.2346 28.1522C49.8692 28.3036 49.5568 28.56 49.3371 28.8889C49.1173 29.2178 49 29.6044 49 30C49.0016 30.5299 49.2128 31.0377 49.5875 31.4125C49.9623 31.7872 50.4701 31.9984 51 32ZM9 58H43V28H9V58ZM8 25H56C56.5299 25.0016 57.0377 25.2128 57.4125 25.5875C57.7872 25.9623 57.9984 26.4701 58 27V59C57.9984 59.5299 57.7872 60.0377 57.4125 60.4125C57.0377 60.7872 56.5299 60.9984 56 61H8C7.47005 60.9984 6.96227 60.7872 6.58753 60.4125C6.2128 60.0377 6.00158 59.5299 6 59V27C6.00158 26.4701 6.2128 25.9623 6.58753 25.5875C6.96227 25.2128 7.47005 25.0016 8 25ZM51 50C50.2089 50 49.4355 50.2346 48.7777 50.6741C48.1199 51.1136 47.6072 51.7384 47.3045 52.4693C47.0017 53.2002 46.9225 54.0044 47.0769 54.7804C47.2312 55.5563 47.6122 56.269 48.1716 56.8284C48.731 57.3878 49.4437 57.7688 50.2196 57.9231C50.9956 58.0775 51.7998 57.9983 52.5307 57.6955C53.2616 57.3928 53.8864 56.8801 54.3259 56.2223C54.7654 55.5645 55 54.7911 55 54C55 52.9391 54.5786 51.9217 53.8284 51.1716C53.0783 50.4214 52.0609 50 51 50ZM51 35H49C48.4708 35.0039 47.9644 35.2159 47.5901 35.5901C47.2159 35.9643 47.0039 36.4708 47 37C47.0016 37.5299 47.2128 38.0377 47.5875 38.4125C47.9623 38.7872 48.4701 38.9984 49 39C48.4708 39.0039 47.9644 39.2159 47.5901 39.5901C47.2159 39.9643 47.0039 40.4708 47 41C47.0016 41.5299 47.2128 42.0377 47.5875 42.4125C47.9623 42.7872 48.4701 42.9984 49 43C48.4708 43.0039 47.9644 43.2159 47.5901 43.5901C47.2159 43.9643 47.0039 44.4708 47 45C47.0016 45.5299 47.2128 46.0377 47.5875 46.4125C47.9623 46.7872 48.4701 46.9984 49 47H53C53.5292 46.9961 54.0356 46.7841 54.4099 46.4099C54.7841 46.0357 54.9961 45.5292 55 45C54.9984 44.4701 54.7872 43.9623 54.4125 43.5875C54.0377 43.2128 53.5299 43.0016 53 43C53.5292 42.9961 54.0356 42.7841 54.4099 42.4099C54.7841 42.0357 54.9961 41.5292 55 41C54.9984 40.4701 54.7872 39.9623 54.4125 39.5875C54.0377 39.2128 53.5299 39.0016 53 39C53.5292 38.9961 54.0356 38.7841 54.4099 38.4099C54.7841 38.0357 54.9961 37.5292 55 37C54.9984 36.4701 54.7872 35.9623 54.4125 35.5875C54.0377 35.2128 53.5299 35.0016 53 35H51Z" fill="#EDF4FA"/>
<path d="M1.09 65.9902C1.32402 67.3891 2.04604 68.6599 3.12794 69.577C4.20985 70.4942 5.58167 70.9984 7 71.0002H57C58.4183 70.9984 59.7902 70.4942 60.8721 69.577C61.954 68.6599 62.676 67.3891 62.91 65.9902L63 66.0002V69.0002C63 70.5915 62.3679 72.1177 61.2426 73.2429C60.1174 74.3681 58.5913 75.0002 57 75.0002H7C5.4087 75.0002 3.88258 74.3681 2.75736 73.2429C1.63214 72.1177 1 70.5915 1 69.0002V66.0002L1.09 65.9902Z" fill="#393D48"/>
<path d="M63 27V65C63.0007 65.3321 62.9706 65.6635 62.91 65.99C62.676 67.3889 61.954 68.6597 60.8721 69.5768C59.7902 70.4939 58.4183 70.9982 57 71H7.00001C5.58168 70.9982 4.20986 70.4939 3.12796 69.5768C2.04606 68.6597 1.32404 67.3889 1.09001 65.99C1.02942 65.6635 0.999286 65.3321 1.00001 65V27C1.00001 25.4087 1.63215 23.8826 2.75737 22.7574C3.88259 21.6321 5.40871 21 7.00001 21H57C58.5913 21 60.1174 21.6321 61.2427 22.7574C62.3679 23.8826 63 25.4087 63 27ZM58 59V27C57.9984 26.4701 57.7872 25.9623 57.4125 25.5875C57.0377 25.2128 56.53 25.0016 56 25H8.00001C7.47007 25.0016 6.96228 25.2128 6.58755 25.5875C6.21282 25.9623 6.0016 26.4701 6.00001 27V59C6.0016 59.5299 6.21282 60.0377 6.58755 60.4125C6.96228 60.7872 7.47007 60.9984 8.00001 61H56C56.53 60.9984 57.0377 60.7872 57.4125 60.4125C57.7872 60.0377 57.9984 59.5299 58 59V59Z" fill="#006FDB"/>
<path d="M57 21H7C5.4087 21 3.88258 21.6321 2.75736 22.7574C1.63214 23.8826 1 25.4087 1 27V29C1 27.4087 1.63214 25.8826 2.75736 24.7574C3.88258 23.6321 5.4087 23 7 23H57C58.5913 23 60.1174 23.6321 61.2426 24.7574C62.3679 25.8826 63 27.4087 63 29V27C63 25.4087 62.3679 23.8826 61.2426 22.7574C60.1174 21.6321 58.5913 21 57 21Z" fill="#4AA4F2"/>
<path d="M51 50C50.2089 50 49.4355 50.2346 48.7777 50.6741C48.1199 51.1136 47.6072 51.7384 47.3045 52.4693C47.0017 53.2002 46.9225 54.0044 47.0769 54.7804C47.2312 55.5563 47.6122 56.269 48.1716 56.8284C48.731 57.3878 49.4437 57.7688 50.2196 57.9232C50.9956 58.0775 51.7998 57.9983 52.5307 57.6955C53.2617 57.3928 53.8864 56.8801 54.3259 56.2223C54.7654 55.5645 55 54.7911 55 54C55 52.9391 54.5786 51.9217 53.8284 51.1716C53.0783 50.4214 52.0609 50 51 50ZM51 57C50.4067 57 49.8266 56.8241 49.3333 56.4944C48.8399 56.1648 48.4554 55.6962 48.2284 55.1481C48.0013 54.5999 47.9419 53.9967 48.0576 53.4147C48.1734 52.8328 48.4591 52.2982 48.8787 51.8787C49.2982 51.4591 49.8328 51.1734 50.4147 51.0576C50.9967 50.9419 51.5999 51.0013 52.1481 51.2284C52.6962 51.4554 53.1648 51.8399 53.4944 52.3333C53.8241 52.8266 54 53.4067 54 54C54 54.7957 53.6839 55.5587 53.1213 56.1213C52.5587 56.6839 51.7957 57 51 57Z" fill="#E63B47"/>
<path d="M56 25H8C7.47005 25.0016 6.96227 25.2128 6.58753 25.5875C6.2128 25.9623 6.00158 26.4701 6 27V59C6.00158 59.5299 6.2128 60.0377 6.58753 60.4125C6.96227 60.7872 7.47005 60.9984 8 61H56C56.5299 60.9984 57.0377 60.7872 57.4125 60.4125C57.7872 60.0377 57.9984 59.5299 58 59V27C57.9984 26.4701 57.7872 25.9623 57.4125 25.5875C57.0377 25.2128 56.5299 25.0016 56 25V25ZM57 59C57 59.2652 56.8946 59.5196 56.7071 59.7071C56.5196 59.8946 56.2652 60 56 60H8C7.73478 60 7.48043 59.8946 7.29289 59.7071C7.10536 59.5196 7 59.2652 7 59V27C7 26.7348 7.10536 26.4804 7.29289 26.2929C7.48043 26.1054 7.73478 26 8 26H56C56.2652 26 56.5196 26.1054 56.7071 26.2929C56.8946 26.4804 57 26.7348 57 27V59Z" fill="#A8B7D4"/>
<path d="M51 27C50.4067 27 49.8266 27.1759 49.3333 27.5056C48.8399 27.8352 48.4554 28.3038 48.2284 28.8519C48.0013 29.4001 47.9419 30.0033 48.0576 30.5853C48.1734 31.1672 48.4591 31.7018 48.8787 32.1213C49.2982 32.5409 49.8328 32.8266 50.4147 32.9424C50.9967 33.0581 51.5999 32.9987 52.1481 32.7716C52.6962 32.5446 53.1648 32.1601 53.4944 31.6667C53.8241 31.1734 54 30.5933 54 30C54 29.2043 53.6839 28.4413 53.1213 27.8787C52.5587 27.3161 51.7957 27 51 27V27ZM51 32C50.6044 32 50.2178 31.8827 49.8889 31.6629C49.56 31.4432 49.3036 31.1308 49.1522 30.7654C49.0009 30.3999 48.9613 29.9978 49.0384 29.6098C49.1156 29.2219 49.3061 28.8655 49.5858 28.5858C49.8655 28.3061 50.2219 28.1156 50.6098 28.0384C50.9978 27.9613 51.3999 28.0009 51.7654 28.1522C52.1308 28.3036 52.4432 28.56 52.6629 28.8889C52.8827 29.2178 53 29.6044 53 30C52.9984 30.5299 52.7872 31.0377 52.4125 31.4125C52.0377 31.7872 51.53 31.9984 51 32Z" fill="#A8B7D4"/>
<path d="M50.0004 29.0002C50.0013 28.7173 50.0631 28.438 50.1814 28.1812C49.8842 28.3126 49.6236 28.5144 49.4219 28.7691C49.2203 29.0239 49.0838 29.324 49.0242 29.6433C48.9646 29.9627 48.9837 30.2918 49.0798 30.6022C49.176 30.9125 49.3463 31.1948 49.576 31.4245C49.8058 31.6542 50.088 31.8246 50.3984 31.9207C50.7087 32.0169 51.0378 32.036 51.3572 31.9763C51.6766 31.9167 51.9766 31.7802 52.2314 31.5786C52.4862 31.377 52.688 31.1163 52.8194 30.8192C52.5625 30.9375 52.2832 30.9992 52.0004 31.0002C51.4704 30.9986 50.9626 30.7874 50.5879 30.4126C50.2132 30.0379 50.002 29.5301 50.0004 29.0002V29.0002Z" fill="#D13641"/>
<path d="M55.5001 41C55.5001 40.6119 55.4097 40.2291 55.2361 39.882C55.0626 39.5348 54.8105 39.2329 54.5001 39C54.5928 38.9298 54.6801 38.8525 54.7611 38.769C54.9969 38.539 55.184 38.2638 55.3109 37.9599C55.4379 37.6559 55.5022 37.3294 55.5001 37C55.5001 36.337 55.2367 35.7011 54.7678 35.2322C54.299 34.7634 53.6631 34.5 53.0001 34.5H49.0001C48.3381 34.5034 47.7042 34.7679 47.2361 35.236C46.768 35.7041 46.5035 36.338 46.5001 37C46.5001 37.3881 46.5904 37.7709 46.764 38.118C46.9376 38.4652 47.1896 38.7671 47.5001 39C47.4073 39.0702 47.32 39.1475 47.2391 39.231C47.0032 39.461 46.8162 39.7362 46.6892 40.0401C46.5622 40.3441 46.4979 40.6706 46.5001 41C46.5001 41.3881 46.5904 41.7709 46.764 42.118C46.9376 42.4652 47.1896 42.7671 47.5001 43C47.4073 43.0702 47.32 43.1475 47.2391 43.231C47.0032 43.461 46.8162 43.7362 46.6892 44.0401C46.5622 44.3441 46.4979 44.6706 46.5001 45C46.5001 45.663 46.7634 46.2989 47.2323 46.7678C47.7011 47.2366 48.337 47.5 49.0001 47.5H53.0001C53.662 47.4966 54.2959 47.2321 54.7641 46.764C55.2322 46.2959 55.4966 45.662 55.5001 45C55.5001 44.6119 55.4097 44.2291 55.2361 43.882C55.0626 43.5348 54.8105 43.2329 54.5001 43C54.5928 42.9298 54.6801 42.8525 54.7611 42.769C54.9969 42.539 55.184 42.2638 55.3109 41.9599C55.4379 41.6559 55.5022 41.3294 55.5001 41ZM55.0001 45C54.9961 45.5292 54.7842 46.0357 54.4099 46.4099C54.0357 46.7841 53.5293 46.9961 53.0001 47H49.0001C48.4701 46.9984 47.9623 46.7872 47.5876 46.4125C47.2129 46.0377 47.0016 45.5299 47.0001 45C47.004 44.4708 47.216 43.9643 47.5902 43.5901C47.9644 43.2159 48.4708 43.0039 49.0001 43C48.4701 42.9984 47.9623 42.7872 47.5876 42.4125C47.2129 42.0377 47.0016 41.5299 47.0001 41C47.004 40.4708 47.216 39.9643 47.5902 39.5901C47.9644 39.2159 48.4708 39.0039 49.0001 39C48.4701 38.9984 47.9623 38.7872 47.5876 38.4125C47.2129 38.0377 47.0016 37.5299 47.0001 37C47.004 36.4708 47.216 35.9643 47.5902 35.5901C47.9644 35.2159 48.4708 35.0039 49.0001 35H53.0001C53.53 35.0016 54.0378 35.2128 54.4125 35.5875C54.7873 35.9623 54.9985 36.4701 55.0001 37C54.9961 37.5292 54.7842 38.0357 54.4099 38.4099C54.0357 38.7841 53.5293 38.9961 53.0001 39C53.53 39.0016 54.0378 39.2128 54.4125 39.5875C54.7873 39.9623 54.9985 40.4701 55.0001 41C54.9961 41.5292 54.7842 42.0357 54.4099 42.4099C54.0357 42.7841 53.5293 42.9961 53.0001 43C53.53 43.0016 54.0378 43.2128 54.4125 43.5875C54.7873 43.9623 54.9985 44.4701 55.0001 45V45Z" fill="#A8B7D4"/>
<path d="M8 59H44V27H8V59ZM9 28H43V58H9V28Z" fill="#A8B7D4"/>
<path d="M30 54C25.7565 54 21.6869 52.3143 18.6863 49.3137C15.6857 46.3131 14 42.2435 14 38V28H9V58H43V54H30Z" fill="#2B2B37"/>
<path d="M39 38H35.659L32.919 31.606C32.8419 31.4262 32.7137 31.2729 32.5504 31.1652C32.387 31.0574 32.1957 31 32 31C31.8035 31.001 31.6116 31.0598 31.4483 31.1692C31.2851 31.2786 31.1577 31.4336 31.082 31.615L26.871 41.709L22.871 34.515C22.7802 34.3516 22.6454 34.2169 22.482 34.1262C22.3185 34.0355 22.1329 33.9924 21.9461 34.0019C21.7594 34.0114 21.5791 34.073 21.4257 34.1798C21.2722 34.2866 21.1518 34.4342 21.078 34.606L18.759 40.017L16.8 37.4C16.7069 37.2758 16.5861 37.175 16.4472 37.1056C16.3084 37.0361 16.1552 37 16 37H13C12.7348 37 12.4804 37.1054 12.2929 37.2929C12.1054 37.4804 12 37.7348 12 38C12 38.2652 12.1054 38.5196 12.2929 38.7071C12.4804 38.8946 12.7348 39 13 39H15.5L18.2 42.6C18.3045 42.7412 18.4447 42.8521 18.6062 42.9211C18.7677 42.9902 18.9447 43.015 19.119 42.993C19.2933 42.972 19.459 42.9055 19.5994 42.8002C19.7398 42.6949 19.85 42.5544 19.919 42.393L22.119 37.267L26.129 44.484C26.2151 44.6397 26.3413 44.7697 26.4944 44.8604C26.6475 44.9511 26.822 44.9993 27 45H27.056C27.2435 44.9895 27.4243 44.9265 27.5776 44.8181C27.7309 44.7097 27.8506 44.5603 27.923 44.387L32.013 34.571L34.081 39.396C34.1584 39.5755 34.2867 39.7283 34.45 39.8357C34.6133 39.943 34.8046 40.0001 35 40H39C39.2652 40 39.5196 39.8946 39.7071 39.7071C39.8946 39.5196 40 39.2652 40 39C40 38.7348 39.8946 38.4804 39.7071 38.2929C39.5196 38.1054 39.2652 38 39 38V38Z" fill="#E63B47"/>
<path d="M27 47H25C24.4696 47 23.9609 47.2107 23.5858 47.5858C23.2107 47.9609 23 48.4696 23 49V53C23 53.5304 23.2107 54.0391 23.5858 54.4142C23.9609 54.7893 24.4696 55 25 55H27C27.5304 55 28.0391 54.7893 28.4142 54.4142C28.7893 54.0391 29 53.5304 29 53V49C29 48.4696 28.7893 47.9609 28.4142 47.5858C28.0391 47.2107 27.5304 47 27 47ZM27 53H25V49H27V53Z" fill="#D6E0EB"/>
<path d="M56 24H8C7.20435 24 6.44129 24.3161 5.87868 24.8787C5.31607 25.4413 5 26.2044 5 27V59C5 59.7956 5.31607 60.5587 5.87868 61.1213C6.44129 61.6839 7.20435 62 8 62H56C56.7956 62 57.5587 61.6839 58.1213 61.1213C58.6839 60.5587 59 59.7956 59 59V27C59 26.2044 58.6839 25.4413 58.1213 24.8787C57.5587 24.3161 56.7956 24 56 24V24ZM58 59C57.9984 59.5299 57.7872 60.0377 57.4125 60.4125C57.0377 60.7872 56.5299 60.9984 56 61H8C7.47005 60.9984 6.96227 60.7872 6.58753 60.4125C6.2128 60.0377 6.00158 59.5299 6 59V27C6.00158 26.4701 6.2128 25.9623 6.58753 25.5875C6.96227 25.2128 7.47005 25.0016 8 25H56C56.5299 25.0016 57.0377 25.2128 57.4125 25.5875C57.7872 25.9623 57.9984 26.4701 58 27V59Z" fill="#004080"/>
<path d="M57 71.0002H7C5.58167 70.9984 4.20985 70.4942 3.12794 69.577C2.04604 68.6599 1.32402 67.3891 1.09 65.9902L1 66.0002V69.0002C1 70.5915 1.63214 72.1177 2.75736 73.2429C3.88258 74.3681 5.4087 75.0002 7 75.0002H9C9 74.4698 9.21071 73.9611 9.58579 73.586C9.96086 73.2109 10.4696 73.0002 11 73.0002H57C58.5913 73.0002 60.1174 72.3681 61.2426 71.2429C62.3679 70.1177 63 68.5915 63 67.0002V66.0002L62.91 65.9902C62.676 67.3891 61.954 68.6599 60.8721 69.577C59.7902 70.4942 58.4183 70.9984 57 71.0002Z" fill="#2B2B37"/>
</svg>
