<svg width="48" height="48" viewBox="0 0 48 48" fill="none" xmlns="http://www.w3.org/2000/svg">
<path d="M15 8.03418H32.9998V12.9657H15V8.03418Z" fill="#0F3D91"/>
<path d="M15 8.03418H19.6875V12.9654H15V8.03418Z" fill="#003CBF"/>
<path d="M36 1.44872V7.55156C36 8.35125 35.351 9.00028 34.5513 9.00028H13.4487C12.649 9.00028 12 8.35125 12 7.55156V1.44872C12 0.649031 12.649 0 13.4487 0H34.5514C35.351 0 36 0.649031 36 1.44872V1.44872Z" fill="#F2FBFF"/>
<path d="M36 7.06866V7.55156C36 8.35163 35.3514 9.00028 34.5513 9.00028H13.4487C12.6487 9.00028 12 8.35172 12 7.55156V1.44872C12 0.648563 12.6486 0 13.4487 0H18.2777C17.478 0 16.829 0.649031 16.829 1.44872V4.17131C16.829 5.77153 18.1262 7.06866 19.7263 7.06866H36Z" fill="#DFF6FD"/>
<path d="M17.9997 6.7245C17.5997 6.7245 17.2754 6.40022 17.2754 6.00019V3.00019C17.2754 2.60016 17.5997 2.27588 17.9997 2.27588C18.3997 2.27588 18.724 2.60016 18.724 3.00019V6.00019C18.724 6.40022 18.3997 6.7245 17.9997 6.7245Z" fill="#C8EFFE"/>
<path d="M14.9997 6.7245C14.5997 6.7245 14.2754 6.40022 14.2754 6.00019V3.00019C14.2754 2.60016 14.5997 2.27588 14.9997 2.27588C15.3997 2.27588 15.724 2.60016 15.724 3.00019V6.00019C15.724 6.40022 15.3997 6.7245 14.9997 6.7245Z" fill="#C8EFFE"/>
<path d="M20.9997 6.7245C20.5997 6.7245 20.2754 6.40022 20.2754 6.00019V3.00019C20.2754 2.60016 20.5997 2.27588 20.9997 2.27588C21.3997 2.27588 21.724 2.60016 21.724 3.00019V6.00019C21.724 6.40022 21.3997 6.7245 20.9997 6.7245Z" fill="#C8EFFE"/>
<path d="M23.9997 6.7245C23.5997 6.7245 23.2754 6.40022 23.2754 6.00019V3.00019C23.2754 2.60016 23.5997 2.27588 23.9997 2.27588C24.3998 2.27588 24.724 2.60016 24.724 3.00019V6.00019C24.724 6.40022 24.3998 6.7245 23.9997 6.7245Z" fill="#C8EFFE"/>
<path d="M26.9997 6.7245C26.5996 6.7245 26.2754 6.40022 26.2754 6.00019V3.00019C26.2754 2.60016 26.5997 2.27588 26.9997 2.27588C27.3997 2.27588 27.724 2.60016 27.724 3.00019V6.00019C27.724 6.40022 27.3998 6.7245 26.9997 6.7245Z" fill="#C8EFFE"/>
<path d="M29.9997 6.7245C29.5996 6.7245 29.2754 6.40022 29.2754 6.00019V3.00019C29.2754 2.60016 29.5997 2.27588 29.9997 2.27588C30.3997 2.27588 30.724 2.60016 30.724 3.00019V6.00019C30.724 6.40022 30.3998 6.7245 29.9997 6.7245Z" fill="#C8EFFE"/>
<path d="M32.9997 6.7245C32.5996 6.7245 32.2754 6.40022 32.2754 6.00019V3.00019C32.2754 2.60016 32.5997 2.27588 32.9997 2.27588C33.3997 2.27588 33.724 2.60016 33.724 3.00019V6.00019C33.724 6.40022 33.3998 6.7245 32.9997 6.7245Z" fill="#C8EFFE"/>
<path d="M15 12.0059L10.1604 15.6307C9.43003 16.1779 9 17.0371 9 17.9497V45.1023C9 46.7025 10.2972 47.9996 11.8973 47.9996H36.1024C37.7026 47.9996 38.9997 46.7024 38.9997 45.1023V17.9486C38.9997 17.0366 38.5703 16.1779 37.8408 15.6307L32.9998 12L15 12.0059Z" fill="#003CBF"/>
<path d="M12.0039 44.3402V42.0067L12.9414 40.4065V22.7346L12.0039 20.9952V18.3317C12.0039 18.125 12.1013 17.9303 12.2668 17.8064L15.8261 15.1404C15.9395 15.0554 16.0775 15.0095 16.2193 15.0095L31.7805 15.0044C31.9225 15.0044 32.0608 15.0504 32.1744 15.1356L35.734 17.8053C35.8993 17.9292 35.9965 18.1237 35.9965 18.3303V20.9952L35.059 22.6175V40.5003L35.9965 42.0067V44.3402C35.9965 44.7026 35.7027 44.9964 35.3402 44.9964H12.6602C12.2977 44.9964 12.0039 44.7026 12.0039 44.3402V44.3402Z" fill="#0065FF"/>
<path d="M13.829 45.1028C13.829 46.7031 15.126 48.0002 16.7263 48.0002H11.8973C10.297 48.0002 9 46.7031 9 45.1028V17.9504C9 17.0377 9.42975 16.1781 10.1599 15.6305L14.9994 12.0059H19.8284L14.9888 15.6305C14.7735 15.7918 14.5852 15.9801 14.4258 16.1887C14.0433 16.689 13.8289 17.3061 13.8289 17.9503V45.1028H13.829Z" fill="#0065FF"/>
<path d="M14.4261 16.1885C14.0436 16.6887 13.8292 17.3059 13.8292 17.95V44.9962H12.6602C12.2977 44.9962 12.0039 44.7023 12.0039 44.3399V18.3315C12.0039 18.1248 12.1013 17.9303 12.2667 17.8063L14.4261 16.1885Z" fill="#0065FF"/>
<path d="M12 20.9951H35.9998V42.0067H12V20.9951Z" fill="#F2FBFF"/>
<path d="M12 20.9946H13.8292V42.0065H12V20.9946Z" fill="#DFF6FD"/>
<path d="M19.5006 29.2483V33.7538C19.5006 34.9967 18.4932 36.004 17.2503 36.004C16.0073 36.004 15 34.9967 15 33.7538V29.2483C15 28.0053 16.0073 26.998 17.2503 26.998C17.8713 26.998 18.4343 27.2501 18.8419 27.6567C19.2485 28.0643 19.5006 28.6264 19.5006 29.2483Z" fill="#00E1F0"/>
<path d="M18.2161 35.7867C17.9235 35.9258 17.596 36.004 17.2503 36.004C16.0073 36.004 15 34.9967 15 33.7538V29.2483C15 28.0053 16.0073 26.998 17.2503 26.998C17.596 26.998 17.9234 27.0762 18.2161 27.2154C17.456 27.5766 16.9316 28.3511 16.9316 29.2483V33.7538C16.9316 34.651 17.4561 35.4255 18.2161 35.7867Z" fill="#7FF0F7"/>
<path d="M19.5006 29.2483V31.4977H15V29.2483C15 28.0053 16.0073 26.998 17.2503 26.998C17.8713 26.998 18.4343 27.2501 18.8419 27.6567C19.2485 28.0643 19.5006 28.6264 19.5006 29.2483Z" fill="#003CBF"/>
<path d="M18.2161 27.2154C17.456 27.5766 16.9316 28.3511 16.9316 29.2483V31.4977H15V29.2483C15 28.0053 16.0073 26.998 17.2503 26.998C17.5961 26.998 17.9235 27.0762 18.2161 27.2154Z" fill="#0065FF"/>
<path d="M32.9996 27.7221H23.9997C23.5997 27.7221 23.2754 27.3978 23.2754 26.9977C23.2754 26.5977 23.5997 26.2734 23.9997 26.2734H32.9996C33.3997 26.2734 33.7239 26.5977 33.7239 26.9977C33.7239 27.3977 33.3997 27.7221 32.9996 27.7221Z" fill="#5680A6"/>
<path d="M32.9996 30.7133H23.9997C23.5997 30.7133 23.2754 30.389 23.2754 29.989C23.2754 29.5889 23.5997 29.2646 23.9997 29.2646H32.9996C33.3997 29.2646 33.7239 29.5889 33.7239 29.989C33.7239 30.389 33.3997 30.7133 32.9996 30.7133Z" fill="#5680A6"/>
<path d="M32.9996 33.7133H23.9997C23.5997 33.7133 23.2754 33.389 23.2754 32.989C23.2754 32.5889 23.5997 32.2646 23.9997 32.2646H32.9996C33.3997 32.2646 33.7239 32.5889 33.7239 32.989C33.7239 33.389 33.3997 33.7133 32.9996 33.7133Z" fill="#5680A6"/>
<path d="M32.9996 36.7133H23.9997C23.5997 36.7133 23.2754 36.389 23.2754 35.989C23.2754 35.5889 23.5997 35.2646 23.9997 35.2646H32.9996C33.3997 35.2646 33.7239 35.5889 33.7239 35.989C33.7239 36.389 33.3997 36.7133 32.9996 36.7133Z" fill="#5680A6"/>
</svg>
