<svg width="64" height="62" viewBox="0 0 64 62" fill="none" xmlns="http://www.w3.org/2000/svg">
<g clip-path="url(#clip0_0_6891)">
<path d="M52 61.0133H12C5.372 61.0133 0 55.892 0 49.5733V11.44C0 5.12131 5.372 0 12 0H52C58.628 0 64 5.12131 64 11.44V49.5733C64 55.892 58.628 61.0133 52 61.0133Z" fill="#F2F6FE"/>
<path d="M31.9995 41.9465C26.9875 41.9465 21.9775 40.139 17.0035 36.5201C16.4495 36.1159 16.1015 35.5344 16.0175 34.8823C15.9355 34.234 16.1275 33.5972 16.5595 33.0881C26.6475 21.1715 37.3535 21.1715 47.4395 33.0881C47.8695 33.5972 48.0635 34.234 47.9815 34.8823C47.8995 35.5344 47.5515 36.1159 46.9975 36.5182C42.0215 40.1371 37.0095 41.9465 31.9995 41.9465V41.9465ZM18.7315 34.5753C27.6595 41.0141 36.3415 41.0141 45.2695 34.5753C40.7895 29.3206 36.3255 26.6569 32.0015 26.6569C27.6775 26.6569 23.2095 29.3187 18.7315 34.5753V34.5753Z" fill="#00E1F0"/>
<path d="M32 37.4985C29.426 37.4985 27.334 35.5022 27.334 33.0503C27.334 30.5983 29.426 28.6001 32 28.6001C34.574 28.6001 36.666 30.5964 36.666 33.0484C36.666 35.5003 34.574 37.4985 32 37.4985V37.4985Z" fill="#0065FF"/>
<path d="M32 22.2832C31.264 22.2832 30.666 21.7131 30.666 21.0115V20.3384C30.666 19.6348 31.264 19.0667 32 19.0667C32.736 19.0667 33.334 19.6367 33.334 20.3384V21.0115C33.334 21.7131 32.736 22.2832 32 22.2832Z" fill="#0065FF"/>
<path d="M22.882 24.5714C22.464 24.5714 22.052 24.3846 21.792 24.0337L21.246 23.2959C20.82 22.7239 20.964 21.9307 21.566 21.5246C22.168 21.1184 23 21.2557 23.424 21.8296L23.97 22.5675C24.396 23.1395 24.252 23.9327 23.65 24.3388C23.416 24.4951 23.148 24.5714 22.882 24.5714Z" fill="#00E1F0"/>
<path d="M41.1173 24.5711C40.8513 24.5711 40.5833 24.4948 40.3493 24.3385C39.7473 23.9323 39.6053 23.1392 40.0293 22.5672L40.5753 21.8293C41.0013 21.2554 41.8333 21.12 42.4333 21.5242C43.0353 21.9303 43.1773 22.7235 42.7533 23.2955L42.2073 24.0334C41.9473 24.3842 41.5373 24.5711 41.1173 24.5711V24.5711Z" fill="#00E1F0"/>
<path d="M17.7978 29.502C17.5638 29.502 17.3278 29.4429 17.1138 29.3208L16.6478 29.0539C16.0158 28.6935 15.8118 27.9118 16.1898 27.3112C16.5678 26.7106 17.3898 26.5142 18.0178 26.8746L18.4838 27.1415C19.1158 27.5019 19.3198 28.2836 18.9418 28.8842C18.6938 29.2827 18.2518 29.502 17.7978 29.502Z" fill="#0065FF"/>
<path d="M46.2019 29.5017C45.7479 29.5017 45.3079 29.2824 45.0579 28.8839C44.6799 28.2814 44.8839 27.5016 45.5159 27.1412L45.9819 26.8743C46.6119 26.5139 47.4319 26.7084 47.8099 27.3109C48.1879 27.9134 47.9839 28.6932 47.3519 29.0536L46.8859 29.3205C46.6719 29.4445 46.4339 29.5017 46.2019 29.5017V29.5017Z" fill="#0065FF"/>
</g>
<defs>
<clipPath id="clip0_0_6891">
<rect width="64" height="61.0133" fill="white"/>
</clipPath>
</defs>
</svg>
