<svg width="48" height="48" viewBox="0 0 48 48" fill="none" xmlns="http://www.w3.org/2000/svg">
<g clip-path="url(#clip0_892_1513)">
<path d="M34.5014 10.5016H31.4979V5.89727C31.4979 5.12777 30.8718 4.5017 30.1023 4.5017H17.8972C17.1277 4.5017 16.5016 5.12777 16.5016 5.89727V10.5016H13.498V5.89727C13.498 3.47158 15.4715 1.49805 17.8973 1.49805H30.1023C32.528 1.49805 34.5015 3.47148 34.5015 5.89727V10.5016H34.5014Z" fill="#C8EFFE"/>
<path d="M17.9999 11.4673H12V8.15771C12 7.79528 12.2938 7.50146 12.6562 7.50146H17.3437C17.7061 7.50146 17.9999 7.79528 17.9999 8.15771V11.4673Z" fill="#0065FF"/>
<path d="M36 11.4673H30V8.15771C30 7.79528 30.2938 7.50146 30.6562 7.50146H35.3438C35.7062 7.50146 36 7.79528 36 8.15771V11.4673Z" fill="#0065FF"/>
<path d="M47.3434 46.5013H0.65625C0.293813 46.5013 0 46.2075 0 45.845V22.5015H47.9996V45.845C47.9996 46.2075 47.7058 46.5013 47.3434 46.5013Z" fill="#C8EFFE"/>
<path d="M48 22.5015V24.4331H7.72631C6.12609 24.4331 4.82897 25.7303 4.82897 27.3304V46.5015H0.65625C0.293813 46.5015 0 46.2077 0 45.8452V22.5015H48Z" fill="#99E6FC"/>
<path d="M44.3434 43.4897H3.65625C3.29381 43.4897 3 43.1959 3 42.8335V22.5015H44.9996V42.8335C44.9996 43.1959 44.7058 43.4897 44.3434 43.4897Z" fill="#7FF0F7"/>
<path d="M45.0006 22.5015V24.4331H7.72659C7.65028 24.4331 7.575 24.436 7.50056 24.4427C6.00553 24.5577 4.82916 25.8064 4.82916 27.3304V43.4901H3.65625C3.29381 43.4901 3 43.1963 3 42.8339V22.5015H45.0006Z" fill="#00E1F0"/>
<path d="M11.9996 22.4897V24.4329L9.74981 25.3704C9.74981 25.3704 7.57434 24.4358 7.5 24.4426V22.4897H11.9996Z" fill="#02CFE0"/>
<path d="M40.4996 22.4897V24.4329L38.2498 25.3704L36 24.4329V22.4897H40.4996Z" fill="#02CFE0"/>
<path d="M7.5 43.4892H12V38.1455C12 37.7831 11.7062 37.4893 11.3438 37.4893H8.15625C7.79381 37.4893 7.5 37.7831 7.5 38.1455V43.4892Z" fill="#00E1F0"/>
<path d="M36 43.4892H40.5V38.1455C40.5 37.7831 40.2062 37.4893 39.8438 37.4893H36.6562C36.2938 37.4893 36 37.7831 36 38.1455V43.4892Z" fill="#00E1F0"/>
<path d="M47.9996 22.5014H0V11.1577C0 10.7953 0.293813 10.5015 0.65625 10.5015H47.3434C47.7058 10.5015 47.9996 10.7953 47.9996 11.1577V22.5014Z" fill="#F2FBFF"/>
<path d="M4.82897 10.5015V22.5015H0V11.1577C0 10.7953 0.293813 10.5015 0.65625 10.5015H4.82897Z" fill="#DFF6FD"/>
<path d="M44.9961 13.5054V19.4981H3.00359V13.5054H44.9961Z" fill="#0065FF"/>
<path d="M3.00391 13.5049H4.82922V19.4977H3.00391V13.5049Z" fill="#003CBF"/>
<path d="M23.9999 40.5013C28.142 40.5013 31.4998 37.1435 31.4998 33.0014C31.4998 28.8593 28.142 25.5015 23.9999 25.5015C19.8578 25.5015 16.5 28.8593 16.5 33.0014C16.5 37.1435 19.8578 40.5013 23.9999 40.5013Z" fill="#0065FF"/>
<path d="M27.8438 31.5015H26.1562C25.7938 31.5015 25.5 31.2077 25.5 30.8452V29.1577C25.5 28.7953 25.2062 28.5015 24.8438 28.5015H23.1562C22.7938 28.5015 22.5 28.7953 22.5 29.1577V30.8452C22.5 31.2077 22.2062 31.5015 21.8438 31.5015H20.1562C19.7938 31.5015 19.5 31.7953 19.5 32.1577V33.8452C19.5 34.2077 19.7938 34.5015 20.1562 34.5015H21.8438C22.2062 34.5015 22.5 34.7953 22.5 35.1577V36.8452C22.5 37.2077 22.7938 37.5015 23.1562 37.5015H24.8438C25.2062 37.5015 25.5 37.2077 25.5 36.8452V35.1577C25.5 34.7953 25.7938 34.5015 26.1562 34.5015H27.8438C28.2062 34.5015 28.5 34.2077 28.5 33.8452V32.1577C28.5 31.7953 28.2062 31.5015 27.8438 31.5015Z" fill="#F2FBFF"/>
<path d="M40.4996 24.4331V27.8332C40.4996 28.1957 40.2058 28.4895 39.8434 28.4895H36.6563C36.2938 28.4895 36 28.1957 36 27.8332V24.4331H40.4996Z" fill="#00E1F0"/>
<path d="M11.9996 24.4331V27.8332C11.9996 28.1957 11.7058 28.4895 11.3434 28.4895H8.15625C7.79381 28.4895 7.5 28.1957 7.5 27.8332V24.4428C7.57434 24.436 7.64972 24.4331 7.72603 24.4331H11.9996Z" fill="#00E1F0"/>
</g>
<defs>
<clipPath id="clip0_892_1513">
<rect width="48" height="48" fill="white"/>
</clipPath>
</defs>
</svg>
