<svg width="32" height="32" viewBox="0 0 32 32" fill="none" xmlns="http://www.w3.org/2000/svg">
<path d="M30 15C30 15.1326 29.9473 15.2598 29.8536 15.3536C29.7598 15.4473 29.6326 15.5 29.5 15.5H22.5C22.3674 15.5 22.2402 15.4473 22.1464 15.3536C22.0527 15.2598 22 15.1326 22 15V14C22 13.8674 22.0527 13.7402 22.1464 13.6464C22.2402 13.5527 22.3674 13.5 22.5 13.5H29.5C29.6326 13.5 29.7598 13.5527 29.8536 13.6464C29.9473 13.7402 30 13.8674 30 14V15Z" fill="#006FDB"/>
<path d="M30.5 21V30.5C30.4992 30.765 30.3936 31.0189 30.2062 31.2062C30.0189 31.3936 29.765 31.4992 29.5 31.5H22.5C22.235 31.4992 21.9811 31.3936 21.7938 31.2062C21.6064 31.0189 21.5008 30.765 21.5 30.5V21H30.5Z" fill="#006FDB"/>
<path d="M19 21.5V30.5C18.9992 30.765 18.8936 31.0189 18.7062 31.2062C18.5189 31.3936 18.265 31.4992 18 31.5H14C13.735 31.4992 13.4811 31.3936 13.2938 31.2062C13.1064 31.0189 13.0008 30.765 13 30.5V21.5H19Z" fill="#006FDB"/>
<path d="M19 21.5H13V20.97C12.9988 20.6609 13.0708 20.3559 13.21 20.08L14.5 17.5L13.655 15.815C13.5539 15.6106 13.5256 15.3777 13.575 15.155L14.83 9.29C14.8781 9.06597 15.0017 8.86527 15.1801 8.72146C15.3585 8.57766 15.5809 8.49948 15.81 8.5H16.19C16.4192 8.49948 16.6415 8.57766 16.8199 8.72146C16.9983 8.86527 17.1219 9.06597 17.17 9.29L18.425 15.155C18.4744 15.3777 18.4462 15.6106 18.345 15.815L17.5 17.5L18.79 20.08C18.9293 20.3559 19.0012 20.6609 19 20.97V21.5Z" fill="#EDF4FA"/>
<path d="M18 30C17.0717 30 16.1815 29.6313 15.5251 28.9749C14.8687 28.3185 14.5 27.4283 14.5 26.5V21.5H13V30.5C13.0008 30.765 13.1064 31.0189 13.2938 31.2062C13.4811 31.3936 13.735 31.4992 14 31.5H18C18.265 31.4992 18.5189 31.3936 18.7062 31.2062C18.8936 31.0189 18.9992 30.765 19 30.5V29C18.9992 29.265 18.8936 29.5189 18.7062 29.7062C18.5189 29.8936 18.265 29.9992 18 30V30Z" fill="#004080"/>
<path d="M23 15.5H29V17.5H23V15.5Z" fill="#D6E0EB"/>
<path d="M30.055 18.205C30.1922 18.2955 30.3048 18.4188 30.3825 18.5637C30.4601 18.7086 30.5005 18.8706 30.5 19.035V21H21.5V19.035C21.4995 18.8706 21.5399 18.7086 21.6176 18.5637C21.6952 18.4188 21.8078 18.2955 21.945 18.205L23 17.5H29L30.055 18.205Z" fill="#EDF4FA"/>
<path d="M29 14.5H23.5C23.3674 14.5 23.2402 14.4473 23.1464 14.3536C23.0527 14.2598 23 14.1326 23 14C23 13.8674 23.0527 13.7402 23.1464 13.6464C23.2402 13.5527 23.3674 13.5 23.5 13.5H22.5C22.3674 13.5 22.2402 13.5527 22.1464 13.6464C22.0527 13.7402 22 13.8674 22 14V15C22 15.1326 22.0527 15.2598 22.1464 15.3536C22.2402 15.4473 22.3674 15.5 22.5 15.5H29.5C29.6326 15.5 29.7598 15.4473 29.8536 15.3536C29.9473 15.2598 30 15.1326 30 15V14C29.9988 13.928 29.9817 13.8572 29.95 13.7925C29.8882 13.9965 29.7625 14.1754 29.5915 14.3027C29.4205 14.4301 29.2132 14.4992 29 14.5V14.5Z" fill="#005EBA"/>
<path d="M29 15.5H23V17.5H24C24 17.2348 24.1054 16.9804 24.2929 16.7929C24.4804 16.6054 24.7348 16.5 25 16.5H29V15.5Z" fill="#A8B7D4"/>
<path d="M29.5 30H29C27.4087 30 25.8826 29.3679 24.7574 28.2426C23.6321 27.1174 23 25.5913 23 24V21H21.5V30.5C21.5008 30.765 21.6064 31.0189 21.7938 31.2062C21.9811 31.3936 22.235 31.4992 22.5 31.5H29.5C29.765 31.4992 30.0189 31.3936 30.2062 31.2062C30.3936 31.0189 30.4992 30.765 30.5 30.5V29C30.5 29.2652 30.3946 29.5196 30.2071 29.7071C30.0196 29.8946 29.7652 30 29.5 30Z" fill="#004080"/>
<path d="M23 19.3285C23 19.0658 23.0517 18.8057 23.1523 18.563C23.2528 18.3203 23.4002 18.0997 23.586 17.914L24 17.5H23L21.945 18.205C21.8078 18.2955 21.6952 18.4188 21.6176 18.5637C21.5399 18.7086 21.4995 18.8706 21.5 19.035V21H23V19.3285Z" fill="#C1CFE8"/>
<path d="M28.5 24H29.5V25H28.5V24Z" fill="#0DCEF9"/>
<path d="M28.5 22H29.5V23H28.5V22Z" fill="#0DCEF9"/>
<path d="M17 24.5H18V25.5H17V24.5Z" fill="#0DCEF9"/>
<path d="M17 22.5H18V23.5H17V22.5Z" fill="#0DCEF9"/>
<path d="M16.8555 15.5C16.6319 15.5 16.411 15.4501 16.2092 15.3537C16.0073 15.2574 15.8296 15.1171 15.6889 14.9432C15.5483 14.7693 15.4483 14.5662 15.3964 14.3486C15.3444 14.1311 15.3417 13.9047 15.3885 13.686L16.33 9.29C16.3855 9.03839 16.5359 8.8179 16.75 8.6745C16.5851 8.56144 16.39 8.50064 16.19 8.5H15.81C15.5809 8.49948 15.3585 8.57766 15.1801 8.72146C15.0017 8.86527 14.8781 9.06597 14.83 9.29L13.575 15.155C13.5256 15.3777 13.5539 15.6106 13.655 15.815L14.5 17.5L13.21 20.08C13.0708 20.3559 12.9988 20.6609 13 20.97V21.5H14.5V20.97C14.4988 20.6609 14.5708 20.3559 14.71 20.08L15.7235 18.053C15.8065 17.8868 15.9342 17.7471 16.0922 17.6494C16.2502 17.5517 16.4323 17.5 16.618 17.5H17.5L18.345 15.815C18.3935 15.7159 18.4255 15.6095 18.4395 15.5H16.8555Z" fill="#C1CFE8"/>
<path d="M28.9996 20.4995C28.867 20.4995 28.7398 20.4469 28.646 20.3531C28.5523 20.2593 28.4996 20.1321 28.4996 19.9995V19.6175C28.4995 19.5247 28.4736 19.4337 28.4248 19.3548C28.376 19.2758 28.3061 19.212 28.2231 19.1705L27.7761 18.947C27.7168 18.918 27.6639 18.8775 27.6204 18.8279C27.5768 18.7783 27.5435 18.7206 27.5224 18.6581C27.5013 18.5956 27.4927 18.5295 27.4973 18.4637C27.5018 18.3979 27.5193 18.3336 27.5488 18.2745C27.5783 18.2155 27.6192 18.1629 27.6691 18.1198C27.7191 18.0766 27.777 18.0438 27.8397 18.0231C27.9024 18.0025 27.9685 17.9945 28.0343 17.9995C28.1001 18.0046 28.1643 18.0226 28.2231 18.0525L28.6706 18.276C28.9203 18.3999 29.1303 18.5912 29.2768 18.8283C29.4233 19.0654 29.5005 19.3388 29.4996 19.6175V19.9995C29.4996 20.1321 29.4469 20.2593 29.3531 20.3531C29.2594 20.4469 29.1322 20.4995 28.9996 20.4995V20.4995Z" fill="white"/>
<path d="M9 18V20H6.5H4V18H9Z" fill="#A8B7D4"/>
<path d="M9 8V18H4V8L5 7H8L9 8Z" fill="#006FDB"/>
<path d="M8 5V7H5V5L5.5 4.5H7.5L8 5Z" fill="#005EBA"/>
<path d="M6.5 24H8V31.5H5V24H6.5Z" fill="#A8B7D4"/>
<path d="M6.5 20V24H5H4V20H6.5Z" fill="#EDF4FA"/>
<path d="M9 20V24H8H6.5V20H9Z" fill="#EDF4FA"/>
<path d="M9 30.5H4C3.72386 30.5 3.5 30.7239 3.5 31C3.5 31.2761 3.72386 31.5 4 31.5H9C9.27614 31.5 9.5 31.2761 9.5 31C9.5 30.7239 9.27614 30.5 9 30.5Z" fill="#D6E0EB"/>
<path d="M6 20H7V30.5H6V20Z" fill="#8394B2"/>
<path d="M6.5 0.5C6.63261 0.5 6.75979 0.552678 6.85355 0.646447C6.94732 0.740215 7 0.867392 7 1V4.5H6V1C6 0.867392 6.05268 0.740215 6.14645 0.646447C6.24021 0.552678 6.36739 0.5 6.5 0.5V0.5Z" fill="#C1CFE8"/>
<path d="M6.5 4.5H5.5L5 5H8L7.5 4.5H6.5Z" fill="#C1CFE8"/>
<path d="M6 5.5V5H5V7H8V6.5H7C6.73478 6.5 6.48043 6.39464 6.29289 6.20711C6.10536 6.01957 6 5.76522 6 5.5Z" fill="#004080"/>
<path d="M8 7H5L4 8H9L8 7Z" fill="#4AA4F2"/>
<path d="M8 16.5C7.33696 16.5 6.70107 16.2366 6.23223 15.7678C5.76339 15.2989 5.5 14.663 5.5 14V8H4V18H9V15.5C9 15.7652 8.89464 16.0196 8.70711 16.2071C8.51957 16.3946 8.26522 16.5 8 16.5V16.5Z" fill="#004080"/>
<path d="M6 7H5L4 8H5.5L6 7Z" fill="#006FDB"/>
<path d="M6.5 9.5H9V10.5H6.5C6.36739 10.5 6.24021 10.4473 6.14645 10.3536C6.05268 10.2598 6 10.1326 6 10C6 9.86739 6.05268 9.74021 6.14645 9.64645C6.24021 9.55268 6.36739 9.5 6.5 9.5V9.5Z" fill="#EDF4FA"/>
<path d="M6.5 12.5H9V13.5H6.5C6.36739 13.5 6.24021 13.4473 6.14645 13.3536C6.05268 13.2598 6 13.1326 6 13C6 12.8674 6.05268 12.7402 6.14645 12.6464C6.24021 12.5527 6.36739 12.5 6.5 12.5V12.5Z" fill="#EDF4FA"/>
<path d="M6.5 15.5H9V16.5H6.5C6.36739 16.5 6.24021 16.4473 6.14645 16.3536C6.05268 16.2598 6 16.1326 6 16C6 15.8674 6.05268 15.7402 6.14645 15.6464C6.24021 15.5527 6.36739 15.5 6.5 15.5V15.5Z" fill="#EDF4FA"/>
<path d="M8 16.5H9V15.5C9 15.7652 8.89464 16.0196 8.70711 16.2071C8.51957 16.3946 8.26522 16.5 8 16.5V16.5Z" fill="#A8B7D4"/>
<path d="M6.50008 16.5002H8.00008C7.64794 16.4994 7.29999 16.4238 6.97932 16.2783C6.65865 16.1328 6.37258 15.9207 6.14008 15.6562C6.07299 15.727 6.02806 15.8159 6.01081 15.9118C5.99357 16.0078 6.00476 16.1067 6.04302 16.1964C6.08128 16.2861 6.14493 16.3627 6.22614 16.4167C6.30735 16.4706 6.40257 16.4997 6.50008 16.5002Z" fill="#A8B7D4"/>
<path d="M4 18.5H9V19.5H4V18.5Z" fill="#8394B2"/>
<path d="M4 20H6V21H4V20Z" fill="#D6E0EB"/>
<path d="M7 20H9V21H7V20Z" fill="#D6E0EB"/>
<path d="M6 20H7V21H6V20Z" fill="#606C82"/>
<path d="M5 24H6V25.5H5V24Z" fill="#8394B2"/>
<path d="M7 24H8V25.5H7V24Z" fill="#8394B2"/>
<path d="M6 24H7V25.5H6V24Z" fill="#606C82"/>
<path d="M11 23.5H2C1.72386 23.5 1.5 23.7239 1.5 24C1.5 24.2761 1.72386 24.5 2 24.5H11C11.2761 24.5 11.5 24.2761 11.5 24C11.5 23.7239 11.2761 23.5 11 23.5Z" fill="#D6E0EB"/>
<path d="M11 24H2C1.9137 23.999 1.82917 23.9754 1.75485 23.9316C1.68053 23.8877 1.61903 23.8251 1.5765 23.75C1.52876 23.8248 1.50231 23.9113 1.5 24C1.5 24.1326 1.55268 24.2598 1.64645 24.3536C1.74021 24.4473 1.86739 24.5 2 24.5H11C11.1326 24.5 11.2598 24.4473 11.3536 24.3536C11.4473 24.2598 11.5 24.1326 11.5 24C11.4977 23.9113 11.4712 23.8248 11.4235 23.75C11.381 23.8251 11.3195 23.8877 11.2451 23.9316C11.1708 23.9754 11.0863 23.999 11 24V24Z" fill="#C1CFE8"/>
<path d="M9 31H4C3.9137 30.999 3.82917 30.9754 3.75485 30.9316C3.68053 30.8877 3.61903 30.8251 3.5765 30.75C3.52876 30.8248 3.50231 30.9113 3.5 31C3.5 31.1326 3.55268 31.2598 3.64645 31.3536C3.74021 31.4473 3.86739 31.5 4 31.5H9C9.13261 31.5 9.25979 31.4473 9.35355 31.3536C9.44732 31.2598 9.5 31.1326 9.5 31C9.49769 30.9113 9.47124 30.8248 9.4235 30.75C9.38097 30.8251 9.31947 30.8877 9.24515 30.9316C9.17083 30.9754 9.0863 30.999 9 31V31Z" fill="#C1CFE8"/>
</svg>
