<svg width="64" height="62" viewBox="0 0 64 62" fill="none" xmlns="http://www.w3.org/2000/svg">
<g clip-path="url(#clip0_0_6904)">
<path d="M52.0003 61.5221H12.0001C5.37203 61.5221 0 56.3581 0 49.9867V11.5354C0 5.16401 5.37203 0 12.0001 0H52.0003C58.6283 0 64.0004 5.16401 64.0004 11.5354V49.9867C64.0004 56.3581 58.6283 61.5221 52.0003 61.5221Z" fill="#F2F6FE"/>
<path d="M42.6658 41.0138C42.3238 41.0138 41.9838 40.8889 41.7238 40.6389L40.3898 39.3566C39.8698 38.8567 39.8698 38.0454 40.3898 37.5436C40.9098 37.0418 41.7538 37.0437 42.2758 37.5436L43.6098 38.826C44.1298 39.3258 44.1298 40.1371 43.6098 40.6389C43.3478 40.8889 43.0078 41.0138 42.6658 41.0138Z" fill="#0065FF"/>
<path d="M44.0001 35.8884H42.6661C41.9301 35.8884 41.3321 35.3135 41.3321 34.606C41.3321 33.8985 41.9301 33.3237 42.6661 33.3237H44.0001C44.7361 33.3237 45.3341 33.8985 45.3341 34.606C45.3341 35.3135 44.7361 35.8884 44.0001 35.8884Z" fill="#0065FF"/>
<path d="M37.3339 42.2964C36.5959 42.2964 35.9999 41.7235 35.9999 41.0141V39.7317C35.9999 39.0262 36.5959 38.4513 37.3339 38.4513C38.0719 38.4513 38.6679 39.0262 38.6679 39.7337V41.016C38.6659 41.7235 38.0699 42.2964 37.3339 42.2964Z" fill="#0065FF"/>
<path d="M37.9305 32.0415C37.7805 32.0415 37.6265 32.0357 37.4705 32.0223C35.1625 31.832 33.5305 30.8899 32.4784 29.1423C31.8564 28.1118 31.9524 27.2774 32.1424 26.7583C32.3344 26.2315 32.8164 25.5086 34.0125 25.0626C36.8805 23.9936 38.1385 22.1153 37.9725 19.1526C37.9025 17.9087 38.4425 17.0301 39.6245 16.4668C41.0805 15.7708 42.6205 15.5305 43.6505 15.4094C44.7905 15.2767 45.7445 15.6151 46.2705 16.3399C46.7985 17.0666 46.8025 18.0491 46.2785 19.0373C45.7645 20.0043 45.1705 20.9271 44.5945 21.8231L44.0685 22.6421C42.5785 24.9972 41.7305 27.0505 41.4025 29.1077C41.0985 30.9918 39.8445 32.0415 37.9305 32.0415V32.0415Z" fill="#0065FF"/>
<path d="M21.6787 46.1415C21.0247 46.1415 20.4326 46.0992 19.9486 46.055C18.7466 45.9454 17.8506 45.3975 17.4926 44.5535C17.1446 43.7306 17.3706 42.7732 18.1146 41.9272C18.8586 41.0813 19.6766 40.295 20.4687 39.5355L21.1927 38.8377C23.2527 36.8305 24.5807 34.9829 25.3747 33.0257C26.1567 31.1012 27.8427 30.3553 30.0047 30.984C32.3147 31.6549 33.7727 32.9238 34.4627 34.8618C34.8687 35.998 34.5967 36.7997 34.2967 37.2727C33.9847 37.7629 33.3347 38.3859 32.0007 38.5723C28.7927 39.0203 27.0727 40.6064 26.5847 43.5653C26.3787 44.8111 25.6327 45.5647 24.3027 45.8685C23.3927 46.0761 22.4887 46.1415 21.6787 46.1415V46.1415Z" fill="#00E1F0"/>
</g>
<defs>
<clipPath id="clip0_0_6904">
<rect width="63.4711" height="61.0133" fill="white" transform="scale(1.00834)"/>
</clipPath>
</defs>
</svg>
