<svg width="64" height="64" viewBox="0 0 64 64" fill="none" xmlns="http://www.w3.org/2000/svg">
<g clip-path="url(#clip0_0_8160)">
<path d="M51.5703 64H11.9008C5.3276 64 0 58.628 0 52V12C0 5.372 5.3276 0 11.9008 0H51.5703C58.1435 0 63.4711 5.372 63.4711 12V52C63.4711 58.628 58.1435 64 51.5703 64Z" fill="#F2F6FE"/>
<path d="M18.2336 25.8478C17.7833 25.2658 16.9522 25.1618 16.377 25.6138C15.7998 26.0658 15.6967 26.9038 16.145 27.4858L22.0577 35.1518C24.0332 37.7138 25.1222 40.9118 25.1222 44.1558V46.6658C25.1222 47.4018 25.7152 47.9998 26.4451 47.9998C27.175 47.9998 27.7681 47.4038 27.7681 46.6658V44.1558C27.7681 40.3218 26.4828 36.5418 24.1463 33.5138L18.2336 25.8478Z" fill="#00E1F0"/>
<path d="M42.4883 23.3459L33.8939 16.2979C33.3286 15.8339 32.4956 15.9219 32.0334 16.4919C31.5732 17.0619 31.6585 17.9019 32.2258 18.3679L40.846 25.4379C43.8628 27.7859 45.398 31.5119 44.8506 35.1559L43.0516 46.4559C42.9366 47.1819 43.4265 47.8659 44.1485 47.9839C44.2199 47.9939 44.2913 47.9999 44.3587 47.9999C44.9974 47.9999 45.5587 47.5339 45.6638 46.8779L47.4648 35.5659C48.1571 30.9539 46.241 26.2639 42.4883 23.3459V23.3459Z" fill="#00E1F0"/>
<path d="M32.9956 37.708C31.5992 38.356 30.7344 39.638 30.5639 41.316C30.4448 42.48 30.4131 46.81 30.4131 46.994C30.4111 47.26 30.5143 47.516 30.7007 47.706C30.8872 47.894 31.141 48 31.4048 48H37.4663C37.9384 48 38.345 47.664 38.4382 47.198C38.4402 47.188 38.6227 46.302 39.0075 45.47C39.2078 45.04 39.3724 44.53 39.5232 43.866C39.8088 42.612 39.6719 41.426 39.1166 40.342C37.8253 37.82 35.1933 36.69 32.9956 37.708V37.708Z" fill="#0065FF"/>
<path d="M39.0511 31.4139C38.1208 32.8339 38.1129 35.1299 39.0372 36.5579C39.7116 37.5999 41.0564 37.6039 41.6157 36.4879C42.419 34.8899 42.6689 33.2519 41.6117 31.4579C40.9949 30.4159 39.7135 30.4039 39.0511 31.4139V31.4139Z" fill="#0065FF"/>
<path d="M34.493 32.136C35.6771 32.042 36.7541 31.456 37.486 30.498C38.2814 29.454 38.5432 28.11 38.2001 26.81C37.853 25.49 36.8434 24.4 35.57 23.968C34.6179 23.644 33.6301 23.65 32.7118 23.986C32.21 24.17 31.73 24.096 31.4206 23.784L23.8338 16.288C23.6493 16.102 23.4014 16 23.1416 16H16.8599C16.3125 16 15.8682 16.448 15.8682 17V18.334C15.8682 18.6 15.9733 18.856 16.1617 19.044L26.089 28.958C26.4401 29.31 26.5353 29.872 26.3409 30.458C26.1981 30.886 26.1267 31.334 26.1267 31.792C26.1267 33.134 26.7733 34.408 27.8543 35.198C28.5822 35.728 29.4351 36 30.3158 36C30.7779 36 31.246 35.926 31.7082 35.772C33.2434 35.264 34.3501 33.786 34.493 32.136Z" fill="#0065FF"/>
</g>
<defs>
<clipPath id="clip0_0_8160">
<rect width="63.4711" height="64" fill="white"/>
</clipPath>
</defs>
</svg>
