<svg width="56" height="56" viewBox="0 0 56 56" fill="none" xmlns="http://www.w3.org/2000/svg">
<rect width="56" height="56" rx="12" fill="#F2F6FE"/>
<rect width="56" height="56" rx="12" fill="#F2F6FE"/>
<g clip-path="url(#clip0_860_11937)">
<path d="M17.0137 31.0772C15.0743 24.8481 18.552 18.2265 24.7811 16.2875C31.0102 14.3485 37.6318 17.8257 39.5708 24.0549C41.5098 30.284 38.0325 36.9051 31.8034 38.8446C26.9979 40.3404 21.7729 38.6276 18.7856 34.5772" fill="white"/>
<path d="M39.1436 18.375C39.1436 20.3088 35.6436 23.625 35.6436 23.625C35.6436 23.625 32.1436 20.3088 32.1436 18.375C32.1436 16.4421 33.7107 14.875 35.6436 14.875C37.5764 14.875 39.1436 16.4421 39.1436 18.375Z" fill="#00E1F0"/>
<path d="M21.6429 21.2931C21.6429 22.9031 18.7248 25.375 18.7248 25.375C18.7248 25.375 15.8066 22.9031 15.8066 21.2931C15.8066 19.6814 17.113 18.375 18.7248 18.375C20.3365 18.375 21.6429 19.6814 21.6429 21.2931Z" fill="#00E1F0"/>
<path d="M40.9808 27.5628C40.9812 25.2357 40.3377 22.9537 39.1214 20.9696C39.6788 20.2101 40.0192 19.3133 40.1058 18.3753C40.1141 15.9589 38.1615 13.9937 35.7457 13.9854C34.445 13.981 33.2099 14.5559 32.3752 15.5534C28.2123 14.1385 23.6138 14.9794 20.2214 17.7759C18.2837 16.9932 16.0778 17.9294 15.2952 19.8671C15.1145 20.3147 15.0208 20.7929 15.0195 21.2759C15.0195 22.1159 15.5358 23.0259 16.1614 23.8615C15.7917 25.0603 15.604 26.308 15.6058 27.5628C15.6093 28.8376 15.8057 30.1046 16.1877 31.3209C16.2988 31.6814 16.6287 31.9299 17.0058 31.9378C17.0933 31.9373 17.1803 31.9238 17.2639 31.8984C17.7255 31.7558 17.9836 31.2662 17.8414 30.8046C17.5177 29.7546 17.354 28.6618 17.3558 27.5628C17.3584 26.8457 17.4302 26.1308 17.5702 25.4278C17.872 25.7165 18.1214 25.9353 18.2483 26.0446C18.4062 26.1776 18.6062 26.2503 18.8127 26.2503C19.0196 26.2494 19.2195 26.175 19.377 26.0403C19.9152 25.6028 22.6058 23.2096 22.6058 21.2934C22.6049 20.3939 22.2838 19.5237 21.7002 18.839C24.5115 16.7145 28.1743 16.0744 31.5395 17.1196C31.4179 17.5269 31.3562 17.95 31.3558 18.3753C31.3558 20.5628 34.497 23.6646 35.127 24.2596C35.4643 24.579 35.9928 24.579 36.3302 24.2596C36.9125 23.7062 37.4646 23.1221 37.9839 22.5096C40.7493 27.8799 38.638 34.4753 33.2677 37.2411C28.509 39.6916 22.6753 38.3384 19.482 34.0421C19.1946 33.6532 18.646 33.5709 18.257 33.8584C17.8681 34.1458 17.7858 34.6944 18.0733 35.0834C22.2256 40.7276 30.1671 41.9373 35.8117 37.7849C39.0623 35.3936 40.9817 31.5983 40.9808 27.5628V27.5628ZM18.8127 24.194C17.8458 23.2665 16.7695 21.9759 16.7695 21.2934C16.7695 20.1651 17.6843 19.2503 18.8127 19.2503C19.941 19.2503 20.8553 20.1651 20.8558 21.2934C20.8558 21.9715 19.7795 23.2665 18.8127 24.194ZM35.7308 22.3871C34.4883 21.0746 33.1058 19.294 33.1058 18.3753C33.1058 16.9254 34.2809 15.7503 35.7308 15.7503C37.1807 15.7503 38.3558 16.9254 38.3558 18.3753C38.3558 19.294 36.9689 21.0921 35.7308 22.3871Z" fill="#0F62F9"/>
<path d="M23.043 28C22.5595 28 22.168 28.3916 22.168 28.875C22.168 29.3584 22.5595 29.75 23.043 29.75H24.0055C24.1175 30.2982 24.334 30.8197 24.6442 31.2856L24.1717 31.7581C23.848 32.1169 23.876 32.6703 24.2347 32.9941C24.5685 33.2955 25.0769 33.2946 25.4098 32.9919L25.8823 32.5238C26.3487 32.8331 26.8698 33.0496 27.418 33.1625V34.5625C27.418 35.0459 27.8095 35.4375 28.293 35.4375C28.7764 35.4375 29.168 35.0459 29.168 34.5625V33.1625C29.7157 33.0487 30.2368 32.8322 30.7036 32.5238L31.1717 32.9919C31.5291 33.3169 32.0826 33.2907 32.4076 32.9333C32.7104 32.6003 32.7113 32.0919 32.4098 31.7581L31.9373 31.2856C32.2488 30.8201 32.4671 30.2986 32.5805 29.75H32.668C33.1514 29.75 33.543 29.3584 33.543 28.875C33.543 28.3916 33.1514 28 32.668 28H32.5805C32.468 27.4514 32.2493 26.9294 31.9373 26.4644L32.9305 25.4712C33.2879 25.1462 33.3141 24.5928 32.9891 24.2353C32.664 23.8779 32.1106 23.8516 31.7531 24.1767C31.7317 24.1959 31.7116 24.2165 31.6923 24.2375L30.7036 25.2262C30.2368 24.9178 29.7157 24.7013 29.168 24.5875V23.1875C29.168 22.7041 28.7764 22.3125 28.293 22.3125C27.8095 22.3125 27.418 22.7041 27.418 23.1875V24.5875C26.8698 24.7004 26.3487 24.9169 25.8823 25.2262L25.8473 25.1956C25.4899 24.8706 24.9365 24.8968 24.6114 25.2543C24.3087 25.5872 24.3078 26.0956 24.6092 26.4294L24.6442 26.4644C24.3336 26.9299 24.1166 27.4514 24.0055 28H23.043ZM28.293 27.5625C28.7764 27.5625 29.168 27.1709 29.168 26.6875V26.4031C30.5338 26.8883 31.2478 28.3894 30.7626 29.7557C30.7325 29.8401 30.6983 29.9228 30.6598 30.0038L30.4586 29.8025C30.1108 29.4608 29.5512 29.4656 29.2095 29.8134C28.8678 30.1613 28.8726 30.7208 29.2205 31.0625L29.4217 31.2637C28.1127 31.8872 26.5465 31.3316 25.923 30.0226C25.7524 29.6643 25.6653 29.2718 25.668 28.875C25.6693 27.7638 26.3702 26.7737 27.418 26.4031V26.6875C27.418 27.1709 27.8095 27.5625 28.293 27.5625V27.5625Z" fill="#0F62F9"/>
<path d="M27.418 29.75C27.9012 29.75 28.293 29.3582 28.293 28.875C28.293 28.3918 27.9012 28 27.418 28C26.9347 28 26.543 28.3918 26.543 28.875C26.543 29.3582 26.9347 29.75 27.418 29.75Z" fill="#00E1F0"/>
<path d="M36.6055 42C37.0887 42 37.4805 41.6082 37.4805 41.125C37.4805 40.6418 37.0887 40.25 36.6055 40.25C36.1222 40.25 35.7305 40.6418 35.7305 41.125C35.7305 41.6082 36.1222 42 36.6055 42Z" fill="#00E1F0"/>
<path d="M33.1055 40.25H23.4805C22.997 40.25 22.6055 40.6416 22.6055 41.125C22.6055 41.6084 22.997 42 23.4805 42H33.1055C33.5889 42 33.9805 41.6084 33.9805 41.125C33.9805 40.6416 33.5889 40.25 33.1055 40.25Z" fill="#0F62F9"/>
</g>
<defs>
<clipPath id="clip0_860_11937">
<rect width="28" height="28" fill="white" transform="translate(14 14)"/>
</clipPath>
</defs>
</svg>
