<svg width="72" height="72" viewBox="0 0 72 72" fill="none" xmlns="http://www.w3.org/2000/svg">
<rect width="72" height="72" rx="12" fill="#FFFADD"/>
<path d="M34.5691 29.0865H34.0626C32.9441 29.0865 32.0376 28.174 32.0376 27.048V24.5H25.9616V27.048C25.9616 28.174 25.0551 29.0865 23.9366 29.0865H23.4301C22.5911 29.0865 21.9111 29.771 21.9111 30.6155V49.4715C21.9111 50.316 22.5911 51.0005 23.4301 51.0005H34.5686C35.4076 51.0005 36.0876 50.316 36.0876 49.4715V30.6155C36.0876 29.771 35.4076 29.0865 34.5691 29.0865V29.0865Z" fill="#C8FBFF"/>
<path d="M41.3445 45.587L45.587 41.3445C46.368 40.5635 47.6345 40.5635 48.4155 41.3445C49.1965 42.1255 49.1965 43.392 48.4155 44.173L44.173 48.4155C43.392 49.1965 42.1255 49.1965 41.3445 48.4155C40.5635 47.6345 40.5635 46.368 41.3445 45.587V45.587Z" fill="#00E1F0"/>
<path d="M25 21.5H33V24.5H25V21.5Z" fill="#00E1F0"/>
<path d="M34.5 28C33.6715 28 33 27.3285 33 26.5V26H33.5C34.0525 26 34.5 25.5525 34.5 25V21C34.5 20.4475 34.0525 20 33.5 20H24.5C23.9475 20 23.5 20.4475 23.5 21V25C23.5 25.5525 23.9475 26 24.5 26H25V26.5C25 27.3285 24.3285 28 23.5 28C22.1195 28 21 29.1195 21 30.5V35.5C21 36.0525 21.4475 36.5 22 36.5C22.5525 36.5 23 36.0525 23 35.5V34H35V46H23V39.5C23 38.9475 22.5525 38.5 22 38.5C21.4475 38.5 21 38.9475 21 39.5V49.5C21 50.8805 22.1195 52 23.5 52H34.5C35.8805 52 37 50.8805 37 49.5V30.5C37 29.1195 35.8805 28 34.5 28ZM25.5 22H32.5V24H25.5V22ZM23 32V30.5C23.05 30.155 23.155 30.05 23.5 30C25.433 30 27 28.433 27 26.5V26H31V26.5C31 28.433 32.567 30 34.5 30C34.776 30 35 30.224 35 30.5V32H23ZM34.5 50H23.5C23.224 50 23 49.776 23 49.5V48H35V49.5C35 49.776 34.776 50 34.5 50Z" fill="#0065FF"/>
<path d="M29 36.5C28.4475 36.5 28 36.9475 28 37.5V39H26.5C25.9475 39 25.5 39.4475 25.5 40C25.5 40.5525 25.9475 41 26.5 41H28V42.5C28 43.0525 28.4475 43.5 29 43.5C29.5525 43.5 30 43.0525 30 42.5V41H31.5C32.0525 41 32.5 40.5525 32.5 40C32.5 39.4475 32.0525 39 31.5 39H30V37.5C30 36.9475 29.5525 36.5 29 36.5Z" fill="#00E1F0"/>
<path d="M42.8803 49.9999C43.6758 49.9994 44.4383 49.6829 45.0003 49.1199L49.2453 44.8799C50.4173 43.7079 50.4173 41.8069 49.2453 40.6349C48.0733 39.4629 46.1723 39.4629 45.0003 40.6349L40.7553 44.8799C39.5843 46.0524 39.5858 47.9519 40.7578 49.1224C41.3208 49.6849 42.0843 50.0004 42.8803 49.9999V49.9999ZM46.4153 42.0499C46.8058 41.6594 47.4398 41.6594 47.8303 42.0499C48.2208 42.4404 48.2208 43.0744 47.8303 43.4649L46.4153 44.8799L45.0003 43.4649L46.4153 42.0499ZM42.1703 46.2899L43.5853 44.8799L45.0003 46.2949L43.5853 47.7049C43.1948 48.0954 42.5608 48.0954 42.1703 47.7049C41.7798 47.3144 41.7798 46.6804 42.1703 46.2899Z" fill="#0065FF"/>
<path d="M46 50H40C39.4475 50 39 50.4475 39 51C39 51.5525 39.4475 52 40 52H46C46.5525 52 47 51.5525 47 51C47 50.4475 46.5525 50 46 50Z" fill="#0065FF"/>
<path d="M50 50C49.4475 50 49 50.4475 49 51C49 51.5525 49.4475 52 50 52C50.5525 52 51 51.5525 51 51C51 50.4475 50.5525 50 50 50Z" fill="#00E1F0"/>
</svg>
