<svg width="98" height="48" viewBox="0 0 98 48" fill="none" xmlns="http://www.w3.org/2000/svg">
<rect x="0.5" y="0.5" width="97" height="47" rx="11.5" stroke="#E5E5E5"/>
<path fill-rule="evenodd" clip-rule="evenodd" d="M48.7595 18.69C48.6856 18.7 48.6104 18.6941 48.539 18.6725C48.4676 18.6509 48.4016 18.6142 48.3457 18.5648C48.2897 18.5155 48.245 18.4547 48.2146 18.3866C48.1842 18.3185 48.1688 18.2446 48.1695 18.17C48.2081 17.214 48.5595 16.2971 49.1695 15.56C49.8117 14.797 50.6746 14.252 51.6395 14C51.7157 13.9815 51.7952 13.9809 51.8717 13.9981C51.9482 14.0153 52.0197 14.0499 52.0806 14.0992C52.1416 14.1486 52.1903 14.2113 52.2231 14.2825C52.2558 14.3538 52.2717 14.4316 52.2695 14.51C52.2151 15.4688 51.8659 16.3873 51.2695 17.14C50.6561 17.9524 49.7606 18.5054 48.7595 18.69V18.69ZM54.1795 24.51C54.1795 21.79 56.1795 21.18 56.1795 20.59C56.1795 20 54.4495 18.68 52.6195 18.68C50.7895 18.68 50.0795 19.54 48.8395 19.54C47.5995 19.54 46.5895 18.68 45.0495 18.68C44.2015 18.7268 43.378 18.9821 42.6524 19.4235C41.9267 19.8648 41.3211 20.4785 40.8895 21.21C40.268 22.2837 39.9597 23.51 39.9995 24.75C39.9995 29.14 43.1495 34 45.4695 34C46.7695 34 47.0995 33.15 48.8895 33.15C50.6795 33.15 50.9995 34 52.2195 34C54.7395 34 56.8395 29 56.8395 28.93C56.8386 28.8327 56.8099 28.7377 56.7567 28.6562C56.7036 28.5747 56.6282 28.5101 56.5395 28.47C55.8213 28.0892 55.2215 27.5186 54.8053 26.8203C54.3892 26.122 54.1727 25.3229 54.1795 24.51V24.51Z" fill="#333333"/>
</svg>
