<svg width="24" height="24" viewBox="0 0 24 24" fill="none" xmlns="http://www.w3.org/2000/svg">
<g clip-path="url(#clip0_782_11456)">
<path d="M18.7389 9.075C18.6849 8.81625 18.4587 8.625 18.1876 8.625H14.798C15.1713 8.14179 15.3742 7.54866 15.3751 6.93806V6.9375C15.3751 6.19158 15.0788 5.47621 14.5514 4.94876C14.0239 4.42132 13.3085 4.125 12.5626 4.125C11.8167 4.125 11.1013 4.42132 10.5739 4.94876C10.0464 5.47621 9.75011 6.19158 9.75011 6.9375C9.7514 7.55084 9.95594 8.14646 10.3317 8.63119L10.3272 8.625H6.93761C6.80859 8.62491 6.68345 8.66919 6.58319 8.7504C6.48293 8.83162 6.41364 8.94483 6.38693 9.07106L6.38636 9.075L4.13636 20.325C4.11968 20.4067 4.12139 20.4912 4.14135 20.5722C4.16132 20.6531 4.19906 20.7287 4.25183 20.7933C4.30459 20.8579 4.37107 20.91 4.44644 20.9457C4.52181 20.9815 4.60419 21 4.68761 21H20.4376C20.5213 21 20.604 20.9814 20.6796 20.9454C20.7552 20.9094 20.8218 20.857 20.8746 20.792C20.9274 20.727 20.9649 20.6511 20.9846 20.5697C21.0043 20.4883 21.0055 20.4036 20.9883 20.3216L20.9889 20.325L18.7389 9.075ZM11.7751 16.6125C11.8358 16.6563 11.8871 16.7117 11.9261 16.7756C11.9651 16.8394 11.9909 16.9104 12.0022 16.9844C12.0134 17.0583 12.0097 17.1338 11.9914 17.2063C11.9731 17.2789 11.9405 17.347 11.8955 17.4068C11.8506 17.4666 11.7941 17.5168 11.7295 17.5545C11.6649 17.5922 11.5934 17.6167 11.5192 17.6264C11.4451 17.6361 11.3697 17.631 11.2975 17.6112C11.2254 17.5915 11.1579 17.5575 11.099 17.5114L11.1001 17.5125L9.75011 16.5V17.0625C9.75011 17.2117 9.69085 17.3548 9.58536 17.4602C9.47987 17.5657 9.3368 17.625 9.18761 17.625C9.03843 17.625 8.89536 17.5657 8.78987 17.4602C8.68438 17.3548 8.62511 17.2117 8.62511 17.0625V13.6875C8.62511 13.5383 8.68438 13.3952 8.78987 13.2898C8.89536 13.1843 9.03843 13.125 9.18761 13.125C9.3368 13.125 9.47987 13.1843 9.58536 13.2898C9.69085 13.3952 9.75011 13.5383 9.75011 13.6875V14.25L11.1001 13.2375C11.2195 13.1514 11.368 13.1155 11.5135 13.1375C11.6591 13.1596 11.7902 13.2379 11.8787 13.3556C11.9672 13.4732 12.0061 13.6209 11.9869 13.7669C11.9678 13.9129 11.8921 14.0455 11.7762 14.1364L11.7751 14.1375L10.1259 15.375L11.7751 16.6125ZM10.8751 6.9375C10.8751 6.60374 10.9741 6.27748 11.1595 5.99998C11.3449 5.72247 11.6085 5.50618 11.9168 5.37845C12.2252 5.25073 12.5645 5.21731 12.8918 5.28242C13.2192 5.34754 13.5199 5.50826 13.7559 5.74426C13.9919 5.98026 14.1526 6.28094 14.2177 6.60829C14.2828 6.93563 14.2494 7.27493 14.1217 7.58328C13.9939 7.89163 13.7776 8.15518 13.5001 8.3406C13.2226 8.52603 12.8964 8.625 12.5626 8.625C12.1151 8.625 11.6858 8.44721 11.3694 8.13074C11.0529 7.81428 10.8751 7.38505 10.8751 6.9375ZM15.3751 16.5V15.9375C15.3751 15.7883 15.4344 15.6452 15.5399 15.5398C15.6454 15.4343 15.7884 15.375 15.9376 15.375C16.0868 15.375 16.2299 15.4343 16.3354 15.5398C16.4409 15.6452 16.5001 15.7883 16.5001 15.9375V17.0625C16.5001 17.2117 16.4409 17.3548 16.3354 17.4602C16.2299 17.5657 16.0868 17.625 15.9376 17.625H14.2501C13.9517 17.625 13.6656 17.5065 13.4546 17.2955C13.2436 17.0845 13.1251 16.7984 13.1251 16.5V14.25C13.1251 13.9516 13.2436 13.6655 13.4546 13.4545C13.6656 13.2435 13.9517 13.125 14.2501 13.125H15.9376C16.0868 13.125 16.2299 13.1843 16.3354 13.2898C16.4409 13.3952 16.5001 13.5383 16.5001 13.6875C16.5001 13.8367 16.4409 13.9798 16.3354 14.0852C16.2299 14.1907 16.0868 14.25 15.9376 14.25H14.2501V16.5H15.3751Z" fill="#0065FF"/>
</g>
<defs>
<clipPath id="clip0_782_11456">
<rect width="18" height="18" fill="white" transform="translate(3 3)"/>
</clipPath>
</defs>
</svg>
