<svg width="32" height="32" viewBox="0 0 32 32" fill="none" xmlns="http://www.w3.org/2000/svg">
<path d="M23.75 2.5C20.77 2.5 17.79 3.725 16 7.41C14.21 3.725 11.23 2.5 8.25001 2.5C4.07501 2.5 0.500015 4.955 0.500015 10.6C0.498248 11.9169 0.652659 13.2294 0.960015 14.51C3.38501 24.62 14.66 29.5 16 29.5C17.315 29.5 28.25 24.78 30.915 15C31.3066 13.5662 31.5033 12.0863 31.5 10.6C31.5 4.955 27.925 2.5 23.75 2.5Z" fill="#E63B47"/>
<path d="M11.4996 14H20.4996C22.7464 13.9999 24.9394 13.312 26.7837 12.0288C28.6281 10.7457 30.0354 8.92864 30.8166 6.822C29.5866 3.8455 26.8341 2.5 23.7496 2.5C20.7696 2.5 17.7896 3.725 15.9996 7.41C14.2096 3.725 11.2296 2.5 8.24962 2.5C5.16512 2.5 2.41262 3.8455 1.18262 6.822C1.96382 8.92864 3.37116 10.7457 5.21551 12.0288C7.05985 13.312 9.2528 13.9999 11.4996 14V14Z" fill="#FF505B"/>
<path d="M21.1533 4.73199C20.8033 4.92549 20.4508 5.2175 20.5033 5.563C20.5867 5.81706 20.7661 6.02844 21.0033 6.15199C21.4273 6.44249 21.8808 6.70199 22.3358 6.95899C23.2063 7.45199 24.0833 7.93849 24.9903 8.38399C25.5594 8.69888 26.1822 8.9049 26.8268 8.99149C26.9749 9.00748 27.1246 9.00209 27.2713 8.97549C27.5445 8.90849 27.789 8.75547 27.9688 8.53899C28.2806 8.17408 28.4649 7.71744 28.4938 7.23831C28.5227 6.75919 28.3945 6.28372 28.1288 5.88399C26.8253 3.77899 23.3678 3.50299 21.1533 4.73199V4.73199Z" fill="#FF99A0"/>
<path d="M6.65327 4.73199C6.30327 4.92549 5.95077 5.2175 6.00327 5.563C6.08668 5.81706 6.26612 6.02844 6.50327 6.15199C6.92727 6.44249 7.38077 6.70199 7.83577 6.95899C8.70627 7.45199 9.58577 7.93849 10.4903 8.38399C11.0594 8.69888 11.6822 8.9049 12.3268 8.99149C12.4749 9.00748 12.6246 9.00209 12.7713 8.97549C13.0454 8.90898 13.2909 8.75592 13.4713 8.53899C13.7831 8.17408 13.9674 7.71744 13.9963 7.23831C14.0252 6.75919 13.897 6.28372 13.6313 5.88399C12.3253 3.77899 8.86777 3.50299 6.65327 4.73199V4.73199Z" fill="#FF99A0"/>
<path d="M31.0334 14.5062C31.0219 14.5062 31.0119 14.4997 31.0004 14.4997H23.7779L21.4244 10.7347C21.3769 10.6586 21.3098 10.5968 21.2302 10.5555C21.1506 10.5143 21.0613 10.4953 20.9718 10.5004C20.8823 10.5055 20.7958 10.5346 20.7214 10.5846C20.647 10.6346 20.5874 10.7037 20.5489 10.7847L16.0489 20.2347L11.4674 8.32016C11.4326 8.2295 11.3723 8.15091 11.2936 8.09399C11.215 8.03706 11.1215 8.00427 11.0245 7.9996C10.9275 7.99494 10.8313 8.0186 10.7475 8.06771C10.6638 8.11682 10.5961 8.18925 10.5529 8.27616L7.69138 13.9997H1.00037C0.952231 14.0022 0.904721 14.0118 0.859375 14.0282C0.892875 14.1887 0.922375 14.3517 0.959375 14.5097C0.999375 14.6757 1.04738 14.8367 1.09238 14.9997H8.00038C8.09329 14.9997 8.18438 14.9739 8.26343 14.925C8.34247 14.8762 8.40634 14.8063 8.44788 14.7232L10.9409 9.73716L15.5334 21.6792C15.5685 21.7704 15.6296 21.8494 15.7092 21.9062C15.7887 21.9631 15.8832 21.9954 15.9809 21.9992H16.0004C16.0946 21.9989 16.1869 21.972 16.2665 21.9216C16.3461 21.8711 16.4099 21.7992 16.4504 21.7142L21.0584 12.0377L23.0749 15.2642C23.1199 15.3364 23.1826 15.3959 23.2571 15.4371C23.3315 15.4783 23.4153 15.4999 23.5004 15.4997H30.7639C30.8139 15.3332 30.8694 15.1692 30.9139 14.9997C30.9599 14.8382 30.9939 14.6707 31.0334 14.5062V14.5062Z" fill="#FBFBFB"/>
</svg>
