<svg width="24" height="24" viewBox="0 0 24 24" fill="none" xmlns="http://www.w3.org/2000/svg">
<g clip-path="url(#clip0_782_11462)">
<path d="M16.2909 4H7.70967C5.84017 4 4.38161 5.61634 4.57483 7.47397L5.58411 17.1769C5.75101 18.7812 7.10445 20 8.71898 20H11.5315V16.2337C11.5315 15.975 11.7414 15.7654 12.0003 15.7654C12.2592 15.7654 12.469 15.975 12.469 16.2337V20H15.2816C16.8961 20 18.2496 18.7812 18.4165 17.1769L19.4257 7.47397C19.619 5.61634 18.1604 4 16.2909 4V4ZM17.3178 9.13075L14.7636 12.0637C14.6746 12.1659 14.5456 12.2247 14.41 12.2247H9.59061C9.45495 12.2247 9.32598 12.166 9.23695 12.0637L6.68279 9.13075C6.52933 8.95453 6.52933 8.69228 6.68279 8.51603C8.09904 6.88972 9.98751 5.99409 12.0003 5.99409C14.0131 5.99409 15.9015 6.88975 17.3178 8.51606C17.4713 8.69228 17.4713 8.95453 17.3178 9.13075V9.13075Z" fill="#0065FF"/>
<path d="M15.4909 8.09685L15.0842 8.57823C14.9915 8.68932 14.8582 8.74666 14.7239 8.74666C14.6181 8.74666 14.5117 8.71107 14.424 8.63807C14.2252 8.47248 14.1983 8.1772 14.3641 7.97854L14.6802 7.59238C13.9872 7.23179 13.2412 7.01323 12.4693 6.9502V7.52691C12.4693 7.78554 12.2594 7.9952 12.0006 7.9952C11.7417 7.9952 11.5318 7.78554 11.5318 7.52691V6.9502C10.7599 7.01323 10.0139 7.23179 9.3209 7.59235L9.637 7.97851C9.80278 8.17716 9.77593 8.47245 9.57712 8.63804C9.48946 8.71101 9.38303 8.74663 9.27718 8.74663C9.1429 8.74663 9.00962 8.68929 8.9169 8.5782L8.50868 8.09795C8.21334 8.31454 7.93137 8.55963 7.66553 8.83229L9.80434 11.2884H11.0526L11.7888 9.69541C11.8722 9.51498 12.1289 9.51498 12.2122 9.69541L12.9484 11.2884H14.1967L16.3355 8.83229C16.0693 8.5592 15.7868 8.31373 15.4909 8.09685Z" fill="#112950"/>
</g>
<defs>
<clipPath id="clip0_782_11462">
<rect width="16" height="16" fill="white" transform="translate(4 4)"/>
</clipPath>
</defs>
</svg>
