<svg width="72" height="72" viewBox="0 0 72 72" fill="none" xmlns="http://www.w3.org/2000/svg">
<rect width="72" height="72" rx="36" fill="#F2F6FE"/>
<path fill-rule="evenodd" clip-rule="evenodd" d="M39.4385 36.4981C39.4385 34.7613 38.0301 33.3528 36.2932 33.3528C34.5564 33.3528 33.1479 34.7613 33.1479 36.4981C33.1479 38.2349 34.5564 39.6434 36.2932 39.6434C38.0301 39.6434 39.4385 38.2349 39.4385 36.4981Z" stroke="#0065FF" stroke-width="1.5" stroke-linecap="round" stroke-linejoin="round"/>
<path fill-rule="evenodd" clip-rule="evenodd" d="M36.2927 44.2001C44.338 44.2001 45.2959 41.7896 45.2959 36.5664C45.2959 32.9054 44.8117 30.9464 41.7622 30.1043C41.4822 30.0159 41.1717 29.8475 40.9201 29.5707C40.5138 29.1254 40.2169 27.758 39.2359 27.3443C38.2548 26.9317 34.3148 26.9507 33.3496 27.3443C32.3853 27.7391 32.0717 29.1254 31.6653 29.5707C31.4138 29.8475 31.1043 30.0159 30.8232 30.1043C27.7738 30.9464 27.2896 32.9054 27.2896 36.5664C27.2896 41.7896 28.2474 44.2001 36.2927 44.2001Z" stroke="#0065FF" stroke-width="1.5" stroke-linecap="round" stroke-linejoin="round"/>
<path d="M41.2045 33H41.2135" stroke="#0065FF" stroke-width="1.5" stroke-linecap="round" stroke-linejoin="round"/>
</svg>
