<svg width="32" height="32" viewBox="0 0 32 32" fill="none" xmlns="http://www.w3.org/2000/svg">
<path d="M19.75 28.5L12.25 31V18L19.75 15.5V28.5Z" fill="white"/>
<path d="M12.25 31L4.75 28.5V15.5L12.25 18V31Z" fill="#00E1F0"/>
<path d="M27.25 31L19.75 28.5V15.5L27.25 18V31Z" fill="#00E1F0"/>
<path d="M26.25 11C26.25 19.4 16.25 23 16.25 23C16.25 23 6.25 19.4 6.25 11C6.25 8.34784 7.30357 5.8043 9.17893 3.92893C11.0543 2.05357 13.5978 1 16.25 1C18.9022 1 21.4457 2.05357 23.3211 3.92893C25.1964 5.8043 26.25 8.34784 26.25 11V11Z" fill="white"/>
<path d="M21.75 11H10.75L12.691 7H19.809L21.75 11Z" fill="#F7F9FA"/>
<path d="M12.75 11H19.75V15H12.75V11Z" fill="#F7F9FA"/>
<path d="M22.6495 10.5624L20.7083 6.56284C20.6264 6.39393 20.4986 6.25152 20.3394 6.15188C20.1803 6.05224 19.9964 5.9994 19.8087 5.99942H18.9998V5.49945C18.9998 5.23423 18.8945 4.97988 18.7069 4.79234C18.5194 4.60481 18.265 4.49945 17.9998 4.49945C17.7346 4.49945 17.4803 4.60481 17.2927 4.79234C17.1052 4.97988 16.9998 5.23423 16.9998 5.49945V5.99942H12.691C12.5033 5.9994 12.3193 6.05223 12.1602 6.15187C12.0011 6.25151 11.8733 6.39393 11.7913 6.56284L9.85018 10.5624C9.77816 10.7151 9.74567 10.8833 9.75568 11.0518C9.76569 11.2202 9.81788 11.3835 9.90746 11.5265C9.99703 11.6695 10.1211 11.7877 10.2683 11.8703C10.4155 11.9528 10.5811 11.997 10.7498 11.9988H11.7498V14.9985C11.7499 15.2637 11.8552 15.5181 12.0428 15.7056C12.2303 15.8931 12.4846 15.9984 12.7498 15.9984H19.7498C20.015 15.9984 20.2694 15.8931 20.4569 15.7056C20.6444 15.5181 20.7498 15.2637 20.7498 14.9985V11.9988H21.7498C21.9186 11.997 22.0841 11.9528 22.2313 11.8703C22.3785 11.7877 22.5026 11.6695 22.5922 11.5265C22.6818 11.3835 22.734 11.2202 22.744 11.0518C22.754 10.8833 22.7215 10.7151 22.6495 10.5624V10.5624ZM18.7498 13.9986H13.7498V11.9988H18.7498V13.9986ZM12.3468 9.99903L13.3172 7.99921H17.1386C17.2253 8.15108 17.3506 8.27732 17.5019 8.36513C17.6532 8.45293 17.8249 8.49918 17.9998 8.49918C18.1747 8.49918 18.3465 8.45293 18.4978 8.36513C18.649 8.27732 18.7744 8.15108 18.8611 7.99921H19.1824L20.1529 9.99903H12.3468Z" fill="#0F62F9"/>
<path d="M27.5657 17.0495L25.8257 16.4705C26.7638 14.7997 27.2544 12.915 27.25 10.9989C27.2422 9.39399 26.8833 7.81027 26.1985 6.35881C25.5137 4.90735 24.5196 3.62332 23.2859 2.5968C22.0522 1.57028 20.6089 0.826136 19.0572 0.41658C17.5054 0.00702384 15.8828 -0.0580242 14.3033 0.226C12.7237 0.510023 11.2254 1.13624 9.91355 2.06071C8.60167 2.98518 7.50797 4.18552 6.70918 5.5775C5.91039 6.96948 5.42587 8.51938 5.2896 10.1185C5.15333 11.7176 5.36861 13.3271 5.92035 14.8342L5.06567 14.5498C4.91541 14.5013 4.75586 14.4889 4.59991 14.5135C4.44396 14.5381 4.29597 14.599 4.16791 14.6913C4.03985 14.7837 3.93529 14.9048 3.8627 15.045C3.7901 15.1852 3.7515 15.3406 3.75 15.4984V28.4972C3.75001 28.707 3.81607 28.9116 3.9388 29.0819C4.06153 29.2521 4.23472 29.3794 4.43384 29.4458L11.9338 31.9455C12.1392 32.0131 12.3608 32.0131 12.5662 31.9455L19.75 29.5512L26.9338 31.9455C27.0841 31.994 27.2437 32.0065 27.3997 31.9819C27.5557 31.9574 27.7037 31.8965 27.8318 31.8041C27.96 31.7118 28.0646 31.5906 28.1372 31.4504C28.2098 31.3102 28.2485 31.1548 28.25 30.9969V17.9982C28.25 17.7882 28.1839 17.5836 28.0611 17.4133C27.9382 17.2431 27.7649 17.1158 27.5657 17.0495V17.0495ZM11.25 29.6096L5.75 27.7765V16.885L7.2222 17.3748C8.31429 18.9492 9.67821 20.3164 11.25 21.4122V29.6096ZM18.75 27.7765L13.25 29.6096V22.6827C14.1037 23.1687 14.9934 23.5886 15.9114 23.9385C16.1303 24.0172 16.3697 24.0172 16.5886 23.9385C17.3295 23.6572 18.0515 23.3282 18.75 22.9538V27.7765ZM16.25 21.9211C14.571 21.2151 7.25 17.7484 7.25 10.9989C7.25 8.61191 8.19821 6.32272 9.88604 4.6349C11.5739 2.94707 13.8631 1.99886 16.25 1.99886C18.6369 1.99886 20.9261 2.94707 22.614 4.6349C24.3018 6.32272 25.25 8.61191 25.25 10.9989C25.25 17.7489 17.9277 21.2159 16.25 21.9211ZM26.25 29.6096L20.75 27.7765V21.7595C22.2345 20.781 23.5585 19.5786 24.6753 18.1951L26.25 18.7193V29.6096Z" fill="#0F62F9"/>
<path d="M7.74902 25.4965C7.74901 25.6943 7.80766 25.8878 7.91758 26.0523C8.02749 26.2168 8.18373 26.345 8.36653 26.4208C8.54932 26.4965 8.75047 26.5163 8.94454 26.4777C9.1386 26.4392 9.31686 26.3439 9.45678 26.204C9.5967 26.0641 9.69198 25.8858 9.73059 25.6917C9.76919 25.4977 9.74938 25.2965 9.67367 25.1137C9.59795 24.9309 9.46972 24.7747 9.3052 24.6648C9.14068 24.5548 8.94726 24.4962 8.7494 24.4962C8.48433 24.4969 8.23032 24.6025 8.04288 24.79C7.85544 24.9774 7.7498 25.2314 7.74902 25.4965V25.4965Z" fill="#0F62F9"/>
</svg>
