<svg width="333" height="335" viewBox="0 0 333 335" fill="none" xmlns="http://www.w3.org/2000/svg">
<circle opacity="0.6" cx="158" cy="152" r="20" fill="#00E1F0"/>
<circle opacity="0.6" cx="20" cy="192" r="20" fill="#00E1F0"/>
<circle opacity="0.6" cx="200" cy="127" r="20" fill="#00E1F0"/>
<circle opacity="0.6" cx="304" cy="127" r="29" fill="#00E1F0"/>
<circle opacity="0.6" cx="266" cy="24" r="20" fill="#00E1F0"/>
<circle opacity="0.6" cx="180" cy="78" r="16" fill="#00E1F0"/>
<circle opacity="0.6" cx="81" cy="112" r="12" fill="#00E1F0"/>
<circle opacity="0.6" cx="199" cy="105" r="12" fill="#00E1F0"/>
<circle opacity="0.6" cx="128" cy="224" r="12" fill="#00E1F0"/>
<circle opacity="0.6" cx="124" cy="33" r="8" fill="#00E1F0"/>
<circle opacity="0.6" cx="131" cy="59" r="8" fill="#00E1F0"/>
<circle opacity="0.6" cx="137" cy="148" r="8" fill="#00E1F0"/>
<circle opacity="0.6" cx="222" cy="132" r="8" fill="#00E1F0"/>
<circle opacity="0.6" cx="250" cy="115" r="8" fill="#00E1F0"/>
<circle opacity="0.6" cx="123" cy="298" r="8" fill="#00E1F0"/>
<circle opacity="0.6" cx="185" cy="228" r="8" fill="#00E1F0"/>
<circle opacity="0.6" cx="194" cy="15" r="6" fill="#00E1F0"/>
<circle opacity="0.6" cx="220" cy="122" r="6" fill="#00E1F0"/>
<circle opacity="0.6" cx="190" cy="329" r="6" fill="#00E1F0"/>
<circle opacity="0.6" cx="115" cy="228" r="6" fill="#00E1F0"/>
<circle opacity="0.6" cx="27" cy="212" r="6" fill="#00E1F0"/>
<circle opacity="0.6" cx="114" cy="95" r="6" fill="#00E1F0"/>
<circle opacity="0.6" cx="235" cy="179" r="6" fill="#00E1F0"/>
<circle opacity="0.6" cx="135" cy="51" r="6" fill="#00E1F0"/>
<circle opacity="0.6" cx="167" cy="116" r="6" fill="#00E1F0"/>
<circle opacity="0.6" cx="246" cy="54" r="4" fill="#00E1F0"/>
<circle opacity="0.6" cx="243" cy="180" r="4" fill="#00E1F0"/>
<circle opacity="0.6" cx="168" cy="89" r="4" fill="#00E1F0"/>
<circle opacity="0.6" cx="75" cy="149" r="4" fill="#00E1F0"/>
<circle opacity="0.6" cx="243" cy="292" r="4" fill="#00E1F0"/>
<circle opacity="0.6" cx="129" cy="294" r="4" fill="#00E1F0"/>
<circle opacity="0.6" cx="119" cy="263" r="4" fill="#00E1F0"/>
<circle opacity="0.6" cx="168" cy="281" r="4" fill="#00E1F0"/>
<circle opacity="0.6" cx="136" cy="2" r="2" fill="#00E1F0"/>
<circle opacity="0.6" cx="203" cy="274" r="2" fill="#00E1F0"/>
<circle opacity="0.6" cx="177" cy="303" r="2" fill="#00E1F0"/>
<circle opacity="0.6" cx="171" cy="132" r="16" fill="#00E1F0"/>
</svg>
