<svg width="80" height="16" viewBox="0 0 80 16" fill="none" xmlns="http://www.w3.org/2000/svg">
<path fill-rule="evenodd" clip-rule="evenodd" d="M8 2C6.64256 2 6.51423 4.36435 5.70608 5.19972C4.89792 6.03508 2.38547 5.07995 2.03639 6.56268C1.68805 8.04618 3.94824 8.54953 4.22691 9.82229C4.50705 11.095 3.12615 12.8833 4.30611 13.7732C5.48607 14.6624 6.75623 12.6498 8 12.6498C9.24376 12.6498 10.5139 14.6624 11.6939 13.7732C12.8738 12.8833 11.4937 11.095 11.7731 9.82229C12.0525 8.54953 14.3119 8.04618 13.9636 6.56268C13.6153 5.07995 11.1021 6.03508 10.2946 5.19972C9.4865 4.36435 9.35743 2 8 2Z" fill="#FFD211"/>
<path fill-rule="evenodd" clip-rule="evenodd" d="M24 2C22.6426 2 22.5142 4.36435 21.7061 5.19972C20.8979 6.03508 18.3855 5.07995 18.0364 6.56268C17.688 8.04618 19.9482 8.54953 20.2269 9.82229C20.507 11.095 19.1261 12.8833 20.3061 13.7732C21.4861 14.6624 22.7562 12.6498 24 12.6498C25.2438 12.6498 26.5139 14.6624 27.6939 13.7732C28.8738 12.8833 27.4937 11.095 27.7731 9.82229C28.0525 8.54953 30.3119 8.04618 29.9636 6.56268C29.6153 5.07995 27.1021 6.03508 26.2946 5.19972C25.4865 4.36435 25.3574 2 24 2Z" fill="#FFD211"/>
<path fill-rule="evenodd" clip-rule="evenodd" d="M40 2C38.6426 2 38.5142 4.36435 37.7061 5.19972C36.8979 6.03508 34.3855 5.07995 34.0364 6.56268C33.688 8.04618 35.9482 8.54953 36.2269 9.82229C36.507 11.095 35.1261 12.8833 36.3061 13.7732C37.4861 14.6624 38.7562 12.6498 40 12.6498C41.2438 12.6498 42.5139 14.6624 43.6939 13.7732C44.8738 12.8833 43.4937 11.095 43.7731 9.82229C44.0525 8.54953 46.3119 8.04618 45.9636 6.56268C45.6153 5.07995 43.1021 6.03508 42.2946 5.19972C41.4865 4.36435 41.3574 2 40 2Z" fill="#FFD211"/>
<path fill-rule="evenodd" clip-rule="evenodd" d="M56 2C54.6426 2 54.5142 4.36435 53.7061 5.19972C52.8979 6.03508 50.3855 5.07995 50.0364 6.56268C49.688 8.04618 51.9482 8.54953 52.2269 9.82229C52.507 11.095 51.1261 12.8833 52.3061 13.7732C53.4861 14.6624 54.7562 12.6498 56 12.6498C57.2438 12.6498 58.5139 14.6624 59.6939 13.7732C60.8738 12.8833 59.4937 11.095 59.7731 9.82229C60.0525 8.54953 62.3119 8.04618 61.9636 6.56268C61.6153 5.07995 59.1021 6.03508 58.2946 5.19972C57.4865 4.36435 57.3574 2 56 2Z" fill="#FFD211"/>
<path fill-rule="evenodd" clip-rule="evenodd" d="M72 2C70.6426 2 70.5142 4.36435 69.7061 5.19972C68.8979 6.03508 66.3855 5.07995 66.0364 6.56268C65.688 8.04618 67.9482 8.54953 68.2269 9.82229C68.507 11.095 67.1261 12.8833 68.3061 13.7732C69.4861 14.6624 70.7562 12.6498 72 12.6498C73.2438 12.6498 74.5139 14.6624 75.6939 13.7732C76.8738 12.8833 75.4937 11.095 75.7731 9.82229C76.0525 8.54953 78.3119 8.04618 77.9636 6.56268C77.6153 5.07995 75.1021 6.03508 74.2946 5.19972C73.4865 4.36435 73.3574 2 72 2Z" fill="#FFD211"/>
</svg>
