<svg width="64" height="80" viewBox="0 0 64 80" fill="none" xmlns="http://www.w3.org/2000/svg">
<circle cx="33" cy="27" r="27" fill="#00E1F0"/>
<path d="M39 52L35 56L32 52L36 51L39 51.88V52Z" fill="white"/>
<path d="M32 52L29 56L25 52V51.88L28 51L32 52Z" fill="white"/>
<path d="M29 56L30 58L28 79H25V61V52L29 56Z" fill="white"/>
<path d="M39 61V79H36L34 58L35 56L39 52V61Z" fill="white"/>
<path d="M32 52L35 56L34 58H30L29 56L32 52Z" fill="#0065FF"/>
<path d="M34 58L36 79H28L30 58H34Z" fill="#0065FF"/>
<path d="M44 65L42 79H39V61L44 65Z" fill="#EDF4FA"/>
<path d="M42 53L44 59L39 61V52V51.88L42 52.76V53Z" fill="#EDF4FA"/>
<path d="M25 61V79H22L20 65L25 61Z" fill="#EDF4FA"/>
<path d="M25 52V61L20 59L22 53V52.76L25 51.88V52Z" fill="#EDF4FA"/>
<path d="M16 63V79H8L10.83 57.29C10.8924 56.7978 11.139 56.3476 11.52 56.03L13 58L16 63Z" fill="#D6E0EB"/>
<path d="M53.17 57.29L56 79H48V63L51 58L52.27 55.88H52.28C52.5228 56.0352 52.7285 56.242 52.8823 56.4857C53.0362 56.7294 53.1344 57.004 53.17 57.29V57.29Z" fill="#D6E0EB"/>
<path d="M52.27 55.88L51 58L48 63V79H42L44 65L39 61L44 59L42 53V52.76L51.75 55.63C51.9349 55.6867 52.1102 55.771 52.27 55.88V55.88Z" fill="#D6E0EB"/>
<path d="M24.9995 61L19.9995 65L21.9995 79H15.9995V63L12.9995 58L11.5195 56.03C11.7321 55.847 11.9808 55.7107 12.2495 55.63L21.9995 52.76V53L19.9995 59L24.9995 61Z" fill="#D6E0EB"/>
<path d="M44 25V35C43.9984 34.4701 43.7872 33.9623 43.4125 33.5875C43.0377 33.2128 42.5299 33.0016 42 33H41V29C39 29 37 25 37 25V20C37 19.7348 37.1054 19.4804 37.2929 19.2929C37.4804 19.1054 37.7348 19 38 19C39.5906 19.0024 41.1153 19.6353 42.24 20.76C43.3647 21.8847 43.9976 23.4094 44 25V25Z" fill="#784132"/>
<path d="M23 29V33H22C21.4701 33.0016 20.9623 33.2128 20.5875 33.5875C20.2128 33.9623 20.0016 34.4701 20 35V27C20 24.3478 21.0536 21.8043 22.9289 19.9289C24.8043 18.0536 27.3478 17 30 17H34C34.7956 17 35.5587 17.3161 36.1213 17.8787C36.6839 18.4413 37 19.2044 37 20V25C37 25 30 29 23 29Z" fill="#784132"/>
<path d="M36.5 36C36.7761 36 37 35.3284 37 34.5C37 33.6716 36.7761 33 36.5 33C36.2239 33 36 33.6716 36 34.5C36 35.3284 36.2239 36 36.5 36Z" fill="#F4BAA6"/>
<path d="M27.5 36C27.7761 36 28 35.3284 28 34.5C28 33.6716 27.7761 33 27.5 33C27.2239 33 27 33.6716 27 34.5C27 35.3284 27.2239 36 27.5 36Z" fill="#F4BAA6"/>
<path d="M23 33L25 37L23 40L21.34 38.89C20.9273 38.6166 20.5889 38.2451 20.355 37.8088C20.1212 37.3725 19.9992 36.885 20 36.39V35C20.0016 34.4701 20.2128 33.9623 20.5875 33.5875C20.9623 33.2128 21.4701 33.0016 22 33H23Z" fill="#F4BAA6"/>
<path d="M44 35V36.39C44.0008 36.885 43.8788 37.3725 43.645 37.8088C43.4111 38.2451 43.0727 38.6166 42.66 38.89L41 40L39 37L41 33H42C42.5299 33.0016 43.0377 33.2128 43.4125 33.5875C43.7872 33.9623 43.9984 34.4701 44 35V35Z" fill="#F4BAA6"/>
<path d="M36.5 36C36.78 36 37 35.33 37 34.5C37 33.67 36.78 33 36.5 33C36.22 33 36 33.67 36 34.5C36 35.33 36.22 36 36.5 36ZM27.5 36C27.78 36 28 35.33 28 34.5C28 33.67 27.78 33 27.5 33C27.22 33 27 33.67 27 34.5C27 35.33 27.22 36 27.5 36ZM23 29C30 29 37 25 37 25C37 25 39 29 41 29V33L39 37H25L23 33V29Z" fill="#F4BAA6"/>
<path d="M36 46.08C34.7535 46.6854 33.3858 47 32 47C30.6142 47 29.2465 46.6854 28 46.08C26.7623 45.5088 25.6697 44.6653 24.8039 43.6125C23.9381 42.5596 23.3214 41.3247 23 40L25 37H39L41 40C40.6786 41.3247 40.0619 42.5596 39.1961 43.6125C38.3303 44.6653 37.2377 45.5088 36 46.08V46.08Z" fill="#EDF4FA"/>
<path d="M28 46.08V51L32 52L36 51V46.08C34.7535 46.6854 33.3858 46.9999 32 46.9999C30.6142 46.9999 29.2465 46.6854 28 46.08V46.08Z" fill="#D68975"/>
<path d="M36 46.08C34.7535 46.6854 33.3858 46.9999 32 46.9999C30.6142 46.9999 29.2465 46.6854 28 46.08V49.6999L36 47.2999V46.08Z" fill="#C96C55"/>
<path d="M41 38V34H42C42.2652 34 42.5196 34.1054 42.7071 34.2929C42.8946 34.4804 43 34.7348 43 35V35.764C43 36.1355 42.8965 36.4996 42.7012 36.8156C42.5058 37.1316 42.2263 37.3869 41.894 37.553L41 38Z" fill="#D68975"/>
<path d="M23 38V34H22C21.7348 34 21.4804 34.1054 21.2929 34.2929C21.1054 34.4804 21 34.7348 21 35V35.764C21 36.1355 21.1035 36.4996 21.2988 36.8156C21.4942 37.1316 21.7737 37.3869 22.106 37.553L23 38Z" fill="#D68975"/>
<path d="M26 40L28 37H25L23 40C23.3214 41.3247 23.9381 42.5596 24.8039 43.6125C25.6697 44.6653 26.7623 45.5088 28 46.08C29.7024 46.9225 31.6303 47.1962 33.5 46.861C32.6337 46.7211 31.7919 46.4581 31 46.08C29.7623 45.5088 28.6697 44.6653 27.8039 43.6125C26.9381 42.5596 26.3214 41.3247 26 40V40Z" fill="#D6E0EB"/>
<path d="M36.5 37C37.0523 37 37.5 35.8807 37.5 34.5C37.5 33.1193 37.0523 32 36.5 32C35.9477 32 35.5 33.1193 35.5 34.5C35.5 35.8807 35.9477 37 36.5 37Z" fill="#3D240F"/>
<path d="M27.5 37C28.0523 37 28.5 35.8807 28.5 34.5C28.5 33.1193 28.0523 32 27.5 32C26.9477 32 26.5 33.1193 26.5 34.5C26.5 35.8807 26.9477 37 27.5 37Z" fill="#3D240F"/>
<path d="M32.0002 35.5C31.5352 35.5 31.1472 36.139 31.0352 37H32.9652C32.8532 36.139 32.4652 35.5 32.0002 35.5Z" fill="#D9896D"/>
<path d="M37 25C37 25 30 29 23 29V31C30 31 37 27 37 27C37 27 39 31 41 31V29C39 29 37 25 37 25Z" fill="#D68975"/>
<path d="M28.6053 30.9869C28.6191 30.9912 28.6331 30.9946 28.6473 30.9969C28.8473 31.0329 29.0003 30.7149 29.0003 30.4969C29.0003 30.4359 28.9773 28.9969 27.0003 28.9969C25.0233 28.9969 25.0003 30.4359 25.0003 30.4969C24.9974 30.5848 25.0165 30.6719 25.0557 30.7505C25.095 30.829 25.1533 30.8966 25.2253 30.9469C25.3703 31.0359 25.5123 30.9529 25.6253 30.8169C25.6803 30.7489 25.7253 30.6649 25.7823 30.6009C25.8408 30.5431 25.9084 30.4952 25.9823 30.4589C26.1575 30.3564 26.3428 30.2723 26.5353 30.2079C26.7907 30.1348 27.0602 30.1264 27.3196 30.1835C27.5791 30.2406 27.8202 30.3614 28.0213 30.5349C28.188 30.7187 28.3856 30.8717 28.6053 30.9869V30.9869Z" fill="#3D240F"/>
<path d="M35.3999 30.9869C35.3861 30.9912 35.3721 30.9946 35.3579 30.9969C35.1579 31.0329 35.0049 30.7149 35.0049 30.4969C35.0049 30.4359 35.0279 28.9969 37.0049 28.9969C38.9819 28.9969 39.0049 30.4359 39.0049 30.4969C39.0078 30.5848 38.9887 30.6719 38.9494 30.7505C38.9101 30.829 38.8519 30.8966 38.7799 30.9469C38.6349 31.0359 38.4929 30.9529 38.3799 30.8169C38.3249 30.7489 38.2799 30.6649 38.2229 30.6009C38.1643 30.5431 38.0968 30.4952 38.0229 30.4589C37.8477 30.3564 37.6624 30.2723 37.4699 30.2079C37.2145 30.1348 36.945 30.1264 36.6855 30.1835C36.4261 30.2406 36.185 30.3614 35.9839 30.5349C35.8172 30.7187 35.6195 30.8717 35.3999 30.9869Z" fill="#3D240F"/>
<path d="M40.553 32.776L38.691 36.5H25.309L23.447 32.776C23.4054 32.6931 23.3416 32.6233 23.2627 32.5746C23.1837 32.5258 23.0928 32.5 23 32.5V34.117L24.553 37.224C24.5946 37.3069 24.6584 37.3767 24.7373 37.4254C24.8163 37.4742 24.9072 37.5 25 37.5H39C39.0928 37.5 39.1837 37.4742 39.2627 37.4254C39.3416 37.3767 39.4054 37.3069 39.447 37.224L41 34.117V32.5C40.9072 32.5 40.8163 32.5258 40.7373 32.5746C40.6584 32.6233 40.5946 32.6931 40.553 32.776Z" fill="#8394B2"/>
<path d="M42.24 20.76C41.6852 20.2002 41.0247 19.7563 40.2968 19.4541C39.5689 19.152 38.7881 18.9976 38 19C37.7348 19 37.4804 19.1053 37.2929 19.2929C37.1054 19.4804 37 19.7347 37 20V25C37 25 39 29 41 29V32.5H42C42.1326 32.5 42.2598 32.5526 42.3536 32.6464C42.4473 32.7402 42.5 32.8674 42.5 33C42.4974 33.0227 42.4927 33.0451 42.486 33.067C42.9173 33.175 43.3004 33.4237 43.5745 33.7738C43.8487 34.1239 43.9984 34.5553 44 35V25C44.0024 24.2118 43.848 23.4311 43.5459 22.7032C43.2437 21.9753 42.7998 21.3147 42.24 20.76V20.76Z" fill="#784132"/>
<path d="M35 22.832V19C35 18.4696 34.7893 17.9609 34.4142 17.5858C34.0391 17.2107 33.5304 17 33 17H30C27.3478 17 24.8043 18.0536 22.9289 19.9289C21.0536 21.8043 20 24.3478 20 27C27.7 27 31.974 25.529 33.842 24.647C34.1875 24.4857 34.4799 24.2293 34.685 23.9079C34.89 23.5865 34.9993 23.2133 35 22.832V22.832Z" fill="#8A4B39"/>
<path d="M21 31V33.279C21.3025 33.0985 21.6478 33.0022 22 33H23V29C22.4696 29 21.9609 29.2107 21.5858 29.5858C21.2107 29.9609 21 30.4696 21 31Z" fill="#4C2C21"/>
<path d="M41 29V32.5H42C42.1326 32.5 42.2598 32.5527 42.3536 32.6464C42.4473 32.7402 42.5 32.8674 42.5 33C42.4974 33.0227 42.4927 33.0451 42.486 33.067C42.6665 33.1148 42.8395 33.1875 43 33.283V31C43 30.4696 42.7893 29.9609 42.4142 29.5858C42.0391 29.2107 41.5304 29 41 29V29Z" fill="#241510"/>
<path d="M39 23.014V19.09C38.6698 19.0321 38.3353 19.002 38 19C37.7348 19 37.4804 19.1054 37.2929 19.2929C37.1054 19.4804 37 19.7348 37 20V25C37 25 39 29 41 29C42.1 29 43 30.895 43 32V33.283C43.3024 33.4566 43.554 33.7065 43.7295 34.0078C43.905 34.3092 43.9983 34.6513 44 35V28C43.776 28 43.561 27.991 43.355 27.973C42.1429 27.8348 41.0256 27.2505 40.2206 26.3339C39.4156 25.4172 38.9805 24.2338 39 23.014V23.014Z" fill="#613529"/>
<path d="M13 58L11.52 56.03C11.139 56.3477 10.8924 56.7979 10.83 57.29L10.73 58.09L13.5 62.245C13.8272 62.7382 14.0011 63.3172 14 63.909V74C14.0017 74.654 13.7891 75.2905 13.3948 75.8123C13.0006 76.334 12.4462 76.7123 11.8166 76.8892C11.187 77.0661 10.5168 77.0319 9.90849 76.7919C9.30015 76.5518 8.78717 76.1192 8.448 75.56L8 79H16V63L13 58Z" fill="#CCD6E0"/>
<path d="M53 77C52.2044 77 51.4413 76.684 50.8787 76.1213C50.3161 75.5587 50 74.7957 50 74V63.606C49.9999 63.211 50.1168 62.8247 50.336 62.496L53.274 58.089L53.174 57.289C53.1384 57.003 53.0402 56.7284 52.8863 56.4847C52.7325 56.241 52.5268 56.0342 52.284 55.879H52.274L51 58L48 63V79H56L55.552 75.56C55.2858 75.9988 54.9113 76.3616 54.4643 76.6138C54.0174 76.866 53.5132 76.999 53 77V77Z" fill="#CCD6E0"/>
<path d="M43.826 66.217L42 79H44L45 67L43.826 66.217Z" fill="white"/>
<path d="M43.444 53.185L42 52.76V53L44 59L39 61L40.628 62.302L46 60L43.444 53.185Z" fill="white"/>
<path d="M20 79H22L20.174 66.217L19 67L20 79Z" fill="white"/>
<path d="M20 59L22 53V52.76L20.556 53.185L18 60L23.372 62.302L25 61L20 59Z" fill="white"/>
<path d="M29.6 57.2L29 56L25 52V54L29 58L29.6 57.2Z" fill="#8394B2"/>
<path d="M34.3994 57.2L34.9994 58L38.9994 54V52L34.9994 56L34.3994 57.2Z" fill="#8394B2"/>
<path d="M29.6 57.2L32 54L34.4 57.2L35 56L32 52L29 56L29.6 57.2Z" fill="#0F3D91"/>
<path d="M32.9 60H34.19L34 58H30L28 79H30L30.9 61.9C30.9257 61.3871 31.1477 60.9037 31.52 60.55C31.8923 60.1963 32.3864 59.9994 32.9 60Z" fill="#0F3D91"/>
<path d="M37.1 70L38 79H35L34 70H37.1Z" fill="#2B2B37"/>
<path d="M37.1 70L37 69H51L52 79H38L37.1 70Z" fill="#0065FF"/>
<path d="M48 74H53V79H46V76C46 75.4696 46.2107 74.9609 46.5858 74.5858C46.9609 74.2107 47.4696 74 48 74Z" fill="#F4BAA6"/>
<path d="M38.0003 79L37.1003 70H36.1253L36.7193 74.752C36.7541 75.0299 36.7302 75.3119 36.649 75.58C36.5679 75.848 36.4314 76.096 36.2483 76.3079C36.0652 76.5198 35.8397 76.6909 35.5863 76.8101C35.3329 76.9294 35.0573 76.994 34.7773 77L35.0003 79H38.0003Z" fill="#222430"/>
<path d="M47.277 75H47C46.7348 75 46.4804 75.1054 46.2929 75.2929C46.1054 75.4804 46 75.7348 46 76C46 76.2652 45.8946 76.5196 45.7071 76.7071C45.5196 76.8946 45.2652 77 45 77H41.766C41.2784 77.0001 40.8076 76.8221 40.4421 76.4995C40.0766 76.1768 39.8415 75.7318 39.781 75.248L39 69H37L37.1 70L38 79H47V76C47.0021 75.648 47.0977 75.3029 47.277 75V75Z" fill="#003CBF"/>
<path d="M51 78H49C48.7348 78 48.4804 77.8946 48.2929 77.7071C48.1054 77.5196 48 77.2652 48 77V75C48 74.7348 48.1054 74.4804 48.2929 74.2929C48.4804 74.1054 48.7348 74 49 74H48C47.4696 74 46.9609 74.2107 46.5858 74.5858C46.2107 74.9609 46 75.4696 46 76V79H53V76C53 76.5304 52.7893 77.0391 52.4142 77.4142C52.0391 77.7893 51.5304 78 51 78Z" fill="#D68975"/>
</svg>
