<svg width="97" height="94" viewBox="0 0 97 94" fill="none" xmlns="http://www.w3.org/2000/svg">
<g opacity="0.1" clip-path="url(#clip0_0_2361)">
<path d="M59.1563 28.605L59.1563 23.4795L59.1563 8.12924C59.1563 7.26184 58.7883 6.49958 58.2363 5.9476C57.658 5.39562 56.8695 5.02764 56.0547 5.02764L45.8299 5.02764C44.9625 5.02764 44.2003 5.39562 43.6483 5.9476C43.0963 6.49958 42.7283 7.28812 42.7283 8.12923L42.7283 23.4795C42.7283 24.5835 41.8084 25.5034 40.7044 25.5034L25.3541 25.5034C24.4867 25.5034 23.7245 25.8714 23.1725 26.4234C22.6205 26.9754 22.2525 27.7376 22.2525 28.605L22.2525 38.8298C22.2525 39.6709 22.6205 40.4331 23.1725 41.0114C23.7245 41.5634 24.4867 41.9314 25.3541 41.9314L37.3662 41.9314L37.3662 45.9792L25.3804 45.9792C23.4091 45.9792 21.6217 45.1644 20.36 43.8764C19.0721 42.5885 18.2573 40.8011 18.2573 38.8561L18.2573 28.6313C18.2573 26.66 19.0721 24.8726 20.36 23.6109C21.6217 22.323 23.4354 21.5082 25.3804 21.5082L38.7068 21.5082L38.7068 8.1818C38.7068 6.21045 39.5216 4.44937 40.8095 3.16142C42.0712 1.87347 43.8849 1.05864 45.8299 1.05864L56.0547 1.05864C58.026 1.05864 59.7871 1.84719 61.0751 3.16142C62.363 4.44937 63.1778 6.23674 63.1778 8.1818L63.1778 23.5321L63.1778 28.6576C63.1778 33.4414 61.2065 37.7784 58.0523 40.9063C54.9244 44.0604 50.5875 46.0318 45.8036 46.0318L44.0426 46.0318L44.0426 41.9839L45.8036 41.9839C49.4572 41.9839 52.7954 40.4594 55.2136 38.0675C57.6318 35.5968 59.1563 32.2586 59.1563 28.605Z" fill="#00E1F0"/>
<path d="M42.728 38.8298L42.728 43.9553L42.728 59.2793C42.728 60.1467 43.0959 60.9089 43.6479 61.4609C44.1999 62.0392 44.9622 62.3809 45.8296 62.3809L56.0543 62.3809C56.8954 62.3809 57.6577 62.0392 58.2359 61.4609C58.7879 60.9089 59.1559 60.1467 59.1559 59.2793L59.1559 43.9553C59.1559 42.8251 60.0496 41.9314 61.1798 41.9314L76.5038 41.9314C77.3712 41.9314 78.1335 41.5634 78.6854 41.0114C79.2637 40.4332 79.6054 39.6446 79.6054 38.8298L79.6054 28.605C79.6054 27.7376 79.2637 26.9754 78.6854 26.4234C78.1335 25.8714 77.3712 25.5034 76.5038 25.5034L64.5443 25.5034L64.5443 21.4556L76.5038 21.4556C78.4752 21.4556 80.2625 22.2441 81.5505 23.5584C82.8121 24.8463 83.627 26.6337 83.627 28.605L83.627 38.8298C83.627 40.8011 82.8121 42.5622 81.5505 43.8502C80.2625 45.1381 78.4489 45.9529 76.5038 45.9529L63.2037 45.9529L63.2037 59.2793C63.2037 61.2769 62.4152 63.038 61.101 64.326C59.7867 65.5876 58.0257 66.4024 56.0543 66.4024L45.8295 66.4024C43.8582 66.4024 42.0708 65.5876 40.8092 64.326C39.5212 63.038 38.7064 61.2506 38.7064 59.2793L38.7064 43.9553L38.7064 38.8298C38.7064 34.046 40.6515 29.709 43.8056 26.5548C46.9598 23.4007 51.2968 21.4556 56.0806 21.4556L57.8154 21.4556L57.8154 25.5034L56.0806 25.5034C52.4007 25.5034 49.0889 27.0017 46.6444 29.4199C44.2262 31.8381 42.728 35.1499 42.728 38.8298Z" fill="#0D52D1"/>
</g>
<g clip-path="url(#clip1_0_2361)">
<path d="M57.1441 27.5989L57.1441 22.4734L57.1441 7.12314C57.1441 6.25574 56.7761 5.49348 56.2241 4.94151C55.6458 4.38953 54.8573 4.02154 54.0425 4.02154L43.8177 4.02154C42.9503 4.02154 42.1881 4.38953 41.6361 4.9415C41.0841 5.49348 40.7161 6.28203 40.7161 7.12314L40.7161 22.4734C40.7161 23.5774 39.7962 24.4973 38.6922 24.4973L23.3419 24.4973C22.4745 24.4973 21.7123 24.8653 21.1603 25.4173C20.6083 25.9693 20.2403 26.7315 20.2403 27.5989L20.2403 37.8237C20.2403 38.6648 20.6083 39.427 21.1603 40.0053C21.7123 40.5573 22.4745 40.9253 23.3419 40.9253L35.3541 40.9253L35.354 44.9731L23.3682 44.9731C21.3969 44.9731 19.6095 44.1583 18.3478 42.8703C17.0599 41.5824 16.2451 39.795 16.2451 37.85L16.2451 27.6252C16.2451 25.6539 17.0599 23.8665 18.3478 22.6048C19.6095 21.3169 21.4232 20.5021 23.3682 20.5021L36.6946 20.5021L36.6946 7.1757C36.6946 5.20435 37.5094 3.44327 38.7974 2.15532C40.059 0.867372 41.8727 0.052546 43.8177 0.0525461L54.0425 0.052547C56.0138 0.0525472 57.7749 0.841089 59.0629 2.15532C60.3508 3.44328 61.1656 5.23064 61.1656 7.17571L61.1656 22.526L61.1656 27.6515C61.1656 32.4353 59.1943 36.7723 56.0401 39.9002C52.9122 43.0543 48.5753 45.0257 43.7914 45.0257L42.0304 45.0257L42.0304 40.9778L43.7914 40.9778C47.445 40.9778 50.7832 39.4533 53.2014 37.0614C55.6196 34.5907 57.1441 31.2525 57.1441 27.5989Z" fill="#00E1F0"/>
<path d="M40.7158 37.8237L40.7158 42.9492L40.7158 58.2732C40.7158 59.1406 41.0837 59.9028 41.6357 60.4548C42.1877 61.0331 42.95 61.3748 43.8174 61.3748L54.0421 61.3748C54.8832 61.3748 55.6455 61.0331 56.2237 60.4548C56.7757 59.9028 57.1437 59.1406 57.1437 58.2732L57.1437 42.9492C57.1437 41.819 58.0374 40.9253 59.1676 40.9253L74.4916 40.9253C75.359 40.9253 76.1213 40.5573 76.6732 40.0053C77.2515 39.4271 77.5932 38.6385 77.5932 37.8237L77.5932 27.5989C77.5932 26.7315 77.2515 25.9693 76.6732 25.4173C76.1213 24.8653 75.359 24.4973 74.4916 24.4973L62.5321 24.4973L62.5321 20.4495L74.4916 20.4495C76.463 20.4495 78.2503 21.238 79.5383 22.5523C80.7999 23.8402 81.6148 25.6276 81.6148 27.5989L81.6148 37.8237C81.6148 39.795 80.7999 41.5561 79.5383 42.8441C78.2503 44.132 76.4367 44.9468 74.4916 44.9468L61.1915 44.9468L61.1915 58.2732C61.1915 60.2708 60.403 62.0319 59.0888 63.3199C57.7745 64.5815 56.0135 65.3963 54.0421 65.3963L43.8174 65.3963C41.846 65.3963 40.0586 64.5815 38.797 63.3199C37.509 62.0319 36.6942 60.2445 36.6942 58.2732L36.6942 42.9492L36.6942 37.8237C36.6942 33.0399 38.6393 28.7029 41.7934 25.5487C44.9476 22.3946 49.2846 20.4495 54.0684 20.4495L55.8032 20.4495L55.8032 24.4973L54.0684 24.4973C50.3885 24.4973 47.0767 25.9956 44.6322 28.4138C42.214 30.832 40.7158 34.1438 40.7158 37.8237Z" fill="#0D52D1"/>
</g>
<path d="M13.1115 76.6647L8.2822 84.6571L3.42878 76.6647H0V93.5671H3.3322V82.6288L8.08903 90.4522H8.47537L13.2322 82.6047V93.5671H16.5402V76.6647H13.1115Z" fill="#0D52D1"/>
<path d="M31.7628 88.8103C31.8353 88.3032 31.8836 87.8686 31.8836 87.5305C31.8836 85.7195 31.304 84.2225 30.145 82.991C29.0101 81.7595 27.5614 81.1559 25.7745 81.1559C23.8911 81.1559 22.3699 81.7595 21.1867 82.991C20.0035 84.2225 19.3999 85.7195 19.3999 87.5305C19.3999 89.3656 20.0035 90.8869 21.2109 92.0942C22.4182 93.3015 24.0118 93.9052 26.016 93.9052C28.334 93.9052 30.0967 93.0359 31.2799 91.3215L28.7687 89.8727C28.165 90.6695 27.2475 91.08 26.0643 91.08C24.205 91.08 23.0701 90.3315 22.6596 88.8103H31.7628ZM22.6114 86.3956C22.9977 84.7778 24.0601 83.9569 25.7745 83.9569C27.4165 83.9569 28.4065 84.7778 28.7687 86.3956H22.6114Z" fill="#0D52D1"/>
<path d="M43.5981 82.9186C42.6805 81.7354 41.3766 81.1559 39.6864 81.1559C38.0686 81.1559 36.6681 81.7837 35.5091 83.0152C34.3742 84.2466 33.7947 85.7678 33.7947 87.5305C33.7947 89.3173 34.3742 90.8386 35.5091 92.07C36.6681 93.3015 38.0686 93.9052 39.6864 93.9052C41.3766 93.9052 42.6805 93.3256 43.5981 92.1425V93.5671H46.713V76.6647H43.5981V82.9186ZM40.2659 90.9352C39.3242 90.9352 38.5032 90.6212 37.8513 89.9934C37.2235 89.3415 36.9096 88.5205 36.9096 87.5305C36.9096 86.5405 37.2235 85.7195 37.8513 85.0917C38.5032 84.4398 39.3001 84.1259 40.2659 84.1259C41.2318 84.1259 42.0286 84.4398 42.6564 85.0917C43.2842 85.7195 43.5981 86.5405 43.5981 87.5305C43.5981 88.5205 43.2842 89.3415 42.6564 89.9934C42.0286 90.6212 41.2318 90.9352 40.2659 90.9352Z" fill="#0D52D1"/>
<path d="M50.2378 79.4898C50.6241 79.852 51.0829 80.0452 51.59 80.0452C52.1212 80.0452 52.58 79.852 52.9663 79.4898C53.3285 79.1034 53.5217 78.6447 53.5217 78.1376C53.5217 77.6305 53.3285 77.1717 52.9663 76.7854C52.58 76.3991 52.1212 76.2059 51.59 76.2059C51.0829 76.2059 50.6241 76.3991 50.2378 76.7854C49.8756 77.1717 49.6824 77.6305 49.6824 78.1376C49.6824 78.6447 49.8756 79.1034 50.2378 79.4898ZM53.1595 93.5671V81.4939H50.0446V93.5671H53.1595Z" fill="#0D52D1"/>
<path d="M59.1253 76.6647H56.8797V93.5671H66.4175V91.4422H59.1253V76.6647Z" fill="#0D52D1"/>
<path d="M78.4605 83.5705C77.4222 81.9769 75.901 81.18 73.8969 81.18C72.2066 81.18 70.7579 81.8078 69.5747 83.0393C68.3915 84.2708 67.7879 85.7678 67.7879 87.5305C67.7879 89.2932 68.3915 90.8144 69.5747 92.0459C70.7579 93.2773 72.1825 93.881 73.8969 93.881C75.901 93.881 77.4222 93.0842 78.4605 91.4905V93.5671H80.5613V81.4939H78.4605V83.5705ZM77.2291 90.6213C76.4081 91.4422 75.3939 91.8527 74.1625 91.8527C72.9552 91.8527 71.941 91.4422 71.12 90.6213C70.2991 89.7761 69.8886 88.7378 69.8886 87.5305C69.8886 86.2991 70.2991 85.2849 71.12 84.4639C71.941 83.6188 72.9552 83.2083 74.1625 83.2083C75.3939 83.2083 76.4081 83.6188 77.2291 84.4639C78.05 85.2849 78.4605 86.2991 78.4605 87.5305C78.4605 88.7378 78.05 89.7761 77.2291 90.6213Z" fill="#0D52D1"/>
<path d="M95.2136 83.0393C94.0304 81.8078 92.5816 81.18 90.8914 81.18C88.8872 81.18 87.366 81.9769 86.3277 83.5705V76.6647H84.227V93.5671H86.3277V91.4905C87.366 93.0842 88.8872 93.881 90.8914 93.881C92.6058 93.881 94.0304 93.2773 95.2136 92.0459C96.3967 90.8144 97.0004 89.2932 97.0004 87.5305C97.0004 85.7678 96.3967 84.2708 95.2136 83.0393ZM93.6682 90.6213C92.8472 91.4422 91.8331 91.8527 90.6258 91.8527C89.3943 91.8527 88.3802 91.4422 87.5592 90.6213C86.7382 89.7761 86.3277 88.7378 86.3277 87.5305C86.3277 86.2991 86.7382 85.2849 87.5592 84.4639C88.3802 83.6188 89.3943 83.2083 90.6258 83.2083C91.8331 83.2083 92.8472 83.6188 93.6682 84.4639C94.4892 85.2849 94.8997 86.2991 94.8997 87.5305C94.8997 88.7378 94.4892 89.7761 93.6682 90.6213Z" fill="#0D52D1"/>
<defs>
<clipPath id="clip0_0_2361">
<rect width="65" height="65" fill="white" transform="translate(83.627 66.4024) scale(1.0061) rotate(-180)"/>
</clipPath>
<clipPath id="clip1_0_2361">
<rect width="65" height="65" fill="white" transform="translate(81.6148 65.3963) scale(1.0061) rotate(-180)"/>
</clipPath>
</defs>
</svg>
