<svg width="24" height="24" viewBox="0 0 24 24" fill="none" xmlns="http://www.w3.org/2000/svg">
<path d="M12 22C17.5228 22 22 17.5228 22 12C22 6.47715 17.5228 2 12 2C6.47715 2 2 6.47715 2 12C2 17.5228 6.47715 22 12 22Z" fill="#F0F0F0"/>
<path d="M4.06742 5.91211C3.28191 6.9341 2.68961 8.11203 2.34473 9.39168H7.54699L4.06742 5.91211Z" fill="#0052B4"/>
<path d="M21.6558 9.39165C21.3109 8.11203 20.7186 6.9341 19.9331 5.91211L16.4536 9.39165H21.6558Z" fill="#0052B4"/>
<path d="M2.34473 14.6094C2.68965 15.889 3.28195 17.0669 4.06742 18.0889L7.54688 14.6094H2.34473Z" fill="#0052B4"/>
<path d="M18.0884 4.06746C17.0664 3.28195 15.8885 2.68965 14.6089 2.34473V7.54695L18.0884 4.06746Z" fill="#0052B4"/>
<path d="M5.91211 19.9326C6.9341 20.7181 8.11203 21.3104 9.39164 21.6553V16.4531L5.91211 19.9326Z" fill="#0052B4"/>
<path d="M9.3916 2.34473C8.11199 2.68965 6.93406 3.28195 5.91211 4.06742L9.3916 7.54691V2.34473Z" fill="#0052B4"/>
<path d="M14.6089 21.6553C15.8885 21.3104 17.0664 20.7181 18.0884 19.9326L14.6089 16.4531V21.6553Z" fill="#0052B4"/>
<path d="M16.4536 14.6094L19.9331 18.0889C20.7186 17.067 21.3109 15.889 21.6558 14.6094H16.4536Z" fill="#0052B4"/>
<path d="M21.9154 10.6957H13.3044H13.3044V2.08465C12.8774 2.02906 12.4421 2 12 2C11.5579 2 11.1226 2.02906 10.6957 2.08465V10.6956V10.6956H2.08465C2.02906 11.1226 2 11.5579 2 12C2 12.4421 2.02906 12.8774 2.08465 13.3043H10.6956H10.6956V21.9154C11.1226 21.9709 11.5579 22 12 22C12.4421 22 12.8774 21.971 13.3043 21.9154V13.3044V13.3044H21.9154C21.9709 12.8774 22 12.4421 22 12C22 11.5579 21.9709 11.1226 21.9154 10.6957V10.6957Z" fill="#D80027"/>
<path d="M14.6084 14.6084L19.0707 19.0708C19.276 18.8656 19.4718 18.6511 19.6586 18.4288L15.8382 14.6084H14.6084V14.6084Z" fill="#D80027"/>
<path d="M9.39109 14.6084H9.39101L4.92871 19.0707C5.13387 19.2759 5.34836 19.4717 5.5707 19.6585L9.39109 15.838V14.6084Z" fill="#D80027"/>
<path d="M9.39098 9.39118V9.3911L4.92863 4.92871C4.7234 5.13387 4.52762 5.34836 4.34082 5.5707L8.16125 9.39114H9.39098V9.39118Z" fill="#D80027"/>
<path d="M14.6084 9.39102L19.0708 4.92859C18.8656 4.72336 18.6511 4.52758 18.4288 4.34082L14.6084 8.16125V9.39102Z" fill="#D80027"/>
</svg>
