<svg width="64" height="62" viewBox="0 0 64 62" fill="none" xmlns="http://www.w3.org/2000/svg">
<g clip-path="url(#clip0_0_6855)">
<path d="M52 61.0133H12C5.372 61.0133 0 55.892 0 49.5733V11.44C0 5.12131 5.372 0 12 0H52C58.628 0 64 5.12131 64 11.44V49.5733C64 55.892 58.628 61.0133 52 61.0133Z" fill="#F2F6FE"/>
<path d="M42.6663 24.1519C39.1483 24.1519 38.7363 25.355 36.5443 27.0957C36.0203 27.5114 35.3623 27.6983 34.6863 27.622C34.0103 27.5476 33.4143 27.2197 33.0063 26.7011C31.7083 25.0499 29.4483 24.354 27.3803 24.9698L24.6023 25.7973C23.9003 26.007 23.5083 26.7201 23.7263 27.3894C23.9463 28.0605 24.6983 28.4323 25.3963 28.2245L28.1743 27.397C29.1663 27.1015 30.2503 27.4351 30.8723 28.2264C31.7243 29.3075 32.9683 29.9901 34.3763 30.1464C35.7723 30.2989 37.1083 29.9195 38.1843 29.0901C39.1183 29.9557 40.7403 30.5068 42.6663 30.5068C45.7063 30.5068 48.0003 29.1416 48.0003 27.3284C48.0003 25.5151 45.7063 24.1519 42.6663 24.1519Z" fill="#00E1F0"/>
<path d="M37.3339 39.4053C35.1019 39.4053 34.2819 40.2004 32.7919 41.6189C32.4819 41.9144 32.1219 41.9297 31.9339 41.9106C31.7459 41.8935 31.3959 41.8115 31.1539 41.4645C30.1959 40.0936 28.3939 39.5311 26.7739 40.0936L24.8759 40.7514C24.1839 40.9916 23.8279 41.72 24.0779 42.3797C24.3299 43.0394 25.0959 43.3788 25.7859 43.1404L27.6839 42.4826C28.1439 42.3225 28.6599 42.4826 28.9319 42.8735C29.5539 43.7639 30.5519 44.334 31.6679 44.4408C32.6819 44.5323 33.6059 44.2368 34.3519 43.6667C35.0739 44.1738 36.1159 44.4884 37.3279 44.4884C39.6079 44.4884 41.3279 43.3959 41.3279 41.9469C41.3339 40.4978 39.6139 39.4053 37.3339 39.4053Z" fill="#00E1F0"/>
<path d="M26.356 36.04C27.078 36.5471 28.12 36.8617 29.332 36.8617C31.612 36.8617 33.332 35.7692 33.332 34.3202C33.332 32.8711 31.612 31.7786 29.332 31.7786C27.1 31.7786 26.28 32.5736 24.79 33.9922C24.48 34.2877 24.12 34.303 23.932 34.2839C23.744 34.2668 23.394 34.1848 23.152 33.8378C22.194 32.4669 20.39 31.9063 18.772 32.4669L16.874 33.1247C16.182 33.3649 15.826 34.0933 16.076 34.753C16.328 35.4127 17.092 35.7521 17.784 35.5137L19.682 34.8559C20.144 34.6958 20.656 34.8559 20.93 35.2468C21.552 36.1372 22.55 36.7073 23.666 36.8141C24.686 36.9056 25.61 36.6101 26.356 36.04Z" fill="#0065FF"/>
<path d="M21.788 20.2623L23.686 19.6045C24.146 19.4443 24.662 19.6045 24.934 19.9953C25.556 20.8857 26.554 21.4558 27.67 21.5626C28.684 21.6541 29.608 21.3586 30.354 20.7885C31.076 21.2957 32.118 21.6103 33.33 21.6103C35.61 21.6103 37.33 20.5178 37.33 19.0687C37.33 17.6196 35.61 16.5271 33.33 16.5271C30.982 16.5271 30.122 17.469 28.788 18.7407C28.478 19.0363 28.118 19.0515 27.93 19.0325C27.742 19.0153 27.392 18.9333 27.15 18.5863C26.192 17.2154 24.39 16.6529 22.77 17.2154L20.872 17.8732C20.18 18.1134 19.824 18.8418 20.074 19.5015C20.332 20.1612 21.096 20.4987 21.788 20.2623V20.2623Z" fill="#0065FF"/>
</g>
<defs>
<clipPath id="clip0_0_6855">
<rect width="64" height="61.0133" fill="white"/>
</clipPath>
</defs>
</svg>
