<svg width="44" height="80" viewBox="0 0 44 80" fill="none" xmlns="http://www.w3.org/2000/svg">
<rect width="44" height="80" rx="5" fill="white"/>
<path d="M29.5 21.464V22.536C29.4998 22.6779 29.4433 22.8139 29.343 22.9142C29.2427 23.0145 29.1067 23.071 28.9648 23.0712H23.0712V28.9648C23.071 29.1067 23.0145 29.2427 22.9142 29.343C22.8139 29.4433 22.6779 29.4998 22.536 29.5H21.464C21.3221 29.4998 21.1861 29.4433 21.0858 29.343C20.9855 29.2427 20.929 29.1067 20.9288 28.9648V23.0712H15.0352C14.8933 23.071 14.7573 23.0145 14.657 22.9142C14.5567 22.8139 14.5002 22.6779 14.5 22.536V21.464C14.5 21.1683 14.7395 20.9288 15.0352 20.9288H20.9288V15.0352C20.9288 14.7395 21.1683 14.5 21.464 14.5H22.536C22.8317 14.5 23.0712 14.7395 23.0712 15.0352V20.9288H28.9648C29.2605 20.9288 29.5 21.1683 29.5 21.464V21.464Z" fill="#00133D"/>
<path d="M15.0352 59.3089C14.8933 59.3087 14.7573 59.2522 14.657 59.1519C14.5567 59.0516 14.5002 58.9156 14.5 58.7737V57.7017C14.5 57.406 14.7395 57.1665 15.0352 57.1665H28.9648C29.2605 57.1665 29.5 57.406 29.5 57.7017V58.7737C29.4998 58.9156 29.4433 59.0516 29.343 59.1519C29.2427 59.2522 29.1067 59.3087 28.9648 59.3089H15.0352Z" fill="#00133D"/>
</svg>
