<svg width="16" height="16" viewBox="0 0 16 16" fill="none" xmlns="http://www.w3.org/2000/svg">
<path d="M3.79626 4.28673C10.3619 3.39524 11.9799 3.50465 13.0002 4.6665C14.0205 5.82836 13.7816 9.65857 12.5889 10.7246C11.3969 11.7906 6.22026 11.8919 4.58026 10.7246C2.84759 9.49057 3.85293 5.69457 3.79626 3.39524C3.83026 2.10857 2.43359 1.8999 2.43359 1.8999" stroke="#112950" stroke-linecap="round" stroke-linejoin="round"/>
<path d="M9.4375 7.14632H11.2862" stroke="#112950" stroke-linecap="round" stroke-linejoin="round"/>
<path fill-rule="evenodd" clip-rule="evenodd" d="M4.84283 13.418C5.04283 13.418 5.20549 13.5806 5.20549 13.7806C5.20549 13.9813 5.04283 14.144 4.84283 14.144C4.64216 14.144 4.47949 13.9813 4.47949 13.7806C4.47949 13.5806 4.64216 13.418 4.84283 13.418Z" fill="#112950" stroke="#112950" stroke-width="1.5" stroke-linecap="round" stroke-linejoin="round"/>
<path fill-rule="evenodd" clip-rule="evenodd" d="M11.7308 13.418C11.9315 13.418 12.0942 13.5806 12.0942 13.7806C12.0942 13.9813 11.9315 14.144 11.7308 14.144C11.5308 14.144 11.3682 13.9813 11.3682 13.7806C11.3682 13.5806 11.5308 13.418 11.7308 13.418Z" fill="#112950" stroke="#112950" stroke-width="1.5" stroke-linecap="round" stroke-linejoin="round"/>
</svg>
