<svg width="64" height="80" viewBox="0 0 64 80" fill="none" xmlns="http://www.w3.org/2000/svg">
<circle cx="33" cy="27" r="27" fill="#EBF5EF"/>
<path d="M4 20H60V62H4V20Z" fill="#006FDB"/>
<path d="M24 65H40V71H24V65Z" fill="#393D48"/>
<path d="M48 76H16L24 71H40L48 76Z" fill="#5C6979"/>
<path d="M16 76H48C48.5299 76.0016 49.0377 76.2128 49.4125 76.5875C49.7872 76.9623 49.9984 77.4701 50 78V79H14V78C14.0016 77.4701 14.2128 76.9623 14.5875 76.5875C14.9623 76.2128 15.4701 76.0016 16 76V76Z" fill="#393D48"/>
<path d="M3 17H61C61.5299 17.0016 62.0377 17.2128 62.4125 17.5875C62.7872 17.9623 62.9984 18.4701 63 19V63C62.9984 63.5299 62.7872 64.0377 62.4125 64.4125C62.0377 64.7872 61.5299 64.9984 61 65H3C2.47005 64.9984 1.96227 64.7872 1.58753 64.4125C1.2128 64.0377 1.00158 63.5299 1 63V19C1.00158 18.4701 1.2128 17.9623 1.58753 17.5875C1.96227 17.2128 2.47005 17.0016 3 17V17ZM4 62H60V20H4V62Z" fill="#393D48"/>
<path d="M56.9396 42.1C57.0076 42.3138 57.0254 42.5405 56.9915 42.7623C56.9577 42.9841 56.8732 43.1951 56.7445 43.3789C56.6158 43.5628 56.4465 43.7144 56.2496 43.8221C56.0528 43.9299 55.8338 43.9907 55.6096 44C55.3202 43.994 55.0399 43.8984 54.8071 43.7265C54.5743 43.5546 54.4005 43.3148 54.3096 43.04L51.9996 36V54.95C52.0019 55.2206 51.8994 55.4815 51.7135 55.6782C51.5277 55.8748 51.2729 55.9919 51.0027 56.0048C50.7324 56.0177 50.4676 55.9255 50.2638 55.7475C50.0601 55.5695 49.9331 55.3196 49.9096 55.05L48.9996 44L48.0896 55.05C48.0661 55.3196 47.9391 55.5695 47.7353 55.7475C47.5315 55.9255 47.2668 56.0177 46.9965 56.0048C46.7262 55.9919 46.4715 55.8748 46.2856 55.6782C46.0998 55.4815 45.9972 55.2206 45.9996 54.95V36L43.6896 43.04C43.5987 43.3148 43.4249 43.5546 43.1921 43.7265C42.9593 43.8984 42.6789 43.994 42.3896 44C42.0104 43.9893 41.6509 43.8284 41.3903 43.5528C41.1296 43.2771 40.9891 42.9092 40.9996 42.53C40.9999 42.3846 41.02 42.2399 41.0596 42.1L43.0796 34.97C43.2508 34.3416 43.5736 33.7647 44.0196 33.29L44.1296 33.17C44.8983 32.4225 45.9274 32.003 46.9996 32H50.9996C52.0718 32.003 53.1009 32.4225 53.8696 33.17L53.9796 33.29C54.4256 33.7647 54.7483 34.3416 54.9196 34.97L56.9396 42.1Z" fill="#EDF4FA"/>
<path d="M51.12 24.88C51.609 25.3704 51.9128 26.0151 51.9798 26.7043C52.0468 27.3936 51.8728 28.0848 51.4874 28.6601C51.1021 29.2355 50.5292 29.6595 49.8663 29.8599C49.2035 30.0603 48.4916 30.0247 47.852 29.7592C47.2124 29.4937 46.6847 29.0148 46.3586 28.4038C46.0325 27.7929 45.9283 27.0879 46.0636 26.4087C46.199 25.7296 46.5656 25.1184 47.101 24.6792C47.6364 24.24 48.3075 24 49 24C49.3939 24 49.7839 24.0777 50.1477 24.2287C50.5115 24.3797 50.8419 24.601 51.12 24.88V24.88Z" fill="#EDF4FA"/>
<path d="M49 44L48.09 55.05C48.0773 55.1592 48.0469 55.2656 48 55.365C48.0833 55.5671 48.229 55.7374 48.4158 55.8509C48.6027 55.9645 48.8209 56.0153 49.0387 55.9961C49.2565 55.9769 49.4625 55.8887 49.6266 55.7442C49.7907 55.5997 49.9044 55.4066 49.951 55.193C49.9339 55.1464 49.9202 55.0986 49.91 55.05L49 44Z" fill="#004080"/>
<path d="M46 36L44 42.1V54.95C44 55.2285 44.1106 55.4955 44.3075 55.6925C44.5045 55.8894 44.7715 56 45.05 56C45.2834 55.9984 45.5093 55.9177 45.6909 55.7711C45.8725 55.6246 45.9991 55.4208 46.05 55.193C46.0232 55.1144 46.0064 55.0328 46 54.95V36Z" fill="#004080"/>
<path d="M41.0596 42.1L43.0796 34.97C43.2508 34.3416 43.5736 33.7647 44.0196 33.29L44.1296 33.17C44.8983 32.4225 45.9274 32.003 46.9996 32H44.9996C43.9274 32.003 42.8983 32.4225 42.1296 33.17L42.0196 33.29C41.5736 33.7647 41.2508 34.3416 41.0796 34.97L39.0596 42.1C39.02 42.2399 38.9999 42.3846 38.9996 42.53C38.9891 42.9092 39.1296 43.2771 39.3903 43.5528C39.6509 43.8284 40.0103 43.9893 40.3896 44C40.5779 43.997 40.7634 43.9541 40.9339 43.8741C41.1044 43.7942 41.2559 43.6789 41.3786 43.536C41.1338 43.2581 40.999 42.9003 40.9996 42.53C40.9999 42.3846 41.02 42.2399 41.0596 42.1Z" fill="#004080"/>
<path d="M52 36V42.1L52.31 43.045C52.4009 43.3198 52.5747 43.5596 52.8075 43.7315C53.0403 43.9034 53.3207 43.999 53.61 44.005C53.8013 44.0034 53.9901 43.9607 54.1635 43.8798C54.3369 43.7989 54.4909 43.6816 54.615 43.536C54.4848 43.3928 54.383 43.2262 54.315 43.045L52 36Z" fill="#004080"/>
<path d="M47 30C47.3415 29.9971 47.6799 29.9349 48 29.816C47.4144 29.6136 46.9065 29.2336 46.547 28.7289C46.1875 28.2243 45.9943 27.6201 45.9943 27.0005C45.9943 26.3809 46.1875 25.7767 46.547 25.2721C46.9065 24.7674 47.4144 24.3874 48 24.185C47.6798 24.0661 47.3415 24.0036 47 24C46.2044 24 45.4413 24.3161 44.8787 24.8787C44.3161 25.4413 44 26.2044 44 27C44 27.7956 44.3161 28.5587 44.8787 29.1213C45.4413 29.6839 46.2044 30 47 30V30Z" fill="#004080"/>
<path d="M40 65H24V71H28V69C28 68.4696 28.2107 67.9609 28.5858 67.5858C28.9609 67.2107 29.4696 67 30 67H40V65Z" fill="#2B2B37"/>
<path d="M27.869 74C27.6879 74.0002 27.5101 73.9512 27.3546 73.8583C27.1992 73.7653 27.0719 73.6319 26.9864 73.4722C26.9008 73.3125 26.8603 73.1326 26.869 72.9517C26.8778 72.7708 26.9355 72.5957 27.036 72.445L28 71H24L16 76H48L44.8 74H27.869Z" fill="#46505C"/>
<path d="M48 78H16C15.6508 77.9981 15.3082 77.9047 15.0063 77.7293C14.7043 77.5539 14.4536 77.3024 14.279 77C14.0985 77.3025 14.0022 77.6478 14 78V79H50V78C49.9978 77.6478 49.9015 77.3025 49.721 77C49.5464 77.3024 49.2957 77.5539 48.9937 77.7293C48.6918 77.9047 48.3492 77.9981 48 78V78Z" fill="#2B2B37"/>
<path d="M3 63H61V19H3V63ZM4 20H60V62H4V20Z" fill="#2B2B37"/>
<path d="M32 57C26.1652 57 20.5695 54.6822 16.4437 50.5564C12.3179 46.4306 10 40.8348 10 35V20H4V62H60V57H32Z" fill="#005EBA"/>
<path d="M14 51.9999C14.2515 51.9776 14.5048 52.0073 14.7443 52.0873C14.9837 52.1672 15.2042 52.2956 15.3918 52.4645C15.5795 52.6334 15.7303 52.8391 15.8349 53.0689C15.9396 53.2986 15.9958 53.5474 16 53.7999C16 56.4999 12.67 57.9999 12 57.9999C11.67 57.9999 8 56.4999 8 53.7999C8.00423 53.5474 8.06042 53.2986 8.16506 53.0689C8.2697 52.8391 8.42054 52.6334 8.60818 52.4645C8.79583 52.2956 9.01625 52.1672 9.25571 52.0873C9.49517 52.0073 9.74853 51.9776 10 51.9999C10.4514 51.9972 10.8913 52.1424 11.2525 52.4132C11.6136 52.6841 11.8762 53.0657 12 53.4999C12.1238 53.0657 12.3864 52.6841 12.7475 52.4132C13.1087 52.1424 13.5486 51.9972 14 51.9999V51.9999Z" fill="#FF505B"/>
<path d="M12 57.0001C11.693 57.0001 8.5 55.7001 8.055 53.3481C8.01861 53.4961 8.00015 53.6478 8 53.8001C8 56.5001 11.67 58.0001 12 58.0001C12.67 58.0001 16 56.5001 16 53.8001C15.9998 53.651 15.9824 53.5023 15.948 53.3571C15.535 55.7001 12.622 57.0001 12 57.0001Z" fill="#E63B47"/>
<path d="M14 51C13.2656 50.9865 12.5526 51.2471 12 51.731C11.4474 51.2471 10.7344 50.9865 10 51C9.61646 50.9753 9.23192 51.0293 8.87002 51.1587C8.50811 51.288 8.17648 51.4901 7.89551 51.7523C7.61454 52.0145 7.39016 52.3315 7.23616 52.6836C7.08216 53.0357 7.0018 53.4156 7 53.8C7 57.1259 11.216 58.9999 12 58.9999C13.205 58.9999 17 57.0999 17 53.8C16.9982 53.4156 16.9178 53.0357 16.7638 52.6836C16.6098 52.3315 16.3855 52.0145 16.1045 51.7523C15.8235 51.4901 15.4919 51.288 15.13 51.1587C14.7681 51.0293 14.3835 50.9753 14 51V51ZM12 57.9999C11.67 57.9999 8 56.4999 8 53.8C8.00423 53.5475 8.06042 53.2987 8.16506 53.069C8.2697 52.8392 8.42054 52.6335 8.60818 52.4646C8.79583 52.2957 9.01625 52.1673 9.25571 52.0874C9.49517 52.0074 9.74853 51.9777 10 52C10.4514 51.9973 10.8913 52.1425 11.2525 52.4133C11.6136 52.6842 11.8762 53.0658 12 53.5C12.1238 53.0658 12.3864 52.6842 12.7475 52.4133C13.1087 52.1425 13.5486 51.9973 14 52C14.2515 51.9777 14.5048 52.0074 14.7443 52.0874C14.9837 52.1673 15.2042 52.2957 15.3918 52.4646C15.5795 52.6335 15.7303 52.8392 15.8349 53.069C15.9396 53.2987 15.9958 53.5475 16 53.8C16 56.4999 12.67 57.9999 12 57.9999Z" fill="#EDF4FA"/>
<path d="M25 59C24.8354 59.0001 24.6734 58.9595 24.5282 58.8818C24.3831 58.8042 24.2593 58.692 24.168 58.555L22.465 56H19V54H23C23.1646 54 23.3266 54.0406 23.4718 54.1182C23.6169 54.1959 23.7407 54.3081 23.832 54.445L24.876 56.012L27.105 51.553C27.1832 51.3962 27.3013 51.2627 27.4474 51.1659C27.5935 51.0691 27.7625 51.0124 27.9374 51.0015C28.1123 50.9905 28.287 51.0257 28.444 51.1036C28.601 51.1814 28.7348 51.2992 28.832 51.445L30.535 54H36V56H30C29.8354 56.0001 29.6734 55.9595 29.5282 55.8818C29.3831 55.8042 29.2593 55.692 29.168 55.555L28.124 53.988L25.9 58.447C25.8216 58.6038 25.7034 58.7373 25.5572 58.834C25.411 58.9307 25.242 58.9873 25.067 58.998L25 59Z" fill="#EDF4FA"/>
<path d="M29 28H39V30H29V28Z" fill="#EDF4FA"/>
<path d="M29 34H39V36H29V34Z" fill="#EDF4FA"/>
<path d="M29 40H39V42H29V40Z" fill="#EDF4FA"/>
<path d="M29 46H39V48H29V46Z" fill="#EDF4FA"/>
<path d="M25 34H27V36H25V34Z" fill="#EDF4FA"/>
<path d="M25 40H27V42H25V40Z" fill="#EDF4FA"/>
<path d="M25 46H27V48H25V46Z" fill="#EDF4FA"/>
<path d="M25 28H27V30H25V28Z" fill="#EDF4FA"/>
<path d="M16.9665 28.17C16.9913 28.0348 17.0023 27.8974 16.9995 27.76V23H14.9995L15.0085 27.763C14.9991 27.8013 14.9918 27.84 14.9865 27.879C14.9681 28.044 14.9085 28.2017 14.8131 28.3375C14.7176 28.4733 14.5895 28.5828 14.4405 28.656L11.9995 29.881L9.55046 28.652C9.40331 28.5784 9.27697 28.4691 9.18298 28.334C9.08899 28.199 9.03037 28.0426 9.01246 27.879C9.01066 27.8391 9.00632 27.7994 8.99946 27.76V23H6.99946V27.76C6.9966 27.8974 7.00766 28.0348 7.03246 28.17C7.09657 28.6535 7.27872 29.1137 7.56281 29.5101C7.84691 29.9066 8.22423 30.2269 8.66146 30.443L9.77046 31L8.67046 31.553C8.23125 31.7686 7.85199 32.0892 7.56627 32.4863C7.28055 32.8835 7.0972 33.345 7.03246 33.83C7.00766 33.9652 6.9966 34.1026 6.99946 34.24V37.76C6.9966 37.8974 7.00766 38.0348 7.03246 38.17C7.09657 38.6535 7.27872 39.1137 7.56281 39.5101C7.84691 39.9066 8.22423 40.2269 8.66146 40.443L9.77046 41L8.67046 41.553C8.23125 41.7686 7.85199 42.0892 7.56627 42.4863C7.28055 42.8835 7.0972 43.345 7.03246 43.83C7.00766 43.9652 6.9966 44.1026 6.99946 44.24V49H8.99946L8.99047 44.237C8.99981 44.1987 9.00716 44.16 9.01246 44.121C9.03079 43.956 9.09044 43.7983 9.18587 43.6625C9.28131 43.5267 9.40946 43.4172 9.55847 43.344L11.9995 42.119L14.4485 43.348C14.5956 43.4216 14.722 43.5309 14.816 43.666C14.9099 43.801 14.9686 43.9574 14.9865 44.121C14.9883 44.1609 14.9926 44.2006 14.9995 44.24V49H16.9995V44.24C17.0023 44.1026 16.9913 43.9652 16.9665 43.83C16.9024 43.3465 16.7202 42.8863 16.4361 42.4899C16.152 42.0934 15.7747 41.7731 15.3375 41.557L14.2285 41L15.3285 40.447C15.7675 40.2313 16.1466 39.9107 16.4321 39.5135C16.7176 39.1163 16.9008 38.6549 16.9655 38.17C16.9906 38.0348 17.002 37.8975 16.9995 37.76V34.24C17.0023 34.1026 16.9913 33.9652 16.9665 33.83C16.9024 33.3465 16.7202 32.8863 16.4361 32.4899C16.152 32.0934 15.7747 31.7731 15.3375 31.557L14.2285 31L15.3285 30.447C15.7677 30.2314 16.1469 29.9108 16.4327 29.5137C16.7184 29.1165 16.9017 28.655 16.9665 28.17V28.17ZM14.4485 33.348C14.5956 33.4216 14.722 33.5309 14.816 33.666C14.9099 33.801 14.9686 33.9574 14.9865 34.121C14.9883 34.1609 14.9926 34.2006 14.9995 34.24L15.0085 37.763C14.9991 37.8013 14.9918 37.84 14.9865 37.879C14.9681 38.044 14.9085 38.2017 14.8131 38.3375C14.7176 38.4733 14.5895 38.5828 14.4405 38.656L11.9995 39.881L9.55046 38.652C9.40331 38.5784 9.27697 38.4691 9.18298 38.334C9.08899 38.199 9.03037 38.0426 9.01246 37.879C9.01066 37.8391 9.00632 37.7994 8.99946 37.76L8.99047 34.237C8.99981 34.1987 9.00716 34.16 9.01246 34.121C9.03079 33.956 9.09044 33.7983 9.18587 33.6625C9.28131 33.5267 9.40946 33.4172 9.55847 33.344L11.9995 32.119L14.4485 33.348Z" fill="#EDF4FA"/>
<path d="M9 27.76C9.00685 27.7994 9.0112 27.8391 9.013 27.879C9.04057 28.1178 9.15393 28.3385 9.332 28.5H14.667C14.8454 28.3386 14.9591 28.1179 14.987 27.879C14.9923 27.84 14.9997 27.8013 15.009 27.763V27.5H9V27.76Z" fill="#FF505B"/>
<path d="M9 24.505L15.004 24.493L15.006 25.493L9.002 25.505L9 24.505Z" fill="#FF505B"/>
<path d="M8.99805 46.505L15.002 46.493L15.004 47.493L9.00005 47.505L8.99805 46.505Z" fill="#FF505B"/>
<path d="M15.0002 44.24C14.9934 44.2006 14.989 44.1609 14.9872 44.121C14.9596 43.8822 14.8463 43.6615 14.6682 43.5H9.33321C9.15485 43.6614 9.04114 43.8821 9.01321 44.121C9.0079 44.16 9.00056 44.1987 8.99121 44.237V44.5H15.0002V44.24Z" fill="#FF505B"/>
<path d="M9 37.76C9.00685 37.7994 9.0112 37.8391 9.013 37.879C9.04057 38.1178 9.15393 38.3385 9.332 38.5H14.667C14.8454 38.3386 14.9591 38.1179 14.987 37.879C14.9923 37.84 14.9997 37.8013 15.009 37.763V37.5H9V37.76Z" fill="#FF505B"/>
<path d="M9.01321 34.121C9.0079 34.16 9.00056 34.1987 8.99121 34.237V34.5H15.0002V34.24C14.9934 34.2006 14.989 34.1609 14.9872 34.121C14.9596 33.8822 14.8463 33.6615 14.6682 33.5H9.33321C9.15485 33.6614 9.04114 33.8821 9.01321 34.121V34.121Z" fill="#FF505B"/>
<path d="M6.99946 47.5V46.5V44.237V44.5V44.24C6.9966 44.1026 7.00766 43.9652 7.03246 43.83C7.0971 43.3451 7.2803 42.8837 7.56584 42.4865C7.85137 42.0893 8.23044 41.7687 8.66947 41.553L9.77046 41L8.66146 40.443C8.22423 40.2269 7.84691 39.9066 7.56281 39.5101C7.27872 39.1137 7.09657 38.6535 7.03246 38.17C7.00766 38.0348 6.9966 37.8974 6.99946 37.76V37.5L6.99147 34.237V34.5H6.99946V34.24C6.9966 34.1026 7.00766 33.9652 7.03246 33.83C7.0971 33.3451 7.2803 32.8837 7.56584 32.4865C7.85137 32.0893 8.23044 31.7687 8.66947 31.553L9.77046 31L8.66146 30.443C8.22423 30.2269 7.84691 29.9066 7.56281 29.5101C7.27872 29.1137 7.09657 28.6535 7.03246 28.17C7.00766 28.0348 6.9966 27.8974 6.99946 27.76V23H4.99946V27.76C4.9966 27.8974 5.00766 28.0348 5.03246 28.17C5.09657 28.6535 5.27872 29.1137 5.56281 29.5101C5.84691 29.9066 6.22423 30.2269 6.66147 30.443L7.77046 31L6.67046 31.553C6.23125 31.7686 5.85199 32.0892 5.56627 32.4863C5.28055 32.8835 5.0972 33.345 5.03246 33.83C5.00766 33.9652 4.9966 34.1026 4.99946 34.24V37.76C4.9966 37.8974 5.00766 38.0348 5.03246 38.17C5.09657 38.6535 5.27872 39.1137 5.56281 39.5101C5.84691 39.9066 6.22423 40.2269 6.66147 40.443L7.77046 41L6.67046 41.553C6.23125 41.7686 5.85199 42.0892 5.56627 42.4863C5.28055 42.8835 5.0972 43.345 5.03246 43.83C5.00766 43.9652 4.9966 44.1026 4.99946 44.24V49H6.99946V47.047V47.5Z" fill="#004080"/>
<path d="M11 42.6199L12.449 43.3479C12.5291 43.3876 12.6028 43.4388 12.668 43.4999H14.668C14.6028 43.4388 14.5291 43.3876 14.449 43.3479L12 42.1189L11 42.6199Z" fill="#004080"/>
<path d="M13 44.5H15V46.5H13V44.5Z" fill="#004080"/>
<path d="M13.001 23H15V24.5H13.001V23Z" fill="#004080"/>
<path d="M13 47.5H15V49H13V47.5Z" fill="#004080"/>
<path d="M13.0039 34.5H14.9999V37.5H13.0039V34.5Z" fill="#004080"/>
<path d="M12.441 28.6558L11 29.3798L12 29.8798L14.441 28.6548C14.5217 28.614 14.5958 28.5614 14.661 28.4988H12.661C12.5959 28.5617 12.5217 28.6147 12.441 28.6558V28.6558Z" fill="#004080"/>
<path d="M11 32.6199L12.449 33.3479C12.5291 33.3876 12.6028 33.4388 12.668 33.4999H14.668C14.6028 33.4388 14.5291 33.3876 14.449 33.3479L12 32.1189L11 32.6199Z" fill="#004080"/>
<path d="M12.441 38.6558L11 39.3798L12 39.8798L14.441 38.6548C14.5217 38.614 14.5958 38.5614 14.661 38.4988H12.661C12.5959 38.5617 12.5217 38.6147 12.441 38.6558V38.6558Z" fill="#004080"/>
<path d="M13.0059 25.5H14.9999V27.5H13.0059V25.5Z" fill="#004080"/>
</svg>
