<svg width="20" height="20" viewBox="0 0 20 20" fill="none" xmlns="http://www.w3.org/2000/svg">
<path d="M18.1299 17.1722L15.2655 14.3716V14.3716L15.1983 14.2695C15.0735 14.1452 14.9028 14.0752 14.7246 14.0752C14.5465 14.0752 14.3758 14.1452 14.2509 14.2695V14.2695C11.8166 16.5029 8.06545 16.6243 5.48533 14.5532C2.90521 12.4821 2.29672 8.86122 4.0634 6.09189C5.83008 3.32256 9.42372 2.26412 12.461 3.61853C15.4983 4.97294 17.0368 8.31991 16.0562 11.4397C15.9855 11.6651 16.0433 11.9102 16.2076 12.0827C16.3719 12.2552 16.6179 12.3289 16.8529 12.276C17.0878 12.2231 17.2761 12.0517 17.3467 11.8263V11.8263C18.519 8.12395 16.7484 4.13971 13.1804 2.45096C9.6124 0.762216 5.31769 1.87577 3.07454 5.07126C0.831384 8.26676 1.31297 12.5852 4.20777 15.233C7.10256 17.8808 11.5418 18.0633 14.6538 15.6625L17.19 18.1422C17.452 18.3972 17.8755 18.3972 18.1374 18.1422C18.3991 17.8836 18.3991 17.4672 18.1374 17.2087V17.2087L18.1299 17.1722Z" fill="#0F62F9"/>
</svg>
