<svg width="32" height="32" viewBox="0 0 32 32" fill="none" xmlns="http://www.w3.org/2000/svg">
<path d="M8.5 29.5L11.2315 24.0375C11.4624 23.5755 11.8174 23.1869 12.2568 22.9153C12.6962 22.6438 13.2025 22.4999 13.719 22.5C14.4566 22.5 15.1639 22.793 15.6855 23.3145C16.207 23.8361 16.5 24.5434 16.5 25.281V29.5H8.5Z" fill="#006FDB"/>
<path d="M14 26C14.5523 26 15 25.5523 15 25C15 24.4477 14.5523 24 14 24C13.4477 24 13 24.4477 13 25C13 25.5523 13.4477 26 14 26Z" fill="#2B2B37"/>
<path d="M12.365 15C12.4751 15.1907 12.5192 15.4124 12.4905 15.6307C12.4617 15.8489 12.3617 16.0516 12.2059 16.2073C12.0502 16.3629 11.8475 16.4628 11.6292 16.4915C11.4109 16.5202 11.1892 16.476 10.9986 16.3658C10.808 16.2556 10.659 16.0856 10.5749 15.8821C10.4908 15.6786 10.4761 15.4531 10.5333 15.2404C10.5904 15.0278 10.7162 14.84 10.891 14.7061C11.0658 14.5722 11.2799 14.4998 11.5 14.5C11.6755 14.4999 11.8478 14.5461 11.9997 14.6339C12.1515 14.7217 12.2776 14.848 12.365 15Z" fill="#2B2B37"/>
<path d="M12 9.5C12.3549 9.4995 12.6985 9.62508 12.9694 9.85433C13.2404 10.0836 13.4211 10.4016 13.4793 10.7517C13.5376 11.1018 13.4696 11.4612 13.2875 11.7659C13.1054 12.0705 12.821 12.3005 12.485 12.415C12.3296 12.4715 12.1654 12.5003 12 12.5C11.6022 12.5 11.2207 12.342 10.9394 12.0607C10.6581 11.7794 10.5 11.3978 10.5 11C10.4989 10.8386 10.5243 10.6782 10.575 10.525C10.6897 10.1842 10.9218 9.89526 11.23 9.71C11.4639 9.5737 11.7294 9.50128 12 9.5V9.5Z" fill="#2B2B37"/>
<path d="M23 23.5L23.5 25L19 27L18.5 25.5L23 23.5Z" fill="#EDF4FA"/>
<path d="M12.485 12.415L13.685 15H12.365C12.2547 14.8099 12.0848 14.6614 11.8817 14.5775C11.6785 14.4936 11.4534 14.479 11.241 14.5359C11.0287 14.5928 10.8411 14.7181 10.7071 14.8924C10.5732 15.0666 10.5004 15.2802 10.5 15.5L9.875 15.97C9.44799 16.2901 9.10142 16.7053 8.86275 17.1826C8.62408 17.66 8.49988 18.1863 8.5 18.72C8.49846 18.9279 8.51687 19.1356 8.555 19.34C8.74 20.315 9.445 23.09 11.5 23.5L11.545 23.545C11.424 23.6974 11.3184 23.8616 11.23 24.035L10 26.5C10 26.5 5 24 5 17C5 13 8 10.5 8 10.5H10.5L10.575 10.525C10.5242 10.6782 10.4989 10.8386 10.5 11C10.5 11.3978 10.658 11.7794 10.9393 12.0607C11.2206 12.342 11.6022 12.5 12 12.5C12.1654 12.5003 12.3296 12.4715 12.485 12.415V12.415Z" fill="#EDF4FA"/>
<path d="M22.8302 20.6397C22.8829 20.7519 22.8894 20.8803 22.8483 20.9973C22.8071 21.1142 22.7216 21.2103 22.6102 21.2647L20.1102 22.4547C20.0555 22.4809 19.9961 22.4959 19.9355 22.4987C19.875 22.5015 19.8145 22.4922 19.7576 22.4712C19.7007 22.4502 19.6486 22.418 19.6044 22.3766C19.5602 22.3351 19.5247 22.2851 19.5002 22.2297L19.1602 21.4897L22.5102 19.9297L22.8302 20.6397Z" fill="#A8B7D4"/>
<path d="M22.5097 19.9302L19.1597 21.4902L16.9997 22.5002L16.3447 20.8952L23.9047 17.4902L24.4997 19.0002L22.5097 19.9302Z" fill="#006FDB"/>
<path d="M12.015 0.5L13.735 4.21L10.97 5.51L9.25 1.8L12.015 0.5Z" fill="#393D48"/>
<path d="M18.0296 13.4902L19.7496 17.2002L16.9846 18.5002L15.2646 14.7902L18.0296 13.4902Z" fill="#393D48"/>
<path d="M27 31.5H7C7.00095 30.9697 7.21118 30.4612 7.585 30.085C7.84317 29.8309 8.16406 29.6498 8.515 29.56C8.67352 29.5198 8.83646 29.4996 9 29.5H25C25.5304 29.5 26.0391 29.7107 26.4142 30.0858C26.7893 30.4609 27 30.9696 27 31.5V31.5Z" fill="#393D48"/>
<path d="M12.485 12.4154C12.8209 12.301 13.1053 12.0709 13.2874 11.7663C13.4695 11.4617 13.5375 11.1023 13.4792 10.7522C13.421 10.4021 13.2403 10.084 12.9694 9.85476C12.6984 9.62551 12.3549 9.49993 12 9.50043C11.7293 9.50171 11.4638 9.57413 11.23 9.71043L9.58496 6.16043L10.97 5.51043L13.735 4.21043L15.115 3.56543L19.415 12.8404L18.03 13.4904L15.265 14.7904L13.885 15.4354L13.685 15.0004L12.485 12.4154Z" fill="#006FDB"/>
<path d="M12.419 4.10557C12.1753 4.21004 11.9 4.21342 11.6538 4.11496C11.4076 4.01651 11.2105 3.82429 11.106 3.58057L10.1595 1.37207L9.25 1.79957L10.97 5.50957L13.735 4.20957L13.4765 3.65257L12.419 4.10557Z" fill="#2B2B37"/>
<path d="M17.3431 15.0787L18.4996 14.5002L18.0296 13.4902L15.2646 14.7902L16.9846 18.5002L17.6511 18.1867L16.8711 16.3667C16.7708 16.1323 16.7638 15.8685 16.8515 15.629C16.9392 15.3896 17.1151 15.1928 17.3431 15.0787V15.0787Z" fill="#2B2B37"/>
<path d="M17.696 12.2752C16.9779 12.6017 16.1601 12.6321 15.4196 12.36C14.6792 12.0878 14.0758 11.535 13.74 10.8212L11.19 5.40625L10.969 5.51025L9.58398 6.16025L11.229 9.71025C11.4632 9.5737 11.7293 9.50127 12.0005 9.50025C12.3554 9.49975 12.699 9.62533 12.9699 9.85458C13.2408 10.0838 13.4215 10.4019 13.4798 10.752C13.538 11.1021 13.47 11.4615 13.2879 11.7661C13.1058 12.0707 12.8214 12.3008 12.4855 12.4152L13.6855 15.0002L13.8855 15.4353L15.2655 14.7902L18.0305 13.4902L19.4155 12.8403L18.9005 11.7277L17.696 12.2752Z" fill="#004080"/>
<path d="M15.4998 7.50021C15.4064 7.50072 15.3148 7.47509 15.2353 7.42622C15.1558 7.37736 15.0915 7.30721 15.0498 7.22371L14.0498 5.22371C13.9905 5.10502 13.9808 4.96765 14.0228 4.84182C14.0648 4.71598 14.1551 4.61198 14.2738 4.55271C14.3925 4.49343 14.5298 4.48373 14.6557 4.52574C14.7815 4.56775 14.8855 4.65802 14.9448 4.77671L15.9448 6.77671C15.9828 6.85277 16.0008 6.93726 15.997 7.02221C15.9933 7.10715 15.9679 7.18974 15.9234 7.26216C15.8789 7.33459 15.8166 7.39446 15.7425 7.43611C15.6683 7.47776 15.5848 7.49982 15.4998 7.50021Z" fill="#02B9F2"/>
<path d="M18.4332 20.8141C18.316 20.8644 18.1839 20.868 18.0641 20.8242C17.9443 20.7803 17.8458 20.6923 17.7887 20.5781L17.6527 20.3056L16.3447 20.8946L16.9997 22.4996L19.1597 21.4896L22.5097 19.9296L24.4997 18.9996L24.2022 18.2451L18.4332 20.8141Z" fill="#004080"/>
<path d="M20.9567 21.0747L22.6807 20.3082L22.5102 19.9297L19.1602 21.4897L19.5002 22.2297C19.5247 22.2851 19.5602 22.3351 19.6044 22.3766C19.6486 22.418 19.7007 22.4502 19.7576 22.4712C19.8145 22.4922 19.875 22.5015 19.9355 22.4987C19.9961 22.4959 20.0555 22.4809 20.1102 22.4547L20.4197 22.3072C20.3392 22.0718 20.3496 21.8148 20.449 21.5867C20.5484 21.3587 20.7295 21.176 20.9567 21.0747V21.0747Z" fill="#8698BA"/>
<path d="M20.5035 25.7761C20.4397 25.8044 20.3707 25.8191 20.3009 25.8191C20.2311 25.8191 20.1621 25.8045 20.0983 25.7763C20.0344 25.748 19.9772 25.7067 19.9304 25.655C19.8835 25.6033 19.8479 25.5424 19.826 25.4761L19.6615 24.9826L18.5 25.4996L19 26.9996L23.5 24.9996L23.3385 24.5156L20.5035 25.7761Z" fill="#C1CFE8"/>
<path d="M12 12C12.5523 12 13 11.5523 13 11C13 10.4477 12.5523 10 12 10C11.4477 10 11 10.4477 11 11C11 11.5523 11.4477 12 12 12Z" fill="#8394B2"/>
<path d="M11.5 16C11.7761 16 12 15.7761 12 15.5C12 15.2239 11.7761 15 11.5 15C11.2239 15 11 15.2239 11 15.5C11 15.7761 11.2239 16 11.5 16Z" fill="#8394B2"/>
<path d="M14 25.5C14.2761 25.5 14.5 25.2761 14.5 25C14.5 24.7239 14.2761 24.5 14 24.5C13.7239 24.5 13.5 24.7239 13.5 25C13.5 25.2761 13.7239 25.5 14 25.5Z" fill="#8394B2"/>
<path d="M15.3895 28.5H13.7235C12.1385 28.5 11.0635 27.05 11.6735 25.731L12.7415 23.423C12.8634 23.1772 13.0447 22.9656 13.269 22.8075C13.4933 22.6494 13.7535 22.5497 14.026 22.5175C13.9241 22.5061 13.8216 22.5003 13.719 22.5C13.2025 22.4999 12.6962 22.6438 12.2568 22.9153C11.8174 23.1869 11.4624 23.5755 11.2315 24.0375L8.5 29.5H16.5V27.5C16.4846 27.7796 16.3592 28.0417 16.1511 28.2291C15.943 28.4165 15.6692 28.5139 15.3895 28.5V28.5Z" fill="#004080"/>
<path d="M26.3455 30.029C26.2562 30.1729 26.1317 30.2917 25.9838 30.3741C25.8359 30.4565 25.6693 30.4999 25.5 30.5H10.5C10.3674 30.5 10.2402 30.4473 10.1464 30.3536C10.0527 30.2598 10 30.1326 10 30C10 29.8674 10.0527 29.7402 10.1464 29.6465C10.2402 29.5527 10.3674 29.5 10.5 29.5H9C8.83646 29.4996 8.67352 29.5198 8.515 29.56C8.16406 29.6498 7.84317 29.8309 7.585 30.085C7.21118 30.4612 7.00095 30.9697 7 31.5H27C26.9996 31.2227 26.9411 30.9486 26.8284 30.6953C26.7157 30.4419 26.5512 30.215 26.3455 30.029V30.029Z" fill="#2B2B37"/>
<path d="M12.4852 12.415C12.3298 12.4715 12.1656 12.5003 12.0002 12.5C11.6024 12.5 11.2209 12.342 10.9396 12.0607C10.6583 11.7794 10.5002 11.3978 10.5002 11C10.4991 10.8386 10.5245 10.6782 10.5752 10.525L10.5002 10.5H8.00024L9.09424 12.6885C9.19652 12.8983 9.22252 13.1373 9.16777 13.3642C9.11302 13.5911 8.98095 13.7919 8.79424 13.932C8.05624 14.5065 7.00024 15.725 7.00024 18C6.98672 19.7815 7.53541 21.5219 8.56824 22.9735C8.68802 23.1413 8.75356 23.3417 8.75606 23.5478C8.75857 23.7539 8.69791 23.9559 8.58224 24.1265L8.02774 24.959C8.60363 25.5694 9.26868 26.0889 10.0002 26.5L11.2302 24.035C11.3187 23.8616 11.4242 23.6974 11.5452 23.545L11.5002 23.5C9.44524 23.09 8.74024 20.315 8.55524 19.34C8.51712 19.1356 8.4987 18.9279 8.50024 18.72C8.50013 18.1863 8.62433 17.66 8.86299 17.1826C9.10166 16.7053 9.44823 16.2901 9.87524 15.97L10.5002 15.5C10.5006 15.2802 10.5734 15.0666 10.7074 14.8924C10.8413 14.7181 11.029 14.5928 11.2413 14.5359C11.4536 14.479 11.6788 14.4936 11.8819 14.5775C12.0851 14.6614 12.255 14.8099 12.3652 15H13.6852L12.4852 12.415Z" fill="#C1CFE8"/>
<path d="M24.9565 17.0187C24.9019 16.898 24.8017 16.8038 24.6777 16.7569C24.5538 16.7101 24.4163 16.7143 24.2955 16.7687L14.7955 21.0457C14.7078 21.085 14.6333 21.1487 14.5809 21.2292C14.5285 21.3098 14.5004 21.4037 14.5 21.4997V22.6127C14.8559 22.7168 15.1873 22.8908 15.475 23.1247C15.4887 23.0843 15.4971 23.0423 15.5 22.9997V21.8227L24.7045 17.6797C24.7645 17.6529 24.8186 17.6145 24.8637 17.5668C24.9088 17.519 24.9441 17.4628 24.9675 17.4014C24.9909 17.3401 25.002 17.2747 25.0001 17.209C24.9982 17.1433 24.9834 17.0787 24.9565 17.0187V17.0187Z" fill="#C1CFE8"/>
<path d="M23.203 23.9571C23.263 23.9304 23.3172 23.8922 23.3624 23.8446C23.4077 23.797 23.4431 23.7409 23.4667 23.6797C23.4903 23.6184 23.5016 23.553 23.4999 23.4874C23.4982 23.4217 23.4837 23.3571 23.457 23.2971C23.4303 23.237 23.3921 23.1829 23.3445 23.1376C23.2969 23.0924 23.2409 23.057 23.1796 23.0334C23.1183 23.0098 23.053 22.9985 22.9873 23.0002C22.9217 23.0018 22.857 23.0164 22.797 23.0431L16.5 25.8416V26.9361L23.203 23.9571Z" fill="#8394B2"/>
</svg>
