<svg width="16" height="16" viewBox="0 0 16 16" fill="none" xmlns="http://www.w3.org/2000/svg">
<path fill-rule="evenodd" clip-rule="evenodd" d="M7.89604 14.4413C5.43483 14.4413 3.33301 14.0583 3.33301 12.5244C3.33301 10.9905 5.42149 9.57458 7.89604 9.57458C10.3573 9.57458 12.4591 10.9768 12.4591 12.5107C12.4591 14.0439 10.3706 14.4413 7.89604 14.4413Z" stroke="#0F62F9" stroke-width="1.5" stroke-linecap="round" stroke-linejoin="round"/>
<path fill-rule="evenodd" clip-rule="evenodd" d="M7.89166 7.44907C9.50681 7.44907 10.8159 6.13998 10.8159 4.52482C10.8159 2.90967 9.50681 1.59998 7.89166 1.59998C6.27651 1.59998 4.96681 2.90967 4.96681 4.52482C4.96136 6.13452 6.26136 7.44361 7.87106 7.44907C7.87833 7.44907 7.885 7.44907 7.89166 7.44907Z" stroke="#0F62F9" stroke-width="1.5" stroke-linecap="round" stroke-linejoin="round"/>
</svg>
