<svg width="32" height="32" viewBox="0 0 32 32" fill="none" xmlns="http://www.w3.org/2000/svg">
<path d="M27.1313 15.2441H26.7591C25.3685 15.2441 24.0141 14.7542 22.9452 13.8646L15.5819 7.73612C15.0259 7.27337 14.3214 7.01855 13.598 7.01855C11.8879 7.01855 10.4967 8.40981 10.4967 10.1199V10.844C10.4967 12.2547 9.34894 13.4026 7.93813 13.4026C6.94788 13.4026 6.03769 12.8226 5.61925 11.9251L5.41544 11.4879C4.95081 10.4914 3.94019 9.84756 2.84075 9.84756C1.27437 9.84756 0 11.1219 0 12.6883V20.1128C0 22.7974 2.18413 24.9816 4.86875 24.9816H27.1313C29.8159 24.9816 32 22.7974 32 20.1128C32 17.4282 29.8159 15.2441 27.1313 15.2441ZM27.1313 23.1066H4.86875C3.75444 23.1066 2.78106 22.4941 2.26562 21.5886H29.7344C29.2189 22.4941 28.2456 23.1066 27.1313 23.1066ZM1.875 19.7137V12.6883C1.875 12.1557 2.30825 11.7226 2.84075 11.7226C3.2145 11.7226 3.55813 11.9415 3.71606 12.2802L3.91987 12.7174C4.64494 14.2726 6.22219 15.2776 7.93819 15.2776C10.3829 15.2776 12.3717 13.2887 12.3717 10.844V10.1199C12.3717 9.44368 12.9219 8.89356 13.5981 8.89356C13.8841 8.89356 14.1627 8.9943 14.3826 9.17731L16.1889 10.6807L14.1307 12.7389L15.4566 14.0647L17.6361 11.8852L18.4505 12.5631L16.4853 14.5284L17.8111 15.8542L19.8977 13.7676L20.7121 14.4455L18.8398 16.3179L20.1656 17.6437L22.1728 15.6365C23.503 16.5959 25.1118 17.1192 26.7592 17.1192H27.1314C28.6467 17.1192 29.9019 18.2512 30.0977 19.7137H1.875V19.7137Z" fill="#0065FF"/>
</svg>
