<svg width="64" height="64" viewBox="0 0 64 64" fill="none" xmlns="http://www.w3.org/2000/svg">
<g clip-path="url(#clip0_0_8184)">
<path d="M51.5703 64H11.9008C5.3276 64 0 58.628 0 52V12C0 5.372 5.3276 0 11.9008 0H51.5703C58.1435 0 63.4711 5.372 63.4711 12V52C63.4711 58.628 58.1435 64 51.5703 64Z" fill="#F2F6FE"/>
<path d="M42.0636 27L41.8513 26.76C39.8936 29.094 37.329 30.774 34.4728 31.68H34.4589C34.4054 32.214 34.3796 32.746 34.3796 33.28V37.346C37.7773 36.466 42.3135 34.852 42.3135 27.666C42.3135 27.426 42.2222 27.186 42.0636 27V27ZM22.1753 36.48L20.4159 39.2C20.2711 39.426 20.0728 39.614 19.8467 39.746C20.0192 39.92 20.2434 40 20.4814 40H20.8642C23.403 40 26.1541 39.72 28.7445 39.16L29.0877 39.04V32.534C26.525 32.866 23.5776 34.294 22.1753 36.48V36.48Z" fill="#00E1F0"/>
<path d="M18.9485 41.334C17.2506 41.334 15.8682 39.952 15.8682 38.254V31.188C15.8682 22.812 22.7012 16 31.1012 16H43.4662C45.7472 16 47.6037 17.86 47.6037 20.146C47.6037 21.06 47.3042 21.938 46.7369 22.688L43.2738 27.118C43.1468 27.288 42.9882 27.48 42.8315 27.654C40.7706 30.112 38.0077 31.954 34.8698 32.95L34.0764 30.406C36.7363 29.562 39.0748 28.002 40.8421 25.896C40.9789 25.744 41.084 25.614 41.1812 25.486L44.6464 21.054C44.8447 20.79 44.9578 20.47 44.9578 20.146C44.9578 19.33 44.2873 18.666 43.4642 18.666H31.1012C24.1611 18.666 18.5141 24.282 18.5141 31.186V38.252C18.5141 38.554 18.8771 38.778 19.1687 38.602C19.2321 38.564 19.2778 38.52 19.3095 38.472L21.0688 35.75C22.7012 33.206 25.3829 31.538 28.4235 31.18L28.731 33.828C26.4758 34.094 24.4923 35.322 23.2863 37.202L21.527 39.926C21.2751 40.318 20.926 40.652 20.5214 40.894C20.0493 41.18 19.5039 41.334 18.9485 41.334V41.334Z" fill="#0065FF"/>
<path d="M29.092 48.0002C28.3601 48.0002 27.769 47.4042 27.769 46.6662V32.6662C27.769 30.5742 26.5313 28.7022 24.6153 27.8962C23.9409 27.6122 23.6215 26.8322 23.9032 26.1522C24.1848 25.4722 24.9604 25.1522 25.6328 25.4342C28.5366 26.6542 30.413 29.4922 30.413 32.6642V46.6642C30.413 47.4042 29.8219 48.0002 29.092 48.0002Z" fill="#0065FF"/>
<path d="M34.3796 48.0002C33.6497 48.0002 33.0566 47.4022 33.0566 46.6662V33.2802C33.0566 29.3602 34.3935 25.5142 36.8232 22.4522L37.3132 21.8342C37.7694 21.2602 38.6024 21.1662 39.1717 21.6262C39.7429 22.0862 39.8361 22.9262 39.3799 23.5002L38.89 24.1182C36.8352 26.7082 35.7026 29.9622 35.7026 33.2802V46.6682C35.7026 47.4042 35.1115 48.0002 34.3796 48.0002Z" fill="#0065FF"/>
</g>
<defs>
<clipPath id="clip0_0_8184">
<rect width="63.4711" height="64" fill="white"/>
</clipPath>
</defs>
</svg>
