<svg width="32" height="32" viewBox="0 0 32 32" fill="none" xmlns="http://www.w3.org/2000/svg">
<g clip-path="url(#clip0_337_2877)">
<path d="M3.44398 19.5165C1.22748 12.3975 5.20198 4.83003 12.321 2.61403C19.44 0.398026 27.0075 4.37203 29.2235 11.491C31.4395 18.61 27.4655 26.177 20.3465 28.3935C14.8545 30.103 8.88298 28.1455 5.46898 23.5165" fill="white"/>
<path d="M28.7354 5C28.7354 7.21 24.7354 11 24.7354 11C24.7354 11 20.7354 7.21 20.7354 5C20.7354 2.791 22.5264 1 24.7354 1C26.9444 1 28.7354 2.791 28.7354 5Z" fill="#00E1F0"/>
<path d="M8.73542 8.335C8.73542 10.175 5.40043 13 5.40043 13C5.40043 13 2.06543 10.175 2.06543 8.335C2.06543 6.493 3.55843 5 5.40043 5C7.24242 5 8.73542 6.493 8.73542 8.335Z" fill="#00E1F0"/>
<path d="M30.835 15.5C30.8355 12.8405 30.1 10.2325 28.71 7.965C29.347 7.097 29.736 6.072 29.835 5C29.8445 2.2385 27.613 -0.00750048 24.852 -0.0170005C23.3655 -0.0220005 21.954 0.635 21 1.775C16.2425 0.158 10.987 1.119 7.11004 4.315C4.89554 3.4205 2.37454 4.4905 1.48004 6.705C1.27354 7.2165 1.16654 7.763 1.16504 8.315C1.16504 9.275 1.75504 10.315 2.47004 11.27C2.04754 12.64 1.83304 14.066 1.83504 15.5C1.83904 16.957 2.06354 18.405 2.50004 19.795C2.62704 20.207 3.00404 20.491 3.43504 20.5C3.53504 20.4995 3.63454 20.484 3.73004 20.455C4.25754 20.292 4.55254 19.7325 4.39004 19.205C4.02004 18.005 3.83304 16.756 3.83504 15.5C3.83804 14.6805 3.92004 13.8635 4.08004 13.06C4.42504 13.39 4.71004 13.64 4.85504 13.765C5.03554 13.917 5.26404 14 5.50004 14C5.73654 13.999 5.96504 13.914 6.14504 13.76C6.76004 13.26 9.83504 10.525 9.83504 8.335C9.83404 7.307 9.46704 6.3125 8.80004 5.53C12.013 3.102 16.199 2.3705 20.045 3.565C19.906 4.0305 19.8355 4.514 19.835 5C19.835 7.5 23.425 11.045 24.145 11.725C24.5305 12.09 25.1345 12.09 25.52 11.725C26.1855 11.0925 26.8165 10.425 27.41 9.725C30.5705 15.8625 28.1575 23.4 22.02 26.561C16.5815 29.3615 9.91454 27.815 6.26504 22.905C5.93654 22.4605 5.30954 22.3665 4.86504 22.695C4.42054 23.0235 4.32654 23.6505 4.65504 24.095C9.40054 30.5455 18.4765 31.928 24.9275 27.1825C28.6425 24.4495 30.836 20.112 30.835 15.5V15.5ZM5.50004 11.65C4.39504 10.59 3.16504 9.115 3.16504 8.335C3.16504 7.0455 4.21054 6 5.50004 6C6.78954 6 7.83454 7.0455 7.83504 8.335C7.83504 9.11 6.60504 10.59 5.50004 11.65ZM24.835 9.585C23.415 8.085 21.835 6.05 21.835 5C21.835 3.343 23.178 2 24.835 2C26.492 2 27.835 3.343 27.835 5C27.835 6.05 26.25 8.105 24.835 9.585Z" fill="#0F62F9"/>
<path d="M10.335 16C9.78246 16 9.33496 16.4475 9.33496 17C9.33496 17.5525 9.78246 18 10.335 18H11.435C11.563 18.6265 11.8105 19.2225 12.165 19.755L11.625 20.295C11.255 20.705 11.287 21.3375 11.697 21.7075C12.0785 22.052 12.6595 22.051 13.04 21.705L13.58 21.17C14.113 21.5235 14.7085 21.771 15.335 21.9V23.5C15.335 24.0525 15.7825 24.5 16.335 24.5C16.8875 24.5 17.335 24.0525 17.335 23.5V21.9C17.961 21.77 18.5565 21.5225 19.09 21.17L19.6249 21.705C20.0334 22.0765 20.6659 22.0465 21.0374 21.638C21.3834 21.2575 21.3844 20.6765 21.0399 20.295L20.4999 19.755C20.8559 19.223 21.1054 18.627 21.2349 18H21.3349C21.8874 18 22.3349 17.5525 22.3349 17C22.3349 16.4475 21.8874 16 21.3349 16H21.2349C21.1064 15.373 20.8564 14.7765 20.4999 14.245L21.6349 13.11C22.0434 12.7385 22.0734 12.106 21.7019 11.6975C21.3304 11.289 20.6979 11.259 20.2894 11.6305C20.2649 11.6525 20.2419 11.676 20.2199 11.7L19.09 12.83C18.5565 12.4775 17.961 12.23 17.335 12.1V10.5C17.335 9.9475 16.8875 9.5 16.335 9.5C15.7825 9.5 15.335 9.9475 15.335 10.5V12.1C14.7085 12.229 14.113 12.4765 13.58 12.83L13.54 12.795C13.1315 12.4235 12.499 12.4535 12.1275 12.862C11.7815 13.2425 11.7805 13.8235 12.125 14.205L12.165 14.245C11.81 14.777 11.562 15.373 11.435 16H10.335ZM16.335 15.5C16.8875 15.5 17.335 15.0525 17.335 14.5V14.175C18.8959 14.7295 19.7119 16.445 19.1574 18.0065C19.1229 18.103 19.084 18.1975 19.04 18.29L18.81 18.06C18.4125 17.6695 17.773 17.675 17.3825 18.0725C16.992 18.47 16.9975 19.1095 17.395 19.5L17.625 19.73C16.129 20.4425 14.339 19.8075 13.6265 18.3115C13.4315 17.902 13.332 17.4535 13.335 17C13.3365 15.73 14.1375 14.5985 15.335 14.175V14.5C15.335 15.0525 15.7825 15.5 16.335 15.5V15.5Z" fill="#0F62F9"/>
<path d="M15.335 18C15.8872 18 16.3349 17.5523 16.3349 17C16.3349 16.4477 15.8872 16 15.335 16C14.7827 16 14.335 16.4477 14.335 17C14.335 17.5523 14.7827 18 15.335 18Z" fill="#00E1F0"/>
<path d="M25.835 32C26.3872 32 26.835 31.5523 26.835 31C26.835 30.4477 26.3872 30 25.835 30C25.2827 30 24.835 30.4477 24.835 31C24.835 31.5523 25.2827 32 25.835 32Z" fill="#00E1F0"/>
<path d="M21.8349 30H10.835C10.2825 30 9.83496 30.4475 9.83496 31C9.83496 31.5525 10.2825 32 10.835 32H21.8349C22.3874 32 22.8349 31.5525 22.8349 31C22.8349 30.4475 22.3874 30 21.8349 30Z" fill="#0F62F9"/>
</g>
<defs>
<clipPath id="clip0_337_2877">
<rect width="32" height="32" fill="white"/>
</clipPath>
</defs>
</svg>
