<svg width="24" height="24" viewBox="0 0 24 24" fill="none" xmlns="http://www.w3.org/2000/svg">
<g clip-path="url(#clip0_675_15)">
<path fill-rule="evenodd" clip-rule="evenodd" d="M5.25 7.5C4.65326 7.5 4.08097 7.73705 3.65901 8.15901C3.23705 8.58097 3 9.15326 3 9.75L3 15C3 15.5967 3.23705 16.169 3.65901 16.591C4.08097 17.0129 4.65326 17.25 5.25 17.25H18.75C19.3467 17.25 19.919 17.0129 20.341 16.591C20.7629 16.169 21 15.5967 21 15V9.75C21 9.15326 20.7629 8.58097 20.341 8.15901C19.919 7.73705 19.3467 7.5 18.75 7.5H5.25ZM9.75 9H8.25V12.75C8.25 12.9489 8.17098 13.1397 8.03033 13.2803C7.88968 13.421 7.69891 13.5 7.5 13.5C7.30109 13.5 7.11032 13.421 6.96967 13.2803C6.82902 13.1397 6.75 12.9489 6.75 12.75V9H5.25C5.05109 9 4.86032 9.07902 4.71967 9.21967C4.57902 9.36032 4.5 9.55109 4.5 9.75V15C4.5 15.1989 4.57902 15.3897 4.71967 15.5303C4.86032 15.671 5.05109 15.75 5.25 15.75H18.75C18.9489 15.75 19.1397 15.671 19.2803 15.5303C19.421 15.3897 19.5 15.1989 19.5 15V9.75C19.5 9.55109 19.421 9.36032 19.2803 9.21967C19.1397 9.07902 18.9489 9 18.75 9H17.25V11.25C17.25 11.4489 17.171 11.6397 17.0303 11.7803C16.8897 11.921 16.6989 12 16.5 12C16.3011 12 16.1103 11.921 15.9697 11.7803C15.829 11.6397 15.75 11.4489 15.75 11.25V9H14.25V12.75C14.25 12.9489 14.171 13.1397 14.0303 13.2803C13.8897 13.421 13.6989 13.5 13.5 13.5C13.3011 13.5 13.1103 13.421 12.9697 13.2803C12.829 13.1397 12.75 12.9489 12.75 12.75V9H11.25V11.25C11.25 11.4489 11.171 11.6397 11.0303 11.7803C10.8897 11.921 10.6989 12 10.5 12C10.3011 12 10.1103 11.921 9.96967 11.7803C9.82902 11.6397 9.75 11.4489 9.75 11.25V9Z" fill="#0065FF"/>
</g>
<defs>
<clipPath id="clip0_675_15">
<rect width="18" height="18" fill="white" transform="translate(3 3)"/>
</clipPath>
</defs>
</svg>
