<svg width="64" height="62" viewBox="0 0 64 62" fill="none" xmlns="http://www.w3.org/2000/svg">
<g clip-path="url(#clip0_0_6865)">
<path d="M52 61.0133H12C5.372 61.0133 0 55.892 0 49.5733V11.44C0 5.12131 5.372 0 12 0H52C58.628 0 64 5.12131 64 11.44V49.5733C64 55.892 58.628 61.0133 52 61.0133Z" fill="#F2F6FE"/>
<path d="M29.334 31.7765C30.8064 31.7765 32 30.6386 32 29.2349C32 27.8313 30.8064 26.6934 29.334 26.6934C27.8616 26.6934 26.668 27.8313 26.668 29.2349C26.668 30.6386 27.8616 31.7765 29.334 31.7765Z" fill="#00E1F0"/>
<path d="M34.666 33.0481C33.196 33.0481 32 34.1883 32 35.5897C32 36.2913 32.596 36.8614 33.334 36.8614C34.072 36.8614 34.668 36.2913 34.668 35.5897C35.404 35.5916 36 35.0215 36 34.3198C36 33.6182 35.404 33.0481 34.666 33.0481V33.0481Z" fill="#00E1F0"/>
<path d="M46.666 35.5918C46.416 35.5918 46.18 35.5384 45.958 35.4584C46.396 35.2257 46.798 34.9264 47.122 34.5413L47.706 33.8453C48.166 33.2981 48.074 32.4973 47.498 32.0588C46.922 31.6202 46.084 31.7099 45.624 32.2571L45.038 32.9549C44.796 33.2447 44.454 33.4506 44.044 33.4011C43.654 33.3953 43.298 33.2218 43.064 32.9244C42.928 32.7509 42.748 32.6365 42.556 32.5507C42.62 32.0893 42.664 31.6221 42.664 31.1436C42.664 29.7059 42.362 28.3351 41.826 27.0805C42.74 26.6743 43.472 26.0013 43.93 25.149L44.028 25.1071C44.39 24.9526 44.7 25.0499 44.852 25.1204C45.004 25.191 45.276 25.3645 45.372 25.7305C45.524 26.3083 46.068 26.6934 46.666 26.6934C46.772 26.6934 46.882 26.682 46.99 26.6553C47.704 26.4856 48.14 25.7954 47.96 25.1147C47.7 24.1175 46.994 23.2862 46.024 22.8362C45.504 22.5941 44.942 22.4854 44.378 22.493C44.286 21.9573 44.11 21.4348 43.81 20.9563C43.432 20.3538 42.614 20.1593 41.98 20.5196C41.348 20.88 41.144 21.6617 41.522 22.2623C41.812 22.7218 41.868 23.2729 41.68 23.7781C41.492 24.2815 41.082 24.6762 40.57 24.8535L40.556 24.8573L40.58 24.9202C38.758 22.4663 35.896 20.7637 32.608 20.409C32.554 19.9076 32.454 19.4157 32.27 18.9581L32.408 18.7998C32.966 18.1592 33.79 17.7931 34.664 17.7931C35.404 17.795 36 17.2268 36 16.5252C36 15.8235 35.404 15.2534 34.666 15.2534C33.174 15.2534 31.782 15.8388 30.736 16.8321C29.874 16.0695 28.79 15.5299 27.562 15.3621L26.854 15.2668C26.124 15.1733 25.45 15.65 25.344 16.3459C25.24 17.04 25.746 17.6844 26.476 17.7836L27.184 17.8789C28.596 18.0715 29.7 19.124 29.946 20.4281C27.812 20.6779 25.86 21.492 24.26 22.7142C23.62 20.901 21.576 19.8599 19.632 20.3881C18.924 20.5806 18.514 21.2842 18.716 21.9592C18.92 22.6341 19.658 23.0231 20.366 22.8324C20.954 22.6723 21.576 22.9964 21.752 23.555L22.054 24.5179C22.084 24.6152 22.138 24.699 22.19 24.7848C21.096 26.2091 20.362 27.8927 20.108 29.725C19.27 29.5172 18.666 28.8022 18.666 27.9671C18.666 27.2616 18.07 26.6934 17.334 26.6934C16.598 26.6934 16 27.2616 16 27.9652C16 30.0415 17.55 31.8452 19.686 32.2514L20.072 32.3257C20.362 34.8501 21.566 37.1153 23.362 38.8122L23.068 39.7484C22.868 40.3871 22.22 40.7856 21.524 40.6903C20.794 40.5911 20.12 41.0735 20.014 41.7694C19.91 42.4635 20.416 43.1079 21.146 43.2071C21.346 43.2337 21.542 43.2471 21.738 43.2471C22.426 43.2471 23.084 43.0793 23.664 42.78C23.664 42.7876 23.666 42.8009 23.666 42.8067C23.66 42.9535 23.604 43.228 23.296 43.4111C22.672 43.7829 22.482 44.5684 22.872 45.1633C23.122 45.5484 23.558 45.7601 24.002 45.7601C24.242 45.7601 24.488 45.6972 24.708 45.5675C25.684 44.986 26.288 43.9869 26.328 42.8944C26.358 42.0802 26.068 41.3004 25.536 40.6883C25.562 40.6178 25.598 40.553 25.622 40.4805L25.628 40.4634C27.304 41.3995 29.252 41.9467 31.334 41.9467C31.99 41.9467 32.63 41.8819 33.256 41.779L33.536 42.3109C33.672 42.5702 33.84 42.8047 34.02 43.0259C33.818 43.1441 33.584 43.2185 33.334 43.2185C32.598 43.2185 32 43.7886 32 44.4902C32 45.1919 32.596 45.7601 33.334 45.7601C34.474 45.7601 35.538 45.2796 36.276 44.5036C36.688 44.6199 37.116 44.6847 37.55 44.6847C38.078 44.6847 38.612 44.5951 39.134 44.4102C39.822 44.1623 40.172 43.4301 39.914 42.7742C39.656 42.1164 38.888 41.7866 38.196 42.0306C37.322 42.3452 36.338 41.9792 35.918 41.1765L35.85 41.0487C38.544 39.9276 40.694 37.8379 41.814 35.241C42.016 35.3783 42.226 35.5003 42.452 35.5975C43.23 37.1248 44.866 38.1334 46.666 38.1334C47.404 38.1334 48 37.5652 48 36.8617C48 36.1581 47.404 35.5918 46.666 35.5918V35.5918ZM31.334 39.4052C26.556 39.4052 22.668 35.6986 22.668 31.1436C22.668 26.5885 26.554 22.8801 31.334 22.8801C36.114 22.8801 40 26.5866 40 31.1417C40 35.6967 36.112 39.4052 31.334 39.4052V39.4052Z" fill="#0065FF"/>
</g>
<defs>
<clipPath id="clip0_0_6865">
<rect width="64" height="61.0133" fill="white"/>
</clipPath>
</defs>
</svg>
