<svg width="24" height="24" viewBox="0 0 24 24" fill="none" xmlns="http://www.w3.org/2000/svg">
<g clip-path="url(#clip0_824_269)">
<path d="M12 22C17.5228 22 22 17.5228 22 12C22 6.47715 17.5228 2 12 2C6.47715 2 2 6.47715 2 12C2 17.5228 6.47715 22 12 22Z" fill="#F0F0F0"/>
<path d="M11.9999 2C8.03531 2 4.60969 4.30723 2.99219 7.65219H21.0076C19.3902 4.30723 15.9645 2 11.9999 2V2Z" fill="#FF9811"/>
<path d="M11.9999 21.9998C15.9645 21.9998 19.3902 19.6926 21.0077 16.3477H2.99219C4.60969 19.6926 8.03531 21.9998 11.9999 21.9998Z" fill="#6DA544"/>
<path d="M11.9997 15.478C13.9207 15.478 15.478 13.9207 15.478 11.9997C15.478 10.0787 13.9207 8.52148 11.9997 8.52148C10.0787 8.52148 8.52148 10.0787 8.52148 11.9997C8.52148 13.9207 10.0787 15.478 11.9997 15.478Z" fill="#0052B4"/>
<path d="M12.0001 14.174C13.2007 14.174 14.174 13.2007 14.174 12.0001C14.174 10.7995 13.2007 9.82617 12.0001 9.82617C10.7995 9.82617 9.82617 10.7995 9.82617 12.0001C9.82617 13.2007 10.7995 14.174 12.0001 14.174Z" fill="#F0F0F0"/>
<path d="M11.9999 9.31738L12.6706 10.8384L14.3231 10.6587L13.3412 12L14.3231 13.3412L12.6706 13.1615L11.9999 14.6825L11.3293 13.1615L9.67676 13.3412L10.6586 12L9.67676 10.6587L11.3293 10.8384L11.9999 9.31738Z" fill="#0052B4"/>
</g>
<defs>
<clipPath id="clip0_824_269">
<rect width="20" height="20" fill="white" transform="translate(2 2)"/>
</clipPath>
</defs>
</svg>
