<svg width="80" height="80" viewBox="0 0 80 80" fill="none" xmlns="http://www.w3.org/2000/svg">
<rect width="80" height="80" rx="5" fill="#F2F4F5"/>
<path d="M59.375 31.875C59.375 29.0625 57.75 26.875 55.625 26.875C53.5 26.875 51.875 29.0625 51.875 31.875C51.875 34.6875 52.875 35.9375 54.375 36.625V51.875C54.375 52.2065 54.5067 52.5245 54.7411 52.7589C54.9755 52.9933 55.2935 53.125 55.625 53.125C55.9565 53.125 56.2745 52.9933 56.5089 52.7589C56.7433 52.5245 56.875 52.2065 56.875 51.875V36.625C58.375 35.9375 59.375 34.0625 59.375 31.875ZM26.875 28.125C26.875 27.7935 26.7433 27.4755 26.5089 27.2411C26.2745 27.0067 25.9565 26.875 25.625 26.875C25.2935 26.875 24.9755 27.0067 24.7411 27.2411C24.5067 27.4755 24.375 27.7935 24.375 28.125V31.875C24.375 32.2065 24.2433 32.5245 24.0089 32.7589C23.7745 32.9933 23.4565 33.125 23.125 33.125V28.125C23.125 27.7935 22.9933 27.4755 22.7589 27.2411C22.5245 27.0067 22.2065 26.875 21.875 26.875C21.5435 26.875 21.2255 27.0067 20.9911 27.2411C20.7567 27.4755 20.625 27.7935 20.625 28.125V51.875C20.625 52.2065 20.7567 52.5245 20.9911 52.7589C21.2255 52.9933 21.5435 53.125 21.875 53.125C22.2065 53.125 22.5245 52.9933 22.7589 52.7589C22.9933 52.5245 23.125 52.2065 23.125 51.875V35.625C24.1196 35.625 25.0734 35.2299 25.7767 34.5267C26.4799 33.8234 26.875 32.8696 26.875 31.875V28.125Z" fill="#B2BAC6"/>
<path d="M38.75 29.375C36.4014 29.375 34.1054 30.0715 32.1526 31.3763C30.1998 32.6811 28.6777 34.5358 27.7789 36.7056C26.8801 38.8755 26.645 41.2632 27.1032 43.5667C27.5614 45.8702 28.6924 47.9861 30.3531 49.6469C32.0139 51.3076 34.1298 52.4386 36.4333 52.8968C38.7368 53.355 41.1245 53.1199 43.2944 52.2211C45.4642 51.3223 47.3189 49.8002 48.6237 47.8474C49.9286 45.8946 50.625 43.5987 50.625 41.25C50.625 38.1006 49.3739 35.0801 47.1469 32.8531C44.9199 30.6261 41.8995 29.375 38.75 29.375V29.375ZM43.9375 47.4375C42.8034 48.3723 41.4369 48.982 39.9836 49.2015C38.5304 49.4211 37.0448 49.2424 35.6851 48.6844C34.3254 48.1264 33.1425 47.2101 32.2624 46.0329C31.3824 44.8558 30.8381 43.462 30.6875 42C30.6544 41.6685 30.7543 41.3374 30.9652 41.0795C31.1762 40.8216 31.481 40.6582 31.8125 40.625C32.144 40.5918 32.4751 40.6918 32.733 40.9027C32.9909 41.1137 33.1544 41.4185 33.1875 41.75C33.2923 42.7635 33.6704 43.7296 34.2815 44.5449C34.8926 45.3603 35.7136 45.9944 36.657 46.3794C37.6004 46.7645 38.6306 46.886 39.6377 46.7311C40.6448 46.5763 41.5909 46.1507 42.375 45.5C42.5022 45.3933 42.6492 45.3127 42.8076 45.2628C42.9659 45.2129 43.1326 45.1947 43.298 45.2092C43.4634 45.2237 43.6243 45.2707 43.7716 45.3474C43.9188 45.4241 44.0496 45.529 44.1563 45.6562C44.263 45.7835 44.3436 45.9305 44.3934 46.0888C44.4433 46.2472 44.4615 46.4138 44.447 46.5792C44.4325 46.7446 44.3856 46.9056 44.3089 47.0528C44.2322 47.2001 44.1272 47.3308 44 47.4375H43.9375ZM45.625 42.4375C45.2935 42.4375 44.9755 42.3058 44.7411 42.0714C44.5067 41.837 44.375 41.519 44.375 41.1875C44.3806 40.022 44.024 38.8835 43.3545 37.9294C42.685 36.9753 41.7357 36.2528 40.6378 35.8617C39.5398 35.4705 38.3475 35.4301 37.2256 35.746C36.1037 36.0619 35.1076 36.7185 34.375 37.625C34.1578 37.848 33.8652 37.9819 33.5545 38.0005C33.2438 38.0191 32.9373 37.9212 32.695 37.7257C32.4527 37.5303 32.292 37.2516 32.2444 36.9439C32.1968 36.6363 32.2656 36.322 32.4375 36.0625C33.4953 34.7572 34.9317 33.8119 36.5489 33.3568C38.1662 32.9016 39.8848 32.959 41.468 33.5211C43.0513 34.0831 44.4214 35.1221 45.3898 36.4951C46.3581 37.868 46.877 39.5074 46.875 41.1875C46.875 41.519 46.7433 41.837 46.5089 42.0714C46.2745 42.3058 45.9565 42.4375 45.625 42.4375Z" fill="#B2BAC6"/>
<circle cx="10" cy="41" r="4" fill="#B2BAC6"/>
</svg>
