<svg width="24" height="24" viewBox="0 0 24 24" fill="none" xmlns="http://www.w3.org/2000/svg">
<path d="M23.9998 11.9999C23.9998 15.9618 20.7998 19.1999 16.7998 19.1999C12.8379 19.1999 9.59985 15.9618 9.59985 11.9999C9.59985 8.03802 12.7998 4.79993 16.7617 4.79993C20.7998 4.79993 23.9998 8.03802 23.9998 11.9999Z" fill="#FFB600"/>
<path d="M16.7998 4.79993C20.7617 4.79993 23.9998 8.03802 23.9998 11.9999C23.9998 15.9618 20.7998 19.1999 16.7998 19.1999C12.8379 19.1999 9.59985 15.9618 9.59985 11.9999" fill="#F7981D"/>
<path d="M16.8 4.79993C20.762 4.79993 24 8.03802 24 11.9999C24 15.9618 20.8 19.1999 16.8 19.1999" fill="#FF8500"/>
<path d="M7.12381 4.79993C3.2 4.83802 0 8.03802 0 11.9999C0 15.9618 3.2 19.1999 7.2 19.1999C9.06667 19.1999 10.7429 18.4761 12.0381 17.3333C12.3048 17.1047 12.5333 16.838 12.7619 16.5714H11.2762C11.0857 16.3428 10.8952 16.0761 10.7429 15.8475H13.2952C13.4476 15.619 13.6 15.3523 13.7143 15.0856H10.3238C10.2095 14.8571 10.0952 14.5904 10.019 14.3237H13.981C14.2095 13.5999 14.3619 12.838 14.3619 12.038C14.3619 11.5047 14.2857 11.0095 14.2095 10.5142H9.79048C9.82857 10.2475 9.90476 10.019 9.98095 9.75231H13.9429C13.8667 9.48564 13.7524 9.21897 13.6381 8.9904H10.2857C10.4 8.72374 10.5524 8.49516 10.7048 8.2285H13.2571C13.1048 7.96183 12.9143 7.69516 12.6857 7.46659H11.2762C11.5048 7.19993 11.7333 6.97136 12 6.74278C10.7429 5.56183 9.02857 4.87612 7.1619 4.87612C7.1619 4.79993 7.1619 4.79993 7.12381 4.79993Z" fill="#FF5050"/>
<path d="M0 12.0001C0 15.962 3.2 19.2001 7.2 19.2001C9.06667 19.2001 10.7429 18.4763 12.0381 17.3334C12.3048 17.1049 12.5333 16.8382 12.7619 16.5715H11.2762C11.0857 16.3429 10.8952 16.0763 10.7429 15.8477H13.2952C13.4476 15.6191 13.6 15.3525 13.7143 15.0858H10.3238C10.2095 14.8572 10.0952 14.5906 10.019 14.3239H13.981C14.2095 13.6001 14.3619 12.8382 14.3619 12.0382C14.3619 11.5049 14.2857 11.0096 14.2095 10.5144H9.79048C9.82857 10.2477 9.90476 10.0191 9.98095 9.75247H13.9429C13.8667 9.48581 13.7524 9.21914 13.6381 8.99057H10.2857C10.4 8.7239 10.5524 8.49533 10.7048 8.22866H13.2571C13.1048 7.962 12.9143 7.69533 12.6857 7.46676H11.2762C11.5048 7.20009 11.7333 6.97152 12 6.74295C10.7429 5.562 9.02857 4.87628 7.1619 4.87628H7.12381" fill="#E52836"/>
<path d="M7.19997 19.2001C9.06664 19.2001 10.7428 18.4763 12.0381 17.3334C12.3047 17.1049 12.5333 16.8382 12.7619 16.5715H11.2762C11.0857 16.3429 10.8952 16.0763 10.7428 15.8477H13.2952C13.4476 15.6191 13.6 15.3525 13.7143 15.0858H10.3238C10.2095 14.8572 10.0952 14.5906 10.019 14.3239H13.9809C14.2095 13.6001 14.3619 12.8382 14.3619 12.0382C14.3619 11.5049 14.2857 11.0096 14.2095 10.5144H9.79045C9.82854 10.2477 9.90473 10.0191 9.98092 9.75247H13.9428C13.8666 9.48581 13.7523 9.21914 13.6381 8.99057H10.2857C10.4 8.7239 10.5524 8.49533 10.7047 8.22866H13.2571C13.1047 7.962 12.9143 7.69533 12.6857 7.46676H11.2762C11.5047 7.20009 11.7333 6.97152 12 6.74295C10.7428 5.562 9.02854 4.87628 7.16187 4.87628H7.12378" fill="#CB2026"/>
<path d="M9.75247 13.8286L9.86675 13.181C9.82866 13.181 9.75247 13.2191 9.67628 13.2191C9.40961 13.2191 9.37151 13.0667 9.40961 12.9905L9.63818 11.6571H10.0572L10.1715 10.9333H9.79056L9.86675 10.4762H9.10485C9.10485 10.4762 8.64771 12.9905 8.64771 13.2952C8.64771 13.7524 8.91437 13.9429 9.25723 13.9429C9.4858 13.9429 9.67628 13.8667 9.75247 13.8286Z" fill="white"/>
<path d="M10.019 12.6096C10.019 13.6762 10.7429 13.9429 11.3524 13.9429C11.9238 13.9429 12.1524 13.8286 12.1524 13.8286L12.3048 13.1048C12.3048 13.1048 11.8857 13.2953 11.5048 13.2953C10.6667 13.2953 10.819 12.6857 10.819 12.6857H12.3809C12.3809 12.6857 12.4952 12.1905 12.4952 12C12.4952 11.5048 12.2286 10.8953 11.3905 10.8953C10.5905 10.8191 10.019 11.6572 10.019 12.6096ZM11.3524 11.5048C11.7714 11.5048 11.6952 12 11.6952 12.0381H10.8571C10.8571 12 10.9333 11.5048 11.3524 11.5048Z" fill="white"/>
<path d="M16.1905 13.8285L16.3428 12.9904C16.3428 12.9904 15.9619 13.1809 15.6952 13.1809C15.1619 13.1809 14.9333 12.7619 14.9333 12.3047C14.9333 11.3904 15.3905 10.8952 15.9238 10.8952C16.3047 10.8952 16.6095 11.1238 16.6095 11.1238L16.7238 10.3238C16.7238 10.3238 16.2666 10.1333 15.8476 10.1333C14.9714 10.1333 14.0952 10.8952 14.0952 12.3428C14.0952 13.2952 14.5524 13.9428 15.4666 13.9428C15.7714 13.9428 16.1905 13.8285 16.1905 13.8285Z" fill="white"/>
<path d="M5.56187 10.8191C5.02854 10.8191 4.64759 10.9715 4.64759 10.9715L4.5333 11.6191C4.5333 11.6191 4.87616 11.4667 5.3714 11.4667C5.63806 11.4667 5.86663 11.5048 5.86663 11.7334C5.86663 11.8858 5.82854 11.9238 5.82854 11.9238C5.82854 11.9238 5.59997 11.9238 5.48568 11.9238C4.83806 11.9238 4.11426 12.1905 4.11426 13.0667C4.11426 13.7524 4.5714 13.9048 4.83806 13.9048C5.3714 13.9048 5.59997 13.5619 5.63806 13.5619L5.59997 13.8667H6.28568L6.59044 11.7715C6.59044 10.8572 5.82854 10.8191 5.56187 10.8191ZM5.71425 12.5334C5.71425 12.6477 5.63806 13.2572 5.18092 13.2572C4.95235 13.2572 4.87616 13.0667 4.87616 12.9524C4.87616 12.7619 4.99045 12.4953 5.56187 12.4953C5.67616 12.5334 5.71425 12.5334 5.71425 12.5334Z" fill="white"/>
<path d="M7.31442 13.9046C7.5049 13.9046 8.45728 13.9427 8.45728 12.9142C8.45728 11.9618 7.54299 12.1522 7.54299 11.7713C7.54299 11.5808 7.69538 11.5046 7.96204 11.5046C8.07633 11.5046 8.49538 11.5427 8.49538 11.5427L8.60966 10.857C8.60966 10.857 8.34299 10.7808 7.88585 10.7808C7.31442 10.7808 6.74299 11.0094 6.74299 11.7713C6.74299 12.6475 7.69538 12.5713 7.69538 12.9142C7.69538 13.1427 7.42871 13.1808 7.23823 13.1808C6.89538 13.1808 6.55252 13.0665 6.55252 13.0665L6.43823 13.7522C6.47633 13.8284 6.6668 13.9046 7.31442 13.9046Z" fill="white"/>
<path d="M22.5144 10.2094L22.3621 11.238C22.3621 11.238 22.0573 10.857 21.6383 10.857C20.9525 10.857 20.343 11.6951 20.343 12.6856C20.343 13.2951 20.6478 13.9427 21.2954 13.9427C21.7525 13.9427 22.0192 13.638 22.0192 13.638L21.9811 13.9046H22.743L23.3144 10.2475L22.5144 10.2094ZM22.1716 12.2285C22.1716 12.6475 21.9811 13.1808 21.5621 13.1808C21.2954 13.1808 21.143 12.9523 21.143 12.5713C21.143 11.9618 21.4097 11.5808 21.7525 11.5808C22.0192 11.5808 22.1716 11.7713 22.1716 12.2285Z" fill="white"/>
<path d="M1.4096 13.8666L1.86674 11.1237L1.94293 13.8666H2.47627L3.46674 11.1237L3.0477 13.8666H3.8477L4.45722 10.2094H3.20008L2.43817 12.457L2.40008 10.2094H1.29531L0.685791 13.8666H1.4096Z" fill="white"/>
<path d="M13.219 13.8666C13.4475 12.6095 13.4856 11.5809 14.019 11.7714C14.0951 11.2762 14.2094 11.0857 14.2856 10.8952C14.2856 10.8952 14.2475 10.8952 14.1332 10.8952C13.7904 10.8952 13.5237 11.3523 13.5237 11.3523L13.5999 10.9333H12.8761L12.3809 13.9047H13.219V13.8666Z" fill="white"/>
<path d="M17.943 10.8191C17.4096 10.8191 17.0287 10.9715 17.0287 10.9715L16.9144 11.6191C16.9144 11.6191 17.2573 11.4667 17.7525 11.4667C18.0192 11.4667 18.2477 11.5048 18.2477 11.7334C18.2477 11.8858 18.2097 11.9238 18.2097 11.9238C18.2097 11.9238 17.9811 11.9238 17.8668 11.9238C17.2192 11.9238 16.4954 12.1905 16.4954 13.0667C16.4954 13.7524 16.9525 13.9048 17.2192 13.9048C17.7525 13.9048 17.9811 13.5619 18.0192 13.5619L17.9811 13.8667H18.6668L18.9716 11.7715C19.0097 10.8572 18.2096 10.8191 17.943 10.8191ZM18.1335 12.5334C18.1335 12.6477 18.0573 13.2572 17.6001 13.2572C17.3716 13.2572 17.2954 13.0667 17.2954 12.9524C17.2954 12.7619 17.4096 12.4953 17.9811 12.4953C18.0954 12.5334 18.0954 12.5334 18.1335 12.5334Z" fill="white"/>
<path d="M19.6191 13.8666C19.8477 12.6095 19.8858 11.5809 20.4191 11.7714C20.4953 11.2762 20.6096 11.0857 20.6858 10.8952C20.6858 10.8952 20.6477 10.8952 20.5334 10.8952C20.1905 10.8952 19.9239 11.3523 19.9239 11.3523L20.0001 10.9333H19.2762L18.781 13.9047H19.6191V13.8666Z" fill="white"/>
<path d="M8.57153 13.2952C8.57153 13.7524 8.8382 13.9429 9.18106 13.9429C9.44772 13.9429 9.6763 13.8667 9.75249 13.8286L9.86677 13.181C9.82868 13.181 9.75249 13.2191 9.67629 13.2191C9.40963 13.2191 9.37153 13.0667 9.40963 12.9905L9.6382 11.6571H10.0572L10.1715 10.9333H9.79058L9.86677 10.4762" fill="#DCE5E5"/>
<path d="M10.4001 12.6096C10.4001 13.6762 10.743 13.9429 11.3525 13.9429C11.924 13.9429 12.1525 13.8286 12.1525 13.8286L12.3049 13.1048C12.3049 13.1048 11.8859 13.2953 11.5049 13.2953C10.6668 13.2953 10.8192 12.6857 10.8192 12.6857H12.3811C12.3811 12.6857 12.4954 12.1905 12.4954 12C12.4954 11.5048 12.2287 10.8953 11.3906 10.8953C10.5906 10.8191 10.4001 11.6572 10.4001 12.6096ZM11.3525 11.5048C11.7716 11.5048 11.8478 12 11.8478 12.0381H10.8573C10.8573 12 10.9335 11.5048 11.3525 11.5048Z" fill="#DCE5E5"/>
<path d="M16.1904 13.8285L16.3427 12.9904C16.3427 12.9904 15.9618 13.1809 15.6951 13.1809C15.1618 13.1809 14.9332 12.7619 14.9332 12.3047C14.9332 11.3904 15.3904 10.8952 15.9237 10.8952C16.3046 10.8952 16.6094 11.1238 16.6094 11.1238L16.7237 10.3238C16.7237 10.3238 16.2665 10.1333 15.8475 10.1333C14.9713 10.1333 14.4761 10.8952 14.4761 12.3428C14.4761 13.2952 14.5523 13.9428 15.4665 13.9428C15.7713 13.9428 16.1904 13.8285 16.1904 13.8285Z" fill="#DCE5E5"/>
<path d="M4.5333 11.6571C4.5333 11.6571 4.87616 11.5047 5.3714 11.5047C5.63806 11.5047 5.86663 11.5428 5.86663 11.7714C5.86663 11.9238 5.82854 11.9619 5.82854 11.9619C5.82854 11.9619 5.59997 11.9619 5.48568 11.9619C4.83806 11.9619 4.11426 12.2285 4.11426 13.1047C4.11426 13.7904 4.5714 13.9428 4.83806 13.9428C5.3714 13.9428 5.59997 13.6 5.63806 13.6L5.59997 13.9047H6.28568L6.59044 11.8095C6.59044 10.9333 5.82854 10.8952 5.52378 10.8952L4.5333 11.6571ZM6.0952 12.5333C6.0952 12.6476 5.63806 13.2571 5.18092 13.2571C4.95235 13.2571 4.87616 13.0666 4.87616 12.9523C4.87616 12.7619 4.99045 12.4952 5.56187 12.4952C5.67616 12.5333 6.0952 12.5333 6.0952 12.5333Z" fill="#DCE5E5"/>
<path d="M6.47607 13.8284C6.47607 13.8284 6.70465 13.9046 7.35226 13.9046C7.54274 13.9046 8.49512 13.9427 8.49512 12.9142C8.49512 11.9618 7.58084 12.1522 7.58084 11.7713C7.58084 11.5808 7.73322 11.5046 7.99988 11.5046C8.11417 11.5046 8.53322 11.5427 8.53322 11.5427L8.6475 10.857C8.6475 10.857 8.38084 10.7808 7.92369 10.7808C7.35226 10.7808 7.16179 11.0094 7.16179 11.7713C7.16179 12.6475 7.73322 12.5713 7.73322 12.9142C7.73322 13.1427 7.46655 13.1808 7.27607 13.1808" fill="#DCE5E5"/>
<path d="M22.3621 11.2382C22.3621 11.2382 22.0573 10.8572 21.6382 10.8572C20.9525 10.8572 20.724 11.6953 20.724 12.6858C20.724 13.2953 20.6478 13.9429 21.2954 13.9429C21.7525 13.9429 22.0192 13.6381 22.0192 13.6381L21.9811 13.9048H22.743L23.3144 10.2477L22.3621 11.2382ZM22.324 12.2286C22.324 12.6477 21.9811 13.181 21.5621 13.181C21.2954 13.181 21.143 12.9524 21.143 12.5715C21.143 11.962 21.4097 11.581 21.7525 11.581C22.0192 11.581 22.324 11.7715 22.324 12.2286Z" fill="#DCE5E5"/>
<path d="M1.4096 13.8666L1.86674 11.1237L1.94293 13.8666H2.47627L3.46674 11.1237L3.0477 13.8666H3.8477L4.45722 10.2094H3.50484L2.43817 12.457L2.40008 10.2094H1.98103L0.685791 13.8666H1.4096Z" fill="#DCE5E5"/>
<path d="M12.4192 13.8666H13.2192C13.4478 12.6095 13.4859 11.5809 14.0192 11.7714C14.0954 11.2762 14.2097 11.0857 14.2859 10.8952C14.2859 10.8952 14.2478 10.8952 14.1335 10.8952C13.7906 10.8952 13.524 11.3523 13.524 11.3523L13.6001 10.9333" fill="#DCE5E5"/>
<path d="M16.9144 11.6571C16.9144 11.6571 17.2573 11.5047 17.7525 11.5047C18.0192 11.5047 18.2477 11.5428 18.2477 11.7714C18.2477 11.9238 18.2096 11.9619 18.2096 11.9619C18.2096 11.9619 17.9811 11.9619 17.8668 11.9619C17.2192 11.9619 16.4954 12.2285 16.4954 13.1047C16.4954 13.7904 16.9525 13.9428 17.2192 13.9428C17.7525 13.9428 17.9811 13.6 18.0192 13.6L17.9811 13.9047H18.6668L18.9716 11.8095C18.9716 10.9333 18.2096 10.8952 17.9049 10.8952L16.9144 11.6571ZM18.4763 12.5333C18.4763 12.6476 18.0192 13.2571 17.562 13.2571C17.3335 13.2571 17.2573 13.0666 17.2573 12.9523C17.2573 12.7619 17.3716 12.4952 17.943 12.4952C18.0954 12.5333 18.4763 12.5333 18.4763 12.5333Z" fill="#DCE5E5"/>
<path d="M18.8191 13.8666H19.6191C19.8477 12.6095 19.8858 11.5809 20.4191 11.7714C20.4953 11.2762 20.6096 11.0857 20.6858 10.8952C20.6858 10.8952 20.6477 10.8952 20.5334 10.8952C20.1905 10.8952 19.9239 11.3523 19.9239 11.3523L20 10.9333" fill="#DCE5E5"/>
</svg>
