<svg width="72" height="72" viewBox="0 0 72 72" fill="none" xmlns="http://www.w3.org/2000/svg">
<rect width="72" height="72" rx="12" fill="#F2F6FE"/>
<g clip-path="url(#clip0_0_10123)">
<path d="M44.5 45C46.433 45 48 43.433 48 41.5C48 39.567 46.433 38 44.5 38C42.567 38 41 39.567 41 41.5C41 43.433 42.567 45 44.5 45Z" fill="#00E1F0"/>
<path d="M49 41.5C48.9994 40.4807 48.6529 39.4919 48.017 38.6953C47.3812 37.8987 46.4938 37.3415 45.5 37.115V34.25C45.5 32.9902 44.9996 31.782 44.1088 30.8912C43.218 30.0004 42.0098 29.5 40.75 29.5C39.4902 29.5 38.282 30.0004 37.3912 30.8912C36.5004 31.782 36 32.9902 36 34.25V46.75C35.9987 47.6115 35.6558 48.4374 35.0466 49.0466C34.4374 49.6558 33.6115 49.9987 32.75 50H31.25C30.3885 49.9987 29.5626 49.6558 28.9534 49.0466C28.3442 48.4374 28.0013 47.6115 28 46.75V40H29C29.6566 40 30.3068 39.8707 30.9134 39.6194C31.52 39.3681 32.0712 38.9998 32.5355 38.5355C32.9998 38.0712 33.3681 37.52 33.6194 36.9134C33.8707 36.3068 34 35.6566 34 35V22.5C34 21.837 33.7366 21.2011 33.2678 20.7322C32.7989 20.2634 32.163 20 31.5 20H30C29.7348 20 29.4804 20.1054 29.2929 20.2929C29.1054 20.4804 29 20.7348 29 21C29 21.2652 29.1054 21.5196 29.2929 21.7071C29.4804 21.8946 29.7348 22 30 22H31.5C31.6326 22 31.7598 22.0527 31.8536 22.1464C31.9473 22.2402 32 22.3674 32 22.5V34H22V30.5C22 30.2348 21.8946 29.9804 21.7071 29.7929C21.5196 29.6054 21.2652 29.5 21 29.5C20.7348 29.5 20.4804 29.6054 20.2929 29.7929C20.1054 29.9804 20 30.2348 20 30.5V35C20 36.3261 20.5268 37.5979 21.4645 38.5355C22.4021 39.4732 23.6739 40 25 40H26V46.75C26.0013 48.1411 26.5542 49.4749 27.5374 50.4591C28.5206 51.4432 29.8539 51.9974 31.245 52H32.745C34.1374 51.9987 35.4725 51.4453 36.4576 50.4612C37.4427 49.477 37.9974 48.1424 38 46.75V34.25C38 33.5207 38.2897 32.8212 38.8055 32.3055C39.3212 31.7897 40.0207 31.5 40.75 31.5C41.4793 31.5 42.1788 31.7897 42.6945 32.3055C43.2103 32.8212 43.5 33.5207 43.5 34.25V37.115C42.674 37.3033 41.9178 37.7209 41.3187 38.3199C40.7195 38.9188 40.3015 39.6748 40.1129 40.5007C39.9243 41.3267 39.9727 42.1891 40.2525 42.9888C40.5324 43.7885 41.0323 44.4929 41.6947 45.0211C42.3572 45.5492 43.1553 45.8796 43.9972 45.9743C44.8391 46.069 45.6906 45.924 46.4538 45.5562C47.217 45.1883 47.8609 44.6125 48.3113 43.8949C48.7618 43.1774 49.0005 42.3472 49 41.5V41.5ZM22.18 36H31.835C31.6278 36.586 31.2438 37.0931 30.7359 37.4514C30.2281 37.8097 29.6215 38.0014 29 38H25C24.3811 37.9983 23.7778 37.8051 23.2729 37.4471C22.7681 37.089 22.3863 36.5835 22.18 36V36ZM44.5 44C44.0055 44 43.5222 43.8534 43.1111 43.5787C42.7 43.304 42.3795 42.9135 42.1903 42.4567C42.0011 41.9999 41.9516 41.4972 42.048 41.0123C42.1445 40.5273 42.3826 40.0819 42.7322 39.7322C43.0819 39.3826 43.5273 39.1445 44.0123 39.048C44.4972 38.9516 44.9999 39.0011 45.4567 39.1903C45.9135 39.3795 46.304 39.7 46.5787 40.1111C46.8534 40.5222 47 41.0055 47 41.5C47 41.8283 46.9353 42.1534 46.8097 42.4567C46.6841 42.76 46.4999 43.0356 46.2678 43.2678C46.0356 43.4999 45.76 43.6841 45.4567 43.8097C45.1534 43.9353 44.8283 44 44.5 44V44Z" fill="#0065FF"/>
<path d="M21 27.5C21.2652 27.5 21.5196 27.3946 21.7071 27.2071C21.8946 27.0196 22 26.7652 22 26.5V22.5C22 22.3674 22.0527 22.2402 22.1464 22.1464C22.2402 22.0527 22.3674 22 22.5 22H24C24.2652 22 24.5196 21.8946 24.7071 21.7071C24.8946 21.5196 25 21.2652 25 21C25 20.7348 24.8946 20.4804 24.7071 20.2929C24.5196 20.1054 24.2652 20 24 20H22.5C21.837 20 21.2011 20.2634 20.7322 20.7322C20.2634 21.2011 20 21.837 20 22.5V26.5C20 26.7652 20.1054 27.0196 20.2929 27.2071C20.4804 27.3946 20.7348 27.5 21 27.5Z" fill="#0065FF"/>
<path d="M50.9951 48C51.5474 48 51.9951 47.5523 51.9951 47C51.9951 46.4477 51.5474 46 50.9951 46C50.4428 46 49.9951 46.4477 49.9951 47C49.9951 47.5523 50.4428 48 50.9951 48Z" fill="#00E1F0"/>
<path d="M40 47C40 47.2652 40.1054 47.5196 40.2929 47.7071C40.4804 47.8946 40.7348 48 41 48H47C47.2652 48 47.5196 47.8946 47.7071 47.7071C47.8946 47.5196 48 47.2652 48 47C48 46.7348 47.8946 46.4804 47.7071 46.2929C47.5196 46.1054 47.2652 46 47 46H41C40.7348 46 40.4804 46.1054 40.2929 46.2929C40.1054 46.4804 40 46.7348 40 47Z" fill="#0065FF"/>
</g>
<defs>
<clipPath id="clip0_0_10123">
<rect width="32" height="32" fill="white" transform="translate(20 20)"/>
</clipPath>
</defs>
</svg>
