<svg width="375" height="684" viewBox="0 0 375 684" fill="none" xmlns="http://www.w3.org/2000/svg">
<path d="M0 16C0 7.16346 7.16344 0 16 0H359C367.837 0 375 7.16344 375 16V684H0V16Z" fill="white"/>
<path d="M0 0H375V684H0V0Z" fill="white"/>
<path d="M0 16C0 7.16344 7.16344 0 16 0H359C367.837 0 375 7.16344 375 16V24H0V16Z" fill="white"/>
<path fill-rule="evenodd" clip-rule="evenodd" d="M163 10.5C163 9.11929 164.119 8 165.5 8H208.5C209.881 8 211 9.11929 211 10.5V10.5C211 11.8807 209.881 13 208.5 13H165.5C164.119 13 163 11.8807 163 10.5V10.5Z" fill="#E5E5E5"/>
<rect width="375" height="34" transform="translate(0 650)" fill="white"/>
<path fill-rule="evenodd" clip-rule="evenodd" d="M114 673.5C114 672.119 115.119 671 116.5 671H259.5C260.881 671 262 672.119 262 673.5V673.5C262 674.881 260.881 676 259.5 676H116.5C115.119 676 114 674.881 114 673.5V673.5Z" fill="#112950"/>
</svg>
