<svg width="48" height="48" viewBox="0 0 48 48" fill="none" xmlns="http://www.w3.org/2000/svg">
<g clip-path="url(#clip0_892_4656)">
<path d="M35.9999 21V18L34.625 17.0625H28.3972L27 18V21L23.7903 23.1398C22.9841 23.6772 22.5 24.5819 22.5 25.5506V45.1024C22.5 46.7026 23.7972 47.9997 25.3973 47.9997H37.6025C39.2027 47.9997 40.4998 46.7025 40.4998 45.1024V25.5506C40.4998 24.5819 40.0157 23.6772 39.2096 23.1398L35.9999 21Z" fill="#F2FBFF"/>
<path d="M27.329 45.1027C27.329 46.703 28.626 48 30.2263 48H25.3973C23.797 48 22.5 46.703 22.5 45.1027V25.5511C22.5 24.5815 22.9838 23.6774 23.7903 23.1395L26.9996 21.0002V18.0005L28.3972 17.063H31.8286V21.0002L28.6193 23.1395C27.788 23.7251 27.3578 24.5291 27.329 25.5511V45.1027Z" fill="#DFF6FD"/>
<path d="M25.5029 44.3399V39.0017L26.4404 38.2499V30.7499L25.5029 30.0311V25.9586C25.5029 25.7392 25.6126 25.5343 25.7951 25.4126L29.7107 22.8022C29.8932 22.6806 30.0029 22.4756 30.0029 22.2562V17.7188C30.0029 17.3563 30.2967 17.0625 30.6592 17.0625H32.3395C32.7019 17.0625 32.9957 17.3563 32.9957 17.7188V22.2562C32.9957 22.4756 33.1054 22.6806 33.2879 22.8022L37.2035 25.4126C37.386 25.5343 37.4957 25.7392 37.4957 25.9586V29.9998L36.5582 30.8749V38.1248L37.4957 39.0016V44.3398C37.4957 44.7023 37.2019 44.9961 36.8395 44.9961H26.1592C25.7967 44.9962 25.5029 44.7023 25.5029 44.3399V44.3399Z" fill="#7FF0F7"/>
<path d="M35.9999 19.4766V18L34.625 17.0625H28.3972L27 18V19.4766H35.9999Z" fill="#C8EFFE"/>
<path d="M32.9957 19.4766V17.7188C32.9957 17.3563 32.7019 17.0625 32.3395 17.0625H30.6592C30.2967 17.0625 30.0029 17.3563 30.0029 17.7188V19.4766H32.9957Z" fill="#00E1F0"/>
<path d="M16.4999 15V30L15.3123 30.9375H11.781L10.4941 30V15L11.9988 12.0009V4.50188C11.9988 3.67219 12.671 3 13.4998 3C13.9141 3 14.2901 3.16781 14.5619 3.43969C14.7438 3.62156 14.8798 3.85031 14.9491 4.10625V4.10812C14.9838 4.23375 15.0016 4.36594 15.0016 4.50188V12.0009L16.4999 15Z" fill="#7FF0F7"/>
<path d="M14.9491 4.10625V4.10812C14.9145 4.23375 14.8966 4.365 14.8966 4.50188V12.0009L13.391 15V30.9366L11.781 30.9375L10.4941 29.9991V15L11.9988 12.0009V4.50188C11.9988 3.67219 12.671 3 13.4998 3C13.9141 3 14.2901 3.16781 14.562 3.43969C14.7438 3.62156 14.8798 3.85031 14.9491 4.10625Z" fill="#00E1F0"/>
<path d="M13.4968 30.7244C13.0966 30.7244 12.7725 30.4001 12.7725 30.0001V15.0002C12.7725 14.6002 13.0967 14.2759 13.4968 14.2759C13.8968 14.2759 14.2211 14.6002 14.2211 15.0002V30.0001C14.2211 30.4001 13.8968 30.7244 13.4968 30.7244Z" fill="#FFF5C6"/>
<path d="M16.5 36V45C16.5 46.1334 15.8719 47.1197 14.9447 47.6306C14.5163 47.8659 14.0241 48 13.5 48C11.8434 48 10.5 46.6566 10.5 45V36L11.5938 35.0625H15.625L16.5 36Z" fill="#7FF0F7"/>
<path d="M16.5 37.2813V36L15.625 35.0625H13.3978H11.5938L10.5 36V44.934C10.5 46.6058 11.8679 48.0214 13.5397 47.9997C14.0489 47.9931 14.527 47.8599 14.9447 47.6306C14.0869 47.0906 13.3978 46.0706 13.3978 45V37.9375C13.3978 37.5751 13.6916 37.2813 14.0541 37.2813H16.5Z" fill="#00E1F0"/>
<path d="M27.6914 24.1489C27.4567 24.5719 27.3292 25.0529 27.3292 25.5512V44.9966H26.1602C25.7977 44.9966 25.5039 44.7028 25.5039 44.3403V25.9585C25.5039 25.7391 25.6136 25.5342 25.7961 25.4125L27.6914 24.1489Z" fill="#00E1F0"/>
<path d="M34.5 3V12L33.4375 12.9375H29.8125L28.5 12V3C28.5 1.34344 29.8434 0 31.5 0C32.0259 0 32.52 0.135 32.9494 0.372188V0.373125C33.8737 0.884062 34.5 1.86844 34.5 3Z" fill="#7FF0F7"/>
<path d="M32.9494 0.372188V0.373125C32.0241 0.883125 31.3969 1.86844 31.3969 3V12.9375H29.6875L28.5 12V3C28.5 1.34344 29.8434 0 31.5 0C32.0259 0 32.52 0.135 32.9494 0.372188Z" fill="#00E1F0"/>
<path d="M36.8437 17.9999H26.1562C25.7938 17.9999 25.5 17.7061 25.5 17.3437V12.6562C25.5 12.2938 25.7938 12 26.1562 12H36.8437C37.2061 12 37.4999 12.2938 37.4999 12.6562V17.3437C37.4999 17.7061 37.2061 17.9999 36.8437 17.9999Z" fill="#5680A6"/>
<path d="M18.8437 30H8.15625C7.79381 30 7.5 30.2938 7.5 30.6562V35.3437C7.5 35.7061 7.79381 35.9999 8.15625 35.9999H18.8437C19.2061 35.9999 19.4999 35.7061 19.4999 35.3437V30.6562C19.4999 30.2938 19.2061 30 18.8437 30Z" fill="#5680A6"/>
<path d="M28.3973 12V18.0005H26.1562C25.7938 18.0005 25.5 17.7067 25.5 17.3442V12.6562C25.5 12.2938 25.7938 12 26.1562 12H28.3973Z" fill="#497090"/>
<path d="M10.3973 29.9995V36H8.15625C7.79381 36 7.5 35.7062 7.5 35.3437V30.6558C7.5 30.2933 7.79381 29.9995 8.15625 29.9995H10.3973Z" fill="#497090"/>
<path d="M29.2248 14.2501V15.7501C29.2248 16.1504 28.9004 16.4748 28.5001 16.4748C28.4654 16.4748 28.4307 16.472 28.397 16.4673C28.0454 16.4176 27.7754 16.1157 27.7754 15.7501V14.2501C27.7754 13.8845 28.0454 13.5826 28.397 13.5329C28.4307 13.5282 28.4654 13.5254 28.5001 13.5254C28.9004 13.5254 29.2248 13.8498 29.2248 14.2501V14.2501Z" fill="#497090"/>
<path d="M31.4997 16.4744C31.0996 16.4744 30.7754 16.1501 30.7754 15.7501V14.2502C30.7754 13.8502 31.0997 13.5259 31.4997 13.5259C31.8997 13.5259 32.224 13.8502 32.224 14.2502V15.7501C32.224 16.1501 31.8998 16.4744 31.4997 16.4744Z" fill="#497090"/>
<path d="M34.4997 16.4744C34.0996 16.4744 33.7754 16.1501 33.7754 15.7501V14.2502C33.7754 13.8502 34.0997 13.5259 34.4997 13.5259C34.8997 13.5259 35.224 13.8502 35.224 14.2502V15.7501C35.224 16.1501 34.8998 16.4744 34.4997 16.4744Z" fill="#497090"/>
<path d="M10.4997 34.4744C10.0996 34.4744 9.77539 34.1501 9.77539 33.7501V32.2502C9.77539 31.8502 10.0997 31.5259 10.4997 31.5259C10.8998 31.5259 11.224 31.8502 11.224 32.2502V33.7501C11.224 34.1501 10.8998 34.4744 10.4997 34.4744Z" fill="#F2FBFF"/>
<path d="M13.4997 34.4744C13.0996 34.4744 12.7754 34.1501 12.7754 33.7501V32.2502C12.7754 31.8502 13.0997 31.5259 13.4997 31.5259C13.8997 31.5259 14.224 31.8502 14.224 32.2502V33.7501C14.224 34.1501 13.8998 34.4744 13.4997 34.4744Z" fill="#F2FBFF"/>
<path d="M16.4997 34.4744C16.0996 34.4744 15.7754 34.1501 15.7754 33.7501V32.2502C15.7754 31.8502 16.0997 31.5259 16.4997 31.5259C16.8997 31.5259 17.224 31.8502 17.224 32.2502V33.7501C17.224 34.1501 16.8998 34.4744 16.4997 34.4744Z" fill="#F2FBFF"/>
<path d="M25.5 30H37.4999V39.0018H25.5V30Z" fill="#F2FBFF"/>
<path d="M25.5 29.9995H27.3293V39.0017H25.5V29.9995Z" fill="#DFF6FD"/>
<path d="M34.4996 33.724H28.4997C28.0996 33.724 27.7754 33.3997 27.7754 32.9997C27.7754 32.5997 28.0997 32.2754 28.4997 32.2754H34.4996C34.8997 32.2754 35.2239 32.5997 35.2239 32.9997C35.2239 33.3997 34.8997 33.724 34.4996 33.724Z" fill="#5680A6"/>
<path d="M34.4996 36.724H28.4997C28.0996 36.724 27.7754 36.3997 27.7754 35.9997C27.7754 35.5997 28.0997 35.2754 28.4997 35.2754H34.4996C34.8997 35.2754 35.2239 35.5997 35.2239 35.9997C35.2239 36.3997 34.8997 36.724 34.4996 36.724Z" fill="#5680A6"/>
<path d="M28.397 13.5327V16.4671C28.0454 16.4174 27.7754 16.1155 27.7754 15.7499V14.2499C27.7754 13.8843 28.0454 13.5824 28.397 13.5327Z" fill="#3D6682"/>
</g>
<defs>
<clipPath id="clip0_892_4656">
<rect width="48" height="48" fill="white"/>
</clipPath>
</defs>
</svg>
