<svg width="72" height="72" viewBox="0 0 72 72" fill="none" xmlns="http://www.w3.org/2000/svg">
<g filter="url(#filter0_d_684_22)">
<rect x="8" width="56" height="56" rx="28" fill="#00E1F0"/>
<rect x="12" y="4" width="48" height="48" rx="24" fill="white"/>
<g clip-path="url(#clip0_684_22)">
<path d="M26.625 25H45.375V39.25H26.625V25Z" fill="#E3FCFD"/>
<path d="M32.625 31.75H39.375V39.25H32.625V31.75Z" fill="#00E1F0"/>
<path d="M36 28.75C39.3137 28.75 42 26.0637 42 22.75C42 19.4363 39.3137 16.75 36 16.75C32.6863 16.75 30 19.4363 30 22.75C30 26.0637 32.6863 28.75 36 28.75Z" fill="#00E1F0"/>
<path d="M30.375 28.375C30.375 28.1761 30.296 27.9853 30.1553 27.8447C30.0147 27.704 29.8239 27.625 29.625 27.625C29.4261 27.625 29.2353 27.704 29.0947 27.8447C28.954 27.9853 28.875 28.1761 28.875 28.375V32.125C28.875 32.3239 28.954 32.5147 29.0947 32.6553C29.2353 32.796 29.4261 32.875 29.625 32.875C29.8239 32.875 30.0147 32.796 30.1553 32.6553C30.296 32.5147 30.375 32.3239 30.375 32.125V28.375Z" fill="#003CBF"/>
<path d="M47.25 38.5H46.125V25C46.125 24.8011 46.046 24.6103 45.9053 24.4696C45.7647 24.329 45.5739 24.25 45.375 24.25H43.875C43.6761 24.25 43.4853 24.329 43.3447 24.4696C43.204 24.6103 43.125 24.801 43.125 25C43.125 25.1989 43.204 25.3896 43.3447 25.5303C43.4853 25.6709 43.6761 25.75 43.875 25.75H44.625V38.5H40.125V31.75C40.125 31.5511 40.046 31.3603 39.9053 31.2196C39.7647 31.079 39.5739 31 39.375 31H32.625C32.4261 31 32.2353 31.079 32.0947 31.2196C31.954 31.3603 31.875 31.5511 31.875 31.75V38.5H27.375V25.75H29.9623C30.734 27.2984 32.0682 28.4935 33.692 29.0907C35.3158 29.688 37.1063 29.6423 38.6975 28.9629C40.2887 28.2836 41.5602 27.022 42.2519 25.4362C42.9437 23.8504 43.0034 22.0603 42.4189 20.4319C41.8343 18.8035 40.6497 17.46 39.1074 16.6761C37.565 15.8923 35.7814 15.7274 34.1215 16.2151C32.4616 16.7028 31.0507 17.8063 30.1774 19.2999C29.3042 20.7934 29.0346 22.5642 29.4238 24.25H26.625C26.4261 24.25 26.2353 24.329 26.0947 24.4696C25.954 24.6103 25.875 24.8011 25.875 25V38.5H24.75C24.5511 38.5 24.3603 38.579 24.2197 38.7196C24.079 38.8603 24 39.051 24 39.25C24 39.4489 24.079 39.6396 24.2197 39.7803C24.3603 39.9209 24.5511 40 24.75 40H47.25C47.4489 40 47.6397 39.9209 47.7803 39.7803C47.921 39.6396 48 39.4489 48 39.25C48 39.051 47.921 38.8603 47.7803 38.7196C47.6397 38.579 47.4489 38.5 47.25 38.5ZM36 17.5C37.0384 17.5 38.0534 17.8079 38.9167 18.3847C39.7801 18.9616 40.453 19.7816 40.8504 20.7409C41.2477 21.7002 41.3517 22.7558 41.1491 23.7742C40.9466 24.7926 40.4465 25.728 39.7123 26.4623C38.9781 27.1965 38.0426 27.6965 37.0242 27.8991C36.0058 28.1017 34.9502 27.9977 33.9909 27.6003C33.0316 27.203 32.2117 26.5301 31.6348 25.6667C31.0579 24.8033 30.75 23.7883 30.75 22.75C30.7516 21.3581 31.3052 20.0236 32.2894 19.0394C33.2736 18.0551 34.6081 17.5015 36 17.5V17.5ZM33.375 38.5V32.5H38.625V38.5H33.375Z" fill="#003CBF"/>
<path d="M33.75 23.5H35.25V25C35.25 25.1989 35.329 25.3897 35.4697 25.5303C35.6103 25.671 35.8011 25.75 36 25.75C36.1989 25.75 36.3897 25.671 36.5303 25.5303C36.671 25.3897 36.75 25.1989 36.75 25V23.5H38.25C38.4489 23.5 38.6397 23.421 38.7803 23.2803C38.921 23.1397 39 22.9489 39 22.75C39 22.5511 38.921 22.3603 38.7803 22.2197C38.6397 22.079 38.4489 22 38.25 22H36.75V20.5C36.75 20.3011 36.671 20.1103 36.5303 19.9697C36.3897 19.829 36.1989 19.75 36 19.75C35.8011 19.75 35.6103 19.829 35.4697 19.9697C35.329 20.1103 35.25 20.3011 35.25 20.5V22H33.75C33.5511 22 33.3603 22.079 33.2197 22.2197C33.079 22.3603 33 22.5511 33 22.75C33 22.9489 33.079 23.1397 33.2197 23.2803C33.3603 23.421 33.5511 23.5 33.75 23.5V23.5Z" fill="#003CBF"/>
<path d="M29.625 35.875C30.0392 35.875 30.375 35.5392 30.375 35.125C30.375 34.7108 30.0392 34.375 29.625 34.375C29.2108 34.375 28.875 34.7108 28.875 35.125C28.875 35.5392 29.2108 35.875 29.625 35.875Z" fill="#00E1F0"/>
</g>
</g>
<defs>
<filter id="filter0_d_684_22" x="0" y="0" width="72" height="72" filterUnits="userSpaceOnUse" color-interpolation-filters="sRGB">
<feFlood flood-opacity="0" result="BackgroundImageFix"/>
<feColorMatrix in="SourceAlpha" type="matrix" values="0 0 0 0 0 0 0 0 0 0 0 0 0 0 0 0 0 0 127 0" result="hardAlpha"/>
<feOffset dy="8"/>
<feGaussianBlur stdDeviation="4"/>
<feColorMatrix type="matrix" values="0 0 0 0 0 0 0 0 0 0 0 0 0 0 0 0 0 0 0.04 0"/>
<feBlend mode="normal" in2="BackgroundImageFix" result="effect1_dropShadow_684_22"/>
<feBlend mode="normal" in="SourceGraphic" in2="effect1_dropShadow_684_22" result="shape"/>
</filter>
<clipPath id="clip0_684_22">
<rect width="24" height="24" fill="white" transform="translate(24 16)"/>
</clipPath>
</defs>
</svg>
