<svg width="48" height="48" viewBox="0 0 48 48" fill="none" xmlns="http://www.w3.org/2000/svg">
<path d="M18 35.6299H29.9999V40.5049H18V35.6299Z" fill="#FED2A4"/>
<path d="M18.001 35.6304H22.8299V40.5052H18.001V35.6304Z" fill="#FFBD86"/>
<path d="M9 19.5V17.0625C9 16.234 9.67153 15.5625 10.5 15.5625C11.3285 15.5625 12 14.891 12 14.0625C12 13.234 12.6715 12.5625 13.5 12.5625C14.3285 12.5625 15 13.234 15 14.0625C15 14.891 15.6715 15.5625 16.5 15.5625C17.3285 15.5625 18 16.234 18 17.0625V19.4951L9 19.5Z" fill="#00E1F0"/>
<path d="M14.9483 13.6746C14.9145 13.7982 14.8972 13.9286 14.8972 14.0628C14.8972 14.4761 14.7291 14.8519 14.4577 15.1232C14.1863 15.3946 13.8116 15.5626 13.3973 15.5626C12.5687 15.5626 11.8974 16.2339 11.8974 17.0625V19.498L9 19.4999V17.0625C9 16.2339 9.67125 15.5626 10.4999 15.5626C10.9143 15.5626 11.289 15.3945 11.5603 15.1232C11.8317 14.8518 11.9997 14.4761 11.9997 14.0628C11.9997 13.6484 12.1678 13.2737 12.4391 13.0024C12.7105 12.731 13.0852 12.563 13.4995 12.563C13.9139 12.563 14.2886 12.7311 14.5599 13.0024C14.7436 13.1859 14.8798 13.4167 14.9483 13.6746V13.6746Z" fill="#02CFE0"/>
<path d="M34.0819 18.5676L32.5939 19.5043L26.5939 19.501L25.0947 18.5626L31.9526 8.45732L33.3555 8.13379L36.6953 9.82888L36.8123 10.9238L34.0819 18.5676Z" fill="#0065FF"/>
<path d="M27.9922 18.5625L27.2816 19.5H26.5942L25.0947 18.5625L31.9529 8.45741L33.3558 8.13379L34.6527 8.77776L27.9922 18.5625Z" fill="#003CBF"/>
<path d="M48 40.2236V41.9158C48 42.2786 47.7066 42.5721 47.3438 42.5721H0.65625C0.294375 42.5721 0 42.2786 0 41.9158V40.2236C0 39.8608 0.294375 39.5674 0.65625 39.5674H47.3438C47.7066 39.5674 48 39.8608 48 40.2236Z" fill="#0065FF"/>
<path d="M5.505 42.5721H0.65625C0.294375 42.5721 0 42.2786 0 41.9158V40.2236C0 39.8608 0.294375 39.5674 0.65625 39.5674H5.505C5.13188 39.5674 4.82906 39.8702 4.82906 40.2433V41.8961C4.82906 42.2702 5.13188 42.5721 5.505 42.5721V42.5721Z" fill="#003CBF"/>
<path d="M41.9999 21.5625L40.3748 22.5H7.06238L6 21.5625V19.2188C6 18.8563 6.29381 18.5625 6.65625 18.5625H41.3437C41.7061 18.5625 41.9999 18.8563 41.9999 19.2188V21.5625Z" fill="#FED2A4"/>
<path d="M39.195 10.4019L39.1547 10.4797C39.0591 10.6681 38.9279 10.8275 38.7732 10.9513C38.341 11.3019 37.726 11.3872 37.1972 11.1191L31.5676 8.26159C30.8504 7.89784 30.5635 7.02127 30.9272 6.30409L30.9676 6.22534C31.3313 5.50909 32.2079 5.22221 32.9251 5.58596L33.2841 5.76784V5.76877L38.5557 8.4444C39.2729 8.80815 39.5588 9.68471 39.195 10.4019Z" fill="#0065FF"/>
<path d="M38.7732 10.9513C38.341 11.3019 37.726 11.3872 37.1972 11.1191L31.5676 8.26159C30.8504 7.89784 30.5635 7.02127 30.9272 6.30409L30.9676 6.22534C31.3313 5.50909 32.2079 5.22221 32.9251 5.58596L33.2841 5.76784V5.76877C33.1191 5.89909 32.9804 6.06596 32.8791 6.26471C32.5041 7.00346 32.7994 7.90721 33.5372 8.28127L38.7694 10.9372C38.7713 10.9419 38.7722 10.9466 38.7732 10.9513V10.9513Z" fill="#003CBF"/>
<path d="M10.83 18.5625V22.4998H7.06298L6.00098 21.5623V19.2188C6.00098 18.8563 6.29479 18.5625 6.65723 18.5625H10.83Z" fill="#FFBD86"/>
<path d="M42 21.563V24.8105C42 31.3036 36.7359 36.5677 30.2438 36.5677H17.7572C11.2641 36.5677 6 31.3036 6 24.8105V21.563H42Z" fill="#FFF3DE"/>
<path d="M22.9406 36.5676H17.7572C11.2641 36.5676 6 31.3036 6 24.8104V21.563L6.00094 21.562H10.8291V24.4561C10.8291 31.1451 16.2516 36.5676 22.9406 36.5676Z" fill="#FFE5C2"/>
<path d="M33.0206 26.6929V27.441C33.0206 29.9788 30.9628 32.0366 28.425 32.0366H24V30.6322C24 28.0944 26.0578 26.0366 28.5956 26.0366H32.3644C32.7272 26.0366 33.0206 26.3301 33.0206 26.6929Z" fill="#7FF0F7"/>
<path d="M31.6322 26.0366C29.0175 26.0366 26.8978 28.1563 26.8978 30.771V32.0366H24V30.6322C24 28.0944 26.0578 26.0366 28.5956 26.0366H31.6322Z" fill="#00E1F0"/>
<path d="M24.0099 30.6322V32.0366H19.5849C17.0471 32.0366 14.9893 29.9788 14.9893 27.441V26.6929C14.9893 26.3301 15.2827 26.0366 15.6455 26.0366H19.4143C21.9521 26.0366 24.0099 28.0944 24.0099 30.6322Z" fill="#7FF0F7"/>
<path d="M21.6558 32.0366H19.5849C17.0468 32.0366 14.9893 29.9791 14.9893 27.441V26.6929C14.9893 26.3304 15.2831 26.0366 15.6455 26.0366H16.9214V27.3022C16.9214 29.9169 19.0402 32.0366 21.6558 32.0366Z" fill="#00E1F0"/>
<path d="M24.0102 31.1665V32.0365H22.7023L19.0986 29.6393C18.7658 29.418 18.6748 28.968 18.897 28.6352C19.1183 28.3024 19.5683 28.2115 19.9011 28.4336L24.0102 31.1665Z" fill="#02CFE0"/>
<path d="M28.9219 29.6393L26.8978 30.9856L25.3181 32.0365H24V31.174L27.2297 29.0253L28.1194 28.4337C28.4522 28.2125 28.9022 28.3025 29.1234 28.6353C29.3456 28.9681 29.2547 29.4181 28.9219 29.6393V29.6393Z" fill="#02CFE0"/>
<path d="M27.2297 29.0254C27.0159 29.5663 26.8978 30.1551 26.8978 30.771V30.9857L25.3181 32.0366H24V31.1741L27.2297 29.0254Z" fill="#02CFE0"/>
</svg>
