<svg width="217" height="335" viewBox="0 0 217 335" fill="none" xmlns="http://www.w3.org/2000/svg">
<circle opacity="0.6" cx="89" cy="152" r="20" fill="#F33060"/>
<circle opacity="0.6" cx="131" cy="127" r="20" fill="#F33060"/>
<circle opacity="0.6" cx="66" cy="115" r="29" fill="#F33060"/>
<circle opacity="0.6" cx="197" cy="24" r="20" fill="#F33060"/>
<circle opacity="0.6" cx="111" cy="78" r="16" fill="#F33060"/>
<circle opacity="0.6" cx="12" cy="112" r="12" fill="#F33060"/>
<circle opacity="0.6" cx="130" cy="105" r="12" fill="#F33060"/>
<circle opacity="0.6" cx="59" cy="224" r="12" fill="#F33060"/>
<circle opacity="0.6" cx="55" cy="33" r="8" fill="#F33060"/>
<circle opacity="0.6" cx="62" cy="59" r="8" fill="#F33060"/>
<circle opacity="0.6" cx="68" cy="148" r="8" fill="#F33060"/>
<circle opacity="0.6" cx="153" cy="132" r="8" fill="#F33060"/>
<circle opacity="0.6" cx="181" cy="115" r="8" fill="#F33060"/>
<circle opacity="0.6" cx="54" cy="298" r="8" fill="#F33060"/>
<circle opacity="0.6" cx="116" cy="228" r="8" fill="#F33060"/>
<circle opacity="0.6" cx="125" cy="15" r="6" fill="#F33060"/>
<circle opacity="0.6" cx="151" cy="122" r="6" fill="#F33060"/>
<circle opacity="0.6" cx="121" cy="329" r="6" fill="#F33060"/>
<circle opacity="0.6" cx="46" cy="228" r="6" fill="#F33060"/>
<circle opacity="0.6" cx="45" cy="95" r="6" fill="#F33060"/>
<circle opacity="0.6" cx="166" cy="179" r="6" fill="#F33060"/>
<circle opacity="0.6" cx="66" cy="51" r="6" fill="#F33060"/>
<circle opacity="0.6" cx="98" cy="116" r="6" fill="#F33060"/>
<circle opacity="0.6" cx="177" cy="54" r="4" fill="#F33060"/>
<circle opacity="0.6" cx="174" cy="180" r="4" fill="#F33060"/>
<circle opacity="0.6" cx="99" cy="89" r="4" fill="#F33060"/>
<circle opacity="0.6" cx="6" cy="149" r="4" fill="#F33060"/>
<circle opacity="0.6" cx="174" cy="292" r="4" fill="#F33060"/>
<circle opacity="0.6" cx="60" cy="294" r="4" fill="#F33060"/>
<circle opacity="0.6" cx="50" cy="263" r="4" fill="#F33060"/>
<circle opacity="0.6" cx="99" cy="281" r="4" fill="#F33060"/>
<circle opacity="0.6" cx="67" cy="2" r="2" fill="#F33060"/>
<circle opacity="0.6" cx="134" cy="274" r="2" fill="#F33060"/>
<circle opacity="0.6" cx="108" cy="303" r="2" fill="#F33060"/>
<circle opacity="0.6" cx="102" cy="132" r="16" fill="#F33060"/>
</svg>
