<svg width="16" height="16" viewBox="0 0 16 16" fill="none" xmlns="http://www.w3.org/2000/svg">
<path d="M15 3.5C14.2765 3.5 13.7235 3.5 13 3.5V2H14C14.2765 2 14.5 1.776 14.5 1.5C14.5 1.224 14.2765 1 14 1H11C10.7235 1 10.5 1.224 10.5 1.5C10.5 1.776 10.7235 2 11 2H12V3.5C11.2765 3.5 10.7235 3.5 10 3.5C9.7235 3.5 9.5 3.724 9.5 4C9.5 4.276 9.7235 4.5 10 4.5H10.5V10.5C10.5 11.429 11.1395 12.2055 12 12.429V14.5C12 14.776 12.2235 15 12.5 15C12.7765 15 13 14.776 13 14.5V12.429C13.8605 12.2055 14.5 11.429 14.5 10.5V4.5H15C15.2765 4.5 15.5 4.276 15.5 4C15.5 3.724 15.2765 3.5 15 3.5ZM13.5 10.5C13.5 11.0515 13.0515 11.5 12.5 11.5C11.9485 11.5 11.5 11.0515 11.5 10.5H12C12.2765 10.5 12.5 10.276 12.5 10C12.5 9.724 12.2765 9.5 12 9.5H11.5V8.5H12C12.2765 8.5 12.5 8.276 12.5 8C12.5 7.724 12.2765 7.5 12 7.5H11.5V6.5H12C12.2765 6.5 12.5 6.276 12.5 6C12.5 5.724 12.2765 5.5 12 5.5H11.5V4.5H13.5V10.5Z" fill="#112950"/>
<path d="M1 10V14.5C1 14.776 1.2235 15 1.5 15H8.5C8.7765 15 9 14.776 9 14.5V10C9 8.516 7.917 7.2805 6.5 7.0415V6H7C7.2765 6 7.5 5.776 7.5 5.5V3.5C7.5 3.224 7.2765 3 7 3H3C2.7235 3 2.5 3.224 2.5 3.5V5.5C2.5 5.776 2.7235 6 3 6H3.5V7.0415C2.083 7.2805 1 8.516 1 10ZM3.5 4H6.5V5C5.41 5 4.54 5 3.5 5V4ZM4 8C4.2765 8 4.5 7.776 4.5 7.5V6H5.5V7.5C5.5 7.776 5.7235 8 6 8C7.103 8 8 8.897 8 10V14H2V10C2 8.897 2.897 8 4 8Z" fill="#112950"/>
<path d="M3 11C3 10.724 3.2235 10.5 3.5 10.5H4.5V9.5C4.5 9.224 4.7235 9 5 9C5.2765 9 5.5 9.224 5.5 9.5V10.5H6.5C6.7765 10.5 7 10.724 7 11C7 11.276 6.7765 11.5 6.5 11.5H5.5V12.5C5.5 12.776 5.2765 13 5 13C4.7235 13 4.5 12.776 4.5 12.5V11.5H3.5C3.2235 11.5 3 11.276 3 11Z" fill="#112950"/>
</svg>
