<svg width="48" height="48" viewBox="0 0 48 48" fill="none" xmlns="http://www.w3.org/2000/svg">
<path d="M18.0156 8.0625H30.0155V12.9375H18.0156V8.0625Z" fill="#02CFE0"/>
<path d="M18.0156 8.06299H22.8446V12.9377H18.0156V8.06299Z" fill="#00E1F0"/>
<path d="M33.0156 0.65625V8.34375C33.0156 8.70656 32.7222 9 32.3594 9H15.6719C15.3091 9 15.0156 8.70656 15.0156 8.34375V0.65625C15.0156 0.294375 15.3091 0 15.6719 0H32.3594C32.7222 0 33.0156 0.294375 33.0156 0.65625Z" fill="#003CBF"/>
<path d="M33.0156 7.06875V8.34375C33.0156 8.70656 32.7222 9 32.3594 9H15.6719C15.3091 9 15.0156 8.70656 15.0156 8.34375V0.65625C15.0156 0.294375 15.3091 0 15.6719 0H19.8447V6.39281C19.8447 6.765 20.1475 7.06875 20.5206 7.06875H33.0156Z" fill="#0065FF"/>
<path d="M16.6289 12.183L12.2272 16.3054C12.0947 16.4294 12.0195 16.6028 12.0195 16.7843V45.1022C12.0195 46.7024 13.3167 47.9995 14.9169 47.9995H33.1148C34.715 47.9995 36.0121 46.7023 36.0121 45.1022V16.7841C36.0121 16.6027 35.937 16.4294 35.8048 16.3054L31.403 12.1776C31.2813 12.0635 31.1207 11.9999 30.9538 12L17.0772 12.0057C16.9108 12.0058 16.7504 12.0692 16.6289 12.183V12.183Z" fill="#F2FBFF"/>
<path d="M19.7458 48H14.9169C13.3167 48 12.0195 46.7028 12.0195 45.1027V16.7842C12.0195 16.6027 12.0947 16.4293 12.2272 16.3052L16.6284 12.1831C16.75 12.0692 16.9104 12.0059 17.077 12.0059H21.6466L18.4401 15.0094L16.8485 16.4997V45.1026C16.8484 46.703 18.1455 48 19.7458 48V48Z" fill="#DFF6FD"/>
<path d="M15.0156 44.3401V18.2753C15.0156 18.1011 15.0849 17.934 15.2082 17.8109L17.8221 15.2012C17.9451 15.0784 18.1117 15.0095 18.2855 15.0094L29.7447 15.0044C29.9188 15.0043 30.0858 15.0734 30.2089 15.1965L32.8232 17.8098C32.9462 17.9329 33.0154 18.0998 33.0154 18.2739V44.3401C33.0154 44.7025 32.7216 44.9963 32.3592 44.9963H15.6719C15.3094 44.9963 15.0156 44.7025 15.0156 44.3401V44.3401Z" fill="#00E1F0"/>
<path d="M18.4403 15.0093L16.8487 16.4995V44.9962H15.6719C15.3094 44.9962 15.0156 44.7024 15.0156 44.34V18.2754C15.0156 18.1012 15.0849 17.9341 15.2082 17.811L17.8222 15.2012C17.9452 15.0784 18.112 15.0094 18.2859 15.0094H18.4403V15.0093Z" fill="#02CFE0"/>
<path d="M15.0156 21H33.0154V37.4886H15.0156V21Z" fill="#7FF0F7"/>
<path d="M15.0156 21.0005H16.8487V37.4885H15.0156V21.0005Z" fill="#00E1F0"/>
<path d="M18.0153 6.7245C17.6153 6.7245 17.291 6.40022 17.291 6.00019V3.00019C17.291 2.60007 17.6153 2.27588 18.0153 2.27588C18.4154 2.27588 18.7396 2.60016 18.7396 3.00019V6.00019C18.7397 6.40032 18.4155 6.7245 18.0153 6.7245Z" fill="#7FF0F7"/>
<path d="M21.0153 6.7245C20.6153 6.7245 20.291 6.40022 20.291 6.00019V3.00019C20.291 2.60007 20.6153 2.27588 21.0153 2.27588C21.4154 2.27588 21.7396 2.60016 21.7396 3.00019V6.00019C21.7397 6.40032 21.4155 6.7245 21.0153 6.7245Z" fill="#7FF0F7"/>
<path d="M24.0153 6.7245C23.6153 6.7245 23.291 6.40022 23.291 6.00019V3.00019C23.291 2.60007 23.6153 2.27588 24.0153 2.27588C24.4154 2.27588 24.7396 2.60016 24.7396 3.00019V6.00019C24.7396 6.40032 24.4154 6.7245 24.0153 6.7245Z" fill="#7FF0F7"/>
<path d="M27.0153 6.7245C26.6153 6.7245 26.291 6.40022 26.291 6.00019V3.00019C26.291 2.60007 26.6153 2.27588 27.0153 2.27588C27.4154 2.27588 27.7396 2.60016 27.7396 3.00019V6.00019C27.7397 6.40032 27.4155 6.7245 27.0153 6.7245Z" fill="#7FF0F7"/>
<path d="M30.0153 6.7245C29.6153 6.7245 29.291 6.40022 29.291 6.00019V3.00019C29.291 2.60007 29.6153 2.27588 30.0153 2.27588C30.4154 2.27588 30.7396 2.60016 30.7396 3.00019V6.00019C30.7397 6.40032 30.4155 6.7245 30.0153 6.7245Z" fill="#7FF0F7"/>
<path d="M23.1719 34.6816C22.2931 34.6816 21.5781 33.9667 21.5781 33.0879V31.6816H20.1719C19.2931 31.6816 18.5781 30.9667 18.5781 30.0879V28.4004C18.5781 27.5216 19.2931 26.8066 20.1719 26.8066H21.5781V25.4004C21.5781 24.5216 22.2931 23.8066 23.1719 23.8066H24.8594C25.7382 23.8066 26.4531 24.5216 26.4531 25.4004V26.8066H27.8594C28.7382 26.8066 29.4531 27.5216 29.4531 28.4004V30.0879C29.4531 30.9667 28.7382 31.6816 27.8594 31.6816H26.4531V33.0879C26.4531 33.9667 25.7382 34.6816 24.8594 34.6816H23.1719Z" fill="#7FF0F7"/>
<path d="M27.8594 27.7446H26.1719C25.8094 27.7446 25.5156 27.4508 25.5156 27.0884V25.4009C25.5156 25.0384 25.2218 24.7446 24.8594 24.7446H23.1719C22.8094 24.7446 22.5156 25.0384 22.5156 25.4009V27.0884C22.5156 27.4508 22.2218 27.7446 21.8594 27.7446H20.1719C19.8094 27.7446 19.5156 28.0384 19.5156 28.4009V30.0884C19.5156 30.4508 19.8094 30.7446 20.1719 30.7446H21.8594C22.2218 30.7446 22.5156 31.0384 22.5156 31.4009V33.0884C22.5156 33.4508 22.8094 33.7446 23.1719 33.7446H24.8594C25.2218 33.7446 25.5156 33.4508 25.5156 33.0884V31.4009C25.5156 31.0384 25.8094 30.7446 26.1719 30.7446H27.8594C28.2218 30.7446 28.5156 30.4508 28.5156 30.0884V28.4009C28.5156 28.0384 28.2218 27.7446 27.8594 27.7446Z" fill="#0065FF"/>
<path d="M7.51562 37.4883C6.68725 37.4883 6.01562 38.1598 6.01562 38.9883C6.01562 39.8167 6.68716 40.4883 7.51562 40.4883H27.6413C28.7988 43.1367 31.4402 44.9883 34.5154 44.9883C38.4137 44.9883 41.6174 42.0141 41.981 38.2111C42.0181 37.8242 41.7162 37.4884 41.3275 37.4884H7.51562V37.4883Z" fill="#003CBF"/>
<path d="M10.8455 39.0229C10.8455 39.4371 11.0136 39.8119 11.2849 40.0843C11.5563 40.3557 11.931 40.5237 12.3453 40.5237H7.51642C7.10213 40.5237 6.72732 40.3556 6.45601 40.0843C6.1846 39.8119 6.0166 39.4372 6.0166 39.0229C6.0166 38.1951 6.68785 37.5229 7.51651 37.5229H12.3455C11.5167 37.5229 10.8455 38.1951 10.8455 39.0229V39.0229Z" fill="#0065FF"/>
<path d="M36.9306 44.5915C36.1725 44.8483 35.3602 44.9884 34.5161 44.9884C31.441 44.9884 28.7996 43.1369 27.6416 40.4888H32.4706C33.3109 42.4097 34.9305 43.9106 36.9306 44.5915V44.5915Z" fill="#0065FF"/>
<path d="M37.5109 30.3757C37.5109 32.0301 36.1697 33.3714 34.5152 33.3714C32.8608 33.3714 31.5195 32.0302 31.5195 30.3757C31.5195 29.1801 33.0839 26.3877 33.9517 24.9308C34.2061 24.5035 34.8242 24.5035 35.0787 24.9308C35.9465 26.3877 37.5109 29.1801 37.5109 30.3757Z" fill="#FEE97D"/>
<path d="M35.9641 32.9983C35.5353 33.2358 35.0408 33.3711 34.5154 33.3711C32.861 33.3711 31.5195 32.0306 31.5195 30.3762C31.5195 29.1806 33.0841 26.3881 33.952 24.9312C34.2063 24.5041 34.8245 24.504 35.0788 24.9311C35.3331 25.358 35.6472 25.8996 35.9641 26.4821C35.1992 27.8873 34.417 29.5311 34.417 30.3762C34.4169 31.5051 35.0418 32.4873 35.9641 32.9983V32.9983Z" fill="#FED402"/>
</svg>
