<svg width="64" height="64" viewBox="0 0 64 64" fill="none" xmlns="http://www.w3.org/2000/svg">
<g clip-path="url(#clip0_0_8004)">
<path d="M51.5703 64H11.9008C5.3276 64 0 58.628 0 52V12C0 5.372 5.3276 0 11.9008 0H51.5703C58.1435 0 63.4711 5.372 63.4711 12V52C63.4711 58.628 58.1435 64 51.5703 64Z" fill="#F2F6FE"/>
<path d="M25.125 25.334H17.1911C16.4592 25.334 15.8682 24.736 15.8682 24C15.8682 23.264 16.4612 22.666 17.1911 22.666H25.125C25.8549 22.666 26.448 23.264 26.448 24C26.448 24.736 25.8549 25.334 25.125 25.334Z" fill="#00E1F0"/>
<path d="M46.2803 25.334H38.3464C37.6165 25.334 37.0234 24.736 37.0234 24C37.0234 23.264 37.6165 22.666 38.3464 22.666H46.2803C47.0122 22.666 47.6033 23.264 47.6033 24C47.6033 24.736 47.0122 25.334 46.2803 25.334Z" fill="#00E1F0"/>
<path d="M30.3725 38.6658C28.2323 38.6658 26.471 36.8538 26.4452 34.6238C26.3798 28.5098 29.8786 21.3018 35.3629 16.2598C35.714 15.9378 36.2396 15.9118 36.6205 16.1938C37.0013 16.4778 37.1302 16.9938 36.9279 17.4258C34.4426 22.7378 33.3398 29.2978 34.1867 33.7518C34.4267 35.0158 34.1094 36.2938 33.32 37.2578C32.5861 38.1538 31.513 38.6658 30.3725 38.6658V38.6658Z" fill="#00E1F0"/>
<path d="M47.0622 30.6L44.5769 28.772C43.8034 28.266 42.9227 28 42.0321 28C40.2192 28 38.6126 29.034 37.5832 29.902C36.7244 30.626 36.2325 31.692 36.2325 32.828V35.06C36.2325 36.548 35.6394 37.956 34.5683 39.014C33.533 40.018 32.1663 40.604 30.7224 40.664C29.1634 40.738 27.6758 40.148 26.5273 39.03C25.3551 37.886 24.6906 36.308 24.7025 34.7L24.7244 31.916C24.7343 30.54 24.0182 29.314 22.8044 28.64C21.5746 27.958 20.0791 28.008 18.8335 28.816L16.4097 30.6C16.0705 30.85 15.8682 31.25 15.8682 31.676V45.332C15.8682 46.804 17.0543 48 18.5121 48H44.9578C46.4176 48 47.6037 46.804 47.6037 45.334V31.678C47.6037 31.25 47.4014 30.85 47.0622 30.6V30.6ZM19.8351 34.666C20.565 34.666 21.1581 35.262 21.1581 36C21.1581 36.736 20.567 37.334 19.8351 37.334C19.1052 37.334 18.5121 36.736 18.5121 36C18.5121 35.264 19.1052 34.666 19.8351 34.666ZM20.1663 44C19.4344 44 18.8434 43.404 18.8434 42.666C18.8434 41.93 19.4344 41.332 20.1663 41.332C20.8982 41.332 21.4893 41.928 21.4893 42.666C21.4873 43.404 20.8963 44 20.1663 44ZM26.446 45.334C25.7161 45.334 25.123 44.736 25.123 44C25.123 43.264 25.7141 42.666 26.446 42.666C27.1779 42.666 27.769 43.264 27.769 44C27.769 44.736 27.1779 45.334 26.446 45.334ZM38.3468 44C37.6169 44 37.0239 43.402 37.0239 42.666C37.0239 41.93 37.6149 41.332 38.3468 41.332C39.0768 41.332 39.6698 41.928 39.6698 42.666C39.6698 43.404 39.0787 44 38.3468 44ZM42.3138 36C41.5839 36 40.9908 35.402 40.9908 34.666C40.9908 33.93 41.5819 33.332 42.3138 33.332C43.0437 33.332 43.6368 33.928 43.6368 34.666C43.6368 35.402 43.0457 36 42.3138 36ZM44.9597 41.334C44.2278 41.334 43.6368 40.736 43.6368 40C43.6368 39.264 44.2278 38.666 44.9597 38.666C45.6897 38.666 46.2827 39.262 46.2827 40C46.2807 40.736 45.6897 41.334 44.9597 41.334Z" fill="#0065FF"/>
</g>
<defs>
<clipPath id="clip0_0_8004">
<rect width="63.4711" height="64" fill="white"/>
</clipPath>
</defs>
</svg>
