<svg width="48" height="48" viewBox="0 0 48 48" fill="none" xmlns="http://www.w3.org/2000/svg">
<path d="M37.5 2.8125V45.1875C37.5 46.7409 36.2409 48 34.6875 48H13.3125C11.7591 48 10.5 46.7409 10.5 45.1875V2.8125C10.5 1.25906 11.7591 0 13.3125 0H34.6875C36.2409 0 37.5 1.25906 37.5 2.8125Z" fill="#F2FBFF"/>
<path d="M13.5 43.59V4.41016C13.5 3.63353 14.1296 3.00391 14.9062 3.00391H33.0936C33.8702 3.00391 34.4998 3.63353 34.4998 4.41016V43.5901C34.4998 44.3667 33.8702 44.9963 33.0936 44.9963H14.9062C14.1296 44.9962 13.5 44.3667 13.5 43.59V43.59Z" fill="#C8EFFE"/>
<path d="M17.9999 12.9373C16.6559 12.9373 15.5625 11.8439 15.5625 10.4999C15.5625 9.84909 15.8161 9.23709 16.2765 8.77659C16.7369 8.31609 17.3489 8.0625 17.9999 8.0625H21.0007C22.3446 8.0625 23.438 9.15591 23.438 10.4999C23.438 11.1508 23.1845 11.7628 22.7241 12.2232C22.2635 12.6837 21.6515 12.9372 21.0007 12.9372H17.9999V12.9373Z" fill="#99E6FC"/>
<path d="M20.0632 11.0622L19.5008 11.9997H17.9999C17.1722 11.9997 16.5 11.3285 16.5 10.4998C16.5 10.0854 16.6681 9.71072 16.9394 9.43941C17.2108 9.168 17.5865 9 17.9998 9H19.5007L20.0631 9.9375C20.0745 11.0505 20.0628 10.2888 20.0632 11.0622V11.0622Z" fill="#F2FBFF"/>
<path d="M22.5007 10.4998C22.5007 10.9142 22.3326 11.2889 22.0613 11.5602C21.7899 11.8316 21.4152 11.9996 21.0009 11.9996H19.501V9H21.0009C21.8285 9 22.5007 9.67116 22.5007 10.4998V10.4998Z" fill="#0065FF"/>
<path d="M26.9999 12.9373C25.6559 12.9373 24.5625 11.8439 24.5625 10.4999C24.5625 9.84909 24.8161 9.23709 25.2765 8.77659C25.7369 8.31609 26.3489 8.0625 26.9999 8.0625H30.0007C31.3446 8.0625 32.438 9.15591 32.438 10.4999C32.438 11.1508 32.1845 11.7628 31.7241 12.2232C31.2635 12.6837 30.6515 12.9372 30.0007 12.9372H26.9999V12.9373Z" fill="#99E6FC"/>
<path d="M29.0632 11.0622L28.5008 11.9997H26.9999C26.1722 11.9997 25.5 11.3285 25.5 10.4998C25.5 10.0854 25.6681 9.71072 25.9394 9.43941C26.2107 9.16809 26.5865 9 26.9998 9H28.5007L29.0631 9.9375C29.0745 11.0505 29.0628 10.2888 29.0632 11.0622V11.0622Z" fill="#F2FBFF"/>
<path d="M31.5008 10.4998C31.5008 10.9142 31.3327 11.2889 31.0614 11.5602C30.79 11.8316 30.4153 11.9996 30.0009 11.9996H28.501V9H30.0009C30.8286 9 31.5008 9.67116 31.5008 10.4998V10.4998Z" fill="#0065FF"/>
<path d="M17.9999 18.9608C16.6559 18.9608 15.5625 17.8673 15.5625 16.5233C15.5625 15.8725 15.8161 15.2605 16.2765 14.8C16.7369 14.3395 17.3489 14.0859 17.9999 14.0859H21.0007C22.3446 14.0859 23.438 15.1793 23.438 16.5233C23.438 17.1743 23.1845 17.7863 22.7241 18.2467C22.2635 18.7072 21.6515 18.9607 21.0007 18.9607H17.9999V18.9608Z" fill="#99E6FC"/>
<path d="M20.0632 17.0857L19.5008 18.0232H17.9999C17.1722 18.0232 16.5 17.3519 16.5 16.5232C16.5 16.1089 16.6681 15.7342 16.9394 15.4628C17.2108 15.1914 17.5865 15.0234 17.9998 15.0234H19.5007L20.0631 15.9609C20.0745 17.0739 20.0628 16.3122 20.0632 17.0857V17.0857Z" fill="#F2FBFF"/>
<path d="M22.5007 16.5233C22.5007 16.9377 22.3326 17.3124 22.0613 17.5837C21.7899 17.8552 21.4152 18.0232 21.0009 18.0232H19.501V15.0234H21.0009C21.8285 15.0235 22.5007 15.6947 22.5007 16.5233V16.5233Z" fill="#0065FF"/>
<path d="M26.9999 18.9608C25.6559 18.9608 24.5625 17.8673 24.5625 16.5233C24.5625 15.8725 24.8161 15.2605 25.2765 14.8C25.7369 14.3395 26.3489 14.0859 26.9999 14.0859H30.0007C31.3446 14.0859 32.438 15.1793 32.438 16.5233C32.438 17.1743 32.1845 17.7863 31.7241 18.2467C31.2635 18.7072 30.6515 18.9607 30.0007 18.9607H26.9999V18.9608Z" fill="#99E6FC"/>
<path d="M29.0632 17.0857L28.5008 18.0232H26.9999C26.1722 18.0232 25.5 17.3519 25.5 16.5232C25.5 16.1089 25.6681 15.7342 25.9394 15.4628C26.2108 15.1914 26.5865 15.0234 26.9998 15.0234H28.5007L29.0631 15.9609C29.0745 17.0739 29.0628 16.3122 29.0632 17.0857V17.0857Z" fill="#F2FBFF"/>
<path d="M31.5008 16.5233C31.5008 16.9377 31.3327 17.3124 31.0614 17.5837C30.79 17.8552 30.4153 18.0232 30.0009 18.0232H28.501V15.0234H30.0009C30.8286 15.0235 31.5008 15.6947 31.5008 16.5233Z" fill="#0065FF"/>
<path d="M17.9999 24.9842C16.6559 24.9842 15.5625 23.8908 15.5625 22.5468C15.5625 21.896 15.8161 21.284 16.2765 20.8235C16.7369 20.363 17.3489 20.1094 17.9999 20.1094H21.0007C22.3446 20.1094 23.438 21.2028 23.438 22.5468C23.438 23.1977 23.1845 23.8097 22.7241 24.2701C22.2635 24.7306 21.6515 24.9841 21.0007 24.9841H17.9999V24.9842Z" fill="#99E6FC"/>
<path d="M20.0632 23.1091L19.5008 24.0466H17.9999C17.1722 24.0466 16.5 23.3753 16.5 22.5467C16.5 22.1323 16.6681 21.7577 16.9394 21.4863C17.2108 21.2149 17.5865 21.0469 17.9998 21.0469H19.5007L20.0631 21.9844C20.0745 23.0974 20.0628 22.3357 20.0632 23.1091V23.1091Z" fill="#F2FBFF"/>
<path d="M22.5007 22.5468C22.5007 22.9612 22.3326 23.3359 22.0613 23.6072C21.7899 23.8786 21.4152 24.0466 21.0009 24.0466H19.501V21.0469H21.0009C21.8285 21.047 22.5007 21.7181 22.5007 22.5468V22.5468Z" fill="#0065FF"/>
<path d="M26.9999 24.9842C25.6559 24.9842 24.5625 23.8908 24.5625 22.5468C24.5625 21.896 24.8161 21.284 25.2765 20.8235C25.7369 20.363 26.3489 20.1094 26.9999 20.1094H30.0007C31.3446 20.1094 32.438 21.2028 32.438 22.5468C32.438 23.1977 32.1845 23.8097 31.7241 24.2701C31.2635 24.7306 30.6515 24.9841 30.0007 24.9841H26.9999V24.9842Z" fill="#99E6FC"/>
<path d="M29.0632 23.1091L28.5008 24.0466H26.9999C26.1722 24.0466 25.5 23.3753 25.5 22.5467C25.5 22.1323 25.6681 21.7577 25.9394 21.4863C26.2108 21.2149 26.5865 21.0469 26.9998 21.0469H28.5007L29.0631 21.9844C29.0745 23.0974 29.0628 22.3357 29.0632 23.1091V23.1091Z" fill="#F2FBFF"/>
<path d="M31.5008 22.5468C31.5008 22.9612 31.3327 23.3359 31.0614 23.6072C30.79 23.8786 30.4153 24.0466 30.0009 24.0466H28.501V21.0469H30.0009C30.8286 21.047 31.5008 21.7181 31.5008 22.5468Z" fill="#0065FF"/>
<path d="M17.9999 31.0076C16.6559 31.0076 15.5625 29.9142 15.5625 28.5702C15.5625 27.9194 15.8161 27.3074 16.2765 26.8469C16.7369 26.3864 17.3489 26.1328 17.9999 26.1328H21.0007C22.3446 26.1328 23.438 27.2262 23.438 28.5702C23.438 29.2211 23.1845 29.8331 22.7241 30.2935C22.2635 30.754 21.6515 31.0075 21.0007 31.0075H17.9999V31.0076Z" fill="#99E6FC"/>
<path d="M20.0632 29.1325L19.5008 30.07H17.9999C17.1722 30.07 16.5 29.3988 16.5 28.5701C16.5 28.1558 16.6681 27.781 16.9394 27.5097C17.2108 27.2383 17.5865 27.0703 17.9998 27.0703H19.5007L20.0631 28.0078C20.0745 29.1208 20.0628 28.3591 20.0632 29.1325V29.1325Z" fill="#F2FBFF"/>
<path d="M22.5007 28.5702C22.5007 28.9846 22.3326 29.3593 22.0613 29.6306C21.7899 29.902 21.4152 30.07 21.0009 30.07H19.501V27.0703H21.0009C21.8285 27.0704 22.5007 27.7416 22.5007 28.5702V28.5702Z" fill="#0065FF"/>
<path d="M26.9999 31.0076C25.6559 31.0076 24.5625 29.9142 24.5625 28.5702C24.5625 27.9194 24.8161 27.3074 25.2765 26.8469C25.7369 26.3864 26.3489 26.1328 26.9999 26.1328H30.0007C31.3446 26.1328 32.438 27.2262 32.438 28.5702C32.438 29.2211 32.1845 29.8331 31.7241 30.2935C31.2635 30.754 30.6515 31.0075 30.0007 31.0075H26.9999V31.0076Z" fill="#99E6FC"/>
<path d="M29.0632 29.1325L28.5008 30.07H26.9999C26.1722 30.07 25.5 29.3988 25.5 28.5701C25.5 28.1558 25.6681 27.781 25.9394 27.5097C26.2107 27.2384 26.5865 27.0703 26.9998 27.0703H28.5007L29.0631 28.0078C29.0745 29.1208 29.0628 28.3591 29.0632 29.1325V29.1325Z" fill="#F2FBFF"/>
<path d="M31.5008 28.5702C31.5008 28.9846 31.3327 29.3593 31.0614 29.6306C30.79 29.902 30.4153 30.07 30.0009 30.07H28.501V27.0703H30.0009C30.8286 27.0704 31.5008 27.7416 31.5008 28.5702Z" fill="#0065FF"/>
<path d="M17.9999 37.0311C16.6559 37.0311 15.5625 35.9377 15.5625 34.5937C15.5625 33.9428 15.8161 33.3308 16.2765 32.8703C16.7369 32.4098 17.3489 32.1562 17.9999 32.1562H21.0007C22.3446 32.1562 23.438 33.2497 23.438 34.5937C23.438 35.2446 23.1845 35.8566 22.7241 36.317C22.2635 36.7775 21.6515 37.031 21.0007 37.031H17.9999V37.0311Z" fill="#99E6FC"/>
<path d="M20.0632 35.156L19.5008 36.0935H17.9999C17.1722 36.0935 16.5 35.4222 16.5 34.5936C16.5 34.1792 16.6681 33.8045 16.9394 33.5332C17.2108 33.2618 17.5865 33.0938 17.9998 33.0938H19.5007L20.0631 34.0312C20.0745 35.1442 20.0628 34.3825 20.0632 35.156V35.156Z" fill="#F2FBFF"/>
<path d="M22.5007 34.5937C22.5007 35.008 22.3326 35.3828 22.0613 35.6541C21.7899 35.9255 21.4152 36.0935 21.0009 36.0935H19.501V33.0938H21.0009C21.8285 33.0938 22.5007 33.765 22.5007 34.5937V34.5937Z" fill="#0065FF"/>
<path d="M26.9999 37.0311C25.6559 37.0311 24.5625 35.9377 24.5625 34.5937C24.5625 33.9428 24.8161 33.3308 25.2765 32.8703C25.7369 32.4098 26.3489 32.1562 26.9999 32.1562H30.0007C31.3446 32.1562 32.438 33.2497 32.438 34.5937C32.438 35.2446 32.1845 35.8566 31.7241 36.317C31.2635 36.7775 30.6515 37.031 30.0007 37.031H26.9999V37.0311Z" fill="#99E6FC"/>
<path d="M29.0632 35.156L28.5008 36.0935H26.9999C26.1722 36.0935 25.5 35.4222 25.5 34.5936C25.5 34.1792 25.6681 33.8045 25.9394 33.5332C26.2107 33.2618 26.5865 33.0938 26.9998 33.0938H28.5007L29.0631 34.0312C29.0745 35.1442 29.0628 34.3825 29.0632 35.156V35.156Z" fill="#F2FBFF"/>
<path d="M31.5008 34.5937C31.5008 35.008 31.3327 35.3828 31.0614 35.6541C30.79 35.9255 30.4153 36.0935 30.0009 36.0935H28.501V33.0938H30.0009C30.8286 33.0938 31.5008 33.765 31.5008 34.5937Z" fill="#0065FF"/>
<path d="M17.9999 43.0545C16.6559 43.0545 15.5625 41.9611 15.5625 40.6171C15.5625 39.9663 15.8161 39.3543 16.2765 38.8938C16.7369 38.4333 17.3489 38.1797 17.9999 38.1797H21.0007C22.3446 38.1797 23.438 39.2731 23.438 40.6171C23.438 41.268 23.1845 41.88 22.7241 42.3404C22.2635 42.8009 21.6515 43.0544 21.0007 43.0544H17.9999V43.0545Z" fill="#99E6FC"/>
<path d="M20.0632 41.1794L19.5008 42.1169H17.9999C17.1722 42.1169 16.5 41.4457 16.5 40.617C16.5 40.2026 16.6681 39.8279 16.9394 39.5566C17.2108 39.2852 17.5865 39.1172 17.9998 39.1172H19.5007L20.0631 40.0547C20.0745 41.1677 20.0628 40.406 20.0632 41.1794V41.1794Z" fill="#F2FBFF"/>
<path d="M22.5007 40.6171C22.5007 41.0315 22.3326 41.4062 22.0613 41.6775C21.7899 41.9489 21.4152 42.1169 21.0009 42.1169H19.501V39.1172H21.0009C21.8285 39.1173 22.5007 39.7884 22.5007 40.6171V40.6171Z" fill="#0065FF"/>
<path d="M26.9999 43.0545C25.6559 43.0545 24.5625 41.9611 24.5625 40.6171C24.5625 39.9663 24.8161 39.3543 25.2765 38.8938C25.7369 38.4333 26.3489 38.1797 26.9999 38.1797H30.0007C31.3446 38.1797 32.438 39.2731 32.438 40.6171C32.438 41.268 32.1845 41.88 31.7241 42.3404C31.2635 42.8009 30.6515 43.0544 30.0007 43.0544H26.9999V43.0545Z" fill="#99E6FC"/>
<path d="M29.0632 41.1794L28.5008 42.1169H26.9999C26.1722 42.1169 25.5 41.4457 25.5 40.617C25.5 40.2026 25.6681 39.8279 25.9394 39.5566C26.2107 39.2853 26.5865 39.1172 26.9998 39.1172H28.5007L29.0631 40.0547C29.0745 41.1677 29.0628 40.406 29.0632 41.1794V41.1794Z" fill="#F2FBFF"/>
<path d="M31.5008 40.6171C31.5008 41.0315 31.3327 41.4062 31.0614 41.6775C30.79 41.9489 30.4153 42.1169 30.0009 42.1169H28.501V39.1172H30.0009C30.8286 39.1173 31.5008 39.7884 31.5008 40.6171Z" fill="#0065FF"/>
<path d="M16.4053 48H13.3125C11.7591 48 10.5 46.7409 10.5 45.1875V2.8125C10.5 1.25906 11.7591 0 13.3125 0H16.4053C14.805 0 13.5075 1.2975 13.5075 2.89781V45.1022C13.5075 46.7025 14.805 48 16.4053 48Z" fill="#DFF6FD"/>
<path d="M28.4996 6.7245H19.4997C19.0996 6.7245 18.7754 6.40022 18.7754 6.00019C18.7754 5.60016 19.0997 5.27588 19.4997 5.27588H28.4996C28.8997 5.27588 29.2239 5.60016 29.2239 6.00019C29.2239 6.40022 28.8996 6.7245 28.4996 6.7245Z" fill="#F2FBFF"/>
</svg>
