<svg width="64" height="80" viewBox="0 0 64 80" fill="none" xmlns="http://www.w3.org/2000/svg">
<circle cx="33" cy="27" r="27" fill="#EBF5EF"/>
<path d="M47.0002 40.0002C47.797 39.9668 48.5921 40.0992 49.3351 40.3889C50.0782 40.6786 50.753 41.1194 51.317 41.6834C51.8809 42.2473 52.3217 42.9221 52.6114 43.6652C52.9011 44.4082 53.0335 45.2033 53.0001 46.0002C53.0001 55.0002 43.0002 60.0002 41.0002 60.0002C40.0002 60.0002 29.0002 55.0002 29.0002 46.0002C28.9668 45.2033 29.0992 44.4082 29.3889 43.6652C29.6786 42.9221 30.1194 42.2473 30.6834 41.6834C31.2473 41.1194 31.9221 40.6786 32.6652 40.3889C33.4082 40.0992 34.2033 39.9668 35.0002 40.0002C38.0002 40.0002 40.0002 42.0002 41.0002 45.0002C42.0002 42.0002 44.0002 40.0002 47.0002 40.0002Z" fill="#FF505B"/>
<path d="M46.5 37C47.3284 37 48 36.1046 48 35C48 33.8954 47.3284 33 46.5 33C45.6716 33 45 33.8954 45 35C45 36.1046 45.6716 37 46.5 37Z" fill="#006FDB"/>
<path d="M46.5 33C46.3262 33.0029 46.1553 33.045 46 33.123C46.323 33.3138 46.5872 33.5899 46.7636 33.921C46.9401 34.2521 47.0218 34.6255 47 35C47.0218 35.3745 46.9401 35.7479 46.7636 36.079C46.5872 36.4101 46.323 36.6862 46 36.877C46.1553 36.955 46.3262 36.9971 46.5 37C47.33 37 48 36.1 48 35C48 33.9 47.33 33 46.5 33Z" fill="#005EBA"/>
<path d="M35.5 37C36.3284 37 37 36.1046 37 35C37 33.8954 36.3284 33 35.5 33C34.6716 33 34 33.8954 34 35C34 36.1046 34.6716 37 35.5 37Z" fill="#006FDB"/>
<path d="M35 35C34.9782 34.6255 35.0599 34.2521 35.2364 33.921C35.4128 33.5899 35.677 33.3138 36 33.123C35.8447 33.045 35.6738 33.0029 35.5 33C34.67 33 34 33.9 34 35C34 36.1 34.67 37 35.5 37C35.6738 36.9971 35.8447 36.955 36 36.877C35.677 36.6862 35.4128 36.4101 35.2364 36.079C35.0599 35.7479 34.9782 35.3745 35 35V35Z" fill="#005EBA"/>
<path d="M53 34H48C47.9345 34.0064 47.8698 34.0195 47.807 34.039C47.9344 34.3434 48 34.67 48 35C48 35.33 47.9344 35.6566 47.807 35.961C47.8698 35.9805 47.9345 35.9936 48 36H53C53.7956 36 54.5587 36.3161 55.1213 36.8787C55.6839 37.4413 56 38.2044 56 39V47C56.0303 51.202 54.4534 55.2567 51.592 58.334C50.2431 59.7994 48.606 60.9703 46.7833 61.7732C44.9606 62.5762 42.9917 62.9938 41 63C32.729 63 26 55.822 26 47V39C26 38.2044 26.3161 37.4413 26.8787 36.8787C27.4413 36.3161 28.2044 36 29 36H34C34.0655 35.9936 34.1302 35.9805 34.193 35.961C34.0656 35.6566 34 35.33 34 35C34 34.67 34.0656 34.3434 34.193 34.039C34.1302 34.0195 34.0655 34.0064 34 34H29C27.6744 34.0016 26.4036 34.5289 25.4662 35.4662C24.5289 36.4036 24.0016 37.6744 24 39V47C24 56.925 31.626 65 41 65C43.2652 64.9945 45.5048 64.5208 47.5782 63.6088C49.6517 62.6967 51.5142 61.366 53.049 59.7C56.2588 56.2531 58.03 51.7099 58 47V39C57.9984 37.6744 57.4711 36.4036 56.5338 35.4662C55.5964 34.5289 54.3256 34.0016 53 34V34Z" fill="#C1CFE8"/>
<path d="M40 64.946V69C39.9971 71.3861 39.0479 73.6735 37.3607 75.3607C35.6735 77.0479 33.3861 77.9971 31 78C24.9 78 19.0499 75.5768 14.7365 71.2635C10.4232 66.9501 8 61.1 8 55V51C8.009 43.0463 11.1726 35.4209 16.7967 29.7967C22.4209 24.1726 30.0463 21.009 38 21C38.0583 20.994 38.1159 20.9822 38.172 20.965C38.062 20.655 38.0039 20.3289 38 20C38.0039 19.6711 38.062 19.345 38.172 19.035C38.1159 19.0178 38.0583 19.006 38 19C29.516 19.0095 21.3822 22.384 15.3831 28.3831C9.38401 34.3822 6.00953 42.516 6 51V55C6 61.6304 8.63392 67.9893 13.3223 72.6777C18.0107 77.3661 24.3696 80 31 80C33.9163 79.9966 36.7122 78.8365 38.7744 76.7744C40.8365 74.7122 41.9966 71.9163 42 69V64.948C41.667 64.969 41.336 65 41 65C40.664 65 40.333 64.967 40 64.946Z" fill="#A8B7D4"/>
<path d="M35.0002 52.5632C34.3144 51.6347 33.8218 50.5781 33.5512 49.456C33.2807 48.3339 33.2378 47.169 33.4251 46.03C33.6124 44.891 34.026 43.8012 34.6416 42.8247C35.2572 41.8483 36.0622 41.0052 37.0092 40.3452C36.3649 40.1132 35.6849 39.9964 35.0002 40.0002C34.2033 39.9668 33.4082 40.0992 32.6652 40.3889C31.9221 40.6786 31.2473 41.1194 30.6834 41.6834C30.1194 42.2473 29.6786 42.9221 29.3889 43.6652C29.0992 44.4082 28.9668 45.2033 29.0002 46.0002C29.0002 55.0002 40.0002 60.0002 41.0002 60.0002C42.7172 59.6649 44.3366 58.9471 45.7382 57.9002C40.3782 57.4282 37.0482 55.2672 35.0002 52.5632Z" fill="#E63B47"/>
<path d="M44.9995 54C44.7995 54.0001 44.6041 53.9402 44.4385 53.8281C44.2729 53.7159 44.1447 53.5567 44.0705 53.371C44.0535 53.333 43.4225 52 40.9995 52C38.5765 52 37.9455 53.333 37.9195 53.39C37.8122 53.6297 37.6156 53.8182 37.3716 53.9153C37.1275 54.0124 36.8552 54.0105 36.6125 53.91C36.3722 53.8102 36.1808 53.62 36.0794 53.3804C35.978 53.1408 35.9748 52.8709 36.0705 52.629C36.1135 52.521 37.1665 50 40.9995 50C44.8325 50 45.8855 52.521 45.9285 52.629C45.9891 52.7808 46.0116 52.945 45.9941 53.1075C45.9765 53.27 45.9194 53.4257 45.8277 53.561C45.736 53.6962 45.6126 53.807 45.4682 53.8835C45.3239 53.9601 45.1629 54.0001 44.9995 54V54Z" fill="#FBFBFB"/>
<path d="M47.9996 53C47.7982 53 47.6015 52.9393 47.4352 52.8256C47.2689 52.7119 47.1408 52.5507 47.0676 52.363C47.0146 52.232 45.6456 49 40.9996 49C36.3536 49 34.9846 52.232 34.9286 52.37C34.8314 52.6168 34.6402 52.8148 34.3969 52.9206C34.1537 53.0264 33.8784 53.0312 33.6316 52.934C33.3848 52.8368 33.1868 52.6455 33.081 52.4023C32.9752 52.1591 32.9704 51.8838 33.0676 51.637C33.1416 51.447 34.9456 47 40.9996 47C47.0536 47 48.8576 51.447 48.9316 51.637C48.9907 51.7886 49.0119 51.9523 48.9933 52.1139C48.9748 52.2755 48.9171 52.4302 48.8253 52.5644C48.7335 52.6987 48.6103 52.8086 48.4664 52.8845C48.3225 52.9604 48.1623 53 47.9996 53V53Z" fill="#FBFBFB"/>
<path d="M42.999 56C42.7714 56.0002 42.5505 55.9227 42.3728 55.7803C42.1952 55.6379 42.0714 55.4392 42.022 55.217C41.7 55.0739 41.3515 55 40.999 55C40.6466 55 40.2981 55.0739 39.976 55.217C39.9234 55.4583 39.7833 55.6716 39.5827 55.8157C39.3822 55.9599 39.1354 56.0248 38.8899 55.9978C38.6444 55.9709 38.4176 55.854 38.2531 55.6698C38.0886 55.4856 37.9981 55.247 37.999 55C37.999 53.841 39.261 53 40.999 53C42.737 53 43.999 53.841 43.999 55C43.999 55.2652 43.8937 55.5196 43.7061 55.7071C43.5186 55.8946 43.2642 56 42.999 56V56Z" fill="#FBFBFB"/>
<path d="M41 23C42.6569 23 44 21.6569 44 20C44 18.3431 42.6569 17 41 17C39.3431 17 38 18.3431 38 20C38 21.6569 39.3431 23 41 23Z" fill="#005EBA"/>
<path d="M41 22C42.1046 22 43 21.1046 43 20C43 18.8954 42.1046 18 41 18C39.8954 18 39 18.8954 39 20C39 21.1046 39.8954 22 41 22Z" fill="#006FDB"/>
</svg>
