<svg width="64" height="80" viewBox="0 0 64 80" fill="none" xmlns="http://www.w3.org/2000/svg">
<circle cx="33" cy="27" r="27" fill="#FFECE9"/>
<path d="M58 53.25V53.35C57.9999 53.7738 57.8822 54.1892 57.66 54.55L48 70L44 73V75H34V73L32.67 71.01C32.232 70.3526 31.9988 69.58 32 68.79V64.64C32.0011 63.9951 32.158 63.3601 32.4575 62.7889C32.757 62.2178 33.1901 61.7276 33.72 61.36L40.92 56.35C41.2478 56.1197 41.6394 55.9973 42.04 56C42.4444 55.9985 42.8392 56.123 43.1697 56.3562C43.5001 56.5894 43.7497 56.9197 43.8838 57.3012C44.018 57.6827 44.03 58.0966 43.9182 58.4852C43.8064 58.8739 43.5764 59.2181 43.26 59.47L38 64L54.4 51.45C54.7343 51.1993 55.1318 51.0466 55.5479 51.0091C55.9641 50.9716 56.3825 51.0507 56.7562 51.2375C57.13 51.4244 57.4443 51.7117 57.664 52.0671C57.8836 52.4226 58 52.8322 58 53.25V53.25Z" fill="#FEC09B"/>
<path d="M34 75H44V79H34V75Z" fill="#006FDB"/>
<path d="M32 64.64V68.79C32.0012 69.58 31.768 70.3526 31.33 71.01L30 73V75H20V73L16 70L6.34 54.55C6.11782 54.1892 6.00012 53.7738 6 53.35V53.25C6 52.8322 6.11636 52.4226 6.33604 52.0671C6.55571 51.7117 6.87003 51.4244 7.24377 51.2375C7.61751 51.0507 8.0359 50.9716 8.45206 51.0091C8.86823 51.0466 9.26572 51.1993 9.6 51.45L26 64L20.74 59.47C20.3446 59.1532 20.088 58.6951 20.0244 58.1924C19.9608 57.6898 20.0952 57.1822 20.3992 56.7769C20.7031 56.3716 21.1529 56.1004 21.6532 56.0208C22.1535 55.9411 22.6652 56.0592 23.08 56.35L30.28 61.36C30.8099 61.7276 31.243 62.2178 31.5425 62.7889C31.842 63.3601 31.9989 63.9951 32 64.64Z" fill="#FEC09B"/>
<path d="M20 75H30V79H20V75Z" fill="#006FDB"/>
<path d="M40 32V38H35V43H29V38H24V32H29V27H35V32H40Z" fill="#FBFBFB"/>
<path d="M42 16C48 16 52 20.56 52 28C52 44 34 52 32 52C30 52 12 44 12 28C12 20.56 16 16 22 16C25 16 26.71 16.42 28.06 17.51C29.41 18.6 30.42 20.34 32 23C35.17 17.69 36 16 42 16ZM40 38V32H35V27H29V32H24V38H29V43H35V38H40Z" fill="#FF505B"/>
<path d="M32 47C30.109 47 13.921 39.8419 12.164 25.5359C12.0545 26.3527 11.9997 27.1759 12 27.9999C12 43.9999 30 52 32 52C34 52 52 43.9999 52 27.9999C52.0003 27.1759 51.9455 26.3527 51.836 25.5359C50.079 39.8419 33.891 47 32 47Z" fill="#E63B47"/>
<path d="M42.493 57.4062L39.5 59.8002C39.032 60.1749 38.6542 60.65 38.3946 61.1904C38.1349 61.7308 38.0001 62.3227 38 62.9222V64.0002L43.26 59.4702C43.5123 59.271 43.7111 59.0122 43.8386 58.7171C43.966 58.422 44.0181 58.0999 43.9901 57.7796C43.9622 57.4594 43.855 57.1511 43.6783 56.8826C43.5017 56.6141 43.261 56.3936 42.978 56.2412C42.978 56.2792 43 56.3122 43 56.3512C42.9998 56.5538 42.9541 56.7537 42.8664 56.9363C42.7786 57.1189 42.651 57.2795 42.493 57.4062Z" fill="#EBA47A"/>
<path d="M55.75 51C55.707 51 55.665 51.008 55.622 51.01C55.892 51.0273 56.152 51.1185 56.3737 51.2736C56.5953 51.4287 56.7701 51.6418 56.8789 51.8895C56.9876 52.1372 57.0263 52.41 56.9905 52.6782C56.9547 52.9463 56.8459 53.1995 56.676 53.41L45.4 67.5C45.1362 67.829 44.8321 68.1237 44.495 68.377L41.533 70.6C41.3676 70.7244 41.2333 70.8856 41.1408 71.0707C41.0483 71.2559 41.0001 71.46 41 71.667C41 72.0205 40.8596 72.3596 40.6096 72.6096C40.3596 72.8596 40.0205 73 39.667 73H34V75H44V73L48 70L57.66 54.55C57.8822 54.1892 57.9999 53.7738 58 53.35V53.25C57.9992 52.6535 57.7619 52.0817 57.3401 51.6599C56.9183 51.2381 56.3465 51.0008 55.75 51V51Z" fill="#EBA47A"/>
<path d="M24.4995 59.8002L21.5075 57.4072C21.3491 57.2805 21.2212 57.1198 21.1333 56.937C21.0454 56.7542 20.9996 56.554 20.9995 56.3512C20.9995 56.3122 21.0185 56.2792 21.0215 56.2412C20.7384 56.3936 20.4978 56.6141 20.3211 56.8826C20.1444 57.1511 20.0373 57.4594 20.0093 57.7796C19.9813 58.0999 20.0334 58.422 20.1609 58.7171C20.2883 59.0122 20.4872 59.271 20.7395 59.4702L25.9995 64.0002V62.9222C25.9994 62.3227 25.8645 61.7308 25.6049 61.1904C25.3453 60.65 24.9675 60.1749 24.4995 59.8002Z" fill="#EBA47A"/>
<path d="M23 71.6672C22.9999 71.4602 22.9517 71.2561 22.8592 71.0709C22.7667 70.8858 22.6324 70.7246 22.467 70.6002L19.508 68.3812C19.1726 68.1276 18.8703 67.8329 18.608 67.5042L7.324 53.4062C7.15409 53.1957 7.0453 52.9425 7.00952 52.6744C6.97375 52.4062 7.01236 52.1334 7.12114 51.8857C7.22992 51.638 7.40469 51.4249 7.62634 51.2698C7.848 51.1147 8.10802 51.0235 8.378 51.0062C8.335 51.0062 8.293 50.9962 8.25 50.9962C7.65281 50.997 7.08037 51.2349 6.65847 51.6575C6.23657 52.0802 5.99973 52.653 6 53.2502V53.3502C6.00012 53.774 6.11782 54.1894 6.34 54.5502L16 70.0002L20 73.0002V75.0002H30V73.0002H24.333C23.9795 73.0002 23.6404 72.8598 23.3904 72.6098C23.1404 72.3598 23 72.0208 23 71.6672V71.6672Z" fill="#EBA47A"/>
<path d="M37 75C37 75.5304 37.2107 76.0391 37.5858 76.4142C37.9609 76.7893 38.4696 77 39 77H44V79H34V75H37Z" fill="#005EBA"/>
<path d="M23 75C23 75.5304 23.2107 76.0391 23.5858 76.4142C23.9609 76.7893 24.4696 77 25 77H30V79H20V75H23Z" fill="#005EBA"/>
<path d="M18.817 17.878C18.381 18.111 17.939 18.461 18.007 18.878C18.055 19.172 18.348 19.397 18.634 19.585C19.164 19.934 19.734 20.245 20.3 20.554C21.388 21.145 22.484 21.729 23.618 22.264C24.3344 22.6437 25.1136 22.8906 25.918 22.993C26.1029 23.0122 26.2897 23.0058 26.473 22.974C26.8116 22.895 27.117 22.7117 27.346 22.45C27.7346 22.0198 27.9659 21.4705 28.0023 20.8919C28.0386 20.3133 27.8777 19.7394 27.546 19.264C25.907 16.735 21.585 16.4 18.817 17.878V17.878Z" fill="#FF7D85"/>
<path d="M47.0001 23.4999C46.7082 23.5 46.4226 23.4149 46.1783 23.255C45.9341 23.0951 45.7418 22.8675 45.6251 22.5999C45.5091 22.3419 44.4641 20.1649 42.2121 20.4859C41.8182 20.5422 41.4182 20.4396 41.0999 20.2009C40.7817 19.9622 40.5713 19.6068 40.5151 19.2129C40.4588 18.8191 40.5614 18.419 40.8001 18.1008C41.0388 17.7825 41.3942 17.5722 41.7881 17.5159C43.1599 17.3657 44.5435 17.6639 45.7317 18.3658C46.9199 19.0678 47.8487 20.1358 48.3791 21.4099C48.4767 21.6381 48.5161 21.8869 48.494 22.134C48.4718 22.3811 48.3887 22.6189 48.252 22.826C48.1153 23.0332 47.9294 23.2031 47.7109 23.3207C47.4925 23.4384 47.2482 23.4999 47.0001 23.4999V23.4999Z" fill="#FBFBFB"/>
</svg>
