<svg width="48" height="48" viewBox="0 0 48 48" fill="none" xmlns="http://www.w3.org/2000/svg">
<g clip-path="url(#clip0_892_4576)">
<path d="M9.46065 45.0236L6.50734 0.700332C6.48212 0.321582 6.7825 0.000488281 7.16218 0.000488281H35.7586C36.1383 0.000488281 36.4388 0.321863 36.4133 0.700801L33.4293 45.0236L31.8583 46.1486H10.7589L9.46065 45.0236Z" fill="#F2FBFF"/>
<path d="M12.3589 45.0234H9.46144L6.50832 0.699844C6.4831 0.321094 6.78356 0 7.16316 0H9.35916L12.3589 45.0234Z" fill="#DFF6FD"/>
<path d="M32.0795 7.16271C24.4719 9.30058 18.0867 4.27502 10.4327 6.78583C10.1495 6.87874 9.96703 7.15446 9.98681 7.45183L12.2474 41.3785C12.2704 41.7239 12.5577 41.992 12.9039 41.9912L30.6321 41.945L32.9125 7.83752C32.9426 7.38508 32.5159 7.03999 32.0795 7.16271V7.16271Z" fill="#FFF5C6"/>
<path d="M16.5836 6.12489C15.3677 6.23017 14.1277 6.48414 12.8508 6.95261L15.1852 41.9849L12.9043 41.991C12.5581 41.992 12.2708 41.7238 12.2478 41.3785L9.98682 7.45249C9.96694 7.15417 10.1509 6.87836 10.4349 6.78527C12.565 6.08683 14.5965 5.97217 16.5836 6.12489Z" fill="#FEE97D"/>
<path d="M39.9953 17.0342V27.0111L39.5266 27.3045V28.8748L39.9953 29.2789L39.5266 29.6951V30.2811L39.9953 30.7198L39.5266 31.1014V31.9217L39.9953 32.2798L39.6203 32.6717V33.4217L39.9953 33.7207L39.5266 34.2186V35.4373L39.9953 35.9886V46.0676H28.9609V17.0342H39.9953Z" fill="#FEE97D"/>
<path d="M23.7363 24.0234C24.5712 24.0234 25.248 23.3466 25.248 22.5117C25.248 21.6768 24.5712 21 23.7363 21C22.9014 21 22.2246 21.6768 22.2246 22.5117C22.2246 23.3466 22.9014 24.0234 23.7363 24.0234Z" fill="#FEE97D"/>
<path d="M15.4609 22.5117C16.2958 22.5117 16.9727 21.8349 16.9727 21C16.9727 20.1651 16.2958 19.4883 15.4609 19.4883C14.626 19.4883 13.9492 20.1651 13.9492 21C13.9492 21.8349 14.626 22.5117 15.4609 22.5117Z" fill="#FEE97D"/>
<path d="M18.4609 13.5352C19.2958 13.5352 19.9727 12.8583 19.9727 12.0234C19.9727 11.1885 19.2958 10.5117 18.4609 10.5117C17.626 10.5117 16.9492 11.1885 16.9492 12.0234C16.9492 12.8583 17.626 13.5352 18.4609 13.5352Z" fill="#FEE97D"/>
<path d="M33.4296 45.0234H9.46094V47.9999H33.4641L33.4296 45.0234Z" fill="#C8EFFE"/>
<path d="M24.6347 34.6739C23.0556 36.2519 20.5948 36.4084 18.8409 35.1442C18.6468 35.0051 18.4624 34.8477 18.2875 34.6739C18.1127 34.499 17.9562 34.3146 17.8162 34.1205C16.552 32.3666 16.7085 29.9048 18.2875 28.3266C19.8665 26.7475 22.3274 26.5911 24.0813 27.8553C24.2754 27.9954 24.4598 28.1519 24.6347 28.3266C24.8085 28.5004 24.966 28.6859 25.106 28.8791C26.3703 30.6329 26.2137 33.0947 24.6347 34.6739V34.6739Z" fill="#FEE97D"/>
<path d="M25.1052 28.8792L18.8401 35.1443C18.646 35.0052 18.4616 34.8478 18.2867 34.674C18.1119 34.4992 17.9554 34.3147 17.8154 34.1206L24.0806 27.8555C24.2747 27.9955 24.4591 28.152 24.634 28.3268C24.8078 28.5007 24.9653 28.686 25.1052 28.8792V28.8792Z" fill="#FED402"/>
<path d="M21.4626 18.7479C21.0626 18.7479 20.7383 18.4237 20.7383 18.0236C20.7383 17.6236 21.0626 17.2993 21.4626 17.2993C21.8626 17.2993 22.1869 17.6236 22.1869 18.0236C22.1869 18.4237 21.8626 18.7479 21.4626 18.7479Z" fill="#FEE97D"/>
<path d="M24.4606 12.7479C24.0606 12.7479 23.7363 12.4237 23.7363 12.0236C23.7363 11.6236 24.0606 11.2993 24.4606 11.2993C24.8607 11.2993 25.185 11.6236 25.185 12.0236C25.185 12.4237 24.8607 12.7479 24.4606 12.7479Z" fill="#FEE97D"/>
<path d="M15.4606 39.724C15.0606 39.724 14.7363 39.3997 14.7363 38.9997C14.7363 38.5997 15.0606 38.2754 15.4606 38.2754C15.8607 38.2754 16.185 38.5997 16.185 38.9997C16.185 39.3997 15.8607 39.724 15.4606 39.724Z" fill="#FEE97D"/>
<path d="M28.9609 17.0347H31.8583V47.0342H28.9609V17.0347Z" fill="#FED402"/>
<path d="M28.9609 45.0234H39.995V47.9999H28.9609V45.0234Z" fill="#00E1F0"/>
<path d="M39.5257 27.3047V28.875L39.9944 29.279L39.5257 29.6953V30.2812L39.9944 30.72L39.5257 31.1015V31.9219L39.9944 32.28L39.6194 32.6719V33.4219L39.9944 33.7209L39.5257 34.2187V35.4375L39.9944 35.9887V36.9262H34.9619C34.0825 36.9262 33.3682 36.2109 33.3682 35.3325V27.6675C33.3682 26.789 34.0825 26.0737 34.9619 26.0737H39.9944V27.0112L39.5257 27.3047Z" fill="#FED402"/>
<path d="M39.9942 27.0112V35.9883H34.9619C34.5995 35.9883 34.3057 35.6944 34.3057 35.332V27.6675C34.3057 27.305 34.5995 27.0112 34.9619 27.0112H39.9942Z" fill="#F2FBFF"/>
<path d="M39.995 15.9658H28.9609V12.6562C28.9609 12.2938 29.2547 12 29.6172 12H39.3388C39.7012 12 39.995 12.2938 39.995 12.6562V15.9658Z" fill="#7FF0F7"/>
<path d="M28.9609 45.0234H31.8583V48H28.9609V45.0234Z" fill="#00E1F0"/>
<path d="M31.8583 12V15.9655H28.9609V12.6562C28.9609 12.2938 29.2547 12 29.6172 12H31.8583Z" fill="#00E1F0"/>
<path d="M39.9944 29.2792V30.7202C39.9712 30.7231 39.9481 30.724 39.9239 30.724H37.1501C36.7503 30.724 36.4258 30.4005 36.4258 29.9997C36.4258 29.5999 36.7503 29.2754 37.1501 29.2754H39.9239C39.9481 29.2754 39.9712 29.2763 39.9944 29.2792Z" fill="#0065FF"/>
<path d="M39.9944 32.2797V33.7207C39.9712 33.7236 39.9481 33.7245 39.9239 33.7245H37.1501C36.7503 33.7245 36.4258 33.4 36.4258 33.0002C36.4258 32.5994 36.7503 32.2759 37.1501 32.2759H39.9239C39.9481 32.2759 39.9712 32.2768 39.9944 32.2797Z" fill="#0065FF"/>
<path d="M40.8388 18H28.1172C27.7547 18 27.4609 17.7062 27.4609 17.3438V15.6562C27.4609 15.2938 27.7547 15 28.1172 15H40.8388C41.2012 15 41.495 15.2938 41.495 15.6562V17.3438C41.495 17.7062 41.2012 18 40.8388 18Z" fill="#0065FF"/>
<path d="M30.3573 14.9995V18.0003H28.1162C27.7538 18.0003 27.46 17.7065 27.46 17.344V15.6558C27.46 15.2933 27.7538 14.9995 28.1162 14.9995H30.3573Z" fill="#0065FF"/>
</g>
<defs>
<clipPath id="clip0_892_4576">
<rect width="48" height="48" fill="white"/>
</clipPath>
</defs>
</svg>
