<svg width="48" height="24" viewBox="0 0 48 24" fill="none" xmlns="http://www.w3.org/2000/svg">
<g clip-path="url(#clip0_0_4971)">
<path d="M12 22C17.5228 22 22 17.5228 22 12C22 6.47715 17.5228 2 12 2C6.47715 2 2 6.47715 2 12C2 17.5228 6.47715 22 12 22Z" fill="#F0F0F0"/>
<path d="M11.5654 12H22.0002C22.0002 11.0974 21.8799 10.2231 21.6557 9.3913H11.5654V12Z" fill="#D80027"/>
<path d="M11.5654 6.78263H20.5325C19.9203 5.78372 19.1376 4.90079 18.225 4.17392H11.5654V6.78263Z" fill="#D80027"/>
<path d="M12.0002 22C14.3537 22 16.5169 21.1866 18.2251 19.8261H5.77539C7.48359 21.1866 9.64676 22 12.0002 22Z" fill="#D80027"/>
<path d="M3.46797 17.2174H20.5325C21.0239 16.4155 21.4051 15.5389 21.6557 14.6087H2.34473C2.59539 15.5389 2.97652 16.4155 3.46797 17.2174Z" fill="#D80027"/>
<path d="M6.63219 3.56164H7.54348L6.69582 4.17746L7.01961 5.17391L6.17199 4.55809L5.32437 5.17391L5.60406 4.31309C4.85773 4.93477 4.20359 5.66313 3.66453 6.47469H3.95652L3.41695 6.86668C3.33289 7.00691 3.25227 7.14937 3.175 7.29395L3.43266 8.08695L2.95195 7.7377C2.83246 7.99086 2.72316 8.24973 2.62492 8.51398L2.90879 9.38773H3.95652L3.10887 10.0036L3.43266 11L2.58504 10.3842L2.0773 10.7531C2.02648 11.1616 2 11.5777 2 12H12C12 6.47719 12 5.82609 12 2C10.0245 2 8.18301 2.57305 6.63219 3.56164ZM7.01961 11L6.17199 10.3842L5.32437 11L5.64816 10.0036L4.80051 9.38773H5.84824L6.17199 8.39129L6.49574 9.38773H7.54348L6.69582 10.0036L7.01961 11ZM6.69582 7.09051L7.01961 8.08695L6.17199 7.47113L5.32437 8.08695L5.64816 7.09051L4.80051 6.47469H5.84824L6.17199 5.47824L6.49574 6.47469H7.54348L6.69582 7.09051ZM10.6066 11L9.75895 10.3842L8.91133 11L9.23512 10.0036L8.38746 9.38773H9.4352L9.75895 8.39129L10.0827 9.38773H11.1304L10.2828 10.0036L10.6066 11ZM10.2828 7.09051L10.6066 8.08695L9.75895 7.47113L8.91133 8.08695L9.23512 7.09051L8.38746 6.47469H9.4352L9.75895 5.47824L10.0827 6.47469H11.1304L10.2828 7.09051ZM10.2828 4.17746L10.6066 5.17391L9.75895 4.55809L8.91133 5.17391L9.23512 4.17746L8.38746 3.56164H9.4352L9.75895 2.5652L10.0827 3.56164H11.1304L10.2828 4.17746Z" fill="#0052B4"/>
</g>
<path d="M31.8598 11.06C31.8129 11.0135 31.7758 10.9582 31.7504 10.8973C31.725 10.8363 31.7119 10.771 31.7119 10.705C31.7119 10.639 31.725 10.5736 31.7504 10.5127C31.7758 10.4518 31.8129 10.3965 31.8598 10.35L32.0598 10.15C32.1064 10.1017 32.1623 10.0634 32.2242 10.0376C32.2862 10.0118 32.3527 9.99902 32.4198 9.99999H39.5798C39.6469 9.99902 39.7135 10.0118 39.7754 10.0376C39.8373 10.0634 39.8933 10.1017 39.9398 10.15L40.1398 10.35C40.1867 10.3965 40.2239 10.4518 40.2493 10.5127C40.2746 10.5736 40.2877 10.639 40.2877 10.705C40.2877 10.771 40.2746 10.8363 40.2493 10.8973C40.2239 10.9582 40.1867 11.0135 40.1398 11.06L36.3498 14.85C36.3049 14.8978 36.2507 14.9359 36.1905 14.962C36.1303 14.9881 36.0654 15.0015 35.9998 15.0015C35.9342 15.0015 35.8693 14.9881 35.8091 14.962C35.7489 14.9359 35.6947 14.8978 35.6498 14.85L31.8598 11.06Z" fill="#112950"/>
<defs>
<clipPath id="clip0_0_4971">
<rect width="20" height="20" fill="white" transform="translate(2 2)"/>
</clipPath>
</defs>
</svg>
