<svg width="32" height="32" viewBox="0 0 32 32" fill="none" xmlns="http://www.w3.org/2000/svg">
<path d="M14.5691 9.0865H14.0626C12.9441 9.0865 12.0376 8.174 12.0376 7.048V4.5H5.96163V7.048C5.96163 8.174 5.05513 9.0865 3.93663 9.0865H3.43013C2.59113 9.0865 1.91113 9.771 1.91113 10.6155V29.4715C1.91113 30.316 2.59113 31.0005 3.43013 31.0005H14.5686C15.4076 31.0005 16.0876 30.316 16.0876 29.4715V10.6155C16.0876 9.771 15.4076 9.0865 14.5691 9.0865V9.0865Z" fill="white"/>
<path d="M21.3445 25.587L25.587 21.3445C26.368 20.5635 27.6345 20.5635 28.4155 21.3445C29.1965 22.1255 29.1965 23.392 28.4155 24.173L24.173 28.4155C23.392 29.1965 22.1255 29.1965 21.3445 28.4155C20.5635 27.6345 20.5635 26.368 21.3445 25.587V25.587Z" fill="#00E1F0"/>
<path d="M5 1.5H13V4.5H5V1.5Z" fill="#00E1F0"/>
<path d="M14.5 8C13.6715 8 13 7.3285 13 6.5V6H13.5C14.0525 6 14.5 5.5525 14.5 5V1C14.5 0.4475 14.0525 0 13.5 0H4.5C3.9475 0 3.5 0.4475 3.5 1V5C3.5 5.5525 3.9475 6 4.5 6H5V6.5C5 7.3285 4.3285 8 3.5 8C2.1195 8 1 9.1195 1 10.5V15.5C1 16.0525 1.4475 16.5 2 16.5C2.5525 16.5 3 16.0525 3 15.5V14H15V26H3V19.5C3 18.9475 2.5525 18.5 2 18.5C1.4475 18.5 1 18.9475 1 19.5V29.5C1 30.8805 2.1195 32 3.5 32H14.5C15.8805 32 17 30.8805 17 29.5V10.5C17 9.1195 15.8805 8 14.5 8ZM5.5 2H12.5V4H5.5V2ZM3 12V10.5C3.05 10.155 3.155 10.05 3.5 10C5.433 10 7 8.433 7 6.5V6H11V6.5C11 8.433 12.567 10 14.5 10C14.776 10 15 10.224 15 10.5V12H3ZM14.5 30H3.5C3.224 30 3 29.776 3 29.5V28H15V29.5C15 29.776 14.776 30 14.5 30Z" fill="#0F62F9"/>
<path d="M9 16.5C8.4475 16.5 8 16.9475 8 17.5V19H6.5C5.9475 19 5.5 19.4475 5.5 20C5.5 20.5525 5.9475 21 6.5 21H8V22.5C8 23.0525 8.4475 23.5 9 23.5C9.5525 23.5 10 23.0525 10 22.5V21H11.5C12.0525 21 12.5 20.5525 12.5 20C12.5 19.4475 12.0525 19 11.5 19H10V17.5C10 16.9475 9.5525 16.5 9 16.5Z" fill="#00E1F0"/>
<path d="M22.8803 30C23.6758 29.9995 24.4383 29.683 25.0003 29.12L29.2453 24.88C30.4173 23.708 30.4173 21.807 29.2453 20.635C28.0733 19.463 26.1723 19.463 25.0003 20.635L20.7553 24.88C19.5843 26.0525 19.5858 27.952 20.7578 29.1225C21.3208 29.685 22.0843 30.0005 22.8803 30V30ZM26.4153 22.05C26.8058 21.6595 27.4398 21.6595 27.8303 22.05C28.2208 22.4405 28.2208 23.0745 27.8303 23.465L26.4153 24.88L25.0003 23.465L26.4153 22.05ZM22.1703 26.29L23.5853 24.88L25.0003 26.295L23.5853 27.705C23.1948 28.0955 22.5608 28.0955 22.1703 27.705C21.7798 27.3145 21.7798 26.6805 22.1703 26.29Z" fill="#0F62F9"/>
<path d="M26 30H20C19.4475 30 19 30.4475 19 31C19 31.5525 19.4475 32 20 32H26C26.5525 32 27 31.5525 27 31C27 30.4475 26.5525 30 26 30Z" fill="#0F62F9"/>
<path d="M30 30C29.4475 30 29 30.4475 29 31C29 31.5525 29.4475 32 30 32C30.5525 32 31 31.5525 31 31C31 30.4475 30.5525 30 30 30Z" fill="#00E1F0"/>
</svg>
