<svg width="64" height="80" viewBox="0 0 64 80" fill="none" xmlns="http://www.w3.org/2000/svg">
<circle cx="33" cy="27" r="27" fill="#EBF5EF"/>
<path d="M60 46C60 46.2652 59.8946 46.5196 59.7071 46.7071C59.5196 46.8946 59.2652 47 59 47H45C44.7348 47 44.4804 46.8946 44.2929 46.7071C44.1054 46.5196 44 46.2652 44 46V44C44 43.7348 44.1054 43.4804 44.2929 43.2929C44.4804 43.1054 44.7348 43 45 43H59C59.2652 43 59.5196 43.1054 59.7071 43.2929C59.8946 43.4804 60 43.7348 60 44V46Z" fill="#006FDB"/>
<path d="M61 58V77C60.9984 77.5299 60.7872 78.0377 60.4125 78.4125C60.0377 78.7872 59.5299 78.9984 59 79H45C44.4701 78.9984 43.9623 78.7872 43.5875 78.4125C43.2128 78.0377 43.0016 77.5299 43 77V58H61Z" fill="#006FDB"/>
<path d="M38 59V77C37.9984 77.5299 37.7872 78.0377 37.4125 78.4125C37.0377 78.7872 36.5299 78.9984 36 79H28C27.4701 78.9984 26.9623 78.7872 26.5875 78.4125C26.2128 78.0377 26.0016 77.5299 26 77V59H38Z" fill="#006FDB"/>
<path d="M38 59H26V57.94C25.9976 57.3218 26.1415 56.7119 26.42 56.16L29 51L27.31 47.63C27.1077 47.2211 27.0513 46.7554 27.15 46.31L29.66 34.58C29.7563 34.1319 30.0035 33.7305 30.3602 33.4429C30.717 33.1553 31.1618 32.999 31.62 33H32.38C32.8383 32.999 33.283 33.1553 33.6398 33.4429C33.9966 33.7305 34.2438 34.1319 34.34 34.58L36.85 46.31C36.9488 46.7554 36.8923 47.2211 36.69 47.63L35 51L37.58 56.16C37.8585 56.7119 38.0024 57.3218 38 57.94V59Z" fill="#EDF4FA"/>
<path d="M36 76C34.1435 76 32.363 75.2625 31.0503 73.9497C29.7375 72.637 29 70.8565 29 69V59H26V77C26.0016 77.5299 26.2128 78.0377 26.5875 78.4125C26.9623 78.7872 27.4701 78.9984 28 79H36C36.5299 78.9984 37.0377 78.7872 37.4125 78.4125C37.7872 78.0377 37.9984 77.5299 38 77V74C37.9984 74.5299 37.7872 75.0377 37.4125 75.4125C37.0377 75.7872 36.5299 75.9984 36 76V76Z" fill="#004080"/>
<path d="M46 47H58V51H46V47Z" fill="#D6E0EB"/>
<path d="M60.11 52.41C60.3845 52.5911 60.6095 52.8377 60.7649 53.1275C60.9203 53.4173 61.0011 53.7412 61 54.07V58H43V54.07C42.9989 53.7412 43.0797 53.4173 43.2351 53.1275C43.3905 52.8377 43.6155 52.5911 43.89 52.41L46 51H58L60.11 52.41Z" fill="#EDF4FA"/>
<path d="M58 45H47C46.7348 45 46.4804 44.8946 46.2929 44.7071C46.1054 44.5196 46 44.2652 46 44C46 43.7348 46.1054 43.4804 46.2929 43.2929C46.4804 43.1054 46.7348 43 47 43H45C44.7348 43 44.4804 43.1054 44.2929 43.2929C44.1054 43.4804 44 43.7348 44 44V46C44 46.2652 44.1054 46.5196 44.2929 46.7071C44.4804 46.8946 44.7348 47 45 47H59C59.2652 47 59.5196 46.8946 59.7071 46.7071C59.8946 46.5196 60 46.2652 60 46V44C59.9975 43.856 59.9634 43.7143 59.9 43.585C59.7763 43.9931 59.5251 44.3507 59.1831 44.6054C58.8411 44.8601 58.4264 44.9984 58 45V45Z" fill="#005EBA"/>
<path d="M58 47H46V51H48C48 50.4696 48.2107 49.9609 48.5858 49.5858C48.9609 49.2107 49.4696 49 50 49H58V47Z" fill="#A8B7D4"/>
<path d="M59 76H58C54.8174 76 51.7652 74.7357 49.5147 72.4853C47.2643 70.2348 46 67.1826 46 64V58H43V77C43.0016 77.5299 43.2128 78.0377 43.5875 78.4125C43.9623 78.7872 44.4701 78.9984 45 79H59C59.5299 78.9984 60.0377 78.7872 60.4125 78.4125C60.7872 78.0377 60.9984 77.5299 61 77V74C61 74.5304 60.7893 75.0391 60.4142 75.4142C60.0391 75.7893 59.5304 76 59 76Z" fill="#004080"/>
<path d="M46 54.657C46 54.1316 46.1035 53.6113 46.3046 53.1259C46.5057 52.6405 46.8004 52.1995 47.172 51.828L48 51H46L43.89 52.41C43.6155 52.5911 43.3905 52.8377 43.2351 53.1275C43.0797 53.4173 42.9989 53.7412 43 54.07V58H46V54.657Z" fill="#C1CFE8"/>
<path d="M57 64H59V66H57V64Z" fill="#0DCEF9"/>
<path d="M57 60H59V62H57V60Z" fill="#0DCEF9"/>
<path d="M34 65H36V67H34V65Z" fill="#0DCEF9"/>
<path d="M34 61H36V63H34V61Z" fill="#0DCEF9"/>
<path d="M33.711 47C33.2637 47.0001 32.822 46.9001 32.4184 46.7074C32.0147 46.5148 31.6592 46.2343 31.3779 45.8864C31.0966 45.5386 30.8967 45.1323 30.7927 44.6973C30.6888 44.2622 30.6834 43.8094 30.777 43.372L32.66 34.58C32.771 34.0768 33.0719 33.6358 33.5 33.349C33.1702 33.1229 32.7799 33.0013 32.38 33H31.62C31.1618 32.999 30.717 33.1553 30.3602 33.4429C30.0035 33.7305 29.7563 34.1319 29.66 34.58L27.15 46.31C27.0513 46.7554 27.1077 47.2211 27.31 47.63L29 51L26.42 56.16C26.1415 56.7119 25.9976 57.3218 26 57.94V59H29V57.94C28.9976 57.3218 29.1415 56.7119 29.42 56.16L31.447 52.106C31.6131 51.7737 31.8684 51.4942 32.1844 51.2988C32.5004 51.1035 32.8645 51 33.236 51H35L36.69 47.63C36.7871 47.4317 36.8509 47.2189 36.879 47H33.711Z" fill="#C1CFE8"/>
<path d="M58.0001 57.0001C57.7349 57.0001 57.4806 56.8947 57.293 56.7072C57.1055 56.5196 57.0001 56.2653 57.0001 56.0001V55.2361C57 55.0504 56.9483 54.8684 56.8506 54.7105C56.7529 54.5526 56.6132 54.425 56.4471 54.3421L55.5531 53.8951C55.4346 53.837 55.3288 53.756 55.2417 53.6568C55.1546 53.5577 55.088 53.4422 55.0458 53.3172C55.0035 53.1922 54.9865 53.06 54.9955 52.9283C55.0046 52.7967 55.0396 52.6681 55.0986 52.5501C55.1576 52.432 55.2394 52.3268 55.3393 52.2405C55.4391 52.1542 55.5551 52.0885 55.6804 52.0472C55.8058 52.006 55.9381 51.9899 56.0697 52C56.2013 52.0101 56.3295 52.0461 56.4471 52.1061L57.3421 52.5531C57.8415 52.8008 58.2615 53.1834 58.5546 53.6576C58.8476 54.1318 59.002 54.6786 59.0001 55.2361V56.0001C59.0001 56.2653 58.8948 56.5196 58.7072 56.7072C58.5197 56.8947 58.2654 57.0001 58.0001 57.0001V57.0001Z" fill="white"/>
<path d="M18 52V56H13H8V52H18Z" fill="#A8B7D4"/>
<path d="M18 32V52H8V32L10 30H16L18 32Z" fill="#006FDB"/>
<path d="M16 26V30H10V26L11 25H15L16 26Z" fill="#005EBA"/>
<path d="M13 64H16V79H10V64H13Z" fill="#A8B7D4"/>
<path d="M13 56V64H10H8V56H13Z" fill="#EDF4FA"/>
<path d="M18 56V64H16H13V56H18Z" fill="#EDF4FA"/>
<path d="M18 77H8C7.44772 77 7 77.4477 7 78C7 78.5523 7.44772 79 8 79H18C18.5523 79 19 78.5523 19 78C19 77.4477 18.5523 77 18 77Z" fill="#D6E0EB"/>
<path d="M12 56H14V77H12V56Z" fill="#8394B2"/>
<path d="M13 17C13.2652 17 13.5196 17.1054 13.7071 17.2929C13.8946 17.4804 14 17.7348 14 18V25H12V18C12 17.7348 12.1054 17.4804 12.2929 17.2929C12.4804 17.1054 12.7348 17 13 17V17Z" fill="#C1CFE8"/>
<path d="M13 25H11L10 26H16L15 25H13Z" fill="#C1CFE8"/>
<path d="M12 27V26H10V30H16V29H14C13.4696 29 12.9609 28.7893 12.5858 28.4142C12.2107 28.0391 12 27.5304 12 27Z" fill="#004080"/>
<path d="M16 30H10L8 32H18L16 30Z" fill="#4AA4F2"/>
<path d="M16 49C14.6739 49 13.4021 48.4732 12.4645 47.5355C11.5268 46.5979 11 45.3261 11 44V32H8V52H18V47C18 47.5304 17.7893 48.0391 17.4142 48.4142C17.0391 48.7893 16.5304 49 16 49V49Z" fill="#004080"/>
<path d="M12 30H10L8 32H11L12 30Z" fill="#006FDB"/>
<path d="M13 35H18V37H13C12.7348 37 12.4804 36.8946 12.2929 36.7071C12.1054 36.5196 12 36.2652 12 36C12 35.7348 12.1054 35.4804 12.2929 35.2929C12.4804 35.1054 12.7348 35 13 35V35Z" fill="#EDF4FA"/>
<path d="M13 41H18V43H13C12.7348 43 12.4804 42.8946 12.2929 42.7071C12.1054 42.5196 12 42.2652 12 42C12 41.7348 12.1054 41.4804 12.2929 41.2929C12.4804 41.1054 12.7348 41 13 41V41Z" fill="#EDF4FA"/>
<path d="M13 47H18V49H13C12.7348 49 12.4804 48.8946 12.2929 48.7071C12.1054 48.5196 12 48.2652 12 48C12 47.7348 12.1054 47.4804 12.2929 47.2929C12.4804 47.1054 12.7348 47 13 47V47Z" fill="#EDF4FA"/>
<path d="M16 49H18V47C18 47.5304 17.7893 48.0391 17.4142 48.4142C17.0391 48.7893 16.5304 49 16 49V49Z" fill="#A8B7D4"/>
<path d="M13.0002 48.9999H16.0002C15.2959 48.9983 14.6 48.847 13.9586 48.5559C13.3173 48.2649 12.7452 47.8409 12.2802 47.3119C12.146 47.4534 12.0561 47.6311 12.0216 47.8231C11.9871 48.015 12.0095 48.2129 12.086 48.3922C12.1626 48.5716 12.2899 48.7247 12.4523 48.8327C12.6147 48.9407 12.8051 48.9988 13.0002 48.9999Z" fill="#A8B7D4"/>
<path d="M8 53H18V55H8V53Z" fill="#8394B2"/>
<path d="M8 56H12V58H8V56Z" fill="#D6E0EB"/>
<path d="M14 56H18V58H14V56Z" fill="#D6E0EB"/>
<path d="M12 56H14V58H12V56Z" fill="#606C82"/>
<path d="M10 64H12V67H10V64Z" fill="#8394B2"/>
<path d="M14 64H16V67H14V64Z" fill="#8394B2"/>
<path d="M12 64H14V67H12V64Z" fill="#606C82"/>
<path d="M22 63H4C3.44772 63 3 63.4477 3 64C3 64.5523 3.44772 65 4 65H22C22.5523 65 23 64.5523 23 64C23 63.4477 22.5523 63 22 63Z" fill="#D6E0EB"/>
<path d="M22 64H4C3.82741 63.9981 3.65834 63.9509 3.5097 63.8632C3.36107 63.7754 3.23807 63.6502 3.153 63.5C3.05752 63.6497 3.00462 63.8225 3 64C3 64.2652 3.10536 64.5196 3.29289 64.7071C3.48043 64.8946 3.73478 65 4 65H22C22.2652 65 22.5196 64.8946 22.7071 64.7071C22.8946 64.5196 23 64.2652 23 64C22.9954 63.8225 22.9425 63.6497 22.847 63.5C22.7619 63.6502 22.6389 63.7754 22.4903 63.8632C22.3417 63.9509 22.1726 63.9981 22 64V64Z" fill="#C1CFE8"/>
<path d="M18 78H8C7.82741 77.9981 7.65834 77.9509 7.5097 77.8632C7.36107 77.7754 7.23807 77.6502 7.153 77.5C7.05752 77.6497 7.00462 77.8225 7 78C7 78.2652 7.10536 78.5196 7.29289 78.7071C7.48043 78.8946 7.73478 79 8 79H18C18.2652 79 18.5196 78.8946 18.7071 78.7071C18.8946 78.5196 19 78.2652 19 78C18.9954 77.8225 18.9425 77.6497 18.847 77.5C18.7619 77.6502 18.6389 77.7754 18.4903 77.8632C18.3417 77.9509 18.1726 77.9981 18 78V78Z" fill="#C1CFE8"/>
</svg>
