<svg width="327" height="37" viewBox="0 0 327 37" fill="none" xmlns="http://www.w3.org/2000/svg">
<rect y="36" width="327" height="1" fill="#0065FF"/>
<path d="M13.7258 7.83609V6.04525C13.7 3.94609 11.9767 2.26609 9.87833 2.29192C7.8225 2.31775 6.16 3.97275 6.125 6.02859V7.83609" stroke="#0065FF" stroke-width="1.5" stroke-linecap="round" stroke-linejoin="round"/>
<path d="M9.92546 11.7968V13.6477" stroke="#0065FF" stroke-width="1.5" stroke-linecap="round" stroke-linejoin="round"/>
<path fill-rule="evenodd" clip-rule="evenodd" d="M9.92533 7.35352C5.13783 7.35352 3.54199 8.66018 3.54199 12.5793C3.54199 16.4993 5.13783 17.806 9.92533 17.806C14.7128 17.806 16.3095 16.4993 16.3095 12.5793C16.3095 8.66018 14.7128 7.35352 9.92533 7.35352Z" stroke="#0065FF" stroke-width="1.5" stroke-linecap="round" stroke-linejoin="round"/>
<path fill-rule="evenodd" clip-rule="evenodd" d="M319.637 10.0434C319.637 11.4984 318.457 12.6784 317.002 12.6784C315.547 12.6784 314.367 11.4984 314.367 10.0434C314.367 8.58758 315.547 7.40842 317.002 7.40842C318.457 7.40842 319.637 8.58758 319.637 10.0434Z" stroke="#8894A7" stroke-width="1.5" stroke-linecap="round" stroke-linejoin="round"/>
<path fill-rule="evenodd" clip-rule="evenodd" d="M309.292 10.0434C309.292 12.7767 312.744 16.1284 317.002 16.1284C321.259 16.1284 324.712 12.7792 324.712 10.0434C324.712 7.30757 321.259 3.9584 317.002 3.9584C312.744 3.9584 309.292 7.31007 309.292 10.0434Z" stroke="#8894A7" stroke-width="1.5" stroke-linecap="round" stroke-linejoin="round"/>
<rect x="140" y="2" width="1" height="18" fill="#112950"/>
<circle cx="37" cy="10" r="5" fill="#112950"/>
<circle cx="55" cy="10" r="5" fill="#112950"/>
<circle cx="73" cy="10" r="5" fill="#112950"/>
<circle cx="91" cy="10" r="5" fill="#112950"/>
<circle cx="109" cy="10" r="5" fill="#112950"/>
<circle cx="127" cy="10" r="5" fill="#112950"/>
</svg>
