<svg width="108" height="48" viewBox="0 0 108 48" fill="none" xmlns="http://www.w3.org/2000/svg">
<rect x="60.5" y="0.5" width="47" height="47" rx="23.5" stroke="#F2F4F5"/>
<path d="M83.1434 29.8829H76.6709" stroke="#0065FF" stroke-width="1.5" stroke-linecap="round" stroke-linejoin="round"/>
<path fill-rule="evenodd" clip-rule="evenodd" d="M87.2051 29.8834C87.2051 31.9252 87.886 32.6052 89.9269 32.6052C91.9678 32.6052 92.6487 31.9252 92.6487 29.8834C92.6487 27.8416 91.9678 27.1616 89.9269 27.1616C87.886 27.1616 87.2051 27.8416 87.2051 29.8834Z" stroke="#0065FF" stroke-width="1.5" stroke-linecap="round" stroke-linejoin="round"/>
<path d="M86.1768 19.3941H92.6484" stroke="#0065FF" stroke-width="1.5" stroke-linecap="round" stroke-linejoin="round"/>
<path fill-rule="evenodd" clip-rule="evenodd" d="M82.1154 19.3927C82.1154 17.3518 81.4345 16.6709 79.3936 16.6709C77.3518 16.6709 76.6709 17.3518 76.6709 19.3927C76.6709 21.4345 77.3518 22.1145 79.3936 22.1145C81.4345 22.1145 82.1154 21.4345 82.1154 19.3927Z" stroke="#0065FF" stroke-width="1.5" stroke-linecap="round" stroke-linejoin="round"/>
<rect x="0.5" y="0.5" width="47" height="47" rx="23.5" stroke="#F2F4F5"/>
<path fill-rule="evenodd" clip-rule="evenodd" d="M23.2758 14.7144C28.0034 14.7144 31.8367 18.5467 31.8367 23.2753C31.8367 28.0039 28.0034 31.8363 23.2758 31.8363C18.5472 31.8363 14.7148 28.0039 14.7148 23.2753C14.7148 18.5467 18.5472 14.7144 23.2758 14.7144Z" stroke="#0065FF" stroke-width="1.5" stroke-linecap="round" stroke-linejoin="round"/>
<path fill-rule="evenodd" clip-rule="evenodd" d="M31.8997 30.4878C32.6788 30.4878 33.3102 31.1202 33.3102 31.8983C33.3102 32.6783 32.6788 33.3097 31.8997 33.3097C31.1207 33.3097 30.4883 32.6783 30.4883 31.8983C30.4883 31.1202 31.1207 30.4878 31.8997 30.4878Z" stroke="#0065FF" stroke-width="1.5" stroke-linecap="round" stroke-linejoin="round"/>
</svg>
