<svg width="24" height="24" viewBox="0 0 24 24" fill="none" xmlns="http://www.w3.org/2000/svg">
<path d="M19.2234 10.6185C19.1445 10.8454 19.007 11.2121 19.016 11.1963C19.016 11.1963 18.5227 12.5403 18.3931 12.8884H19.6908C19.6288 12.5856 19.329 11.1408 19.329 11.1408L19.2234 10.6185Z" fill="#112950"/>
<path d="M0 4.71191V19.288H24V4.71191H0ZM5.36656 15.0301L4.11719 10.3039L2.33407 8.98539H5.48482L6.29728 13.1108L7.82653 8.98555H9.48317L7.02119 15.0302H5.36656V15.0301ZM10.7014 15.0349H9.13804L10.1161 8.98064H11.6793L10.7014 15.0349ZM13.423 15.1249C12.7213 15.1172 12.0457 14.9708 11.6811 14.8022L11.8997 13.4471L12.101 13.5434C12.6151 13.7694 12.9477 13.861 13.5735 13.861C14.0231 13.861 14.5051 13.6751 14.5092 13.2696C14.5118 13.0046 14.3071 12.8148 13.6978 12.5183C13.1053 12.2293 12.3189 11.7435 12.3284 10.8735C12.3378 9.69679 13.4259 8.8751 14.9715 8.8751C15.5767 8.8751 16.0633 9.0077 16.3723 9.12923L16.1609 10.4416L16.0204 10.3724C15.7316 10.2495 15.3619 10.1315 14.8502 10.1399C14.2379 10.1399 13.955 10.4092 13.9546 10.6607C13.9508 10.945 14.2862 11.1309 14.8325 11.4119C15.7347 11.8438 16.1512 12.3668 16.1457 13.057C16.1333 14.3131 15.0659 15.1249 13.423 15.1249ZM20.1359 15.0372C20.1359 15.0372 19.9921 14.3411 19.9455 14.1304C19.7178 14.1304 18.1225 14.1268 17.9433 14.1268C17.8825 14.2909 17.6146 15.0373 17.6146 15.0373H15.9722L18.2943 9.48865C18.4582 9.094 18.7389 8.98682 19.1138 8.98682H20.3217L21.5869 15.0373H20.1359V15.0372Z" fill="#112950"/>
</svg>
