<svg width="20" height="20" viewBox="0 0 20 20" fill="none" xmlns="http://www.w3.org/2000/svg">
<path d="M18.1299 17.1721L15.2655 14.3715V14.3715L15.1983 14.2694C15.0735 14.1452 14.9028 14.0751 14.7246 14.0751C14.5465 14.0751 14.3758 14.1452 14.2509 14.2694V14.2694C11.8166 16.5028 8.06545 16.6242 5.48533 14.5531C2.90521 12.482 2.29672 8.86116 4.0634 6.09183C5.83008 3.3225 9.42372 2.26406 12.461 3.61847C15.4983 4.97288 17.0368 8.31985 16.0562 11.4397C15.9855 11.6651 16.0433 11.9102 16.2076 12.0827C16.3719 12.2551 16.6179 12.3288 16.8529 12.2759C17.0878 12.223 17.2761 12.0516 17.3467 11.8262V11.8262C18.519 8.12389 16.7484 4.13965 13.1804 2.4509C9.6124 0.762155 5.31769 1.87571 3.07454 5.0712C0.831384 8.2667 1.31297 12.5851 4.20777 15.2329C7.10256 17.8807 11.5418 18.0633 14.6538 15.6624L17.19 18.1421C17.452 18.3971 17.8755 18.3971 18.1374 18.1421C18.3991 17.8835 18.3991 17.4672 18.1374 17.2086V17.2086L18.1299 17.1721Z" fill="#112950"/>
</svg>
