<svg width="60" height="60" viewBox="0 0 60 60" fill="none" xmlns="http://www.w3.org/2000/svg">
<circle cx="30" cy="30" r="30" fill="#F33060"/>
<g clip-path="url(#clip0_516_4459)">
<path d="M41.6968 29.4264C38.3186 26.8503 34.2741 25.4883 29.9997 25.4883C25.7254 25.4883 21.6808 26.8503 18.3026 29.4264C18.1407 29.5498 18.0327 29.7334 18.0065 29.937C17.9803 30.1406 18.0342 30.3457 18.1576 30.5077L20.9805 34.2083C21.1054 34.3718 21.2875 34.4782 21.4911 34.5044C21.6947 34.5337 21.8998 34.4767 22.0618 34.3533C23.2527 33.4416 24.5823 32.7459 26.0107 32.2847C26.4149 32.1536 26.637 31.7201 26.5074 31.3145L25.5603 28.3697C28.431 27.6386 31.5669 27.637 34.4392 28.3697L33.492 31.3145C33.3609 31.7201 33.5846 32.1536 33.9887 32.2847C35.4156 32.7459 36.7437 33.4416 37.9376 34.3533C38.0734 34.4551 38.2369 34.5121 38.4066 34.5121C38.4405 34.5121 38.4744 34.5091 38.5084 34.5044C38.712 34.4767 38.8956 34.3718 39.019 34.2098L41.8418 30.5077C41.9652 30.3457 42.0207 30.139 41.993 29.937C41.9668 29.7334 41.8588 29.5498 41.6968 29.4264Z" fill="white"/>
</g>
<defs>
<clipPath id="clip0_516_4459">
<rect width="24" height="24" fill="white" transform="translate(18 18)"/>
</clipPath>
</defs>
</svg>
