<svg width="64" height="64" viewBox="0 0 64 64" fill="none" xmlns="http://www.w3.org/2000/svg">
<g clip-path="url(#clip0_0_8143)">
<path d="M51.5703 64H11.9008C5.3276 64 0 58.628 0 52V12C0 5.372 5.3276 0 11.9008 0H51.5703C58.1435 0 63.4711 5.372 63.4711 12V52C63.4711 58.628 58.1435 64 51.5703 64Z" fill="#F2F6FE"/>
<path d="M35.5023 37.3341C34.328 37.3341 33.3105 36.5421 33.0844 35.4481L32.2593 29.4701C32.2355 29.3701 32.0252 29.1981 31.7337 29.1981C31.4421 29.1981 31.2318 29.3701 31.1981 29.5361L30.3948 35.3821C30.1588 36.5401 29.1413 37.3341 27.9651 37.3341C26.7095 37.3341 25.6563 36.4421 25.5155 35.2601L25.1961 31.2641C25.1842 31.1901 25.0652 30.5301 24.2778 26.8781C23.9624 25.4041 23.8018 23.8941 23.8018 22.3881C23.8018 20.3361 25.458 18.6661 27.495 18.6661C28.1773 18.6661 28.8457 18.8521 29.4328 19.2061C30.855 20.0661 32.6183 20.0641 34.0385 19.2061C34.6256 18.8521 35.296 18.6641 35.9783 18.6641C38.0153 18.6641 39.6715 20.3341 39.6715 22.3861C39.6715 23.8941 39.5108 25.4041 39.1915 26.8761C38.5489 29.8461 38.295 31.1101 38.2692 31.3021L37.9558 35.2201C37.9538 35.2341 37.9538 35.2461 37.9518 35.2581C37.813 36.4421 36.7598 37.3341 35.5023 37.3341V37.3341ZM36.968 35.1401H36.9819H36.968Z" fill="#0065FF"/>
<path d="M46.2804 30.6662H45.0903C42.367 30.6662 39.6834 29.7382 37.5333 28.0522C36.9561 27.6002 36.8529 26.7622 37.3012 26.1802C37.7495 25.5982 38.5825 25.4962 39.1577 25.9462C40.8457 27.2702 42.9541 28.0002 45.0923 28.0002H46.2824C47.0123 28.0002 47.6033 28.5962 47.6033 29.3342C47.6033 30.0722 47.0123 30.6662 46.2804 30.6662V30.6662Z" fill="#0065FF"/>
<path d="M18.3554 30.6661H17.1911C16.4592 30.6661 15.8682 30.0701 15.8682 29.3341C15.8682 28.5981 16.4592 28.0001 17.1911 28.0001H18.3574C20.3508 28.0001 22.2668 27.3901 23.8992 26.2381L24.3673 25.9081C24.9663 25.4861 25.7895 25.6321 26.208 26.2361C26.6265 26.8401 26.4817 27.6701 25.8827 28.0921L25.4146 28.4221C23.3339 29.8901 20.8943 30.6661 18.3554 30.6661V30.6661Z" fill="#0065FF"/>
<path d="M27.9076 44.6421C26.6045 42.2501 26.1701 39.3921 26.6204 36.1501L29.2386 36.5181C28.8657 39.2181 29.189 41.4541 30.2263 43.3581L27.9076 44.6421Z" fill="#0065FF"/>
<path d="M35.5638 44.6421L33.2451 43.3581C34.2825 41.4541 34.6058 39.2161 34.2329 36.5181L36.8511 36.1501C37.2993 39.3921 36.8669 42.2501 35.5638 44.6421V44.6421Z" fill="#0065FF"/>
<path d="M21.8184 36C21.4792 36 21.142 35.87 20.8842 35.61L20.2237 34.944C19.708 34.424 19.708 33.58 20.2237 33.058C20.7394 32.536 21.5764 32.538 22.0941 33.058L22.7546 33.724C23.2703 34.244 23.2703 35.088 22.7546 35.61C22.4948 35.87 22.1576 36 21.8184 36Z" fill="#00E1F0"/>
<path d="M18.5114 41.334C18.1722 41.334 17.8351 41.204 17.5772 40.944C17.0615 40.424 17.0615 39.58 17.5772 39.058L18.2377 38.392C18.7534 37.872 19.5904 37.872 20.1081 38.392C20.6258 38.912 20.6238 39.756 20.1081 40.278L19.4476 40.944C19.1878 41.204 18.8506 41.334 18.5114 41.334Z" fill="#00E1F0"/>
<path d="M40.9919 41.334C40.6527 41.334 40.3155 41.204 40.0577 40.944C39.542 40.424 39.542 39.58 40.0577 39.058L40.7182 38.392C41.2339 37.872 42.0709 37.872 42.5886 38.392C43.1063 38.912 43.1043 39.756 42.5886 40.278L41.9281 40.944C41.6683 41.204 41.3291 41.334 40.9919 41.334Z" fill="#00E1F0"/>
<path d="M45.6202 36C45.281 36 44.9438 35.87 44.6859 35.61L44.0254 34.944C43.5097 34.424 43.5097 33.58 44.0254 33.058C44.5412 32.536 45.3782 32.538 45.8959 33.058L46.5564 33.724C47.0721 34.244 47.0721 35.088 46.5564 35.61C46.2965 35.87 45.9593 36 45.6202 36Z" fill="#00E1F0"/>
<path d="M46.2807 45.334H17.1911C16.4592 45.334 15.8682 44.736 15.8682 44C15.8682 43.264 16.4612 42.666 17.1911 42.666H46.2827C47.0126 42.666 47.6037 43.264 47.6037 44C47.6037 44.736 47.0126 45.334 46.2807 45.334V45.334Z" fill="#0065FF"/>
</g>
<defs>
<clipPath id="clip0_0_8143">
<rect width="63.4711" height="64" fill="white"/>
</clipPath>
</defs>
</svg>
