<svg width="24" height="24" viewBox="0 0 24 24" fill="none" xmlns="http://www.w3.org/2000/svg">
<g clip-path="url(#clip0_826_12031)">
<path d="M12 22C17.5228 22 22 17.5228 22 12C22 6.47715 17.5228 2 12 2C6.47715 2 2 6.47715 2 12C2 17.5228 6.47715 22 12 22Z" fill="#F0F0F0"/>
<path d="M21.378 15.478C21.78 14.3946 22 13.2229 22 11.9997C22 10.7765 21.78 9.6048 21.378 8.52148H2.62199C2.22004 9.6048 2 10.7765 2 11.9997C2 13.2229 2.22004 14.3946 2.62199 15.478L12 16.3475L21.378 15.478Z" fill="#0052B4"/>
<path d="M12.0001 22.0003C16.2997 22.0003 19.9652 19.2865 21.3781 15.4785H2.62207C4.035 19.2865 7.70043 22.0003 12.0001 22.0003Z" fill="#D80027"/>
</g>
<defs>
<clipPath id="clip0_826_12031">
<rect width="20" height="20" fill="white" transform="translate(2 2)"/>
</clipPath>
</defs>
</svg>
