<svg width="64" height="64" viewBox="0 0 64 64" fill="none" xmlns="http://www.w3.org/2000/svg">
<path d="M39 36L35 40L32 36L36 35L39 35.88V36Z" fill="white"/>
<path d="M32 36L29 40L25 36V35.88L28 35L32 36Z" fill="white"/>
<path d="M29 40L30 42L28 63H25V45V36L29 40Z" fill="white"/>
<path d="M39 45V63H36L34 42L35 40L39 36V45Z" fill="white"/>
<path d="M32 36L35 40L34 42H30L29 40L32 36Z" fill="#0065FF"/>
<path d="M34 42L36 63H28L30 42H34Z" fill="#0065FF"/>
<path d="M44 49L42 63H39V45L44 49Z" fill="#EDF4FA"/>
<path d="M42 37L44 43L39 45V36V35.88L42 36.76V37Z" fill="#EDF4FA"/>
<path d="M25 45V63H22L20 49L25 45Z" fill="#EDF4FA"/>
<path d="M25 36V45L20 43L22 37V36.76L25 35.88V36Z" fill="#EDF4FA"/>
<path d="M16 47V63H8L10.83 41.29C10.8924 40.7979 11.139 40.3477 11.52 40.03L13 42L16 47Z" fill="#D6E0EB"/>
<path d="M53.17 41.29L56 63H48V47L51 42L52.27 39.88H52.28C52.5228 40.0352 52.7285 40.242 52.8823 40.4857C53.0362 40.7294 53.1344 41.004 53.17 41.29V41.29Z" fill="#D6E0EB"/>
<path d="M52.27 39.88L51 42L48 47V63H42L44 49L39 45L44 43L42 37V36.76L51.75 39.63C51.9349 39.6867 52.1102 39.771 52.27 39.88V39.88Z" fill="#D6E0EB"/>
<path d="M24.9995 45L19.9995 49L21.9995 63H15.9995V47L12.9995 42L11.5195 40.03C11.7321 39.847 11.9808 39.7107 12.2495 39.63L21.9995 36.76V37L19.9995 43L24.9995 45Z" fill="#D6E0EB"/>
<path d="M44 9V19C43.9984 18.4701 43.7872 17.9623 43.4125 17.5875C43.0377 17.2128 42.5299 17.0016 42 17H41V13C39 13 37 9 37 9V4C37 3.73478 37.1054 3.48043 37.2929 3.29289C37.4804 3.10536 37.7348 3 38 3C39.5906 3.00238 41.1153 3.63529 42.24 4.75999C43.3647 5.88469 43.9976 7.40943 44 9V9Z" fill="#784132"/>
<path d="M23 13V17H22C21.4701 17.0016 20.9623 17.2128 20.5875 17.5875C20.2128 17.9623 20.0016 18.4701 20 19V11C20 8.34784 21.0536 5.8043 22.9289 3.92893C24.8043 2.05357 27.3478 1 30 1H34C34.7956 1 35.5587 1.31607 36.1213 1.87868C36.6839 2.44129 37 3.20435 37 4V9C37 9 30 13 23 13Z" fill="#784132"/>
<path d="M36.5 20C36.7761 20 37 19.3284 37 18.5C37 17.6716 36.7761 17 36.5 17C36.2239 17 36 17.6716 36 18.5C36 19.3284 36.2239 20 36.5 20Z" fill="#F4BAA6"/>
<path d="M27.5 20C27.7761 20 28 19.3284 28 18.5C28 17.6716 27.7761 17 27.5 17C27.2239 17 27 17.6716 27 18.5C27 19.3284 27.2239 20 27.5 20Z" fill="#F4BAA6"/>
<path d="M23 17L25 21L23 24L21.34 22.89C20.9273 22.6166 20.5889 22.2451 20.355 21.8088C20.1212 21.3725 19.9992 20.885 20 20.39V19C20.0016 18.4701 20.2128 17.9623 20.5875 17.5875C20.9623 17.2128 21.4701 17.0016 22 17H23Z" fill="#F4BAA6"/>
<path d="M44 19V20.39C44.0008 20.885 43.8788 21.3725 43.645 21.8088C43.4111 22.2451 43.0727 22.6166 42.66 22.89L41 24L39 21L41 17H42C42.5299 17.0016 43.0377 17.2128 43.4125 17.5875C43.7872 17.9623 43.9984 18.4701 44 19V19Z" fill="#F4BAA6"/>
<path d="M36.5 20C36.78 20 37 19.33 37 18.5C37 17.67 36.78 17 36.5 17C36.22 17 36 17.67 36 18.5C36 19.33 36.22 20 36.5 20ZM27.5 20C27.78 20 28 19.33 28 18.5C28 17.67 27.78 17 27.5 17C27.22 17 27 17.67 27 18.5C27 19.33 27.22 20 27.5 20ZM23 13C30 13 37 9 37 9C37 9 39 13 41 13V17L39 21H25L23 17V13Z" fill="#F4BAA6"/>
<path d="M36 30.08C34.7535 30.6854 33.3858 31 32 31C30.6142 31 29.2465 30.6854 28 30.08C26.7623 29.5088 25.6697 28.6653 24.8039 27.6125C23.9381 26.5596 23.3214 25.3247 23 24L25 21H39L41 24C40.6786 25.3247 40.0619 26.5596 39.1961 27.6125C38.3303 28.6653 37.2377 29.5088 36 30.08V30.08Z" fill="#EDF4FA"/>
<path d="M28 30.08V35L32 36L36 35V30.08C34.7535 30.6854 33.3858 30.9999 32 30.9999C30.6142 30.9999 29.2465 30.6854 28 30.08V30.08Z" fill="#D68975"/>
<path d="M36 30.08C34.7535 30.6854 33.3858 30.9999 32 30.9999C30.6142 30.9999 29.2465 30.6854 28 30.08V33.6999L36 31.2999V30.08Z" fill="#C96C55"/>
<path d="M41 22V18H42C42.2652 18 42.5196 18.1054 42.7071 18.2929C42.8946 18.4804 43 18.7348 43 19V19.764C43 20.1355 42.8965 20.4996 42.7012 20.8156C42.5058 21.1316 42.2263 21.3869 41.894 21.553L41 22Z" fill="#D68975"/>
<path d="M23 22V18H22C21.7348 18 21.4804 18.1054 21.2929 18.2929C21.1054 18.4804 21 18.7348 21 19V19.764C21 20.1355 21.1035 20.4996 21.2988 20.8156C21.4942 21.1316 21.7737 21.3869 22.106 21.553L23 22Z" fill="#D68975"/>
<path d="M26 24L28 21H25L23 24C23.3214 25.3247 23.9381 26.5596 24.8039 27.6125C25.6697 28.6653 26.7623 29.5088 28 30.08C29.7024 30.9225 31.6303 31.1962 33.5 30.861C32.6337 30.7211 31.7919 30.4581 31 30.08C29.7623 29.5088 28.6697 28.6653 27.8039 27.6125C26.9381 26.5596 26.3214 25.3247 26 24V24Z" fill="#D6E0EB"/>
<path d="M36.5 21C37.0523 21 37.5 19.8807 37.5 18.5C37.5 17.1193 37.0523 16 36.5 16C35.9477 16 35.5 17.1193 35.5 18.5C35.5 19.8807 35.9477 21 36.5 21Z" fill="#3D240F"/>
<path d="M27.5 21C28.0523 21 28.5 19.8807 28.5 18.5C28.5 17.1193 28.0523 16 27.5 16C26.9477 16 26.5 17.1193 26.5 18.5C26.5 19.8807 26.9477 21 27.5 21Z" fill="#3D240F"/>
<path d="M32.0002 19.5C31.5352 19.5 31.1472 20.139 31.0352 21H32.9652C32.8532 20.139 32.4652 19.5 32.0002 19.5Z" fill="#D9896D"/>
<path d="M37 9C37 9 30 13 23 13V15C30 15 37 11 37 11C37 11 39 15 41 15V13C39 13 37 9 37 9Z" fill="#D68975"/>
<path d="M28.6053 14.9869C28.6191 14.9912 28.6331 14.9946 28.6473 14.9969C28.8473 15.0329 29.0003 14.7149 29.0003 14.4969C29.0003 14.4359 28.9773 12.9969 27.0003 12.9969C25.0233 12.9969 25.0003 14.4359 25.0003 14.4969C24.9974 14.5848 25.0165 14.6719 25.0557 14.7505C25.095 14.829 25.1533 14.8966 25.2253 14.9469C25.3703 15.0359 25.5123 14.9529 25.6253 14.8169C25.6803 14.7489 25.7253 14.6649 25.7823 14.6009C25.8408 14.5431 25.9084 14.4952 25.9823 14.4589C26.1575 14.3564 26.3428 14.2723 26.5353 14.2079C26.7907 14.1348 27.0602 14.1264 27.3196 14.1835C27.5791 14.2406 27.8202 14.3614 28.0213 14.5349C28.188 14.7187 28.3856 14.8717 28.6053 14.9869V14.9869Z" fill="#3D240F"/>
<path d="M35.3999 14.9869C35.3861 14.9912 35.3721 14.9946 35.3579 14.9969C35.1579 15.0329 35.0049 14.7149 35.0049 14.4969C35.0049 14.4359 35.0279 12.9969 37.0049 12.9969C38.9819 12.9969 39.0049 14.4359 39.0049 14.4969C39.0078 14.5848 38.9887 14.6719 38.9494 14.7505C38.9101 14.829 38.8519 14.8966 38.7799 14.9469C38.6349 15.0359 38.4929 14.9529 38.3799 14.8169C38.3249 14.7489 38.2799 14.6649 38.2229 14.6009C38.1643 14.5431 38.0968 14.4952 38.0229 14.4589C37.8477 14.3564 37.6624 14.2723 37.4699 14.2079C37.2145 14.1348 36.945 14.1264 36.6855 14.1835C36.4261 14.2406 36.185 14.3614 35.9839 14.5349C35.8172 14.7187 35.6195 14.8717 35.3999 14.9869Z" fill="#3D240F"/>
<path d="M40.553 16.776L38.691 20.5H25.309L23.447 16.776C23.4054 16.6931 23.3416 16.6233 23.2627 16.5746C23.1837 16.5258 23.0928 16.5 23 16.5V18.117L24.553 21.224C24.5946 21.3069 24.6584 21.3767 24.7373 21.4254C24.8163 21.4742 24.9072 21.5 25 21.5H39C39.0928 21.5 39.1837 21.4742 39.2627 21.4254C39.3416 21.3767 39.4054 21.3069 39.447 21.224L41 18.117V16.5C40.9072 16.5 40.8163 16.5258 40.7373 16.5746C40.6584 16.6233 40.5946 16.6931 40.553 16.776Z" fill="#0065FF"/>
<path d="M42.24 4.76003C41.6852 4.20022 41.0247 3.75632 40.2968 3.45417C39.5689 3.15202 38.7881 2.99764 38 3.00003C37.7348 3.00003 37.4804 3.10538 37.2929 3.29292C37.1054 3.48046 37 3.73481 37 4.00003V9.00003C37 9.00003 39 13 41 13V16.5H42C42.1326 16.5 42.2598 16.5527 42.3536 16.6465C42.4473 16.7402 42.5 16.8674 42.5 17C42.4974 17.0227 42.4927 17.0452 42.486 17.067C42.9173 17.1751 43.3004 17.4238 43.5745 17.7739C43.8487 18.1239 43.9984 18.5554 44 19V9.00003C44.0024 8.2119 43.848 7.43117 43.5459 6.70326C43.2437 5.97535 42.7998 5.31479 42.24 4.76003V4.76003Z" fill="#784132"/>
<path d="M35 6.832V3C35 2.46957 34.7893 1.96086 34.4142 1.58579C34.0391 1.21071 33.5304 1 33 1H30C27.3478 1 24.8043 2.05357 22.9289 3.92893C21.0536 5.8043 20 8.34784 20 11C27.7 11 31.974 9.529 33.842 8.647C34.1875 8.48571 34.4799 8.22935 34.685 7.90791C34.89 7.58648 34.9993 7.21328 35 6.832V6.832Z" fill="#8A4B39"/>
<path d="M21 15V17.279C21.3025 17.0985 21.6478 17.0022 22 17H23V13C22.4696 13 21.9609 13.2107 21.5858 13.5858C21.2107 13.9609 21 14.4696 21 15Z" fill="#4C2C21"/>
<path d="M41 13V16.5H42C42.1326 16.5 42.2598 16.5527 42.3536 16.6464C42.4473 16.7402 42.5 16.8674 42.5 17C42.4974 17.0227 42.4927 17.0451 42.486 17.067C42.6665 17.1148 42.8395 17.1875 43 17.283V15C43 14.4696 42.7893 13.9609 42.4142 13.5858C42.0391 13.2107 41.5304 13 41 13V13Z" fill="#241510"/>
<path d="M39 7.014V3.09C38.6698 3.03206 38.3353 3.00195 38 3C37.7348 3 37.4804 3.10536 37.2929 3.29289C37.1054 3.48043 37 3.73478 37 4V9C37 9 39 13 41 13C42.1 13 43 14.895 43 16V17.283C43.3024 17.4566 43.554 17.7065 43.7295 18.0078C43.905 18.3092 43.9983 18.6513 44 19V12C43.776 12 43.561 11.991 43.355 11.973C42.1429 11.8348 41.0256 11.2505 40.2206 10.3339C39.4156 9.41722 38.9805 8.2338 39 7.014V7.014Z" fill="#613529"/>
<path d="M13 42L11.52 40.03C11.139 40.3477 10.8924 40.7979 10.83 41.29L10.73 42.09L13.5 46.245C13.8272 46.7382 14.0011 47.3172 14 47.909V58C14.0017 58.654 13.7891 59.2905 13.3948 59.8123C13.0006 60.334 12.4462 60.7123 11.8166 60.8892C11.187 61.0661 10.5168 61.0319 9.90849 60.7919C9.30015 60.5518 8.78717 60.1192 8.448 59.56L8 63H16V47L13 42Z" fill="white"/>
<path d="M53 61C52.2044 61 51.4413 60.684 50.8787 60.1213C50.3161 59.5587 50 58.7957 50 58V47.606C49.9999 47.211 50.1168 46.8247 50.336 46.496L53.274 42.089L53.174 41.289C53.1384 41.003 53.0402 40.7284 52.8863 40.4847C52.7325 40.241 52.5268 40.0342 52.284 39.879H52.274L51 42L48 47V63H56L55.552 59.56C55.2858 59.9988 54.9113 60.3616 54.4643 60.6138C54.0174 60.866 53.5132 60.999 53 61V61Z" fill="white"/>
<path d="M43.826 50.217L42 63H44L45 51L43.826 50.217Z" fill="white"/>
<path d="M43.444 37.185L42 36.76V37L44 43L39 45L40.628 46.302L46 44L43.444 37.185Z" fill="white"/>
<path d="M20 63H22L20.174 50.217L19 51L20 63Z" fill="white"/>
<path d="M20 43L22 37V36.76L20.556 37.185L18 44L23.372 46.302L25 45L20 43Z" fill="white"/>
<path d="M29.6 41.2L29 40L25 36V38L29 42L29.6 41.2Z" fill="#B2BAC6"/>
<path d="M34.3994 41.2L34.9994 42L38.9994 38V36L34.9994 40L34.3994 41.2Z" fill="#B2BAC6"/>
<path d="M29.6 41.2L32 38L34.4 41.2L35 40L32 36L29 40L29.6 41.2Z" fill="#003CBF"/>
<path d="M32.9 44H34.19L34 42H30L28 63H30L30.9 45.9C30.9257 45.3871 31.1477 44.9037 31.52 44.55C31.8923 44.1963 32.3864 43.9994 32.9 44Z" fill="#003CBF"/>
<path d="M37.1 54L38 63H35L34 54H37.1Z" fill="#2B2B37"/>
<path d="M37.1 54L37 53H51L52 63H38L37.1 54Z" fill="#003CBF"/>
<path d="M48 58H53V63H46V60C46 59.4696 46.2107 58.9609 46.5858 58.5858C46.9609 58.2107 47.4696 58 48 58Z" fill="#F4BAA6"/>
<path d="M38.0003 63L37.1003 54H36.1253L36.7193 58.752C36.7541 59.0299 36.7302 59.3119 36.649 59.58C36.5679 59.848 36.4314 60.096 36.2483 60.3079C36.0652 60.5198 35.8397 60.6909 35.5863 60.8101C35.3329 60.9294 35.0573 60.994 34.7773 61L35.0003 63H38.0003Z" fill="#222430"/>
<path d="M47.277 59H47C46.7348 59 46.4804 59.1054 46.2929 59.2929C46.1054 59.4804 46 59.7348 46 60C46 60.2652 45.8946 60.5196 45.7071 60.7071C45.5196 60.8946 45.2652 61 45 61H41.766C41.2784 61.0001 40.8076 60.8221 40.4421 60.4995C40.0766 60.1768 39.8415 59.7318 39.781 59.248L39 53H37L37.1 54L38 63H47V60C47.0021 59.648 47.0977 59.3029 47.277 59V59Z" fill="#0065FF"/>
<path d="M51 62H49C48.7348 62 48.4804 61.8946 48.2929 61.7071C48.1054 61.5196 48 61.2652 48 61V59C48 58.7348 48.1054 58.4804 48.2929 58.2929C48.4804 58.1054 48.7348 58 49 58H48C47.4696 58 46.9609 58.2107 46.5858 58.5858C46.2107 58.9609 46 59.4696 46 60V63H53V60C53 60.5304 52.7893 61.0391 52.4142 61.4142C52.0391 61.7893 51.5304 62 51 62Z" fill="#D68975"/>
</svg>
