<svg width="64" height="64" viewBox="0 0 64 64" fill="none" xmlns="http://www.w3.org/2000/svg">
<g clip-path="url(#clip0_0_7977)">
<path d="M51.5703 64H11.9008C5.3276 64 0 58.628 0 52V12C0 5.372 5.3276 0 11.9008 0H51.5703C58.1435 0 63.4711 5.372 63.4711 12V52C63.4711 58.628 58.1435 64 51.5703 64Z" fill="#F2F6FE"/>
<path d="M42.3139 25.334C38.825 25.334 38.4164 26.596 36.2425 28.422C35.7229 28.858 35.0703 29.054 34.3999 28.974C33.7295 28.896 33.1384 28.552 32.7338 28.008C31.4465 26.276 29.2052 25.546 27.1543 26.192L24.3992 27.06C23.703 27.28 23.3143 28.028 23.5305 28.73C23.7487 29.434 24.4944 29.824 25.1867 29.606L27.9417 28.738C28.9255 28.428 30.0006 28.778 30.6174 29.608C31.4624 30.742 32.6961 31.458 34.0925 31.622C35.4769 31.782 36.8019 31.384 37.869 30.514C38.7953 31.422 40.4039 32 42.3139 32C45.3288 32 47.6039 30.568 47.6039 28.666C47.6039 26.764 45.3288 25.334 42.3139 25.334Z" fill="#00E1F0"/>
<path d="M37.0255 41.334C34.8119 41.334 33.9987 42.168 32.521 43.656C32.2136 43.966 31.8566 43.982 31.6701 43.962C31.4837 43.944 31.1366 43.858 30.8966 43.494C29.9465 42.056 28.1594 41.466 26.5528 42.056L24.6705 42.746C23.9842 42.998 23.6311 43.762 23.879 44.454C24.129 45.146 24.8886 45.502 25.5729 45.252L27.4552 44.562C27.9114 44.394 28.4232 44.562 28.6929 44.972C29.3098 45.906 30.2995 46.504 31.4063 46.616C32.4119 46.712 33.3283 46.402 34.0681 45.804C34.7842 46.336 35.8175 46.666 37.0195 46.666C39.2807 46.666 40.9865 45.52 40.9865 44C40.9924 42.48 39.2866 41.334 37.0255 41.334Z" fill="#0065FF"/>
<path d="M26.1385 37.804C26.8546 38.336 27.888 38.666 29.09 38.666C31.3511 38.666 33.0569 37.52 33.0569 36C33.0569 34.48 31.3511 33.334 29.09 33.334C26.8764 33.334 26.0632 34.168 24.5855 35.656C24.2781 35.966 23.921 35.982 23.7346 35.962C23.5481 35.944 23.201 35.858 22.961 35.494C22.0109 34.056 20.2218 33.468 18.6172 34.056L16.7349 34.746C16.0486 34.998 15.6956 35.762 15.9435 36.454C16.1934 37.146 16.9511 37.502 17.6374 37.252L19.5197 36.562C19.9779 36.394 20.4857 36.562 20.7574 36.972C21.3742 37.906 22.364 38.504 23.4708 38.616C24.4823 38.712 25.3987 38.402 26.1385 37.804Z" fill="#0065FF"/>
<path d="M21.6082 21.2539L23.4905 20.5639C23.9467 20.3959 24.4584 20.5639 24.7282 20.9739C25.345 21.9079 26.3348 22.5059 27.4416 22.6179C28.4472 22.7139 29.3635 22.4039 30.1034 21.8059C30.8194 22.3379 31.8528 22.6679 33.0548 22.6679C35.3159 22.6679 37.0217 21.5219 37.0217 20.0019C37.0217 18.4819 35.3159 17.3359 33.0548 17.3359C30.7262 17.3359 29.8733 18.3239 28.5503 19.6579C28.2429 19.9679 27.8859 19.9839 27.6994 19.9639C27.513 19.9459 27.1659 19.8599 26.9259 19.4959C25.9758 18.0579 24.1887 17.4679 22.5821 18.0579L20.6997 18.7479C20.0135 18.9999 19.6604 19.7639 19.9083 20.4559C20.1642 21.1479 20.9219 21.5019 21.6082 21.2539V21.2539Z" fill="#0065FF"/>
</g>
<defs>
<clipPath id="clip0_0_7977">
<rect width="63.4711" height="64" fill="white"/>
</clipPath>
</defs>
</svg>
