<svg width="40" height="40" viewBox="0 0 40 40" fill="none" xmlns="http://www.w3.org/2000/svg">
<path d="M24.6875 35.625L15.3125 38.75V22.5L24.6875 19.375V35.625Z" fill="white"/>
<path d="M15.3125 38.75L5.9375 35.625V19.375L15.3125 22.5V38.75Z" fill="#00E1F0"/>
<path d="M34.0625 38.75L24.6875 35.625V19.375L34.0625 22.5V38.75Z" fill="#00E1F0"/>
<path d="M32.8125 13.75C32.8125 24.25 20.3125 28.75 20.3125 28.75C20.3125 28.75 7.8125 24.25 7.8125 13.75C7.8125 10.4348 9.12946 7.25537 11.4737 4.91117C13.8179 2.56696 16.9973 1.25 20.3125 1.25C23.6277 1.25 26.8071 2.56696 29.1513 4.91117C31.4955 7.25537 32.8125 10.4348 32.8125 13.75V13.75Z" fill="white"/>
<path d="M27.1875 13.75H13.4375L15.8637 8.75H24.7613L27.1875 13.75Z" fill="#F7F9FA"/>
<path d="M15.9375 13.75H24.6875V18.75H15.9375V13.75Z" fill="#F7F9FA"/>
<path d="M28.3123 13.2028L25.8859 8.20325C25.7835 7.99213 25.6237 7.8141 25.4248 7.68955C25.2259 7.56501 24.996 7.49896 24.7613 7.49899H23.7503V6.87402C23.7503 6.5425 23.6186 6.22456 23.3842 5.99014C23.1497 5.75572 22.8318 5.62402 22.5003 5.62402C22.1688 5.62402 21.8508 5.75572 21.6164 5.99014C21.382 6.22456 21.2503 6.5425 21.2503 6.87402V7.49899H15.8642C15.6296 7.49896 15.3996 7.565 15.2008 7.68955C15.0019 7.8141 14.8421 7.99213 14.7397 8.20325L12.3132 13.2028C12.2232 13.3935 12.1826 13.6039 12.1951 13.8144C12.2076 14.025 12.2728 14.2291 12.3848 14.4078C12.4968 14.5866 12.6519 14.7344 12.8359 14.8375C13.0199 14.9407 13.2269 14.996 13.4378 14.9983H14.6878V18.7479C14.6878 19.0794 14.8195 19.3973 15.0539 19.6317C15.2884 19.8661 15.6063 19.9978 15.9378 19.9978H24.6878C25.0193 19.9978 25.3372 19.8661 25.5716 19.6317C25.806 19.3973 25.9377 19.0794 25.9378 18.7479V14.9983H27.1878C27.3987 14.996 27.6057 14.9407 27.7897 14.8375C27.9736 14.7344 28.1288 14.5866 28.2407 14.4078C28.3527 14.2291 28.4179 14.025 28.4304 13.8144C28.443 13.6039 28.4024 13.3935 28.3123 13.2028V13.2028ZM23.4378 17.498H17.1878V14.9983H23.4378V17.498ZM15.4339 12.4985L16.647 9.99872H21.4237C21.5321 10.1886 21.6888 10.3464 21.8779 10.4561C22.0669 10.5659 22.2817 10.6237 22.5003 10.6237C22.7189 10.6237 22.9336 10.5659 23.1227 10.4561C23.3118 10.3464 23.4684 10.1886 23.5769 9.99872H23.9785L25.1916 12.4985H15.4339Z" fill="#0F62F9"/>
<path d="M34.4571 21.3119L32.2821 20.5881C33.4547 18.4996 34.068 16.1437 34.0625 13.7485C34.0527 11.7425 33.6041 9.7628 32.7481 7.94848C31.8921 6.13416 30.6495 4.52912 29.1074 3.24597C27.5653 1.96282 25.7611 1.03264 23.8214 0.520694C21.8817 0.00874928 19.8535 -0.0725607 17.8791 0.282469C15.9046 0.637499 14.0318 1.42027 12.3919 2.57586C10.7521 3.73145 9.38496 5.23186 8.38648 6.97184C7.38799 8.71182 6.78233 10.6492 6.612 12.6481C6.44166 14.6469 6.71076 16.6589 7.40044 18.5427L6.33209 18.1872C6.14427 18.1266 5.94483 18.1111 5.74989 18.1418C5.55494 18.1726 5.36996 18.2487 5.20989 18.3642C5.04981 18.4796 4.91912 18.631 4.82837 18.8063C4.73763 18.9815 4.68937 19.1757 4.6875 19.373V35.6214C4.68752 35.8838 4.77008 36.1395 4.9235 36.3523C5.07692 36.5651 5.2934 36.7243 5.5423 36.8072L14.9173 39.9319C15.174 40.0163 15.451 40.0163 15.7077 39.9319L24.6875 36.9389L33.6673 39.9319C33.8552 39.9925 34.0546 40.0081 34.2496 39.9774C34.4446 39.9467 34.6297 39.8705 34.7898 39.7551C34.9499 39.6397 35.0807 39.4882 35.1715 39.313C35.2623 39.1377 35.3106 38.9435 35.3125 38.7461V22.4977C35.3125 22.2353 35.2299 21.9795 35.0763 21.7666C34.9228 21.5538 34.7061 21.3947 34.4571 21.3119V21.3119ZM14.0625 37.012L7.1875 34.7206V21.1062L9.02775 21.7184C10.3929 23.6865 12.0978 25.3954 14.0625 26.7652V37.012ZM23.4375 34.7206L16.5625 37.012V28.3533C17.6296 28.9609 18.7418 29.4857 19.8892 29.9231C20.1628 30.0215 20.4622 30.0215 20.7358 29.9231C21.6619 29.5714 22.5644 29.1602 23.4375 28.6922V34.7206ZM20.3125 27.4014C18.2138 26.5189 9.0625 22.1855 9.0625 13.7485C9.0625 10.7649 10.2478 7.90337 12.3575 5.79359C14.4673 3.68381 17.3288 2.49854 20.3125 2.49854C23.2962 2.49854 26.1577 3.68381 28.2675 5.79359C30.3772 7.90337 31.5625 10.7649 31.5625 13.7485C31.5625 22.1861 22.4097 26.5198 20.3125 27.4014ZM32.8125 37.012L25.9375 34.7206V27.1994C27.7931 25.9762 29.4482 24.4733 30.8441 22.7439L32.8125 23.3991V37.012Z" fill="#0F62F9"/>
<path d="M9.68701 31.8705C9.68699 32.1178 9.76031 32.3596 9.8977 32.5653C10.0351 32.7709 10.2304 32.9312 10.4589 33.0259C10.6874 33.1206 10.9388 33.1453 11.1814 33.0971C11.424 33.0489 11.6468 32.9298 11.8217 32.7549C11.9966 32.58 12.1157 32.3572 12.164 32.1146C12.2122 31.872 12.1875 31.6206 12.0928 31.3921C11.9982 31.1636 11.8379 30.9683 11.6322 30.8309C11.4266 30.6935 11.1848 30.6201 10.9375 30.6201C10.6061 30.6211 10.2886 30.7531 10.0543 30.9874C9.82003 31.2217 9.68798 31.5392 9.68701 31.8705V31.8705Z" fill="#0F62F9"/>
</svg>
