<svg width="24" height="24" viewBox="0 0 24 24" fill="none" xmlns="http://www.w3.org/2000/svg">
<path d="M12 22C17.5228 22 22 17.5228 22 12C22 6.47715 17.5228 2 12 2C6.47715 2 2 6.47715 2 12C2 17.5228 6.47715 22 12 22Z" fill="#6DA544"/>
<path d="M12.0001 5.91309L20.261 12L12.0001 18.087L3.73926 12L12.0001 5.91309Z" fill="#FFDA44"/>
<path d="M11.9997 15.478C13.9207 15.478 15.478 13.9207 15.478 11.9997C15.478 10.0787 13.9207 8.52148 11.9997 8.52148C10.0787 8.52148 8.52148 10.0787 8.52148 11.9997C8.52148 13.9207 10.0787 15.478 11.9997 15.478Z" fill="#F0F0F0"/>
<path d="M10.2605 11.7822C9.65562 11.7822 9.07191 11.8742 8.52246 12.0449C8.5468 13.9449 10.0938 15.4779 11.9996 15.4779C13.178 15.4779 14.2188 14.8913 14.848 13.9948C13.7716 12.6472 12.1153 11.7822 10.2605 11.7822V11.7822Z" fill="#0052B4"/>
<path d="M15.4138 12.6661C15.4557 12.4504 15.4783 12.2277 15.4783 11.9997C15.4783 10.0787 13.921 8.52148 12 8.52148C10.5667 8.52148 9.33621 9.38871 8.80371 10.6269C9.27441 10.5294 9.76176 10.478 10.2609 10.478C12.2811 10.478 14.1087 11.3177 15.4138 12.6661V12.6661Z" fill="#0052B4"/>
</svg>
