<svg width="98" height="48" viewBox="0 0 98 48" fill="none" xmlns="http://www.w3.org/2000/svg">
<rect x="0.5" y="0.5" width="97" height="47" rx="11.5" stroke="#E5E5E5"/>
<g clip-path="url(#clip0_521_5094)">
<path d="M57.4531 22.3555H50.0117C49.6836 22.3555 49.418 22.6211 49.418 22.9492V25.3281C49.418 25.6562 49.6836 25.9219 50.0117 25.9219H54.2031C53.7461 27.1133 52.8867 28.1094 51.7969 28.7422L53.582 31.8359C56.4453 30.1797 58.1406 27.2695 58.1406 24.0156C58.1406 23.5508 58.1055 23.2187 58.0391 22.8476C57.9844 22.5625 57.7383 22.3555 57.4531 22.3555V22.3555Z" fill="#167EE6"/>
<path d="M49.0195 29.4922C46.9687 29.4922 45.1797 28.3711 44.2187 26.7148L41.125 28.4961C42.6992 31.2266 45.6484 33.0625 49.0195 33.0625C50.6758 33.0625 52.2344 32.6172 53.582 31.8398V31.8359L51.7969 28.7422C50.9766 29.2187 50.0312 29.4922 49.0195 29.4922V29.4922Z" fill="#12B347"/>
<path d="M53.5781 31.8398V31.8359L51.793 28.7422C50.9766 29.2148 50.0313 29.4922 49.0195 29.4922V33.0625C50.6758 33.0625 52.2344 32.6172 53.5781 31.8398Z" fill="#0F993E"/>
<path d="M43.4687 23.9414C43.4687 22.9297 43.7461 21.9844 44.2187 21.168L41.125 19.3867C40.3438 20.7265 39.8984 22.2812 39.8984 23.9414C39.8984 25.6015 40.3438 27.1562 41.125 28.4961L44.2187 26.7148C43.7422 25.8984 43.4687 24.9531 43.4687 23.9414V23.9414Z" fill="#FFD500"/>
<path d="M49.0195 18.3906C50.3555 18.3906 51.5859 18.8672 52.543 19.6563C52.7813 19.8516 53.125 19.8359 53.3398 19.6211L55.0234 17.9375C55.2695 17.6914 55.25 17.2891 54.9883 17.0625C53.3828 15.6641 51.293 14.8203 49.0195 14.8203C45.6484 14.8203 42.6992 16.6562 41.125 19.3867L44.2188 21.168C45.1797 19.5117 46.9688 18.3906 49.0195 18.3906Z" fill="#FF4B26"/>
<path d="M52.543 19.6563C52.7813 19.8516 53.125 19.8359 53.3398 19.6211L55.0234 17.9375C55.2695 17.6914 55.25 17.2891 54.9883 17.0625C53.3828 15.6641 51.293 14.8203 49.0195 14.8203V18.3906C50.3555 18.3906 51.5859 18.8633 52.543 19.6563Z" fill="#D93F21"/>
</g>
<defs>
<clipPath id="clip0_521_5094">
<rect width="20" height="20" fill="white" transform="translate(39 14)"/>
</clipPath>
</defs>
</svg>
