<svg width="64" height="64" viewBox="0 0 64 64" fill="none" xmlns="http://www.w3.org/2000/svg">
<g clip-path="url(#clip0_0_8013)">
<path d="M51.5703 64H11.9008C5.3276 64 0 58.628 0 52V12C0 5.372 5.3276 0 11.9008 0H51.5703C58.1435 0 63.4711 5.372 63.4711 12V52C63.4711 58.628 58.1435 64 51.5703 64Z" fill="#F2F6FE"/>
<path d="M42.3129 42.6658C41.9737 42.6658 41.6366 42.5358 41.3787 42.2758L40.0557 40.9418C39.54 40.4218 39.54 39.5778 40.0557 39.0558C40.5714 38.5338 41.4085 38.5358 41.9261 39.0558L43.2491 40.3898C43.7648 40.9098 43.7648 41.7538 43.2491 42.2758C42.9893 42.5358 42.6521 42.6658 42.3129 42.6658Z" fill="#0065FF"/>
<path d="M43.6362 37.334H42.3132C41.5833 37.334 40.9902 36.736 40.9902 36C40.9902 35.264 41.5833 34.666 42.3132 34.666H43.6362C44.3661 34.666 44.9592 35.264 44.9592 36C44.9592 36.736 44.3661 37.334 43.6362 37.334Z" fill="#0065FF"/>
<path d="M37.0251 44C36.2932 44 35.7021 43.404 35.7021 42.666V41.332C35.7021 40.598 36.2932 40 37.0251 40C37.757 40 38.3481 40.598 38.3481 41.334V42.668C38.3461 43.404 37.755 44 37.0251 44Z" fill="#0065FF"/>
<path d="M37.6168 33.3319C37.468 33.3319 37.3153 33.3259 37.1606 33.3119C34.8717 33.1139 33.2531 32.1339 32.2098 30.3159C31.593 29.2439 31.6882 28.3759 31.8766 27.8359C32.067 27.2879 32.545 26.5359 33.7312 26.0719C36.5755 24.9599 37.8231 23.0059 37.6584 19.9239C37.589 18.6299 38.1245 17.7159 39.2968 17.1299C40.7407 16.4059 42.268 16.1559 43.2895 16.0299C44.4201 15.8919 45.3662 16.2439 45.8879 16.9979C46.4115 17.7539 46.4155 18.7759 45.8958 19.8039C45.386 20.8099 44.7969 21.7699 44.2257 22.7019L43.704 23.5539C42.2264 26.0039 41.3854 28.1399 41.0601 30.2799C40.7586 32.2399 39.515 33.3319 37.6168 33.3319V33.3319Z" fill="#0065FF"/>
<path d="M21.4994 48C20.8508 48 20.2637 47.956 19.7837 47.91C18.5916 47.796 17.703 47.226 17.348 46.348C17.0028 45.492 17.227 44.496 17.9648 43.616C18.7027 42.736 19.5139 41.918 20.2994 41.128L21.0174 40.402C23.0604 38.314 24.3774 36.392 25.1648 34.356C25.9404 32.354 27.6124 31.578 29.7566 32.232C32.0475 32.93 33.4934 34.25 34.1777 36.266C34.5804 37.448 34.3106 38.282 34.0131 38.774C33.7037 39.284 33.059 39.932 31.7361 40.126C28.5546 40.592 26.8488 42.242 26.3648 45.32C26.1605 46.616 25.4207 47.4 24.1017 47.716C23.1992 47.932 22.3027 48 21.4994 48V48Z" fill="#00E1F0"/>
</g>
<defs>
<clipPath id="clip0_0_8013">
<rect width="63.4711" height="64" fill="white"/>
</clipPath>
</defs>
</svg>
