<svg width="16" height="16" viewBox="0 0 16 16" fill="none" xmlns="http://www.w3.org/2000/svg">
<path d="M11 5.5V2.5C11 1.673 10.327 1 9.5 1H6.5C5.673 1 5 1.673 5 2.5V5.5C5 7.1545 6.3455 8.5 8 8.5C9.6545 8.5 11 7.1545 11 5.5ZM6 2.5C6 2.2245 6.2245 2 6.5 2H9.5C9.7755 2 10 2.2245 10 2.5V3H6V2.5ZM6 5.5V4H10V5.5C10 5.5895 9.985 5.675 9.9735 5.7615C9.433 5.282 8.7345 5 8 5C7.2655 5 6.567 5.282 6.0265 5.7615C6.015 5.675 6 5.5895 6 5.5ZM8 6C8.611 6 9.1705 6.277 9.5475 6.751C9.1805 7.204 8.627 7.5 8 7.5C7.373 7.5 6.8195 7.204 6.4525 6.751C6.8295 6.277 7.389 6 8 6V6Z" fill="#112950"/>
<path d="M11.5 9H4.5C3.1215 9 2 10.1215 2 11.5V14.5C2 14.776 2.224 15 2.5 15H13.5C13.776 15 14 14.776 14 14.5V11.5C14 10.1215 12.8785 9 11.5 9ZM13 14H3V11.5C3 10.673 3.673 10 4.5 10H5.5V10.571C4.64 10.7945 4 11.571 4 12.5V13C4 13.276 4.224 13.5 4.5 13.5H5C5.276 13.5 5.5 13.276 5.5 13C5.5 12.724 5.276 12.5 5 12.5C5 11.9485 5.4485 11.5 6 11.5C6.5515 11.5 7 11.9485 7 12.5C6.724 12.5 6.5 12.724 6.5 13C6.5 13.276 6.724 13.5 7 13.5H7.5C7.776 13.5 8 13.276 8 13V12.5C8 11.571 7.36 10.7945 6.5 10.571V10H10V11.1385C9.7025 11.3115 9.5 11.6305 9.5 12C9.5 12.5525 9.9475 13 10.5 13C11.0525 13 11.5 12.5525 11.5 12C11.5 11.631 11.2975 11.312 11 11.1385V10H11.5C12.327 10 13 10.673 13 11.5V14Z" fill="#112950"/>
</svg>
