<svg width="60" height="24" viewBox="0 0 60 24" fill="none" xmlns="http://www.w3.org/2000/svg">
<path d="M52.3641 6.86985C52.3641 4.48385 50.4301 2.54985 48.0441 2.54985C45.6581 2.53885 43.7161 4.46485 43.7051 6.85085V6.86985" stroke="white" stroke-width="1.5" stroke-linecap="round" stroke-linejoin="round"/>
<path d="M50.9732 11.3735H50.9272" stroke="white" stroke-width="1.5" stroke-linecap="round" stroke-linejoin="round"/>
<path d="M45.1421 11.3735H45.0961" stroke="white" stroke-width="1.5" stroke-linecap="round" stroke-linejoin="round"/>
<path fill-rule="evenodd" clip-rule="evenodd" d="M48.0344 21.4897C41.5264 21.4897 40.7774 19.4397 39.3164 14.0227C37.8504 8.58866 40.7914 6.55566 48.0344 6.55566C55.2774 6.55566 58.2184 8.58866 56.7524 14.0227C55.2914 19.4397 54.5424 21.4897 48.0344 21.4897Z" stroke="white" stroke-width="1.5" stroke-linecap="round" stroke-linejoin="round"/>
<path d="M21.7555 20.6065L18.3182 17.2458V17.2458L18.2376 17.1233C18.0878 16.9742 17.883 16.8902 17.6692 16.8902C17.4554 16.8902 17.2505 16.9742 17.1007 17.1233V17.1233C14.1795 19.8033 9.67815 19.949 6.58201 17.4637C3.48586 14.9784 2.75567 10.6334 4.87568 7.31017C6.9957 3.98697 11.3081 2.71685 14.9528 4.34214C18.5976 5.96743 20.4438 9.98379 19.267 13.7276C19.1823 13.9981 19.2515 14.2922 19.4487 14.4992C19.6459 14.7062 19.9411 14.7946 20.223 14.7311C20.505 14.6676 20.7309 14.4619 20.8156 14.1914V14.1914C22.2224 9.74864 20.0977 4.96755 15.8161 2.94106C11.5345 0.914562 6.38084 2.25082 3.68905 6.08542C0.99727 9.92001 1.57518 15.1021 5.04893 18.2795C8.52268 21.4569 13.8498 21.6759 17.5841 18.7949L20.6277 21.7705C20.942 22.0765 21.4502 22.0765 21.7645 21.7705C22.0785 21.4602 22.0785 20.9606 21.7645 20.6503V20.6503L21.7555 20.6065Z" fill="white"/>
</svg>
