<svg width="24" height="24" viewBox="0 0 24 24" fill="none" xmlns="http://www.w3.org/2000/svg">
<path d="M23.9996 11.9998C23.9996 15.9617 20.7996 19.1998 16.7996 19.1998C12.8377 19.1998 9.59961 15.9617 9.59961 11.9998C9.59961 8.0379 12.7996 4.7998 16.7615 4.7998C20.7996 4.7998 23.9996 8.0379 23.9996 11.9998Z" fill="#FFB600"/>
<path d="M16.7996 4.7998C20.7615 4.7998 23.9996 8.0379 23.9996 11.9998C23.9996 15.9617 20.7996 19.1998 16.7996 19.1998C12.8377 19.1998 9.59961 15.9617 9.59961 11.9998" fill="#F7981D"/>
<path d="M16.7998 4.7998C20.7617 4.7998 23.9998 8.0379 23.9998 11.9998C23.9998 15.9617 20.7998 19.1998 16.7998 19.1998" fill="#FF8500"/>
<path d="M7.12381 4.7998C3.2 4.8379 0 8.0379 0 11.9998C0 15.9617 3.2 19.1998 7.2 19.1998C9.06667 19.1998 10.7429 18.476 12.0381 17.3331C12.3048 17.1046 12.5333 16.8379 12.7619 16.5712H11.2762C11.0857 16.3427 10.8952 16.076 10.7429 15.8474H13.2952C13.4476 15.6189 13.6 15.3522 13.7143 15.0855H10.3238C10.2095 14.8569 10.0952 14.5903 10.019 14.3236H13.981C14.2095 13.5998 14.3619 12.8379 14.3619 12.0379C14.3619 11.5046 14.2857 11.0093 14.2095 10.5141H9.79048C9.82857 10.2474 9.90476 10.0189 9.98095 9.75219H13.9429C13.8667 9.48552 13.7524 9.21885 13.6381 8.99028H10.2857C10.4 8.72361 10.5524 8.49504 10.7048 8.22838H13.2571C13.1048 7.96171 12.9143 7.69504 12.6857 7.46647H11.2762C11.5048 7.1998 11.7333 6.97123 12 6.74266C10.7429 5.56171 9.02857 4.876 7.1619 4.876C7.1619 4.7998 7.1619 4.7998 7.12381 4.7998Z" fill="#FF5050"/>
<path d="M0 11.9998C0 15.9617 3.2 19.1998 7.2 19.1998C9.06667 19.1998 10.7429 18.476 12.0381 17.3331C12.3048 17.1045 12.5333 16.8379 12.7619 16.5712H11.2762C11.0857 16.3426 10.8952 16.076 10.7429 15.8474H13.2952C13.4476 15.6188 13.6 15.3522 13.7143 15.0855H10.3238C10.2095 14.8569 10.0952 14.5903 10.019 14.3236H13.981C14.2095 13.5998 14.3619 12.8379 14.3619 12.0379C14.3619 11.5045 14.2857 11.0093 14.2095 10.5141H9.79048C9.82857 10.2474 9.90476 10.0188 9.98095 9.75217H13.9429C13.8667 9.4855 13.7524 9.21883 13.6381 8.99026H10.2857C10.4 8.7236 10.5524 8.49502 10.7048 8.22836H13.2571C13.1048 7.96169 12.9143 7.69502 12.6857 7.46645H11.2762C11.5048 7.19979 11.7333 6.97121 12 6.74264C10.7429 5.56169 9.02857 4.87598 7.1619 4.87598H7.12381" fill="#E52836"/>
<path d="M7.20021 19.1998C9.06688 19.1998 10.7431 18.476 12.0383 17.3331C12.305 17.1045 12.5335 16.8379 12.7621 16.5712H11.2764C11.0859 16.3426 10.8955 16.076 10.7431 15.8474H13.2955C13.4478 15.6188 13.6002 15.3522 13.7145 15.0855H10.324C10.2097 14.8569 10.0955 14.5903 10.0193 14.3236H13.9812C14.2097 13.5998 14.3621 12.8379 14.3621 12.0379C14.3621 11.5045 14.2859 11.0093 14.2097 10.5141H9.79069C9.82879 10.2474 9.90498 10.0188 9.98117 9.75217H13.9431C13.8669 9.4855 13.7526 9.21883 13.6383 8.99026H10.2859C10.4002 8.7236 10.5526 8.49502 10.705 8.22836H13.2574C13.105 7.96169 12.9145 7.69502 12.6859 7.46645H11.2764C11.505 7.19979 11.7335 6.97121 12.0002 6.74264C10.7431 5.56169 9.02878 4.87598 7.16212 4.87598H7.12402" fill="#CB2026"/>
<path d="M9.75222 13.828L9.86651 13.1803C9.82841 13.1803 9.75222 13.2184 9.67603 13.2184C9.40937 13.2184 9.37127 13.0661 9.40937 12.9899L9.63794 11.6565H10.057L10.1713 10.9327H9.79032L9.86651 10.4756H9.1046C9.1046 10.4756 8.64746 12.9899 8.64746 13.2946C8.64746 13.7518 8.91413 13.9423 9.25698 13.9423C9.48556 13.9423 9.67603 13.8661 9.75222 13.828Z" fill="white"/>
<path d="M10.0186 12.6088C10.0186 13.6754 10.7424 13.9421 11.3519 13.9421C11.9233 13.9421 12.1519 13.8278 12.1519 13.8278L12.3043 13.104C12.3043 13.104 11.8852 13.2945 11.5043 13.2945C10.6662 13.2945 10.8186 12.6849 10.8186 12.6849H12.3805C12.3805 12.6849 12.4947 12.1897 12.4947 11.9992C12.4947 11.504 12.2281 10.8945 11.39 10.8945C10.59 10.8183 10.0186 11.6564 10.0186 12.6088ZM11.3519 11.504C11.7709 11.504 11.6947 11.9992 11.6947 12.0373H10.8567C10.8567 11.9992 10.9328 11.504 11.3519 11.504Z" fill="white"/>
<path d="M16.19 13.828L16.3423 12.9899C16.3423 12.9899 15.9614 13.1804 15.6947 13.1804C15.1614 13.1804 14.9328 12.7614 14.9328 12.3042C14.9328 11.39 15.39 10.8947 15.9233 10.8947C16.3042 10.8947 16.609 11.1233 16.609 11.1233L16.7233 10.3233C16.7233 10.3233 16.2662 10.1328 15.8471 10.1328C14.9709 10.1328 14.0947 10.8947 14.0947 12.3423C14.0947 13.2947 14.5519 13.9423 15.4662 13.9423C15.7709 13.9423 16.19 13.828 16.19 13.828Z" fill="white"/>
<path d="M5.56187 10.8184C5.02854 10.8184 4.64759 10.9707 4.64759 10.9707L4.5333 11.6184C4.5333 11.6184 4.87616 11.466 5.3714 11.466C5.63806 11.466 5.86663 11.5041 5.86663 11.7326C5.86663 11.885 5.82854 11.9231 5.82854 11.9231C5.82854 11.9231 5.59997 11.9231 5.48568 11.9231C4.83806 11.9231 4.11426 12.1898 4.11426 13.066C4.11426 13.7517 4.5714 13.9041 4.83806 13.9041C5.3714 13.9041 5.59997 13.5612 5.63806 13.5612L5.59997 13.866H6.28568L6.59044 11.7707C6.59044 10.8565 5.82854 10.8184 5.56187 10.8184ZM5.71425 12.5326C5.71425 12.6469 5.63806 13.2564 5.18092 13.2564C4.95235 13.2564 4.87616 13.066 4.87616 12.9517C4.87616 12.7612 4.99045 12.4945 5.56187 12.4945C5.67616 12.5326 5.71425 12.5326 5.71425 12.5326Z" fill="white"/>
<path d="M7.31369 13.9041C7.50417 13.9041 8.45655 13.9422 8.45655 12.9136C8.45655 11.9612 7.54226 12.1517 7.54226 11.7707C7.54226 11.5803 7.69464 11.5041 7.96131 11.5041C8.0756 11.5041 8.49464 11.5422 8.49464 11.5422L8.60893 10.8565C8.60893 10.8565 8.34226 10.7803 7.88512 10.7803C7.31369 10.7803 6.74226 11.0088 6.74226 11.7707C6.74226 12.6469 7.69464 12.5707 7.69464 12.9136C7.69464 13.1422 7.42798 13.1803 7.2375 13.1803C6.89464 13.1803 6.55179 13.066 6.55179 13.066L6.4375 13.7517C6.4756 13.8279 6.66607 13.9041 7.31369 13.9041Z" fill="white"/>
<path d="M22.5142 10.209L22.3618 11.2376C22.3618 11.2376 22.0571 10.8566 21.638 10.8566C20.9523 10.8566 20.3428 11.6947 20.3428 12.6852C20.3428 13.2947 20.6475 13.9423 21.2952 13.9423C21.7523 13.9423 22.019 13.6376 22.019 13.6376L21.9809 13.9042H22.7428L23.3142 10.2471L22.5142 10.209ZM22.1713 12.228C22.1713 12.6471 21.9809 13.1804 21.5618 13.1804C21.2952 13.1804 21.1428 12.9518 21.1428 12.5709C21.1428 11.9614 21.4094 11.5804 21.7523 11.5804C22.019 11.5804 22.1713 11.7709 22.1713 12.228Z" fill="white"/>
<path d="M1.40936 13.8661L1.8665 11.1233L1.94269 13.8661H2.47602L3.4665 11.1233L3.04745 13.8661H3.84745L4.45698 10.209H3.19983L2.43793 12.4566L2.39983 10.209H1.29507L0.685547 13.8661H1.40936Z" fill="white"/>
<path d="M13.219 13.8659C13.4475 12.6088 13.4856 11.5802 14.019 11.7707C14.0951 11.2755 14.2094 11.085 14.2856 10.8945C14.2856 10.8945 14.2475 10.8945 14.1332 10.8945C13.7904 10.8945 13.5237 11.3517 13.5237 11.3517L13.5999 10.9326H12.8761L12.3809 13.904H13.219V13.8659Z" fill="white"/>
<path d="M17.9427 10.8184C17.4094 10.8184 17.0285 10.9707 17.0285 10.9707L16.9142 11.6184C16.9142 11.6184 17.257 11.466 17.7523 11.466C18.0189 11.466 18.2475 11.5041 18.2475 11.7326C18.2475 11.885 18.2094 11.9231 18.2094 11.9231C18.2094 11.9231 17.9808 11.9231 17.8665 11.9231C17.2189 11.9231 16.4951 12.1898 16.4951 13.066C16.4951 13.7517 16.9523 13.9041 17.2189 13.9041C17.7523 13.9041 17.9808 13.5612 18.0189 13.5612L17.9808 13.866H18.6666L18.9713 11.7707C19.0094 10.8565 18.2094 10.8184 17.9427 10.8184ZM18.1332 12.5326C18.1332 12.6469 18.057 13.2564 17.5999 13.2564C17.3713 13.2564 17.2951 13.066 17.2951 12.9517C17.2951 12.7612 17.4094 12.4945 17.9808 12.4945C18.0951 12.5326 18.0951 12.5326 18.1332 12.5326Z" fill="white"/>
<path d="M19.6193 13.8659C19.8479 12.6088 19.886 11.5802 20.4193 11.7707C20.4955 11.2755 20.6098 11.085 20.686 10.8945C20.686 10.8945 20.6479 10.8945 20.5336 10.8945C20.1908 10.8945 19.9241 11.3517 19.9241 11.3517L20.0003 10.9326H19.2765L18.7812 13.904H19.6193V13.8659Z" fill="white"/>
<path d="M8.57129 13.2946C8.57129 13.7518 8.83796 13.9423 9.18081 13.9423C9.44748 13.9423 9.67605 13.8661 9.75224 13.828L9.86653 13.1803C9.82843 13.1803 9.75224 13.2184 9.67605 13.2184C9.40938 13.2184 9.37129 13.0661 9.40938 12.9899L9.63796 11.6565H10.057L10.1713 10.9327H9.79034L9.86653 10.4756" fill="#DCE5E5"/>
<path d="M10.3994 12.6088C10.3994 13.6754 10.7423 13.9421 11.3518 13.9421C11.9232 13.9421 12.1518 13.8278 12.1518 13.8278L12.3042 13.104C12.3042 13.104 11.8851 13.2945 11.5042 13.2945C10.6661 13.2945 10.8185 12.6849 10.8185 12.6849H12.3804C12.3804 12.6849 12.4947 12.1897 12.4947 11.9992C12.4947 11.504 12.228 10.8945 11.3899 10.8945C10.5899 10.8183 10.3994 11.6564 10.3994 12.6088ZM11.3518 11.504C11.7708 11.504 11.847 11.9992 11.847 12.0373H10.8566C10.8566 11.9992 10.9327 11.504 11.3518 11.504Z" fill="#DCE5E5"/>
<path d="M16.1899 13.828L16.3423 12.9899C16.3423 12.9899 15.9613 13.1804 15.6946 13.1804C15.1613 13.1804 14.9327 12.7614 14.9327 12.3042C14.9327 11.39 15.3899 10.8947 15.9232 10.8947C16.3042 10.8947 16.6089 11.1233 16.6089 11.1233L16.7232 10.3233C16.7232 10.3233 16.2661 10.1328 15.847 10.1328C14.9708 10.1328 14.4756 10.8947 14.4756 12.3423C14.4756 13.2947 14.5518 13.9423 15.4661 13.9423C15.7708 13.9423 16.1899 13.828 16.1899 13.828Z" fill="#DCE5E5"/>
<path d="M4.5333 11.6564C4.5333 11.6564 4.87616 11.5041 5.3714 11.5041C5.63806 11.5041 5.86663 11.5421 5.86663 11.7707C5.86663 11.9231 5.82854 11.9612 5.82854 11.9612C5.82854 11.9612 5.59997 11.9612 5.48568 11.9612C4.83806 11.9612 4.11426 12.2279 4.11426 13.104C4.11426 13.7898 4.5714 13.9421 4.83806 13.9421C5.3714 13.9421 5.59997 13.5993 5.63806 13.5993L5.59997 13.904H6.28568L6.59044 11.8088C6.59044 10.9326 5.82854 10.8945 5.52378 10.8945L4.5333 11.6564ZM6.0952 12.5326C6.0952 12.6469 5.63806 13.2564 5.18092 13.2564C4.95235 13.2564 4.87616 13.0659 4.87616 12.9517C4.87616 12.7612 4.99045 12.4945 5.56187 12.4945C5.67616 12.5326 6.0952 12.5326 6.0952 12.5326Z" fill="#DCE5E5"/>
<path d="M6.47559 13.8279C6.47559 13.8279 6.70416 13.9041 7.35178 13.9041C7.54225 13.9041 8.49463 13.9422 8.49463 12.9136C8.49463 11.9612 7.58035 12.1517 7.58035 11.7707C7.58035 11.5803 7.73273 11.5041 7.9994 11.5041C8.11368 11.5041 8.53273 11.5422 8.53273 11.5422L8.64701 10.8565C8.64701 10.8565 8.38035 10.7803 7.9232 10.7803C7.35178 10.7803 7.1613 11.0088 7.1613 11.7707C7.1613 12.6469 7.73273 12.5707 7.73273 12.9136C7.73273 13.1422 7.46606 13.1803 7.27559 13.1803" fill="#DCE5E5"/>
<path d="M22.3616 11.2375C22.3616 11.2375 22.0568 10.8566 21.6378 10.8566C20.952 10.8566 20.7235 11.6947 20.7235 12.6852C20.7235 13.2947 20.6473 13.9423 21.2949 13.9423C21.752 13.9423 22.0187 13.6375 22.0187 13.6375L21.9806 13.9042H22.7425L23.3139 10.2471L22.3616 11.2375ZM22.3235 12.228C22.3235 12.6471 21.9806 13.1804 21.5616 13.1804C21.2949 13.1804 21.1425 12.9518 21.1425 12.5709C21.1425 11.9613 21.4092 11.5804 21.752 11.5804C22.0187 11.5804 22.3235 11.7709 22.3235 12.228Z" fill="#DCE5E5"/>
<path d="M1.40936 13.8661L1.8665 11.1233L1.94269 13.8661H2.47602L3.4665 11.1233L3.04745 13.8661H3.84745L4.45698 10.209H3.50459L2.43793 12.4566L2.39983 10.209H1.98078L0.685547 13.8661H1.40936Z" fill="#DCE5E5"/>
<path d="M12.4189 13.8659H13.2189C13.4475 12.6088 13.4856 11.5802 14.0189 11.7707C14.0951 11.2755 14.2094 11.085 14.2856 10.8945C14.2856 10.8945 14.2475 10.8945 14.1332 10.8945C13.7904 10.8945 13.5237 11.3517 13.5237 11.3517L13.5999 10.9326" fill="#DCE5E5"/>
<path d="M16.9142 11.6564C16.9142 11.6564 17.257 11.5041 17.7523 11.5041C18.0189 11.5041 18.2475 11.5421 18.2475 11.7707C18.2475 11.9231 18.2094 11.9612 18.2094 11.9612C18.2094 11.9612 17.9808 11.9612 17.8665 11.9612C17.2189 11.9612 16.4951 12.2279 16.4951 13.104C16.4951 13.7898 16.9523 13.9421 17.2189 13.9421C17.7523 13.9421 17.9808 13.5993 18.0189 13.5993L17.9808 13.904H18.6665L18.9713 11.8088C18.9713 10.9326 18.2094 10.8945 17.9046 10.8945L16.9142 11.6564ZM18.4761 12.5326C18.4761 12.6469 18.0189 13.2564 17.5618 13.2564C17.3332 13.2564 17.257 13.0659 17.257 12.9517C17.257 12.7612 17.3713 12.4945 17.9427 12.4945C18.0951 12.5326 18.4761 12.5326 18.4761 12.5326Z" fill="#DCE5E5"/>
<path d="M18.8193 13.8659H19.6193C19.8479 12.6088 19.886 11.5802 20.4193 11.7707C20.4955 11.2755 20.6098 11.085 20.686 10.8945C20.686 10.8945 20.6479 10.8945 20.5336 10.8945C20.1908 10.8945 19.9241 11.3517 19.9241 11.3517L20.0003 10.9326" fill="#DCE5E5"/>
</svg>
