<svg width="64" height="64" viewBox="0 0 64 64" fill="none" xmlns="http://www.w3.org/2000/svg">
<g clip-path="url(#clip0_0_7987)">
<path d="M51.5703 64H11.9008C5.3276 64 0 58.628 0 52V12C0 5.372 5.3276 0 11.9008 0H51.5703C58.1435 0 63.4711 5.372 63.4711 12V52C63.4711 58.628 58.1435 64 51.5703 64Z" fill="#F2F6FE"/>
<path d="M37.3545 28H35.6923L34.0996 24.79C33.8616 24.312 33.4946 23.936 33.0563 23.682V17.334C33.0583 16.596 32.4652 16 31.7353 16C31.0054 16 30.4123 16.598 30.4123 17.334V23.68C29.974 23.936 29.607 24.31 29.369 24.788L27.7783 28H25.7849C25.055 28 24.4619 28.598 24.4619 29.334C24.4619 30.07 25.055 30.668 25.7849 30.668H29.0913C29.8213 30.668 30.4143 31.266 30.4143 32.002V34.668V46.668C30.4123 47.404 31.0054 48 31.7353 48C32.4652 48 33.0583 47.402 33.0583 46.666V34.666V32C33.0583 31.264 33.6513 30.666 34.3813 30.666H37.3565C38.0864 30.666 38.6794 30.068 38.6794 29.332C38.6794 28.596 38.0864 28 37.3545 28V28ZM31.6778 26.1C31.6976 26.1 31.7155 26.112 31.7353 26.112C31.7551 26.112 31.773 26.102 31.7928 26.1L32.8837 28.3C32.4553 28.476 32.0725 28.732 31.7333 29.04C31.3941 28.732 31.0113 28.476 30.5829 28.3L31.6778 26.1Z" fill="#00E1F0"/>
<path d="M24.2142 41.334H24.0297C20.037 41.334 16.6869 38.24 16.0621 33.978C15.8003 32.188 15.8043 30.376 16.078 28.588C16.7186 24.386 20.1223 21.334 24.1745 21.334C25.4102 21.334 26.4793 21.934 27.1457 22.98C27.8697 24.116 27.9669 25.596 27.4016 26.846C26.035 29.866 26.035 32.802 27.4016 35.822C27.9669 37.07 27.8697 38.552 27.1457 39.688C26.4773 40.734 25.4102 41.334 24.2142 41.334V41.334ZM24.2142 24C21.4373 24 19.1305 26.098 18.6902 28.992C18.4581 30.516 18.4542 32.062 18.6763 33.588C19.1067 36.532 21.358 38.668 24.0277 38.668H24.2122C24.5732 38.668 24.7953 38.438 24.9163 38.246C25.1067 37.948 25.2257 37.446 24.9917 36.93C23.3117 33.218 23.3117 29.452 24.9917 25.74C25.2257 25.224 25.1067 24.722 24.9163 24.424C24.7973 24.23 24.5752 24 24.2142 24V24Z" fill="#0065FF"/>
<path d="M39.4415 41.334H39.2571C38.061 41.334 36.9939 40.734 36.3275 39.688C35.6035 38.552 35.5063 37.072 36.0716 35.822C37.4382 32.802 37.4382 29.866 36.0716 26.846C35.5063 25.598 35.6035 24.116 36.3275 22.98C36.9939 21.934 38.063 21.334 39.2571 21.334C43.349 21.334 46.7546 24.384 47.3953 28.588C47.667 30.376 47.6729 32.19 47.4111 33.978C46.7844 38.24 43.4343 41.334 39.4415 41.334ZM39.2987 24C38.8961 24 38.6759 24.23 38.5529 24.422C38.3625 24.72 38.2435 25.222 38.4776 25.738C40.1576 29.45 40.1576 33.216 38.4776 36.928C38.2435 37.444 38.3625 37.946 38.5529 38.244C38.6759 38.436 38.8981 38.666 39.2571 38.666H39.4415C42.1113 38.666 44.3625 36.53 44.7929 33.586C45.0171 32.062 45.0131 30.516 44.7791 28.99C44.3407 26.098 42.0339 24 39.2987 24V24Z" fill="#0065FF"/>
</g>
<defs>
<clipPath id="clip0_0_7987">
<rect width="63.4711" height="64" fill="white"/>
</clipPath>
</defs>
</svg>
