<svg width="108" height="48" viewBox="0 0 108 48" fill="none" xmlns="http://www.w3.org/2000/svg">
<rect x="60.5" y="0.5" width="47" height="47" rx="23.5" stroke="#F2F4F5"/>
<path d="M83.1439 29.8829H76.6714" stroke="#0065FF" stroke-width="1.5" stroke-linecap="round" stroke-linejoin="round"/>
<path fill-rule="evenodd" clip-rule="evenodd" d="M87.2051 29.8838C87.2051 31.9256 87.886 32.6056 89.9269 32.6056C91.9678 32.6056 92.6487 31.9256 92.6487 29.8838C92.6487 27.842 91.9678 27.162 89.9269 27.162C87.886 27.162 87.2051 27.842 87.2051 29.8838Z" stroke="#0065FF" stroke-width="1.5" stroke-linecap="round" stroke-linejoin="round"/>
<path d="M86.1768 19.3942H92.6484" stroke="#0065FF" stroke-width="1.5" stroke-linecap="round" stroke-linejoin="round"/>
<path fill-rule="evenodd" clip-rule="evenodd" d="M82.1154 19.3929C82.1154 17.352 81.4345 16.6711 79.3936 16.6711C77.3518 16.6711 76.6709 17.352 76.6709 19.3929C76.6709 21.4347 77.3518 22.1147 79.3936 22.1147C81.4345 22.1147 82.1154 21.4347 82.1154 19.3929Z" stroke="#0065FF" stroke-width="1.5" stroke-linecap="round" stroke-linejoin="round"/>
<rect x="0.5" y="0.5" width="47" height="47" rx="23.5" stroke="#F2F4F5"/>
<path fill-rule="evenodd" clip-rule="evenodd" d="M23.2758 14.7143C28.0034 14.7143 31.8367 18.5467 31.8367 23.2752C31.8367 28.0038 28.0034 31.8362 23.2758 31.8362C18.5472 31.8362 14.7148 28.0038 14.7148 23.2752C14.7148 18.5467 18.5472 14.7143 23.2758 14.7143Z" stroke="#0065FF" stroke-width="1.5" stroke-linecap="round" stroke-linejoin="round"/>
<path fill-rule="evenodd" clip-rule="evenodd" d="M31.8997 30.4876C32.6788 30.4876 33.3102 31.12 33.3102 31.8981C33.3102 32.6781 32.6788 33.3095 31.8997 33.3095C31.1207 33.3095 30.4883 32.6781 30.4883 31.8981C30.4883 31.12 31.1207 30.4876 31.8997 30.4876Z" stroke="#0065FF" stroke-width="1.5" stroke-linecap="round" stroke-linejoin="round"/>
</svg>
