<svg width="24" height="24" viewBox="0 0 24 24" fill="none" xmlns="http://www.w3.org/2000/svg">
<path d="M18.75 1.5H5.25C4.25544 1.5 3.30161 1.89509 2.59835 2.59835C1.89509 3.30161 1.5 4.25544 1.5 5.25V18.75C1.5 19.7446 1.89509 20.6984 2.59835 21.4017C3.30161 22.1049 4.25544 22.5 5.25 22.5H18.75C19.7446 22.5 20.6984 22.1049 21.4017 21.4017C22.1049 20.6984 22.5 19.7446 22.5 18.75V5.25C22.5 4.25544 22.1049 3.30161 21.4017 2.59835C20.6984 1.89509 19.7446 1.5 18.75 1.5V1.5ZM21 18.75C21 19.3467 20.7629 19.919 20.341 20.341C19.919 20.7629 19.3467 21 18.75 21H5.25C4.65326 21 4.08097 20.7629 3.65901 20.341C3.23705 19.919 3 19.3467 3 18.75V5.25C3 4.65326 3.23705 4.08097 3.65901 3.65901C4.08097 3.23705 4.65326 3 5.25 3H18.75C19.3467 3 19.919 3.23705 20.341 3.65901C20.7629 4.08097 21 4.65326 21 5.25V18.75ZM19.335 8.115C18.2926 6.89621 16.9977 5.91863 15.54 5.25C14.4201 4.7703 13.2145 4.52296 11.9962 4.52296C10.778 4.52296 9.57237 4.7703 8.4525 5.25C7.00958 5.93192 5.73054 6.91677 4.7025 8.1375C4.64091 8.21503 4.59528 8.30399 4.56825 8.39925C4.54122 8.49451 4.53332 8.59417 4.545 8.6925C4.55599 8.79038 4.58616 8.88513 4.63377 8.97135C4.68139 9.05757 4.74552 9.13357 4.8225 9.195L8.1975 11.8575C8.27868 11.9254 8.37408 11.9741 8.47665 12C8.57922 12.026 8.68631 12.0286 8.79 12.0075C8.89458 11.9894 8.99412 11.9492 9.08204 11.8897C9.16995 11.8303 9.24424 11.7528 9.3 11.6625C9.56843 11.1758 9.95808 10.7668 10.4311 10.4751C10.9042 10.1834 11.4446 10.0189 12 9.9975C12.5596 10.0102 13.1063 10.1683 13.5862 10.4563C14.0662 10.7442 14.463 11.1522 14.7375 11.64C14.7933 11.7303 14.8675 11.8078 14.9555 11.8672C15.0434 11.9267 15.1429 11.9669 15.2475 11.985C15.2896 11.9927 15.3329 11.9927 15.375 11.985C15.5442 11.984 15.708 11.9259 15.84 11.82L19.215 9.1575C19.292 9.09607 19.3561 9.02007 19.4037 8.93385C19.4513 8.84763 19.4815 8.75288 19.4925 8.655C19.512 8.46138 19.4556 8.26775 19.335 8.115V8.115ZM15.5175 10.1775C14.8147 9.331 13.8338 8.76208 12.75 8.5725V7.5C12.75 7.30109 12.671 7.11032 12.5303 6.96967C12.3897 6.82902 12.1989 6.75 12 6.75C11.8011 6.75 11.6103 6.82902 11.4697 6.96967C11.329 7.11032 11.25 7.30109 11.25 7.5V8.5725C10.1662 8.76208 9.18527 9.331 8.4825 10.1775L6.345 8.49C7.13197 7.7108 8.04802 7.07387 9.0525 6.6075C9.98415 6.20932 10.9868 6.00404 12 6.00404C13.0132 6.00404 14.0158 6.20932 14.9475 6.6075C15.952 7.07387 16.868 7.7108 17.655 8.49L15.5175 10.1775Z" fill="#0F62F9"/>
</svg>
