<svg width="98" height="72" viewBox="0 0 98 72" fill="none" xmlns="http://www.w3.org/2000/svg">
<rect x="0.5" y="0.5" width="97" height="71" rx="11.5" stroke="#E5E5E5"/>
<path fill-rule="evenodd" clip-rule="evenodd" d="M52.438 36.498C52.438 34.7612 51.0296 33.3528 49.2927 33.3528C47.5559 33.3528 46.1475 34.7612 46.1475 36.498C46.1475 38.2349 47.5559 39.6433 49.2927 39.6433C51.0296 39.6433 52.438 38.2349 52.438 36.498Z" stroke="#0F62F9" stroke-width="1.5" stroke-linecap="round" stroke-linejoin="round"/>
<path fill-rule="evenodd" clip-rule="evenodd" d="M49.2925 44.2001C57.3377 44.2001 58.2956 41.7895 58.2956 36.5664C58.2956 32.9053 57.8114 30.9464 54.7619 30.1043C54.4819 30.0159 54.1714 29.8474 53.9198 29.5706C53.5135 29.1253 53.2167 27.758 52.2356 27.3443C51.2546 26.9316 47.3146 26.9506 46.3493 27.3443C45.3851 27.739 45.0714 29.1253 44.6651 29.5706C44.4135 29.8474 44.104 30.0159 43.823 30.1043C40.7735 30.9464 40.2893 32.9053 40.2893 36.5664C40.2893 41.7895 41.2472 44.2001 49.2925 44.2001Z" stroke="#0F62F9" stroke-width="1.5" stroke-linecap="round" stroke-linejoin="round"/>
<path d="M54.2045 33H54.2135" stroke="#0F62F9" stroke-width="1.5" stroke-linecap="round" stroke-linejoin="round"/>
</svg>
