<svg width="20" height="20" viewBox="0 0 20 20" fill="none" xmlns="http://www.w3.org/2000/svg">
<path d="M18.1299 17.1724L15.2655 14.3718V14.3718L15.1983 14.2697C15.0735 14.1455 14.9028 14.0755 14.7246 14.0755C14.5465 14.0755 14.3758 14.1455 14.2509 14.2697V14.2697C11.8166 16.5031 8.06545 16.6245 5.48533 14.5534C2.90521 12.4823 2.29672 8.86146 4.0634 6.09213C5.83008 3.3228 9.42372 2.26436 12.461 3.61877C15.4983 4.97318 17.0368 8.32015 16.0562 11.44C15.9855 11.6654 16.0433 11.9105 16.2076 12.083C16.3719 12.2555 16.6179 12.3291 16.8529 12.2762C17.0878 12.2233 17.2761 12.0519 17.3467 11.8265V11.8265C18.519 8.1242 16.7484 4.13995 13.1804 2.45121C9.6124 0.76246 5.31769 1.87601 3.07454 5.07151C0.831384 8.267 1.31297 12.5854 4.20777 15.2332C7.10256 17.881 11.5418 18.0636 14.6538 15.6627L17.19 18.1424C17.452 18.3974 17.8755 18.3974 18.1374 18.1424C18.3991 17.8838 18.3991 17.4675 18.1374 17.2089V17.2089L18.1299 17.1724Z" fill="#112950"/>
</svg>
