<svg width="16" height="16" viewBox="0 0 16 16" fill="none" xmlns="http://www.w3.org/2000/svg">
<path fill-rule="evenodd" clip-rule="evenodd" d="M7.89628 14.4413C5.43507 14.4413 3.33325 14.0583 3.33325 12.5244C3.33325 10.9905 5.42174 9.57458 7.89628 9.57458C10.3575 9.57458 12.4593 10.9768 12.4593 12.5107C12.4593 14.0439 10.3708 14.4413 7.89628 14.4413Z" stroke="#112950" stroke-linecap="round" stroke-linejoin="round"/>
<path fill-rule="evenodd" clip-rule="evenodd" d="M7.89142 7.44907C9.50657 7.44907 10.8157 6.13998 10.8157 4.52482C10.8157 2.90967 9.50657 1.59998 7.89142 1.59998C6.27627 1.59998 4.96657 2.90967 4.96657 4.52482C4.96112 6.13452 6.26112 7.44361 7.87081 7.44907C7.87808 7.44907 7.88475 7.44907 7.89142 7.44907Z" stroke="#112950" stroke-linecap="round" stroke-linejoin="round"/>
</svg>
