<svg width="16" height="16" viewBox="0 0 16 16" fill="none" xmlns="http://www.w3.org/2000/svg">
<path fill-rule="evenodd" clip-rule="evenodd" d="M7.89604 14.4409C5.43483 14.4409 3.33301 14.0579 3.33301 12.524C3.33301 10.9902 5.42149 9.57422 7.89604 9.57422C10.3573 9.57422 12.4591 10.9765 12.4591 12.5103C12.4591 14.0435 10.3706 14.4409 7.89604 14.4409Z" stroke="#0065FF" stroke-width="1.5" stroke-linecap="round" stroke-linejoin="round"/>
<path fill-rule="evenodd" clip-rule="evenodd" d="M7.89166 7.4487C9.50681 7.4487 10.8159 6.13961 10.8159 4.52446C10.8159 2.90931 9.50681 1.59961 7.89166 1.59961C6.27651 1.59961 4.96681 2.90931 4.96681 4.52446C4.96136 6.13416 6.26136 7.44325 7.87106 7.4487C7.87833 7.4487 7.885 7.4487 7.89166 7.4487Z" stroke="#0F62F9" stroke-width="1.5" stroke-linecap="round" stroke-linejoin="round"/>
</svg>
