<svg width="64" height="80" viewBox="0 0 64 80" fill="none" xmlns="http://www.w3.org/2000/svg">
<circle cx="33" cy="27" r="27" fill="#FFECE9"/>
<path d="M22.4813 24.6811C23.6913 25.9011 22.7113 28.8511 20.2813 31.2811C17.8513 33.7111 14.9003 34.6911 13.6813 33.4811C12.4623 32.2711 13.4513 29.3111 15.8813 26.8811C18.3113 24.4511 21.2713 23.4711 22.4813 24.6811V24.6811Z" fill="#96FEFF"/>
<path d="M19.9411 22.5L22.4811 24.68C21.2711 23.47 18.3111 24.45 15.8811 26.88C13.4511 29.31 12.4711 32.27 13.6811 33.48L11.5011 30.94C10.3311 29.78 11.2811 26.94 13.6111 24.61C15.9411 22.28 18.7811 21.331 19.9411 22.5V22.5Z" fill="#006FDB"/>
<path d="M11 68V70H3V68C3.00158 67.4701 3.2128 66.9623 3.58753 66.5875C3.96227 66.2128 4.47005 66.0016 5 66H9C9.52995 66.0016 10.0377 66.2128 10.4125 66.5875C10.7872 66.9623 10.9984 67.4701 11 68V68Z" fill="#006FDB"/>
<path d="M11 70C11.4604 70.0025 11.906 70.1627 12.2626 70.4538C12.6192 70.7449 12.8654 71.1495 12.96 71.6C12.9886 71.7314 13.0021 71.8656 13 72V74H1V72C1.00158 71.4701 1.2128 70.9623 1.58753 70.5875C1.96227 70.2128 2.47005 70.0016 3 70H11Z" fill="#5C6979"/>
<path d="M21 71C21.0039 71.3204 20.9497 71.6389 20.84 71.94C20.627 72.5904 20.1975 73.1481 19.6232 73.5202C19.0488 73.8924 18.3643 74.0564 17.6837 73.9851C17.003 73.9138 16.3674 73.6113 15.8827 73.1282C15.398 72.645 15.0935 72.0104 15.02 71.33C15.01 71.22 15 71.11 15 71C15 70.2043 15.3161 69.4413 15.8787 68.8787C16.4413 68.3161 17.2043 68 18 68C18.7956 68 19.5587 68.3161 20.1213 68.8787C20.6839 69.4413 21 70.2043 21 71Z" fill="#2B2B37"/>
<path d="M45.9992 67.9999C46.5523 67.9982 47.095 68.1495 47.5675 68.437C48.04 68.7245 48.4238 69.137 48.6766 69.6289C48.9293 70.1208 49.0412 70.6731 48.9997 71.2246C48.9583 71.7761 48.7652 72.3054 48.4418 72.7541C48.1184 73.2027 47.6773 73.5533 47.1672 73.7669C46.657 73.9806 46.0978 74.0491 45.5512 73.9649C45.0045 73.8806 44.4919 73.6469 44.0697 73.2895C43.6476 72.9322 43.3325 72.4651 43.1592 71.9399C43.0496 71.6388 42.9953 71.3203 42.9992 70.9999C42.9992 70.2042 43.3153 69.4412 43.8779 68.8786C44.4405 68.316 45.2036 67.9999 45.9992 67.9999Z" fill="#2B2B37"/>
<path d="M43 71C42.9961 71.3204 43.0503 71.6389 43.16 71.94L43 72H21L20.84 71.94C20.9497 71.6389 21.0039 71.3204 21 71C21 70.2044 20.6839 69.4413 20.1213 68.8787C19.5587 68.3161 18.7956 68 18 68H46C45.2044 68 44.4413 68.3161 43.8787 68.8787C43.3161 69.4413 43 70.2044 43 71Z" fill="#5C6979"/>
<path d="M48 65V68H16V65C16.0016 64.4701 16.2128 63.9623 16.5875 63.5875C16.9623 63.2128 17.4701 63.0016 18 63H46C46.5299 63.0016 47.0377 63.2128 47.4125 63.5875C47.7872 63.9623 47.9984 64.4701 48 65Z" fill="#C1CFE8"/>
<path d="M62.99 54C62.9983 54.063 63.0017 54.1265 63 54.19V54.28C63 54.7362 62.8188 55.1737 62.4962 55.4962C62.1737 55.8188 61.7362 56 61.28 56C61.0962 56.001 60.9135 55.9706 60.74 55.91L46 51H17L7.06 46.861L6.23 46.511C5.8671 46.3588 5.55699 46.1032 5.33828 45.776C5.11957 45.4488 5.00193 45.0645 5 44.671V42L17 47H47L61.88 52.58C62.1791 52.6896 62.4415 52.8806 62.6377 53.1316C62.8339 53.3825 62.9559 53.6833 62.99 54V54Z" fill="#8394B2"/>
<path d="M62.9995 49V54H62.9895C62.9553 53.6833 62.8333 53.3825 62.6372 53.1315C62.441 52.8806 62.1785 52.6895 61.8795 52.58L46.9995 47H16.9995L4.99946 42L2.25946 40.4C1.87936 40.2018 1.5609 39.9032 1.33873 39.5367C1.11657 39.1701 0.999222 38.7496 0.999463 38.3209C0.991842 37.9334 1.08337 37.5503 1.26536 37.2081C1.44735 36.8658 1.71377 36.5758 2.03935 36.3654C2.36492 36.155 2.73884 36.0313 3.12564 36.0061C3.51244 35.9808 3.89928 36.0548 4.24946 36.2209L6.99946 37.5809L17.9995 43H46.9995L62.9995 49Z" fill="#006FDB"/>
<path d="M27 51H37V55H27V51Z" fill="#67758C"/>
<path d="M27 55H37V63H27V55Z" fill="#C1CFE8"/>
<path d="M7.851 38H8V28C8 27.4696 8.21071 26.9609 8.58579 26.5858C8.96086 26.2107 9.46957 26 10 26H12.44C12.7924 25.5066 13.1836 25.0421 13.61 24.611C13.83 24.391 14.058 24.195 14.286 24H10C8.93913 24 7.92172 24.4214 7.17157 25.1716C6.42143 25.9217 6 26.9391 6 28V37.086L7 37.586L7.851 38Z" fill="#C1CFE8"/>
<path d="M8 47.252L7.06 46.861L6.23 46.511C6.15038 46.4693 6.07355 46.4226 6 46.371V66H8V47.252Z" fill="#C1CFE8"/>
<path d="M63 54.19C63.0017 54.1265 62.9983 54.063 62.99 54C62.9559 53.6833 62.8339 53.3825 62.6377 53.1316C62.4415 52.8806 62.1791 52.6896 61.88 52.58L47 47H17L5 42V44.67C5.00193 45.0635 5.11957 45.4478 5.33828 45.775C5.55699 46.1022 5.8671 46.3578 6.23 46.51L7.03 46.846C7.06095 46.6398 7.13807 46.4432 7.2556 46.2709C7.37314 46.0987 7.52806 45.9552 7.7088 45.8512C7.88954 45.7471 8.09144 45.6853 8.29943 45.6702C8.50742 45.6551 8.71614 45.6872 8.91 45.764L17 49H46L61.666 54.529C62.0707 54.6737 62.4177 54.9456 62.655 55.304C62.8779 55.0091 62.999 54.6497 63 54.28V54.19Z" fill="#5C6979"/>
<path d="M37 51H27V55H30V54C30 53.7348 30.1054 53.4804 30.2929 53.2929C30.4804 53.1054 30.7348 53 31 53H37V51Z" fill="#393D48"/>
<path d="M30 55V59C30 59.5304 30.2107 60.0391 30.5858 60.4142C30.9609 60.7893 31.4696 61 32 61H37V63H27V55H30Z" fill="#8394B2"/>
<path d="M46.5 66H22.5C22.1022 66 21.7206 65.842 21.4393 65.5607C21.158 65.2794 21 64.8978 21 64.5C21 64.1022 21.158 63.7206 21.4393 63.4393C21.7206 63.158 22.1022 63 22.5 63H18C17.4701 63.0016 16.9623 63.2128 16.5875 63.5875C16.2128 63.9623 16.0016 64.4701 16 65V68H48V65C47.9967 64.9166 47.9884 64.8334 47.975 64.751C47.9158 65.0997 47.7354 65.4162 47.4655 65.6447C47.1956 65.8733 46.8536 65.9991 46.5 66V66Z" fill="#8394B2"/>
<path d="M46 68H18C18.7956 68 19.5587 68.3161 20.1213 68.8787C20.6839 69.4413 21 70.2044 21 71C21.0039 71.3204 20.9497 71.6389 20.84 71.94L21 72H23C23 71.4696 23.2107 70.9609 23.5858 70.5858C23.9609 70.2107 24.4696 70 25 70H39C39.5304 70 40.0391 70.2107 40.4142 70.5858C40.7893 70.9609 41 71.4696 41 72H43L43.16 71.94C43.0503 71.6389 42.9961 71.3204 43 71C43 70.2044 43.3161 69.4413 43.8787 68.8787C44.4413 68.3161 45.2044 68 46 68Z" fill="#393D48"/>
<path d="M46 72C46.5523 72 47 71.5523 47 71C47 70.4477 46.5523 70 46 70C45.4477 70 45 70.4477 45 71C45 71.5523 45.4477 72 46 72Z" fill="#C1CFE8"/>
<path d="M18 72C18.5523 72 19 71.5523 19 71C19 70.4477 18.5523 70 18 70C17.4477 70 17 70.4477 17 71C17 71.5523 17.4477 72 18 72Z" fill="#C1CFE8"/>
<path d="M16.9991 45L3.68211 38.341C3.47693 38.2384 3.30436 38.0806 3.18374 37.8855C3.06311 37.6903 2.99918 37.4654 2.99911 37.236C3.00026 36.9796 3.08198 36.73 3.23272 36.5226C3.38346 36.3151 3.59558 36.1603 3.83911 36.08C3.65662 36.0296 3.46842 36.0027 3.27911 36C2.97707 36.0026 2.6785 36.0647 2.40045 36.1827C2.1224 36.3007 1.87032 36.4723 1.6586 36.6878C1.44688 36.9032 1.27967 37.1582 1.16651 37.4383C1.05336 37.7184 0.996473 38.018 0.999111 38.32C0.998687 38.7488 1.11595 39.1695 1.33812 39.5363C1.5603 39.903 1.87886 40.2018 2.25911 40.4L4.99911 42L16.9991 47H46.9991L61.8791 52.58C62.1782 52.6896 62.4406 52.8806 62.6368 53.1316C62.833 53.3825 62.955 53.6833 62.9891 54H62.9991V51L46.9991 45H16.9991Z" fill="#004080"/>
<path d="M10 69H6.5C6.10218 69 5.72064 68.842 5.43934 68.5607C5.15803 68.2794 5 67.8978 5 67.5C5 67.1022 5.15803 66.7206 5.43934 66.4393C5.72064 66.158 6.10218 66 6.5 66H5C4.47005 66.0016 3.96227 66.2128 3.58753 66.5875C3.2128 66.9623 3.00158 67.4701 3 68V70H11V68C11 68.2652 10.8946 68.5196 10.7071 68.7071C10.5196 68.8946 10.2652 69 10 69Z" fill="#004080"/>
<path d="M12 73H5.5C5.10218 73 4.72064 72.842 4.43934 72.5607C4.15804 72.2794 4 71.8978 4 71.5C4 71.1022 4.15804 70.7206 4.43934 70.4393C4.72064 70.158 5.10218 70 5.5 70H3C2.47005 70.0016 1.96227 70.2128 1.58753 70.5875C1.2128 70.9623 1.00158 71.4701 1 72V74H13V72C13 72.2652 12.8946 72.5196 12.7071 72.7071C12.5196 72.8946 12.2652 73 12 73Z" fill="#393D48"/>
<path d="M12.2 26.324C10.953 28.193 10.6 30.056 11.5 30.941L13.68 33.481C12.769 32.57 13.101 30.668 14.356 28.746C13.7879 28.6196 13.274 28.3176 12.8871 27.8829C12.5001 27.4483 12.2597 26.9029 12.2 26.324V26.324Z" fill="#004080"/>
<path d="M16.8803 27.8811C18.9643 25.8001 21.4293 24.7921 22.8543 25.3061C22.7776 25.0727 22.6503 24.8593 22.4813 24.6811C21.2713 23.4711 18.3113 24.4511 15.8813 26.8811C13.4513 29.3111 12.4713 32.2711 13.6813 33.4811C13.8601 33.65 14.0738 33.7777 14.3073 33.8551C13.7913 32.4291 14.7993 29.9641 16.8803 27.8811V27.8811Z" fill="#19F7FA"/>
<path d="M19.9994 29.0002C19.7342 29.0001 19.4799 28.8947 19.2924 28.7072L18.2924 27.7072C18.1103 27.5186 18.0095 27.266 18.0118 27.0038C18.014 26.7416 18.1192 26.4908 18.3046 26.3053C18.49 26.1199 18.7408 26.0148 19.003 26.0125C19.2652 26.0102 19.5178 26.111 19.7064 26.2932L20.7064 27.2932C20.8462 27.433 20.9414 27.6112 20.98 27.8051C21.0186 27.9991 20.9988 28.2001 20.9231 28.3828C20.8474 28.5655 20.7193 28.7217 20.5549 28.8316C20.3905 28.9414 20.1972 29.0001 19.9994 29.0002V29.0002Z" fill="white"/>
<path d="M17.4994 31.5002C17.2342 31.5001 16.9799 31.3947 16.7924 31.2072L15.7924 30.2072C15.6103 30.0186 15.5095 29.766 15.5118 29.5038C15.514 29.2416 15.6192 28.9908 15.8046 28.8053C15.99 28.6199 16.2408 28.5148 16.503 28.5125C16.7652 28.5102 17.0178 28.611 17.2064 28.7932L18.2064 29.7932C18.3462 29.933 18.4414 30.1112 18.48 30.3051C18.5186 30.4991 18.4988 30.7001 18.4231 30.8828C18.3474 31.0655 18.2193 31.2217 18.0549 31.3316C17.8905 31.4414 17.6972 31.5001 17.4994 31.5002V31.5002Z" fill="white"/>
</svg>
