<svg width="72" height="72" viewBox="0 0 72 72" fill="none" xmlns="http://www.w3.org/2000/svg">
<rect width="72" height="72" rx="36" fill="#F2F6FE"/>
<path fill-rule="evenodd" clip-rule="evenodd" d="M39.438 36.4981C39.438 34.7613 38.0296 33.3528 36.2927 33.3528C34.5559 33.3528 33.1475 34.7613 33.1475 36.4981C33.1475 38.2349 34.5559 39.6434 36.2927 39.6434C38.0296 39.6434 39.438 38.2349 39.438 36.4981Z" stroke="#0065FF" stroke-width="1.5" stroke-linecap="round" stroke-linejoin="round"/>
<path fill-rule="evenodd" clip-rule="evenodd" d="M36.2922 44.2001C44.3375 44.2001 45.2954 41.7896 45.2954 36.5664C45.2954 32.9054 44.8112 30.9464 41.7617 30.1043C41.4817 30.0159 41.1712 29.8475 40.9196 29.5706C40.5133 29.1254 40.2164 27.758 39.2354 27.3443C38.2543 26.9317 34.3143 26.9506 33.3491 27.3443C32.3849 27.739 32.0712 29.1254 31.6649 29.5706C31.4133 29.8475 31.1038 30.0159 30.8227 30.1043C27.7733 30.9464 27.2891 32.9054 27.2891 36.5664C27.2891 41.7896 28.247 44.2001 36.2922 44.2001Z" stroke="#0065FF" stroke-width="1.5" stroke-linecap="round" stroke-linejoin="round"/>
<path d="M41.2045 33H41.2135" stroke="#0065FF" stroke-width="1.5" stroke-linecap="round" stroke-linejoin="round"/>
</svg>
