<svg width="24" height="24" viewBox="0 0 24 24" fill="none" xmlns="http://www.w3.org/2000/svg">
<path d="M22.5 5.25C21.4147 5.25 20.5853 5.25 19.5 5.25V3H21C21.4147 3 21.75 2.664 21.75 2.25C21.75 1.836 21.4147 1.5 21 1.5H16.5C16.0853 1.5 15.75 1.836 15.75 2.25C15.75 2.664 16.0853 3 16.5 3H18V5.25C16.9147 5.25 16.0853 5.25 15 5.25C14.5853 5.25 14.25 5.586 14.25 6C14.25 6.414 14.5853 6.75 15 6.75H15.75V15.75C15.75 17.1435 16.7093 18.3082 18 18.6435V21.75C18 22.164 18.3353 22.5 18.75 22.5C19.1647 22.5 19.5 22.164 19.5 21.75V18.6435C20.7907 18.3082 21.75 17.1435 21.75 15.75V6.75H22.5C22.9147 6.75 23.25 6.414 23.25 6C23.25 5.586 22.9147 5.25 22.5 5.25ZM20.25 15.75C20.25 16.5773 19.5773 17.25 18.75 17.25C17.9227 17.25 17.25 16.5773 17.25 15.75H18C18.4147 15.75 18.75 15.414 18.75 15C18.75 14.586 18.4147 14.25 18 14.25H17.25V12.75H18C18.4147 12.75 18.75 12.414 18.75 12C18.75 11.586 18.4147 11.25 18 11.25H17.25V9.75H18C18.4147 9.75 18.75 9.414 18.75 9C18.75 8.586 18.4147 8.25 18 8.25H17.25V6.75H20.25V15.75Z" fill="#112950"/>
<path d="M1.5 15V21.75C1.5 22.164 1.83525 22.5 2.25 22.5H12.75C13.1647 22.5 13.5 22.164 13.5 21.75V15C13.5 12.774 11.8755 10.9208 9.75 10.5623V9H10.5C10.9147 9 11.25 8.664 11.25 8.25V5.25C11.25 4.836 10.9147 4.5 10.5 4.5H4.5C4.08525 4.5 3.75 4.836 3.75 5.25V8.25C3.75 8.664 4.08525 9 4.5 9H5.25V10.5623C3.1245 10.9208 1.5 12.774 1.5 15ZM5.25 6H9.75V7.5C8.115 7.5 6.81 7.5 5.25 7.5V6ZM6 12C6.41475 12 6.75 11.664 6.75 11.25V9H8.25V11.25C8.25 11.664 8.58525 12 9 12C10.6545 12 12 13.3455 12 15V21H3V15C3 13.3455 4.3455 12 6 12Z" fill="#112950"/>
<path d="M4.5 16.5C4.5 16.086 4.83525 15.75 5.25 15.75H6.75V14.25C6.75 13.836 7.08525 13.5 7.5 13.5C7.91475 13.5 8.25 13.836 8.25 14.25V15.75H9.75C10.1647 15.75 10.5 16.086 10.5 16.5C10.5 16.914 10.1647 17.25 9.75 17.25H8.25V18.75C8.25 19.164 7.91475 19.5 7.5 19.5C7.08525 19.5 6.75 19.164 6.75 18.75V17.25H5.25C4.83525 17.25 4.5 16.914 4.5 16.5Z" fill="#112950"/>
</svg>
