<svg width="24" height="24" viewBox="0 0 24 24" fill="none" xmlns="http://www.w3.org/2000/svg">
<g clip-path="url(#clip0_466_19)">
<path d="M23.6968 11.4264C20.3186 8.85034 16.2741 7.48828 11.9997 7.48828C7.72535 7.48828 3.68081 8.85034 0.302645 11.4264C0.140679 11.5498 0.0327009 11.7334 0.00647768 11.937C-0.0197455 12.1406 0.0342434 12.3457 0.157647 12.5077L2.9805 16.2083C3.10544 16.3718 3.28746 16.4782 3.49108 16.5044C3.69469 16.5337 3.89985 16.4767 4.06182 16.3533C5.25266 15.4416 6.58233 14.7459 8.01072 14.2847C8.41487 14.1536 8.63699 13.7201 8.50742 13.3145L7.5603 10.3697C10.431 9.63858 13.5669 9.63704 16.4392 10.3697L15.492 13.3145C15.3609 13.7201 15.5846 14.1536 15.9887 14.2847C17.4156 14.7459 18.7437 15.4416 19.9376 16.3533C20.0734 16.4551 20.2369 16.5121 20.4066 16.5121C20.4405 16.5121 20.4744 16.5091 20.5084 16.5044C20.712 16.4767 20.8956 16.3718 21.019 16.2098L23.8418 12.5077C23.9652 12.3457 24.0207 12.139 23.993 11.937C23.9668 11.7334 23.8588 11.5498 23.6968 11.4264Z" fill="white"/>
</g>
<defs>
<clipPath id="clip0_466_19">
<rect width="24" height="24" fill="white"/>
</clipPath>
</defs>
</svg>
