<svg width="16" height="16" viewBox="0 0 16 16" fill="none" xmlns="http://www.w3.org/2000/svg">
<path d="M3.79602 4.28698C10.3616 3.39548 11.9796 3.50489 12.9999 4.66675C14.0202 5.8286 13.7814 9.65881 12.5887 10.7248C11.3967 11.7908 6.22002 11.8921 4.58002 10.7248C2.84735 9.49081 3.85268 5.69481 3.79602 3.39548C3.83002 2.10881 2.43335 1.90015 2.43335 1.90015" stroke="#112950" stroke-linecap="round" stroke-linejoin="round"/>
<path d="M9.43726 7.14657H11.2859" stroke="#112950" stroke-linecap="round" stroke-linejoin="round"/>
<path fill-rule="evenodd" clip-rule="evenodd" d="M4.84258 13.4183C5.04258 13.4183 5.20525 13.581 5.20525 13.781C5.20525 13.9817 5.04258 14.1443 4.84258 14.1443C4.64191 14.1443 4.47925 13.9817 4.47925 13.781C4.47925 13.581 4.64191 13.4183 4.84258 13.4183Z" fill="#112950" stroke="#112950" stroke-width="1.5" stroke-linecap="round" stroke-linejoin="round"/>
<path fill-rule="evenodd" clip-rule="evenodd" d="M11.7301 13.4183C11.9308 13.4183 12.0934 13.581 12.0934 13.781C12.0934 13.9817 11.9308 14.1443 11.7301 14.1443C11.5301 14.1443 11.3674 13.9817 11.3674 13.781C11.3674 13.581 11.5301 13.4183 11.7301 13.4183Z" fill="#112950" stroke="#112950" stroke-width="1.5" stroke-linecap="round" stroke-linejoin="round"/>
</svg>
