<svg width="64" height="64" viewBox="0 0 64 64" fill="none" xmlns="http://www.w3.org/2000/svg">
<path d="M47.0002 24.0002C47.797 23.9668 48.5921 24.0992 49.3351 24.3889C50.0782 24.6786 50.753 25.1194 51.317 25.6834C51.8809 26.2473 52.3217 26.9221 52.6114 27.6652C52.9011 28.4082 53.0335 29.2033 53.0001 30.0002C53.0001 39.0002 43.0002 44.0002 41.0002 44.0002C40.0002 44.0002 29.0002 39.0002 29.0002 30.0002C28.9668 29.2033 29.0992 28.4082 29.3889 27.6652C29.6786 26.9221 30.1194 26.2473 30.6834 25.6834C31.2473 25.1194 31.9221 24.6786 32.6652 24.3889C33.4082 24.0992 34.2033 23.9668 35.0002 24.0002C38.0002 24.0002 40.0002 26.0002 41.0002 29.0002C42.0002 26.0002 44.0002 24.0002 47.0002 24.0002Z" fill="#FF505B"/>
<path d="M46.5 21C47.3284 21 48 20.1046 48 19C48 17.8954 47.3284 17 46.5 17C45.6716 17 45 17.8954 45 19C45 20.1046 45.6716 21 46.5 21Z" fill="#006FDB"/>
<path d="M46.5 17C46.3262 17.0029 46.1553 17.045 46 17.123C46.323 17.3138 46.5872 17.5899 46.7636 17.921C46.9401 18.2521 47.0218 18.6255 47 19C47.0218 19.3745 46.9401 19.7479 46.7636 20.079C46.5872 20.4101 46.323 20.6862 46 20.877C46.1553 20.955 46.3262 20.9971 46.5 21C47.33 21 48 20.1 48 19C48 17.9 47.33 17 46.5 17Z" fill="#005EBA"/>
<path d="M35.5 21C36.3284 21 37 20.1046 37 19C37 17.8954 36.3284 17 35.5 17C34.6716 17 34 17.8954 34 19C34 20.1046 34.6716 21 35.5 21Z" fill="#006FDB"/>
<path d="M35 19C34.9782 18.6255 35.0599 18.2521 35.2364 17.921C35.4128 17.5899 35.677 17.3138 36 17.123C35.8447 17.045 35.6738 17.0029 35.5 17C34.67 17 34 17.9 34 19C34 20.1 34.67 21 35.5 21C35.6738 20.9971 35.8447 20.955 36 20.877C35.677 20.6862 35.4128 20.4101 35.2364 20.079C35.0599 19.7479 34.9782 19.3745 35 19V19Z" fill="#005EBA"/>
<path d="M53 18H48C47.9345 18.0064 47.8698 18.0195 47.807 18.039C47.9344 18.3434 48 18.67 48 19C48 19.33 47.9344 19.6566 47.807 19.961C47.8698 19.9805 47.9345 19.9936 48 20H53C53.7956 20 54.5587 20.3161 55.1213 20.8787C55.6839 21.4413 56 22.2044 56 23V31C56.0303 35.202 54.4534 39.2567 51.592 42.334C50.2431 43.7994 48.606 44.9703 46.7833 45.7732C44.9606 46.5762 42.9917 46.9938 41 47C32.729 47 26 39.822 26 31V23C26 22.2044 26.3161 21.4413 26.8787 20.8787C27.4413 20.3161 28.2044 20 29 20H34C34.0655 19.9936 34.1302 19.9805 34.193 19.961C34.0656 19.6566 34 19.33 34 19C34 18.67 34.0656 18.3434 34.193 18.039C34.1302 18.0195 34.0655 18.0064 34 18H29C27.6744 18.0016 26.4036 18.5289 25.4662 19.4662C24.5289 20.4036 24.0016 21.6744 24 23V31C24 40.925 31.626 49 41 49C43.2652 48.9945 45.5048 48.5208 47.5782 47.6088C49.6517 46.6967 51.5142 45.366 53.049 43.7C56.2588 40.2531 58.03 35.7099 58 31V23C57.9984 21.6744 57.4711 20.4036 56.5338 19.4662C55.5964 18.5289 54.3256 18.0016 53 18V18Z" fill="#C1CFE8"/>
<path d="M40 48.946V53C39.9971 55.3861 39.0479 57.6735 37.3607 59.3607C35.6735 61.0479 33.3861 61.9971 31 62C24.9 62 19.0499 59.5768 14.7365 55.2635C10.4232 50.9501 8 45.1 8 39V35C8.009 27.0463 11.1726 19.4209 16.7967 13.7967C22.4209 8.17259 30.0463 5.009 38 5C38.0583 4.99397 38.1159 4.98224 38.172 4.965C38.062 4.65497 38.0039 4.32893 38 4C38.0039 3.67107 38.062 3.34503 38.172 3.035C38.1159 3.01776 38.0583 3.00603 38 3C29.516 3.00953 21.3822 6.38401 15.3831 12.3831C9.38401 18.3822 6.00953 26.516 6 35V39C6 45.6304 8.63392 51.9893 13.3223 56.6777C18.0107 61.3661 24.3696 64 31 64C33.9163 63.9966 36.7122 62.8365 38.7744 60.7744C40.8365 58.7122 41.9966 55.9163 42 53V48.948C41.667 48.969 41.336 49 41 49C40.664 49 40.333 48.967 40 48.946Z" fill="#A8B7D4"/>
<path d="M35.0002 36.5632C34.3144 35.6347 33.8218 34.5781 33.5512 33.456C33.2807 32.3339 33.2378 31.169 33.4251 30.03C33.6124 28.891 34.026 27.8012 34.6416 26.8247C35.2572 25.8483 36.0622 25.0052 37.0092 24.3452C36.3649 24.1132 35.6849 23.9964 35.0002 24.0002C34.2033 23.9668 33.4082 24.0992 32.6652 24.3889C31.9221 24.6786 31.2473 25.1194 30.6834 25.6834C30.1194 26.2473 29.6786 26.9221 29.3889 27.6652C29.0992 28.4082 28.9668 29.2033 29.0002 30.0002C29.0002 39.0002 40.0002 44.0002 41.0002 44.0002C42.7172 43.6649 44.3366 42.9471 45.7382 41.9002C40.3782 41.4282 37.0482 39.2672 35.0002 36.5632Z" fill="#F33060"/>
<path d="M44.9995 38C44.7995 38.0001 44.6041 37.9402 44.4385 37.8281C44.2729 37.7159 44.1447 37.5567 44.0705 37.371C44.0535 37.333 43.4225 36 40.9995 36C38.5765 36 37.9455 37.333 37.9195 37.39C37.8122 37.6297 37.6156 37.8182 37.3716 37.9153C37.1275 38.0124 36.8552 38.0105 36.6125 37.91C36.3722 37.8102 36.1808 37.62 36.0794 37.3804C35.978 37.1408 35.9748 36.8709 36.0705 36.629C36.1135 36.521 37.1665 34 40.9995 34C44.8325 34 45.8855 36.521 45.9285 36.629C45.9891 36.7808 46.0116 36.945 45.9941 37.1075C45.9765 37.27 45.9194 37.4257 45.8277 37.561C45.736 37.6962 45.6126 37.807 45.4682 37.8835C45.3239 37.9601 45.1629 38.0001 44.9995 38V38Z" fill="#FBFBFB"/>
<path d="M47.9996 37C47.7982 37 47.6015 36.9393 47.4352 36.8256C47.2689 36.7119 47.1408 36.5507 47.0676 36.363C47.0146 36.232 45.6456 33 40.9996 33C36.3536 33 34.9846 36.232 34.9286 36.37C34.8314 36.6168 34.6402 36.8148 34.3969 36.9206C34.1537 37.0264 33.8784 37.0312 33.6316 36.934C33.3848 36.8368 33.1868 36.6455 33.081 36.4023C32.9752 36.1591 32.9704 35.8838 33.0676 35.637C33.1416 35.447 34.9456 31 40.9996 31C47.0536 31 48.8576 35.447 48.9316 35.637C48.9907 35.7886 49.0119 35.9523 48.9933 36.1139C48.9748 36.2755 48.9171 36.4302 48.8253 36.5644C48.7335 36.6987 48.6103 36.8086 48.4664 36.8845C48.3225 36.9604 48.1623 37 47.9996 37V37Z" fill="#FBFBFB"/>
<path d="M42.999 40C42.7714 40.0002 42.5505 39.9227 42.3728 39.7803C42.1952 39.6379 42.0714 39.4392 42.022 39.217C41.7 39.0739 41.3515 39 40.999 39C40.6466 39 40.2981 39.0739 39.976 39.217C39.9234 39.4583 39.7833 39.6716 39.5827 39.8157C39.3822 39.9599 39.1354 40.0248 38.8899 39.9978C38.6444 39.9709 38.4176 39.854 38.2531 39.6698C38.0886 39.4856 37.9981 39.247 37.999 39C37.999 37.841 39.261 37 40.999 37C42.737 37 43.999 37.841 43.999 39C43.999 39.2652 43.8937 39.5196 43.7061 39.7071C43.5186 39.8946 43.2642 40 42.999 40V40Z" fill="#FBFBFB"/>
<path d="M41 7C42.6569 7 44 5.65685 44 4C44 2.34315 42.6569 1 41 1C39.3431 1 38 2.34315 38 4C38 5.65685 39.3431 7 41 7Z" fill="#003CBF"/>
<path d="M41 6C42.1046 6 43 5.10457 43 4C43 2.89543 42.1046 2 41 2C39.8954 2 39 2.89543 39 4C39 5.10457 39.8954 6 41 6Z" fill="#0065FF"/>
</svg>
