<svg width="56" height="56" viewBox="0 0 56 56" fill="none" xmlns="http://www.w3.org/2000/svg">
<rect width="56" height="56" rx="12" fill="#F2F6FE"/>
<path d="M38.0625 18.9668C38.0625 18.2419 37.4749 17.6543 36.75 17.6543H19.25C18.5251 17.6543 17.9375 18.2379 17.9375 18.958V31.5624L27.5625 41.1249H36.75C37.4749 41.1249 38.0625 40.5412 38.0625 39.8211V18.9668Z" fill="#E3FCFD"/>
<path d="M23.1875 14.875H32.8125V20.125H23.1875V14.875Z" fill="#00E1F0"/>
<path d="M29.3125 38.5H31.0625C31.5459 38.5 31.9375 38.1084 31.9375 37.625C31.9375 37.1416 31.5459 36.75 31.0625 36.75H29.3125C28.8291 36.75 28.4375 37.1416 28.4375 37.625C28.4375 38.1084 28.8291 38.5 29.3125 38.5Z" fill="#0065FF"/>
<path d="M36.75 16.625H33.6875V14.875C33.6875 14.3916 33.2959 14 32.8125 14H23.1875C22.7041 14 22.3125 14.3916 22.3125 14.875V16.625H19.25C18.0421 16.625 17.0625 17.6046 17.0625 18.8125V22.3125C17.0625 22.7959 17.4541 23.1875 17.9375 23.1875C18.4209 23.1875 18.8125 22.7959 18.8125 22.3125V18.8125C18.8125 18.571 19.0085 18.375 19.25 18.375H22.3125V20.125C22.3125 20.6084 22.7041 21 23.1875 21H32.8125C33.2959 21 33.6875 20.6084 33.6875 20.125V18.375H36.75C36.9915 18.375 37.1875 18.571 37.1875 18.8125V39.8125C37.1875 40.054 36.9915 40.25 36.75 40.25H28.4375V32.8125C28.4375 31.6046 27.4579 30.625 26.25 30.625H18.8125V25.8125C18.8125 25.3291 18.4209 24.9375 17.9375 24.9375C17.4541 24.9375 17.0625 25.3291 17.0625 25.8125V31.5C17.0669 31.731 17.1592 31.9515 17.3206 32.1169L26.9456 41.7419C27.1088 41.9064 27.3306 41.9991 27.5625 42H36.75C37.9579 42 38.9375 41.0204 38.9375 39.8125V18.8125C38.9375 17.6046 37.9579 16.625 36.75 16.625ZM31.9375 19.25H24.0625V15.75H31.9375V19.25ZM26.25 32.375C26.4915 32.375 26.6875 32.571 26.6875 32.8125V39.0119L20.0506 32.375H26.25Z" fill="#0065FF"/>
<path d="M28 22.75C27.5166 22.75 27.125 23.1416 27.125 23.625V24.9375H25.8125C25.3291 24.9375 24.9375 25.3291 24.9375 25.8125C24.9375 26.2959 25.3291 26.6875 25.8125 26.6875H27.125V28C27.125 28.4834 27.5166 28.875 28 28.875C28.4834 28.875 28.875 28.4834 28.875 28V26.6875H30.1875C30.6709 26.6875 31.0625 26.2959 31.0625 25.8125C31.0625 25.3291 30.6709 24.9375 30.1875 24.9375H28.875V23.625C28.875 23.1416 28.4834 22.75 28 22.75Z" fill="#00E1F0"/>
<path d="M34.5625 38.5C35.0457 38.5 35.4375 38.1082 35.4375 37.625C35.4375 37.1418 35.0457 36.75 34.5625 36.75C34.0793 36.75 33.6875 37.1418 33.6875 37.625C33.6875 38.1082 34.0793 38.5 34.5625 38.5Z" fill="#00E1F0"/>
</svg>
