<svg width="72" height="72" viewBox="0 0 72 72" fill="none" xmlns="http://www.w3.org/2000/svg">
<rect width="72" height="72" rx="12" fill="#EBF5EF"/>
<path d="M47.5 25.6768C47.5 24.8483 46.8285 24.1768 46 24.1768H26C25.1715 24.1768 24.5 24.8438 24.5 25.6668V40.0718L35.5 51.0003H46C46.8285 51.0003 47.5 50.3333 47.5 49.5103V25.6768Z" fill="#E3FCFD"/>
<path d="M30.5 21H41.5V27H30.5V21Z" fill="#00E1F0"/>
<path d="M37.5 48H39.5C40.0525 48 40.5 47.5525 40.5 47C40.5 46.4475 40.0525 46 39.5 46H37.5C36.9475 46 36.5 46.4475 36.5 47C36.5 47.5525 36.9475 48 37.5 48Z" fill="#0065FF"/>
<path d="M46 23H42.5V21C42.5 20.4475 42.0525 20 41.5 20H30.5C29.9475 20 29.5 20.4475 29.5 21V23H26C24.6195 23 23.5 24.1195 23.5 25.5V29.5C23.5 30.0525 23.9475 30.5 24.5 30.5C25.0525 30.5 25.5 30.0525 25.5 29.5V25.5C25.5 25.224 25.724 25 26 25H29.5V27C29.5 27.5525 29.9475 28 30.5 28H41.5C42.0525 28 42.5 27.5525 42.5 27V25H46C46.276 25 46.5 25.224 46.5 25.5V49.5C46.5 49.776 46.276 50 46 50H36.5V41.5C36.5 40.1195 35.3805 39 34 39H25.5V33.5C25.5 32.9475 25.0525 32.5 24.5 32.5C23.9475 32.5 23.5 32.9475 23.5 33.5V40C23.505 40.264 23.6105 40.516 23.795 40.705L34.795 51.705C34.9815 51.893 35.235 51.999 35.5 52H46C47.3805 52 48.5 50.8805 48.5 49.5V25.5C48.5 24.1195 47.3805 23 46 23ZM40.5 26H31.5V22H40.5V26ZM34 41C34.276 41 34.5 41.224 34.5 41.5V48.585L26.915 41H34Z" fill="#0065FF"/>
<path d="M36 30C35.4475 30 35 30.4475 35 31V32.5H33.5C32.9475 32.5 32.5 32.9475 32.5 33.5C32.5 34.0525 32.9475 34.5 33.5 34.5H35V36C35 36.5525 35.4475 37 36 37C36.5525 37 37 36.5525 37 36V34.5H38.5C39.0525 34.5 39.5 34.0525 39.5 33.5C39.5 32.9475 39.0525 32.5 38.5 32.5H37V31C37 30.4475 36.5525 30 36 30Z" fill="#00E1F0"/>
<path d="M43.5 48C44.0523 48 44.5 47.5523 44.5 47C44.5 46.4477 44.0523 46 43.5 46C42.9477 46 42.5 46.4477 42.5 47C42.5 47.5523 42.9477 48 43.5 48Z" fill="#00E1F0"/>
</svg>
