<svg width="32" height="32" viewBox="0 0 32 32" fill="none" xmlns="http://www.w3.org/2000/svg">
<path d="M25.5 13.5V15.5H24.5C24.235 15.4992 23.9811 15.3936 23.7938 15.2062C23.6064 15.0189 23.5008 14.765 23.5 14.5C23.502 14.2354 23.608 13.9822 23.7951 13.7951C23.9822 13.6079 24.2354 13.502 24.5 13.5H25.5Z" fill="#FF505B"/>
<path d="M25.5 11.5V13.5H24.5C24.235 13.4992 23.9811 13.3936 23.7938 13.2062C23.6064 13.0189 23.5008 12.765 23.5 12.5C23.502 12.2354 23.608 11.9822 23.7951 11.7951C23.9822 11.6079 24.2354 11.502 24.5 11.5H25.5Z" fill="#FF505B"/>
<path d="M25.5 9.5V11.5H24.5C24.235 11.4992 23.9811 11.3936 23.7938 11.2062C23.6064 11.0189 23.5008 10.765 23.5 10.5C23.502 10.2354 23.608 9.98217 23.7951 9.79506C23.9822 9.60795 24.2354 9.50196 24.5 9.5H25.5Z" fill="#FF505B"/>
<path d="M26.5 13.5C26.765 13.5008 27.0189 13.6064 27.2062 13.7938C27.3936 13.9811 27.4992 14.235 27.5 14.5C27.498 14.7646 27.392 15.0178 27.2049 15.2049C27.0178 15.3921 26.7646 15.498 26.5 15.5H25.5V13.5H26.5Z" fill="#006FDB"/>
<path d="M26.5 11.5C26.765 11.5008 27.0189 11.6064 27.2062 11.7938C27.3936 11.9811 27.4992 12.235 27.5 12.5C27.498 12.7646 27.392 13.0178 27.2049 13.2049C27.0178 13.3921 26.7646 13.498 26.5 13.5H25.5V11.5H26.5Z" fill="#006FDB"/>
<path d="M26.5 9.5C26.765 9.50079 27.0189 9.6064 27.2062 9.79377C27.3936 9.98113 27.4992 10.235 27.5 10.5C27.498 10.7646 27.392 11.0178 27.2049 11.2049C27.0178 11.3921 26.7646 11.498 26.5 11.5H25.5V9.5H26.5Z" fill="#006FDB"/>
<path d="M24.5 11C24.2789 10.9992 24.0644 10.9251 23.8899 10.7894C23.7154 10.6537 23.5908 10.464 23.5355 10.25C23.513 10.3315 23.5011 10.4155 23.5 10.5C23.5008 10.765 23.6064 11.0189 23.7938 11.2062C23.9811 11.3936 24.235 11.4992 24.5 11.5H25.5V11H24.5Z" fill="#D13641"/>
<path d="M27.205 10.705C27.1133 10.799 27.0036 10.8736 26.8825 10.9243C26.7614 10.9749 26.6313 11.0007 26.5 11H25.5V11.5H26.5C26.6532 11.502 26.8047 11.4684 26.9426 11.4018C27.0805 11.3351 27.2011 11.2373 27.2946 11.116C27.3882 10.9948 27.4523 10.8534 27.4818 10.7031C27.5112 10.5527 27.5053 10.3976 27.4645 10.25C27.4216 10.4227 27.3318 10.5801 27.205 10.705Z" fill="#004080"/>
<path d="M24.5 13C24.2789 12.9992 24.0644 12.9251 23.8899 12.7894C23.7154 12.6537 23.5908 12.464 23.5355 12.25C23.513 12.3315 23.5011 12.4155 23.5 12.5C23.5008 12.765 23.6064 13.0189 23.7938 13.2062C23.9811 13.3936 24.235 13.4992 24.5 13.5H25.5V13H24.5Z" fill="#D13641"/>
<path d="M27.205 12.705C27.1133 12.799 27.0036 12.8736 26.8825 12.9243C26.7614 12.9749 26.6313 13.0007 26.5 13H25.5V13.5H26.5C26.6532 13.502 26.8047 13.4684 26.9426 13.4018C27.0805 13.3351 27.2011 13.2373 27.2946 13.116C27.3882 12.9948 27.4523 12.8534 27.4818 12.7031C27.5112 12.5527 27.5053 12.3976 27.4645 12.25C27.4216 12.4227 27.3318 12.5801 27.205 12.705Z" fill="#004080"/>
<path d="M24.5 15C24.2789 14.9992 24.0644 14.9251 23.8899 14.7894C23.7154 14.6537 23.5908 14.464 23.5355 14.25C23.513 14.3315 23.5011 14.4155 23.5 14.5C23.5008 14.765 23.6064 15.0189 23.7938 15.2062C23.9811 15.3936 24.235 15.4992 24.5 15.5H25.5V15H24.5Z" fill="#D13641"/>
<path d="M27.205 14.705C27.1133 14.799 27.0036 14.8736 26.8825 14.9243C26.7614 14.9749 26.6313 15.0007 26.5 15H25.5V15.5H26.5C26.6532 15.502 26.8047 15.4684 26.9426 15.4018C27.0805 15.3351 27.2011 15.2373 27.2946 15.116C27.3882 14.9948 27.4523 14.8534 27.4818 14.7031C27.5112 14.5527 27.5053 14.3976 27.4645 14.25C27.4216 14.4227 27.3318 14.5801 27.205 14.705Z" fill="#004080"/>
<path d="M25.5 19.5C25.7761 19.5 26 19.2761 26 19C26 18.7239 25.7761 18.5 25.5 18.5C25.2239 18.5 25 18.7239 25 19C25 19.2761 25.2239 19.5 25.5 19.5Z" fill="#FBFBFB"/>
<path d="M26 19C26 18.9011 25.9707 18.8044 25.9157 18.7222C25.8608 18.64 25.7827 18.5759 25.6913 18.5381C25.6 18.5002 25.4994 18.4903 25.4025 18.5096C25.3055 18.5289 25.2164 18.5765 25.1465 18.6465C25.0765 18.7164 25.0289 18.8055 25.0096 18.9025C24.9903 18.9994 25.0002 19.1 25.0381 19.1913C25.0759 19.2827 25.14 19.3608 25.2222 19.4157C25.3044 19.4707 25.4011 19.5 25.5 19.5C25.6326 19.5 25.7598 19.4473 25.8536 19.3536C25.9473 19.2598 26 19.1326 26 19ZM25.5 21C25.1044 21 24.7178 20.8827 24.3889 20.6629C24.06 20.4432 23.8036 20.1308 23.6522 19.7654C23.5009 19.3999 23.4613 18.9978 23.5384 18.6098C23.6156 18.2219 23.8061 17.8655 24.0858 17.5858C24.3655 17.3061 24.7219 17.1156 25.1098 17.0384C25.4978 16.9613 25.8999 17.0009 26.2654 17.1522C26.6308 17.3036 26.9432 17.56 27.1629 17.8889C27.3827 18.2178 27.5 18.6044 27.5 19C27.5 19.5304 27.2893 20.0391 26.9142 20.4142C26.5391 20.7893 26.0304 21 25.5 21Z" fill="#FF505B"/>
<path d="M25.5 8C26.0523 8 26.5 7.55228 26.5 7C26.5 6.44772 26.0523 6 25.5 6C24.9477 6 24.5 6.44772 24.5 7C24.5 7.55228 24.9477 8 25.5 8Z" fill="#E63B47"/>
<path d="M18.5 15.9997C18.6257 15.9885 18.7524 16.0034 18.8721 16.0434C18.9919 16.0834 19.1021 16.1476 19.1959 16.232C19.2897 16.3164 19.3652 16.4193 19.4175 16.5342C19.4698 16.6491 19.4979 16.7735 19.5 16.8997C19.5 18.2497 17.835 18.9997 17.5 18.9997C17.335 18.9997 15.5 18.2497 15.5 16.8997C15.5021 16.7735 15.5302 16.6491 15.5825 16.5342C15.6348 16.4193 15.7103 16.3164 15.8041 16.232C15.8979 16.1476 16.0081 16.0834 16.1279 16.0434C16.2476 16.0034 16.3743 15.9885 16.5 15.9997C16.7257 15.9983 16.9457 16.0709 17.1262 16.2064C17.3068 16.3418 17.4381 16.5326 17.5 16.7497C17.5619 16.5326 17.6932 16.3418 17.8738 16.2064C18.0543 16.0709 18.2743 15.9983 18.5 15.9997V15.9997Z" fill="#E63B47"/>
<path d="M4.5 6V21H21.5V6H4.5ZM17.5 19C17.335 19 15.5 18.25 15.5 16.9C15.5021 16.7738 15.5302 16.6494 15.5825 16.5345C15.6348 16.4196 15.7103 16.3168 15.8041 16.2323C15.8979 16.1479 16.0081 16.0837 16.1279 16.0437C16.2476 16.0037 16.3743 15.9889 16.5 16C16.7257 15.9987 16.9457 16.0713 17.1262 16.2067C17.3068 16.3421 17.4381 16.5329 17.5 16.75C17.5619 16.5329 17.6932 16.3421 17.8738 16.2067C18.0543 16.0713 18.2743 15.9987 18.5 16C18.6257 15.9889 18.7524 16.0037 18.8721 16.0437C18.9919 16.0837 19.1021 16.1479 19.1959 16.2323C19.2897 16.3168 19.3652 16.4196 19.4175 16.5345C19.4698 16.6494 19.4979 16.7738 19.5 16.9C19.5 18.25 17.835 19 17.5 19Z" fill="#393D48"/>
<path d="M25.5 8C25.6978 8 25.8911 7.94135 26.0556 7.83147C26.22 7.72159 26.3482 7.56541 26.4239 7.38268C26.4996 7.19996 26.5194 6.99889 26.4808 6.80491C26.4422 6.61093 26.347 6.43275 26.2071 6.29289C26.0673 6.15304 25.8891 6.0578 25.6951 6.01921C25.5011 5.98063 25.3 6.00043 25.1173 6.07612C24.9346 6.15181 24.7784 6.27998 24.6685 6.44443C24.5586 6.60888 24.5 6.80222 24.5 7C24.5008 7.26497 24.6064 7.51887 24.7938 7.70623C24.9811 7.8936 25.235 7.99921 25.5 8ZM4.5 21H21.5V6H4.5V21ZM4 4.5H28C28.265 4.50079 28.5189 4.6064 28.7062 4.79377C28.8936 4.98113 28.9992 5.23503 29 5.5V21.5C28.9992 21.765 28.8936 22.0189 28.7062 22.2062C28.5189 22.3936 28.265 22.4992 28 22.5H4C3.73503 22.4992 3.48113 22.3936 3.29377 22.2062C3.1064 22.0189 3.00079 21.765 3 21.5V5.5C3.00079 5.23503 3.1064 4.98113 3.29377 4.79377C3.48113 4.6064 3.73503 4.50079 4 4.5ZM25.5 17C25.1044 17 24.7178 17.1173 24.3889 17.3371C24.06 17.5568 23.8036 17.8692 23.6522 18.2346C23.5009 18.6001 23.4613 19.0022 23.5384 19.3902C23.6156 19.7781 23.8061 20.1345 24.0858 20.4142C24.3655 20.6939 24.7219 20.8844 25.1098 20.9616C25.4978 21.0387 25.8999 20.9991 26.2654 20.8478C26.6308 20.6964 26.9432 20.44 27.1629 20.1111C27.3827 19.7822 27.5 19.3956 27.5 19C27.5 18.4696 27.2893 17.9609 26.9142 17.5858C26.5391 17.2107 26.0304 17 25.5 17ZM25.5 9.5H24.5C24.2354 9.50196 23.9822 9.60795 23.7951 9.79506C23.608 9.98217 23.502 10.2354 23.5 10.5C23.5008 10.765 23.6064 11.0189 23.7938 11.2062C23.9811 11.3936 24.235 11.4992 24.5 11.5C24.2354 11.502 23.9822 11.6079 23.7951 11.7951C23.608 11.9822 23.502 12.2354 23.5 12.5C23.5008 12.765 23.6064 13.0189 23.7938 13.2062C23.9811 13.3936 24.235 13.4992 24.5 13.5C24.2354 13.502 23.9822 13.6079 23.7951 13.7951C23.608 13.9822 23.502 14.2354 23.5 14.5C23.5008 14.765 23.6064 15.0189 23.7938 15.2062C23.9811 15.3936 24.235 15.4992 24.5 15.5H26.5C26.7646 15.498 27.0178 15.3921 27.2049 15.2049C27.392 15.0178 27.498 14.7646 27.5 14.5C27.4992 14.235 27.3936 13.9811 27.2062 13.7938C27.0189 13.6064 26.765 13.5008 26.5 13.5C26.7646 13.498 27.0178 13.3921 27.2049 13.2049C27.392 13.0178 27.498 12.7646 27.5 12.5C27.4992 12.235 27.3936 11.9811 27.2062 11.7938C27.0189 11.6064 26.765 11.5008 26.5 11.5C26.7646 11.498 27.0178 11.3921 27.2049 11.2049C27.392 11.0178 27.498 10.7646 27.5 10.5C27.4992 10.235 27.3936 9.98113 27.2062 9.79377C27.0189 9.6064 26.765 9.50079 26.5 9.5H25.5Z" fill="#EDF4FA"/>
<path d="M0.545 24.9951C0.662012 25.6946 1.02302 26.3299 1.56397 26.7885C2.10492 27.2471 2.79083 27.4992 3.5 27.5001H28.5C29.2092 27.4992 29.8951 27.2471 30.436 26.7885C30.977 26.3299 31.338 25.6946 31.455 24.9951L31.5 25.0001V26.5001C31.5 27.2958 31.1839 28.0588 30.6213 28.6214C30.0587 29.184 29.2956 29.5001 28.5 29.5001H3.5C2.70435 29.5001 1.94129 29.184 1.37868 28.6214C0.81607 28.0588 0.5 27.2958 0.5 26.5001V25.0001L0.545 24.9951Z" fill="#393D48"/>
<path d="M31.5 5.5V24.5C31.5004 24.666 31.4853 24.8318 31.455 24.995C31.338 25.6944 30.977 26.3298 30.436 26.7884C29.8951 27.247 29.2092 27.4991 28.5 27.5H3.50001C2.79084 27.4991 2.10493 27.247 1.56398 26.7884C1.02303 26.3298 0.662018 25.6944 0.545006 24.995C0.514708 24.8318 0.499643 24.666 0.500006 24.5V5.5C0.500006 4.70435 0.816077 3.94129 1.37869 3.37868C1.9413 2.81607 2.70436 2.5 3.50001 2.5H28.5C29.2957 2.5 30.0587 2.81607 30.6213 3.37868C31.1839 3.94129 31.5 4.70435 31.5 5.5ZM29 21.5V5.5C28.9992 5.23503 28.8936 4.98113 28.7062 4.79377C28.5189 4.6064 28.265 4.50079 28 4.5H4.00001C3.73503 4.50079 3.48114 4.6064 3.29377 4.79377C3.10641 4.98113 3.0008 5.23503 3.00001 5.5V21.5C3.0008 21.765 3.10641 22.0189 3.29377 22.2062C3.48114 22.3936 3.73503 22.4992 4.00001 22.5H28C28.265 22.4992 28.5189 22.3936 28.7062 22.2062C28.8936 22.0189 28.9992 21.765 29 21.5V21.5Z" fill="#006FDB"/>
<path d="M28.5 2.5H3.5C2.70435 2.5 1.94129 2.81607 1.37868 3.37868C0.81607 3.94129 0.5 4.70435 0.5 5.5V6.5C0.5 5.70435 0.81607 4.94129 1.37868 4.37868C1.94129 3.81607 2.70435 3.5 3.5 3.5H28.5C29.2956 3.5 30.0587 3.81607 30.6213 4.37868C31.1839 4.94129 31.5 5.70435 31.5 6.5V5.5C31.5 4.70435 31.1839 3.94129 30.6213 3.37868C30.0587 2.81607 29.2956 2.5 28.5 2.5Z" fill="#4AA4F2"/>
<path d="M25.5 17C25.1044 17 24.7178 17.1173 24.3889 17.3371C24.06 17.5568 23.8036 17.8692 23.6522 18.2346C23.5009 18.6001 23.4613 19.0022 23.5384 19.3902C23.6156 19.7781 23.8061 20.1345 24.0858 20.4142C24.3655 20.6939 24.7219 20.8844 25.1098 20.9616C25.4978 21.0387 25.8999 20.9991 26.2654 20.8478C26.6308 20.6964 26.9432 20.44 27.1629 20.1111C27.3827 19.7822 27.5 19.3956 27.5 19C27.5 18.4696 27.2893 17.9609 26.9142 17.5858C26.5391 17.2107 26.0304 17 25.5 17ZM25.5 20.5C25.2033 20.5 24.9133 20.412 24.6666 20.2472C24.42 20.0824 24.2277 19.8481 24.1142 19.574C24.0007 19.2999 23.9709 18.9983 24.0288 18.7074C24.0867 18.4164 24.2296 18.1491 24.4393 17.9393C24.6491 17.7296 24.9164 17.5867 25.2074 17.5288C25.4983 17.4709 25.7999 17.5007 26.074 17.6142C26.3481 17.7277 26.5824 17.92 26.7472 18.1666C26.912 18.4133 27 18.7033 27 19C27 19.3978 26.842 19.7794 26.5607 20.0607C26.2794 20.342 25.8978 20.5 25.5 20.5Z" fill="#E63B47"/>
<path d="M28 4.5H4C3.73503 4.50079 3.48113 4.6064 3.29377 4.79377C3.1064 4.98113 3.00079 5.23503 3 5.5V21.5C3.00079 21.765 3.1064 22.0189 3.29377 22.2062C3.48113 22.3936 3.73503 22.4992 4 22.5H28C28.265 22.4992 28.5189 22.3936 28.7062 22.2062C28.8936 22.0189 28.9992 21.765 29 21.5V5.5C28.9992 5.23503 28.8936 4.98113 28.7062 4.79377C28.5189 4.6064 28.265 4.50079 28 4.5V4.5ZM28.5 21.5C28.5 21.6326 28.4473 21.7598 28.3536 21.8536C28.2598 21.9473 28.1326 22 28 22H4C3.86739 22 3.74021 21.9473 3.64645 21.8536C3.55268 21.7598 3.5 21.6326 3.5 21.5V5.5C3.5 5.36739 3.55268 5.24021 3.64645 5.14645C3.74021 5.05268 3.86739 5 4 5H28C28.1326 5 28.2598 5.05268 28.3536 5.14645C28.4473 5.24021 28.5 5.36739 28.5 5.5V21.5Z" fill="#A8B7D4"/>
<path d="M25.5 5.5C25.2033 5.5 24.9133 5.58797 24.6666 5.7528C24.42 5.91762 24.2277 6.15189 24.1142 6.42597C24.0007 6.70006 23.9709 7.00166 24.0288 7.29263C24.0867 7.58361 24.2296 7.85088 24.4393 8.06066C24.6491 8.27044 24.9164 8.4133 25.2074 8.47118C25.4983 8.52905 25.7999 8.49935 26.074 8.38582C26.3481 8.27229 26.5824 8.08003 26.7472 7.83335C26.912 7.58668 27 7.29667 27 7C27 6.60217 26.842 6.22064 26.5607 5.93934C26.2794 5.65803 25.8978 5.5 25.5 5.5V5.5ZM25.5 8C25.3022 8 25.1089 7.94135 24.9444 7.83147C24.78 7.72159 24.6518 7.56541 24.5761 7.38268C24.5004 7.19996 24.4806 6.99889 24.5192 6.80491C24.5578 6.61093 24.653 6.43275 24.7929 6.29289C24.9327 6.15304 25.1109 6.0578 25.3049 6.01921C25.4989 5.98063 25.7 6.00043 25.8827 6.07612C26.0654 6.15181 26.2216 6.27998 26.3315 6.44443C26.4414 6.60888 26.5 6.80222 26.5 7C26.4992 7.26497 26.3936 7.51887 26.2062 7.70623C26.0189 7.8936 25.765 7.99921 25.5 8Z" fill="#A8B7D4"/>
<path d="M25.0002 6.50032C25.0007 6.35891 25.0315 6.21926 25.0907 6.09082C24.9421 6.15652 24.8118 6.25743 24.711 6.38481C24.6102 6.51219 24.5419 6.66222 24.5121 6.82191C24.4823 6.98161 24.4918 7.14616 24.5399 7.30133C24.588 7.4565 24.6731 7.59763 24.788 7.7125C24.9029 7.82737 25.044 7.91252 25.1992 7.9606C25.3544 8.00867 25.5189 8.01822 25.6786 7.98841C25.8383 7.95861 25.9883 7.89035 26.1157 7.78953C26.2431 7.68872 26.344 7.55839 26.4097 7.40982C26.2812 7.46897 26.1416 7.49984 26.0002 7.50032C25.7352 7.49953 25.4813 7.39392 25.294 7.20655C25.1066 7.01919 25.001 6.76529 25.0002 6.50032V6.50032Z" fill="#D13641"/>
<path d="M27.75 12.5C27.75 12.3059 27.7048 12.1146 27.6181 11.941C27.5313 11.7674 27.4053 11.6164 27.25 11.5C27.2964 11.4649 27.34 11.4263 27.3805 11.3845C27.4985 11.2695 27.592 11.1319 27.6555 10.9799C27.719 10.8279 27.7511 10.6647 27.75 10.5C27.75 10.1685 27.6183 9.85054 27.3839 9.61612C27.1495 9.3817 26.8316 9.25 26.5 9.25H24.5C24.169 9.25171 23.8521 9.38395 23.618 9.618C23.384 9.85206 23.2517 10.169 23.25 10.5C23.25 10.6941 23.2952 10.8854 23.382 11.059C23.4688 11.2326 23.5948 11.3836 23.75 11.5C23.7036 11.5351 23.66 11.5737 23.6195 11.6155C23.5016 11.7305 23.4081 11.8681 23.3446 12.0201C23.2811 12.1721 23.2489 12.3353 23.25 12.5C23.25 12.6941 23.2952 12.8854 23.382 13.059C23.4688 13.2326 23.5948 13.3836 23.75 13.5C23.7036 13.5351 23.66 13.5737 23.6195 13.6155C23.5016 13.7305 23.4081 13.8681 23.3446 14.0201C23.2811 14.1721 23.2489 14.3353 23.25 14.5C23.25 14.8315 23.3817 15.1495 23.6161 15.3839C23.8506 15.6183 24.1685 15.75 24.5 15.75H26.5C26.831 15.7483 27.148 15.616 27.382 15.382C27.6161 15.1479 27.7483 14.831 27.75 14.5C27.75 14.3059 27.7048 14.1146 27.6181 13.941C27.5313 13.7674 27.4053 13.6164 27.25 13.5C27.2964 13.4649 27.34 13.4263 27.3805 13.3845C27.4985 13.2695 27.592 13.1319 27.6555 12.9799C27.719 12.8279 27.7511 12.6647 27.75 12.5ZM27.5 14.5C27.4981 14.7646 27.3921 15.0178 27.205 15.2049C27.0179 15.3921 26.7646 15.498 26.5 15.5H24.5C24.2351 15.4992 23.9812 15.3936 23.7938 15.2062C23.6064 15.0189 23.5008 14.765 23.5 14.5C23.502 14.2354 23.608 13.9822 23.7951 13.7951C23.9822 13.6079 24.2354 13.502 24.5 13.5C24.2351 13.4992 23.9812 13.3936 23.7938 13.2062C23.6064 13.0189 23.5008 12.765 23.5 12.5C23.502 12.2354 23.608 11.9822 23.7951 11.7951C23.9822 11.6079 24.2354 11.502 24.5 11.5C24.2351 11.4992 23.9812 11.3936 23.7938 11.2062C23.6064 11.0189 23.5008 10.765 23.5 10.5C23.502 10.2354 23.608 9.98217 23.7951 9.79506C23.9822 9.60795 24.2354 9.50196 24.5 9.5H26.5C26.765 9.50079 27.0189 9.6064 27.2063 9.79377C27.3936 9.98113 27.4992 10.235 27.5 10.5C27.4981 10.7646 27.3921 11.0178 27.205 11.2049C27.0179 11.3921 26.7646 11.498 26.5 11.5C26.765 11.5008 27.0189 11.6064 27.2063 11.7938C27.3936 11.9811 27.4992 12.235 27.5 12.5C27.4981 12.7646 27.3921 13.0178 27.205 13.2049C27.0179 13.3921 26.7646 13.498 26.5 13.5C26.765 13.5008 27.0189 13.6064 27.2063 13.7938C27.3936 13.9811 27.4992 14.235 27.5 14.5V14.5Z" fill="#A8B7D4"/>
<path d="M4 21.5H22V5.5H4V21.5ZM4.5 6H21.5V21H4.5V6Z" fill="#A8B7D4"/>
<path d="M15 19C12.8783 19 10.8434 18.1571 9.34315 16.6569C7.84285 15.1566 7 13.1217 7 11V6H4.5V21H21.5V19H15Z" fill="#2B2B37"/>
<path d="M19.5 11H17.8295L16.4595 7.803C16.421 7.71308 16.3569 7.63644 16.2752 7.58258C16.1935 7.52872 16.0978 7.50001 16 7.5C15.9017 7.50048 15.8058 7.52991 15.7242 7.5846C15.6425 7.63929 15.5788 7.71681 15.541 7.8075L13.4355 12.8545L11.4355 9.2575C11.3901 9.17579 11.3227 9.10844 11.241 9.06309C11.1592 9.01775 11.0664 8.99622 10.9731 9.00096C10.8797 9.0057 10.7896 9.03651 10.7128 9.0899C10.6361 9.14329 10.5759 9.21711 10.539 9.303L9.3795 12.0085L8.4 10.7C8.35343 10.6379 8.29303 10.5875 8.22361 10.5528C8.15418 10.5181 8.07762 10.5 8 10.5H6.5C6.36739 10.5 6.24021 10.5527 6.14645 10.6464C6.05268 10.7402 6 10.8674 6 11C6 11.1326 6.05268 11.2598 6.14645 11.3536C6.24021 11.4473 6.36739 11.5 6.5 11.5H7.75L9.1 13.3C9.15224 13.3706 9.22234 13.426 9.3031 13.4606C9.38386 13.4951 9.47236 13.5075 9.5595 13.4965C9.64664 13.486 9.72948 13.4528 9.79969 13.4001C9.86991 13.3474 9.92502 13.2772 9.9595 13.1965L11.0595 10.6335L13.0645 14.242C13.1076 14.3199 13.1706 14.3848 13.2472 14.4302C13.3237 14.4755 13.411 14.4996 13.5 14.5H13.528C13.6217 14.4948 13.7121 14.4632 13.7888 14.409C13.8655 14.3548 13.9253 14.2801 13.9615 14.1935L16.0065 9.2855L17.0405 11.698C17.0792 11.7877 17.1433 11.8642 17.225 11.9178C17.3067 11.9715 17.4023 12.0001 17.5 12H19.5C19.6326 12 19.7598 11.9473 19.8536 11.8536C19.9473 11.7598 20 11.6326 20 11.5C20 11.3674 19.9473 11.2402 19.8536 11.1464C19.7598 11.0527 19.6326 11 19.5 11V11Z" fill="#E63B47"/>
<path d="M13.5 15.5H12.5C12.2348 15.5 11.9804 15.6054 11.7929 15.7929C11.6054 15.9804 11.5 16.2348 11.5 16.5V18.5C11.5 18.7652 11.6054 19.0196 11.7929 19.2071C11.9804 19.3946 12.2348 19.5 12.5 19.5H13.5C13.7652 19.5 14.0196 19.3946 14.2071 19.2071C14.3946 19.0196 14.5 18.7652 14.5 18.5V16.5C14.5 16.2348 14.3946 15.9804 14.2071 15.7929C14.0196 15.6054 13.7652 15.5 13.5 15.5ZM13.5 18.5H12.5V16.5H13.5V18.5Z" fill="#D6E0EB"/>
<path d="M28 4H4C3.60218 4 3.22064 4.15804 2.93934 4.43934C2.65804 4.72064 2.5 5.10218 2.5 5.5V21.5C2.5 21.8978 2.65804 22.2794 2.93934 22.5607C3.22064 22.842 3.60218 23 4 23H28C28.3978 23 28.7794 22.842 29.0607 22.5607C29.342 22.2794 29.5 21.8978 29.5 21.5V5.5C29.5 5.10218 29.342 4.72064 29.0607 4.43934C28.7794 4.15804 28.3978 4 28 4V4ZM29 21.5C28.9992 21.765 28.8936 22.0189 28.7062 22.2062C28.5189 22.3936 28.265 22.4992 28 22.5H4C3.73503 22.4992 3.48113 22.3936 3.29377 22.2062C3.1064 22.0189 3.00079 21.765 3 21.5V5.5C3.00079 5.23503 3.1064 4.98113 3.29377 4.79377C3.48113 4.6064 3.73503 4.50079 4 4.5H28C28.265 4.50079 28.5189 4.6064 28.7062 4.79377C28.8936 4.98113 28.9992 5.23503 29 5.5V21.5Z" fill="#004080"/>
<path d="M28.5 27.5001H3.5C2.79083 27.4992 2.10492 27.2471 1.56397 26.7885C1.02302 26.3299 0.662012 25.6946 0.545 24.9951L0.5 25.0001V26.5001C0.5 27.2958 0.81607 28.0588 1.37868 28.6214C1.94129 29.184 2.70435 29.5001 3.5 29.5001H4.5C4.5 29.2349 4.60536 28.9805 4.79289 28.793C4.98043 28.6055 5.23478 28.5001 5.5 28.5001H28.5C29.2956 28.5001 30.0587 28.184 30.6213 27.6214C31.1839 27.0588 31.5 26.2958 31.5 25.5001V25.0001L31.455 24.9951C31.338 25.6946 30.977 26.3299 30.436 26.7885C29.8951 27.2471 29.2092 27.4992 28.5 27.5001Z" fill="#2B2B37"/>
</svg>
