<svg width="64" height="64" viewBox="0 0 64 64" fill="none" xmlns="http://www.w3.org/2000/svg">
<g clip-path="url(#clip0_0_8171)">
<path d="M51.5703 64H11.9008C5.3276 64 0 58.628 0 52V12C0 5.372 5.3276 0 11.9008 0H51.5703C58.1435 0 63.4711 5.372 63.4711 12V52C63.4711 58.628 58.1435 64 51.5703 64Z" fill="#F2F6FE"/>
<path d="M31.7355 44C26.7649 44 21.7963 42.104 16.8634 38.308C16.314 37.884 15.9689 37.274 15.8856 36.59C15.8042 35.91 15.9946 35.242 16.4231 34.708C26.4277 22.208 37.0452 22.208 47.0479 34.708C47.4743 35.242 47.6667 35.91 47.5854 36.59C47.5041 37.274 47.1589 37.884 46.6095 38.306C41.6746 42.102 36.7041 44 31.7355 44V44ZM18.5771 36.268C27.4313 43.022 36.0416 43.022 44.8958 36.268C40.4528 30.756 36.0257 27.962 31.7375 27.962C27.4492 27.962 23.0181 30.754 18.5771 36.268V36.268Z" fill="#00E1F0"/>
<path d="M31.7358 39.334C29.1831 39.334 27.1084 37.24 27.1084 34.668C27.1084 32.096 29.1831 30 31.7358 30C34.2886 30 36.3633 32.094 36.3633 34.666C36.3633 37.238 34.2886 39.334 31.7358 39.334V39.334Z" fill="#0065FF"/>
<path d="M31.7361 23.374C31.0061 23.374 30.4131 22.776 30.4131 22.04V21.334C30.4131 20.596 31.0061 20 31.7361 20C32.466 20 33.059 20.598 33.059 21.334V22.04C33.059 22.776 32.466 23.374 31.7361 23.374Z" fill="#0065FF"/>
<path d="M22.6936 25.774C22.279 25.774 21.8704 25.578 21.6126 25.21L21.0711 24.436C20.6486 23.836 20.7914 23.004 21.3884 22.578C21.9855 22.152 22.8106 22.296 23.2311 22.898L23.7726 23.672C24.195 24.272 24.0522 25.104 23.4552 25.53C23.2231 25.694 22.9574 25.774 22.6936 25.774Z" fill="#00E1F0"/>
<path d="M40.7781 25.7738C40.5143 25.7738 40.2485 25.6938 40.0165 25.5298C39.4194 25.1038 39.2786 24.2718 39.6991 23.6718L40.2406 22.8978C40.6631 22.2958 41.4882 22.1538 42.0832 22.5778C42.6803 23.0038 42.8211 23.8358 42.4006 24.4358L41.8591 25.2098C41.6013 25.5778 41.1947 25.7738 40.7781 25.7738V25.7738Z" fill="#00E1F0"/>
<path d="M17.6511 30.9461C17.419 30.9461 17.185 30.8841 16.9727 30.7561L16.5106 30.4761C15.8838 30.0981 15.6815 29.2781 16.0564 28.6481C16.4312 28.0181 17.2465 27.8121 17.8693 28.1901L18.3314 28.47C18.9582 28.848 19.1605 29.6681 18.7856 30.2981C18.5397 30.7161 18.1013 30.9461 17.6511 30.9461Z" fill="#0065FF"/>
<path d="M45.8198 30.9458C45.3696 30.9458 44.9332 30.7158 44.6853 30.2978C44.3104 29.6658 44.5127 28.8478 45.1395 28.4698L45.6016 28.1898C46.2264 27.8118 47.0397 28.0158 47.4145 28.6478C47.7894 29.2798 47.5871 30.0978 46.9603 30.4758L46.4982 30.7558C46.2859 30.8858 46.0499 30.9458 45.8198 30.9458V30.9458Z" fill="#0065FF"/>
</g>
<defs>
<clipPath id="clip0_0_8171">
<rect width="63.4711" height="64" fill="white"/>
</clipPath>
</defs>
</svg>
