<svg width="48" height="48" viewBox="0 0 48 48" fill="none" xmlns="http://www.w3.org/2000/svg">
<path d="M11.9561 8.03418H29.9559V12.9657H11.9561V8.03418Z" fill="#00E1F0"/>
<path d="M11.957 8.03418H16.6445V12.9654H11.957V8.03418Z" fill="#02CFE0"/>
<path d="M11.9561 12.0059L7.11649 15.6307C6.38609 16.1779 5.95605 17.0371 5.95605 17.9497V45.1023C5.95605 46.7025 7.25327 47.9996 8.8534 47.9996H33.0584C34.6586 47.9996 35.9558 46.7024 35.9558 45.1023V17.9486C35.9558 17.0366 35.5264 16.1779 34.7968 15.6307L29.9559 12L11.9561 12.0059Z" fill="#7FF0F7"/>
<path d="M8.95996 44.3204V39.0002L9.92577 37.1834V22.2136L8.95996 21.0003V18.3415C8.95996 18.1286 9.06027 17.9281 9.23071 17.8004L12.7768 15.1444C12.8937 15.0568 13.0358 15.0095 13.1819 15.0095L28.7299 15.0044C28.8762 15.0043 29.0186 15.0518 29.1357 15.1396L32.6821 17.7993C32.8523 17.927 32.9525 18.1273 32.9525 18.3401V21.0003L31.9867 22.1652V37.811L32.9525 39.0001V44.3203C32.9525 44.6937 32.6498 44.9963 32.2765 44.9963H9.63599C9.26259 44.9964 8.95996 44.6938 8.95996 44.3204V44.3204Z" fill="#00E1F0"/>
<path d="M10.785 45.1027C10.785 46.703 12.0821 48 13.6824 48H8.8534C7.25309 48 5.95605 46.703 5.95605 45.1027V17.9502C5.95605 17.0376 6.3858 16.178 7.11593 15.6304L11.9555 12.0057L29.9561 12L29.958 12.002L16.7846 12.0058L11.945 15.6305C11.7296 15.7917 11.5413 15.9801 11.3819 16.1887C10.9994 16.6889 10.785 17.3061 10.785 17.9502V45.1027Z" fill="#00E1F0"/>
<path d="M11.3822 16.1885C10.9997 16.6887 10.7853 17.3059 10.7853 17.95V44.9962H9.63599C9.26259 44.9962 8.95996 44.6934 8.95996 44.3201V18.3414C8.95996 18.1285 9.06027 17.928 9.23062 17.8004L11.3822 16.1885Z" fill="#02CFE0"/>
<path d="M32.9561 1.44872V7.55156C32.9561 8.35125 32.307 9.00028 31.5073 9.00028H10.4048C9.60509 9.00028 8.95605 8.35125 8.95605 7.55156V1.44872C8.95605 0.649031 9.60509 0 10.4048 0H31.5074C32.3071 0 32.9561 0.649031 32.9561 1.44872V1.44872Z" fill="#0065FF"/>
<path d="M32.9561 7.06866V7.55156C32.9561 8.35163 32.3075 9.00028 31.5073 9.00028H10.4048C9.60471 9.00028 8.95605 8.35172 8.95605 7.55156V1.44872C8.95605 0.648563 9.60471 0 10.4048 0H15.2337C14.4341 0 13.785 0.649031 13.785 1.44872V4.17131C13.785 5.77153 15.0822 7.06866 16.6824 7.06866H32.9561Z" fill="#0065FF"/>
<path d="M14.9558 6.7245C14.5556 6.7245 14.2314 6.40022 14.2314 6.00019V3.00019C14.2314 2.60016 14.5557 2.27588 14.9558 2.27588C15.3558 2.27588 15.6801 2.60016 15.6801 3.00019V6.00019C15.6802 6.40022 15.3559 6.7245 14.9558 6.7245Z" fill="#7FF0F7"/>
<path d="M11.9558 6.7245C11.5556 6.7245 11.2314 6.40022 11.2314 6.00019V3.00019C11.2314 2.60016 11.5557 2.27588 11.9558 2.27588C12.3558 2.27588 12.6801 2.60016 12.6801 3.00019V6.00019C12.6802 6.40022 12.3559 6.7245 11.9558 6.7245Z" fill="#7FF0F7"/>
<path d="M17.9558 6.7245C17.5556 6.7245 17.2314 6.40022 17.2314 6.00019V3.00019C17.2314 2.60016 17.5557 2.27588 17.9558 2.27588C18.3558 2.27588 18.6801 2.60016 18.6801 3.00019V6.00019C18.6802 6.40022 18.3559 6.7245 17.9558 6.7245Z" fill="#7FF0F7"/>
<path d="M20.9558 6.7245C20.5556 6.7245 20.2314 6.40022 20.2314 6.00019V3.00019C20.2314 2.60016 20.5557 2.27588 20.9558 2.27588C21.3558 2.27588 21.6801 2.60016 21.6801 3.00019V6.00019C21.6802 6.40022 21.3559 6.7245 20.9558 6.7245Z" fill="#7FF0F7"/>
<path d="M23.9558 6.7245C23.5556 6.7245 23.2314 6.40022 23.2314 6.00019V3.00019C23.2314 2.60016 23.5557 2.27588 23.9558 2.27588C24.3558 2.27588 24.6801 2.60016 24.6801 3.00019V6.00019C24.6802 6.40022 24.3559 6.7245 23.9558 6.7245Z" fill="#7FF0F7"/>
<path d="M26.9558 6.7245C26.5556 6.7245 26.2314 6.40022 26.2314 6.00019V3.00019C26.2314 2.60016 26.5557 2.27588 26.9558 2.27588C27.3558 2.27588 27.6801 2.60016 27.6801 3.00019V6.00019C27.6802 6.40022 27.3559 6.7245 26.9558 6.7245Z" fill="#7FF0F7"/>
<path d="M29.9558 6.7245C29.5556 6.7245 29.2314 6.40022 29.2314 6.00019V3.00019C29.2314 2.60016 29.5557 2.27588 29.9558 2.27588C30.3558 2.27588 30.6801 2.60016 30.6801 3.00019V6.00019C30.6802 6.40022 30.3559 6.7245 29.9558 6.7245Z" fill="#7FF0F7"/>
<path d="M8.95605 21H32.9523V38.9998H8.95605V21Z" fill="#F2FBFF"/>
<path d="M10.7853 21.0005V38.9999H9.0768H8.95605V21.0005H10.7853Z" fill="#DFF6FD"/>
<path d="M23.5391 29.6877V30.7246H19.0579C16.3166 30.7246 14.0947 28.5027 14.0947 25.7615V25.3809C14.0947 25.019 14.3882 24.7246 14.751 24.7246H18.5769C21.3172 24.7246 23.5391 26.9465 23.5391 29.6877V29.6877Z" fill="#00E1F0"/>
<path d="M22.1047 30.7246H19.0578C16.3166 30.7246 14.0947 28.5027 14.0947 25.7615V25.3809C14.0947 25.019 14.3882 24.7246 14.751 24.7246H16.9907L16.9925 24.7255V25.6115C16.9925 28.4362 19.281 30.7246 22.1047 30.7246V30.7246Z" fill="#02CFE0"/>
<path d="M23.5384 31.4489C23.4049 31.4489 23.2701 31.4122 23.1493 31.335L18.6745 28.478C18.3373 28.2627 18.2385 27.8149 18.4538 27.4777C18.6692 27.1405 19.1169 27.0417 19.4541 27.257L23.9289 30.114C24.2661 30.3293 24.3649 30.7771 24.1496 31.1143C24.0114 31.3307 23.7774 31.4489 23.5384 31.4489V31.4489Z" fill="#7FF0F7"/>
<path d="M27.8174 29.8809V30.2615C27.8174 33.0027 25.5956 35.2246 22.8543 35.2246H18.373V34.1877C18.373 31.4465 20.5949 29.2246 23.3352 29.2246H27.1612C27.524 29.2246 27.8174 29.519 27.8174 29.8809Z" fill="#00E1F0"/>
<path d="M26.3831 29.2246C23.5593 29.2246 21.2699 31.514 21.2699 34.3377V35.2246H18.373V34.1877C18.373 31.4465 20.5949 29.2246 23.3352 29.2246H26.3831Z" fill="#02CFE0"/>
<path d="M23.2377 32.9782L21.2718 34.2335L19.7193 35.2245H18.373V34.3648L21.7265 32.2235L22.4577 31.7566C22.7952 31.542 23.2424 31.6404 23.458 31.9779C23.6737 32.3145 23.5743 32.7626 23.2377 32.9782V32.9782Z" fill="#7FF0F7"/>
<path d="M36.1446 47.0322L34.4294 47.998H30.0456C28.3874 47.998 27.0439 46.6536 27.0439 44.9963C27.0439 44.1677 27.38 43.4163 27.9229 42.8735C28.4666 42.3307 29.216 41.9946 30.0456 41.9946H34.4565L36.1447 42.9604C36.1678 44.3781 36.1678 45.7303 36.1446 47.0322Z" fill="#FEE97D"/>
<path d="M32.943 47.998H30.0456C28.3874 47.998 27.0439 46.6536 27.0439 44.9963C27.0439 44.1677 27.38 43.4163 27.9229 42.8735C28.4666 42.3307 29.216 41.9946 30.0456 41.9946H32.943C32.1134 41.9946 31.3639 42.3307 30.8202 42.8735C30.2775 43.4163 29.9413 44.1677 29.9413 44.9963C29.9413 46.6536 31.2847 47.998 32.943 47.998V47.998Z" fill="#FED402"/>
<path d="M42.0433 44.9963C42.0433 46.6536 40.6999 47.998 39.0417 47.998H34.543V41.9946H39.0417C40.6999 41.9946 42.0433 43.3381 42.0433 44.9963V44.9963Z" fill="#0065FF"/>
<path d="M38.7811 37.1875C38.7811 37.4341 39.313 37.6125 39.2783 37.8497C38.9998 39.7134 37.6658 41.2331 35.9033 41.7806C35.4467 41.9222 34.9601 41.9991 34.4558 41.9991C32.0098 41.9991 29.9848 40.1972 29.6342 37.8497C29.5995 37.6125 30.2186 37.4341 30.2186 37.1875C30.2186 36.941 29.5995 36.6375 29.6342 36.4012C29.9848 34.0519 32.0098 32.25 34.4558 32.25C34.9601 32.25 35.4467 32.3269 35.9042 32.4694C37.6667 33.0169 38.9998 34.5366 39.2783 36.4012C39.313 36.6375 38.7811 36.941 38.7811 37.1875Z" fill="#FEE97D"/>
<path d="M39.3308 37.1252C39.3308 37.3715 39.3125 37.6129 39.2777 37.8495H29.6332C29.5985 37.6129 29.5801 37.3715 29.5801 37.1252C29.5801 36.8789 29.5985 36.6375 29.6332 36.4009H39.2777C39.3125 36.6374 39.3308 36.8789 39.3308 37.1252V37.1252Z" fill="#FED402"/>
<path d="M35.9026 41.7806C35.446 41.9222 34.9595 41.9991 34.4551 41.9991C32.0091 41.9991 29.9841 40.1972 29.6335 37.8497C29.5988 37.6125 29.5801 37.3716 29.5801 37.125C29.5801 36.8784 29.5988 36.6375 29.6335 36.4012C29.9841 34.0519 32.0091 32.25 34.4551 32.25C34.9595 32.25 35.446 32.3269 35.9035 32.4694C34.142 33.0169 32.8088 34.5366 32.5313 36.4012C32.4957 36.6375 32.4779 36.8794 32.4779 37.125C32.4779 37.3716 32.4957 37.6134 32.5313 37.8497C32.8098 39.7125 34.142 41.2313 35.9026 41.7806V41.7806Z" fill="#FED402"/>
<path d="M32.4779 37.1251C32.4779 37.3717 32.4957 37.6136 32.5313 37.8498H29.6335C29.5988 37.6126 29.5801 37.3717 29.5801 37.1251C29.5801 36.8786 29.5988 36.6376 29.6335 36.4014H32.5313C32.4957 36.6376 32.4779 36.8795 32.4779 37.1251Z" fill="#FAC600"/>
<path d="M21.7265 32.2236C21.4462 32.8377 21.2849 33.5174 21.2718 34.2336L19.7193 35.2246H18.373V34.3649L21.7265 32.2236Z" fill="#00E1F0"/>
</svg>
