<svg width="32" height="32" viewBox="0 0 32 32" fill="none" xmlns="http://www.w3.org/2000/svg">
<g clip-path="url(#clip0_337_2875)">
<path d="M1.5 9H30.5V15H1.5V9Z" fill="#00E1F0"/>
<path d="M3 15.5H29V29.5C29 29.8978 28.842 30.2794 28.5607 30.5607C28.2794 30.842 27.8978 31 27.5 31H4.5C4.10218 31 3.72064 30.842 3.43934 30.5607C3.15804 30.2794 3 29.8978 3 29.5V15.5Z" fill="white"/>
<path d="M19.5 1.5H13.5C12.3954 1.5 11.5 2.39543 11.5 3.5C11.5 4.60457 12.3954 5.5 13.5 5.5H19.5C20.6046 5.5 21.5 4.60457 21.5 3.5C21.5 2.39543 20.6046 1.5 19.5 1.5Z" fill="white"/>
<path d="M29.5 8H25.5V4.5C25.5 3.83696 25.2366 3.20107 24.7678 2.73223C24.2989 2.26339 23.663 2 23 2H21.825C21.6184 1.41565 21.2359 0.909629 20.73 0.551499C20.2242 0.193369 19.6198 0.000708186 19 0L13 0C12.3802 0.000708186 11.7758 0.193369 11.27 0.551499C10.7641 0.909629 10.3816 1.41565 10.175 2H9C8.33696 2 7.70107 2.26339 7.23223 2.73223C6.76339 3.20107 6.5 3.83696 6.5 4.5V8H2.5C1.83696 8 1.20107 8.26339 0.732233 8.73223C0.263392 9.20107 5.21142e-08 9.83696 5.21142e-08 10.5V13.5C-0.000117575 14.0763 0.198892 14.635 0.563347 15.0815C0.927802 15.5279 1.43532 15.8347 2 15.95V19.5C2 19.7652 2.10536 20.0196 2.29289 20.2071C2.48043 20.3946 2.73478 20.5 3 20.5C3.26522 20.5 3.51957 20.3946 3.70711 20.2071C3.89464 20.0196 4 19.7652 4 19.5V16H28V29.5C28 29.765 27.675 30 27.305 30H4.695C4.325 30 4 29.765 4 29.5V23.5C4 23.2348 3.89464 22.9804 3.70711 22.7929C3.51957 22.6054 3.26522 22.5 3 22.5C2.73478 22.5 2.48043 22.6054 2.29289 22.7929C2.10536 22.9804 2 23.2348 2 23.5V29.5C2.02734 30.1884 2.32625 30.8379 2.83132 31.3064C3.3364 31.775 4.0065 32.0243 4.695 32H27.305C27.9935 32.0243 28.6636 31.775 29.1687 31.3064C29.6737 30.8379 29.9727 30.1884 30 29.5V15.95C30.5647 15.8347 31.0722 15.5279 31.4367 15.0815C31.8011 14.635 32.0001 14.0763 32 13.5V10.5C32 9.83696 31.7366 9.20107 31.2678 8.73223C30.7989 8.26339 30.163 8 29.5 8ZM13 2H19C19.2652 2 19.5196 2.10536 19.7071 2.29289C19.8946 2.48043 20 2.73478 20 3C20 3.26522 19.8946 3.51957 19.7071 3.70711C19.5196 3.89464 19.2652 4 19 4H13C12.7348 4 12.4804 3.89464 12.2929 3.70711C12.1054 3.51957 12 3.26522 12 3C12 2.73478 12.1054 2.48043 12.2929 2.29289C12.4804 2.10536 12.7348 2 13 2V2ZM8.5 4.5C8.5 4.36739 8.55268 4.24021 8.64645 4.14645C8.74021 4.05268 8.86739 4 9 4H10.175C10.3816 4.58435 10.7641 5.09037 11.27 5.4485C11.7758 5.80663 12.3802 5.99929 13 6H19C19.6198 5.99929 20.2242 5.80663 20.73 5.4485C21.2359 5.09037 21.6184 4.58435 21.825 4H23C23.1326 4 23.2598 4.05268 23.3536 4.14645C23.4473 4.24021 23.5 4.36739 23.5 4.5V8H8.5V4.5ZM30 13.5C30 13.6326 29.9473 13.7598 29.8536 13.8536C29.7598 13.9473 29.6326 14 29.5 14H2.5C2.36739 14 2.24021 13.9473 2.14645 13.8536C2.05268 13.7598 2 13.6326 2 13.5V10.5C2 10.3674 2.05268 10.2402 2.14645 10.1464C2.24021 10.0527 2.36739 10 2.5 10H29.5C29.6326 10 29.7598 10.0527 29.8536 10.1464C29.9473 10.2402 30 10.3674 30 10.5V13.5Z" fill="#0F62F9"/>
<path d="M16 18C15.7348 18 15.4804 18.1054 15.2929 18.2929C15.1054 18.4804 15 18.7348 15 19V20.5H13.5C13.2348 20.5 12.9804 20.6054 12.7929 20.7929C12.6054 20.9804 12.5 21.2348 12.5 21.5C12.5 21.7652 12.6054 22.0196 12.7929 22.2071C12.9804 22.3946 13.2348 22.5 13.5 22.5H15V24C15 24.2652 15.1054 24.5196 15.2929 24.7071C15.4804 24.8946 15.7348 25 16 25C16.2652 25 16.5196 24.8946 16.7071 24.7071C16.8946 24.5196 17 24.2652 17 24V22.5H18.5C18.7652 22.5 19.0196 22.3946 19.2071 22.2071C19.3946 22.0196 19.5 21.7652 19.5 21.5C19.5 21.2348 19.3946 20.9804 19.2071 20.7929C19.0196 20.6054 18.7652 20.5 18.5 20.5H17V19C17 18.7348 16.8946 18.4804 16.7071 18.2929C16.5196 18.1054 16.2652 18 16 18Z" fill="#00E1F0"/>
<path d="M25 28C25.5523 28 26 27.5523 26 27C26 26.4477 25.5523 26 25 26C24.4477 26 24 26.4477 24 27C24 27.5523 24.4477 28 25 28Z" fill="#00E1F0"/>
<path d="M18 27C18 27.2652 18.1054 27.5196 18.2929 27.7071C18.4804 27.8946 18.7348 28 19 28H21C21.2652 28 21.5196 27.8946 21.7071 27.7071C21.8946 27.5196 22 27.2652 22 27C22 26.7348 21.8946 26.4804 21.7071 26.2929C21.5196 26.1054 21.2652 26 21 26H19C18.7348 26 18.4804 26.1054 18.2929 26.2929C18.1054 26.4804 18 26.7348 18 27Z" fill="#0F62F9"/>
</g>
<defs>
<clipPath id="clip0_337_2875">
<rect width="32" height="32" fill="white"/>
</clipPath>
</defs>
</svg>
