<svg width="64" height="62" viewBox="0 0 64 62" fill="none" xmlns="http://www.w3.org/2000/svg">
<g clip-path="url(#clip0_0_6882)">
<path d="M52 61.0133H12C5.372 61.0133 0 55.892 0 49.5733V11.44C0 5.12131 5.372 0 12 0H52C58.628 0 64 5.12131 64 11.44V49.5733C64 55.892 58.628 61.0133 52 61.0133Z" fill="#F2F6FE"/>
<path d="M36.5879 30.3904C35.7879 29.6259 34.3959 29.4028 33.5258 29.4314C33.3978 27.6525 33.3978 25.8087 33.4018 24.0832C33.4098 20.2508 33.4158 17.223 32.0478 15.915C31.5918 15.4822 31.0078 15.2534 30.3558 15.2534C29.8038 15.2534 29.3558 15.6805 29.3558 16.2068C29.3558 16.733 29.8038 17.1601 30.3558 17.1601C30.4958 17.1601 30.5638 17.1982 30.6298 17.263C31.4118 18.0105 31.4058 21.2346 31.3998 24.0813C31.3918 27.4408 31.3838 31.2484 32.3558 34.4402C32.5178 34.8292 32.6198 35.3516 32.6638 36.0342C32.6838 36.3316 32.5978 36.5166 32.5218 36.5852C32.5038 36.6024 32.4778 36.631 32.3758 36.6195C32.0918 36.5852 31.8098 36.5147 31.5298 36.446C31.1578 36.3545 30.7858 36.2687 30.4078 36.2248C28.2558 35.9827 26.3358 37.6053 26.0358 39.9219C25.7798 41.9124 26.8118 43.8019 28.5298 44.5131C28.7118 44.5989 29.6198 45.1461 30.3558 45.6056C30.5278 45.7105 30.7178 45.7601 30.9038 45.7601C31.2298 45.7601 31.5518 45.6075 31.7418 45.3273C32.0438 44.8868 31.9138 44.2958 31.4518 44.0079C30.6518 43.5102 29.6378 42.8925 29.3438 42.7704C28.4318 42.3929 27.8758 41.2928 28.0218 40.1545C28.0638 39.8323 28.1558 39.5348 28.2878 39.2717C29.2218 40.0668 30.1398 40.8237 30.6978 41.1822C31.5198 41.7237 32.4058 41.9963 33.2998 41.9963C33.9958 41.9963 34.6958 41.8304 35.3758 41.5006C37.3358 40.5415 38.6319 38.5414 38.8399 36.1467C39.0439 33.7996 38.1619 31.5516 36.5879 30.3904V30.3904Z" fill="#0065FF"/>
<path d="M46.6518 45.7601C46.6438 45.7601 46.6378 45.7601 46.6318 45.7601C45.8958 45.7487 45.3078 45.171 45.3178 44.4693C45.4198 37.9371 44.9678 33.0484 43.9358 29.523C43.4918 28.0072 42.4698 26.6191 41.0578 25.6124L37.6278 23.17C36.3038 22.3291 35.6458 20.7065 36.0498 19.1717L36.9178 16.1839C37.1138 15.5071 37.8518 15.1143 38.5578 15.2973C39.2678 15.4842 39.6838 16.1839 39.4878 16.8608L38.6298 19.818C38.5078 20.2852 38.7198 20.8095 39.1678 21.0936L42.6538 23.5742C44.5358 24.9146 45.9038 26.7831 46.5058 28.8385C47.6238 32.6537 48.0938 37.632 47.9858 44.5056C47.9738 45.2034 47.3778 45.7601 46.6518 45.7601V45.7601Z" fill="#00E1F0"/>
<path d="M17.3478 45.7601C16.6198 45.7601 16.0258 45.2033 16.0158 44.5074C15.9158 38.061 16.3198 33.3229 17.2898 29.5916C17.9498 27.05 19.5858 24.8706 21.8958 23.4578L24.9298 21.6026C25.2118 21.4291 25.2678 21.1736 25.2758 21.0363C25.2838 20.8991 25.2578 20.6398 24.9958 20.4376C24.3618 19.9534 23.9998 19.2326 23.9998 18.4585V16.5252C23.9998 15.8216 24.5958 15.2534 25.3338 15.2534C26.0718 15.2534 26.6678 15.8235 26.6678 16.5252V18.4585C27.5218 19.1144 27.9978 20.1307 27.9378 21.1736C27.8778 22.2185 27.2918 23.1775 26.3698 23.7419L23.3358 25.5971C21.6018 26.6572 20.3738 28.2931 19.8778 30.2036C18.9758 33.668 18.5858 38.3336 18.6818 44.4693C18.6918 45.1709 18.1038 45.7505 17.3678 45.7601C17.3618 45.7601 17.3538 45.7601 17.3478 45.7601V45.7601Z" fill="#00E1F0"/>
</g>
<defs>
<clipPath id="clip0_0_6882">
<rect width="64" height="61.0133" fill="white"/>
</clipPath>
</defs>
</svg>
