<svg width="24" height="24" viewBox="0 0 24 24" fill="none" xmlns="http://www.w3.org/2000/svg">
<g clip-path="url(#clip0_822_11436)">
<path d="M19.9438 5.51934C19.7975 5.43318 19.6175 5.42718 19.4658 5.50336C19.3143 5.57971 19.2119 5.7277 19.1938 5.89635C19.1758 6.06037 19.1478 6.22434 19.1128 6.39637C18.1338 10.8394 16.1678 13.0004 13.1008 13.0004H8.60081C8.36353 13.0008 8.15925 13.1679 8.11181 13.4003L6.61181 20.4313L6.34383 22.2214C6.18975 23.0353 6.72469 23.8201 7.53862 23.9742C7.62839 23.9912 7.71947 23.9999 7.81082 24.0004H10.8208C11.5107 24.0025 12.1122 23.5316 12.2758 22.8613L13.4918 18.0004H16.1008C19.1798 18.0004 21.3078 15.5454 22.0928 11.0874C22.6109 8.9646 21.7537 6.74357 19.9438 5.51934Z" fill="#03A9F4"/>
<path d="M19.0006 1.78203C18.0126 0.661301 16.5946 0.0133958 15.1006 3.64138e-05H6.82062C5.58148 -0.00661982 4.52651 0.899988 4.34665 2.126L1.77566 19.277C1.65252 20.0962 2.21675 20.8601 3.03598 20.9833C3.11033 20.9945 3.18547 21 3.26066 21H7.10065C7.33793 20.9996 7.54221 20.8325 7.58965 20.6L9.00466 14H13.1047C16.6627 14 19.0137 11.513 20.0937 6.60002C20.1371 6.40418 20.1705 6.20627 20.1937 6.00701C20.4443 4.49131 20.007 2.9427 19.0006 1.78203Z" fill="#283593"/>
</g>
<defs>
<clipPath id="clip0_822_11436">
<rect width="24" height="24" fill="white"/>
</clipPath>
</defs>
</svg>
