<svg width="64" height="62" viewBox="0 0 64 62" fill="none" xmlns="http://www.w3.org/2000/svg">
<g clip-path="url(#clip0_0_6873)">
<path d="M52.0003 61.5221H12.0001C5.37203 61.5221 0 56.3581 0 49.9867V11.5354C0 5.16401 5.37203 0 12.0001 0H52.0003C58.6283 0 64.0004 5.16401 64.0004 11.5354V49.9867C64.0004 56.3581 58.6283 61.5221 52.0003 61.5221Z" fill="#F2F6FE"/>
<path d="M37.666 26.916H35.99L34.384 23.8303C34.144 23.3708 33.774 23.0094 33.332 22.7652V16.663C33.334 15.9535 32.736 15.3806 32 15.3806C31.2639 15.3806 30.6659 15.9555 30.6659 16.663V22.7633C30.2239 23.0094 29.8539 23.3689 29.6139 23.8284L28.0099 26.916H25.9999C25.2639 26.916 24.6659 27.4909 24.6659 28.1984C24.6659 28.9059 25.2639 29.4807 25.9999 29.4807H29.3339C30.0699 29.4807 30.6679 30.0556 30.6679 30.7631V33.3259V44.8613C30.6659 45.5688 31.2639 46.1417 32 46.1417C32.736 46.1417 33.334 45.5668 33.334 44.8593V33.3239V30.7612C33.334 30.0536 33.932 29.4788 34.668 29.4788H37.668C38.404 29.4788 39.002 28.904 39.002 28.1964C39.002 27.4889 38.404 26.916 37.666 26.916V26.916ZM31.942 25.0896C31.962 25.0896 31.98 25.1011 32 25.1011C32.02 25.1011 32.038 25.0915 32.058 25.0896L33.158 27.2044C32.726 27.3736 32.34 27.6197 31.998 27.9158C31.6559 27.6197 31.2699 27.3736 30.8379 27.2044L31.942 25.0896Z" fill="#00E1F0"/>
<path d="M24.4161 39.7339H24.2301C20.2041 39.7339 16.8261 36.7597 16.196 32.6627C15.932 30.942 15.936 29.2002 16.212 27.4814C16.8581 23.4421 20.2901 20.5082 24.3761 20.5082C25.6221 20.5082 26.7001 21.085 27.3721 22.0905C28.1021 23.1825 28.2001 24.6052 27.6301 25.8068C26.2521 28.7099 26.2521 31.5322 27.6301 34.4353C28.2001 35.635 28.1021 37.0596 27.3721 38.1516C26.6981 39.1571 25.6221 39.7339 24.4161 39.7339V39.7339ZM24.4161 23.071C21.6161 23.071 19.2901 25.0878 18.8461 27.8697C18.6121 29.3347 18.6081 30.8209 18.8321 32.2878C19.2661 35.1178 21.5361 37.1711 24.2281 37.1711H24.4141C24.7781 37.1711 25.0021 36.95 25.1241 36.7655C25.3161 36.479 25.4361 35.9964 25.2001 35.5004C23.5061 31.9321 23.5061 28.3119 25.2001 24.7436C25.4361 24.2476 25.3161 23.7651 25.1241 23.4786C25.0041 23.2921 24.7801 23.071 24.4161 23.071V23.071Z" fill="#0065FF"/>
<path d="M39.7705 39.7339H39.5844C38.3784 39.7339 37.3024 39.1571 36.6304 38.1516C35.9004 37.0596 35.8024 35.6369 36.3724 34.4353C37.7504 31.5322 37.7504 28.7099 36.3724 25.8068C35.8024 24.6071 35.9004 23.1825 36.6304 22.0905C37.3024 21.085 38.3804 20.5082 39.5844 20.5082C43.7105 20.5082 47.1445 23.4401 47.7905 27.4814C48.0645 29.2002 48.0705 30.9439 47.8065 32.6627C47.1745 36.7597 43.7965 39.7339 39.7705 39.7339ZM39.6264 23.071C39.2204 23.071 38.9984 23.2921 38.8744 23.4767C38.6824 23.7631 38.5624 24.2457 38.7984 24.7417C40.4925 28.31 40.4925 31.9302 38.7984 35.4985C38.5624 35.9945 38.6824 36.4771 38.8744 36.7635C38.9984 36.9481 39.2224 37.1692 39.5844 37.1692H39.7705C42.4625 37.1692 44.7325 35.1159 45.1665 32.2859C45.3925 30.8209 45.3885 29.3347 45.1525 27.8678C44.7105 25.0878 42.3845 23.071 39.6264 23.071V23.071Z" fill="#0065FF"/>
</g>
<defs>
<clipPath id="clip0_0_6873">
<rect width="63.4711" height="61.0133" fill="white" transform="scale(1.00834)"/>
</clipPath>
</defs>
</svg>
