<svg width="64" height="64" viewBox="0 0 64 64" fill="none" xmlns="http://www.w3.org/2000/svg">
<g clip-path="url(#clip0_0_8134)">
<path d="M51.5703 64H11.9008C5.3276 64 0 58.628 0 52V12C0 5.372 5.3276 0 11.9008 0H51.5703C58.1435 0 63.4711 5.372 63.4711 12V52C63.4711 58.628 58.1435 64 51.5703 64Z" fill="#F2F6FE"/>
<path d="M36.2855 31.878C35.4921 31.076 34.1116 30.842 33.2488 30.872C33.1218 29.006 33.1218 27.072 33.1258 25.262C33.1337 21.242 33.1397 18.066 31.783 16.694C31.3308 16.24 30.7516 16 30.105 16C29.5575 16 29.1132 16.448 29.1132 17C29.1132 17.552 29.5575 18 30.105 18C30.2438 18 30.3113 18.04 30.3767 18.108C31.1523 18.892 31.1463 22.274 31.1404 25.26C31.1324 28.784 31.1245 32.778 32.0885 36.126C32.2491 36.534 32.3503 37.082 32.3939 37.798C32.4137 38.11 32.3285 38.304 32.2531 38.376C32.2352 38.394 32.2094 38.424 32.1083 38.412C31.8266 38.376 31.547 38.302 31.2693 38.23C30.9004 38.134 30.5314 38.044 30.1566 37.998C28.0223 37.744 26.1182 39.446 25.8207 41.876C25.5668 43.964 26.5903 45.946 28.2941 46.692C28.4746 46.782 29.3751 47.356 30.105 47.838C30.2756 47.948 30.464 48 30.6485 48C30.9718 48 31.2911 47.84 31.4795 47.546C31.779 47.084 31.6501 46.464 31.1919 46.162C30.3985 45.64 29.3929 44.992 29.1013 44.864C28.1969 44.468 27.6455 43.314 27.7903 42.12C27.8319 41.782 27.9232 41.47 28.0541 41.194C28.9804 42.028 29.8908 42.822 30.4442 43.198C31.2594 43.766 32.138 44.052 33.0246 44.052C33.7149 44.052 34.4091 43.878 35.0835 43.532C37.0273 42.526 38.3126 40.428 38.5189 37.916C38.7212 35.454 37.8465 33.096 36.2855 31.878V31.878Z" fill="#0065FF"/>
<path d="M46.2663 48.0001C46.2584 48.0001 46.2524 48.0001 46.2465 48.0001C45.5166 47.9881 44.9334 47.3821 44.9433 46.6461C45.0445 39.7941 44.5962 34.6661 43.5728 30.9681C43.1324 29.3781 42.1189 27.9221 40.7185 26.8661L37.3169 24.3041C36.0038 23.4221 35.3513 21.7201 35.7519 20.1101L36.6128 16.9761C36.8071 16.2661 37.539 15.8541 38.2392 16.0461C38.9433 16.2421 39.3559 16.9761 39.1615 17.6861L38.3106 20.7881C38.1896 21.2781 38.3999 21.8281 38.8442 22.1261L42.3014 24.7281C44.1678 26.1341 45.5245 28.0941 46.1215 30.2501C47.2303 34.2521 47.6964 39.4741 47.5893 46.6841C47.5774 47.4161 46.9863 48.0001 46.2663 48.0001V48.0001Z" fill="#00E1F0"/>
<path d="M17.2048 48C16.4828 48 15.8938 47.416 15.8838 46.686C15.7847 39.924 16.1853 34.954 17.1473 31.04C17.8019 28.374 19.4243 26.088 21.7152 24.606L24.7242 22.66C25.0038 22.478 25.0594 22.21 25.0673 22.066C25.0752 21.922 25.0495 21.65 24.7896 21.438C24.1609 20.93 23.8019 20.174 23.8019 19.362V17.334C23.8019 16.596 24.3929 16 25.1248 16C25.8567 16 26.4478 16.598 26.4478 17.334V19.362C27.2947 20.05 27.7668 21.116 27.7073 22.21C27.6478 23.306 27.0667 24.312 26.1523 24.904L23.1433 26.85C21.4237 27.962 20.2058 29.678 19.7139 31.682C18.8194 35.316 18.4326 40.21 18.5278 46.646C18.5377 47.382 17.9546 47.99 17.2247 48C17.2187 48 17.2108 48 17.2048 48V48Z" fill="#00E1F0"/>
</g>
<defs>
<clipPath id="clip0_0_8134">
<rect width="63.4711" height="64" fill="white"/>
</clipPath>
</defs>
</svg>
