<svg width="40" height="40" viewBox="0 0 40 40" fill="none" xmlns="http://www.w3.org/2000/svg">
<g clip-path="url(#clip0_908_13477)">
<path d="M5.25 10.625V3.125C5.25 2.62772 5.44754 2.15081 5.79918 1.79917C6.15081 1.44754 6.62772 1.25 7.125 1.25H24.625C25.1223 1.25 25.5992 1.44754 25.9508 1.79917C26.3025 2.15081 26.5 2.62772 26.5 3.125V36.875C26.5 37.3723 26.3025 37.8492 25.9508 38.2008C25.5992 38.5525 25.1223 38.75 24.625 38.75H7.125C6.62772 38.75 6.15081 38.5525 5.79918 38.2008C5.44754 37.8492 5.25 37.3723 5.25 36.875V15.625" fill="white"/>
<path d="M5.625 28.75H26.25V38.75H5.625V28.75Z" fill="#00E1F0"/>
<path d="M5.625 1.875H26.25V6.25H5.625V1.875Z" fill="#00E1F0"/>
<path d="M34.6875 40C35.3779 40 35.9375 39.4404 35.9375 38.75C35.9375 38.0596 35.3779 37.5 34.6875 37.5C33.9971 37.5 33.4375 38.0596 33.4375 38.75C33.4375 39.4404 33.9971 40 34.6875 40Z" fill="#00E1F0"/>
<path d="M29.6875 37.5H27.75C27.79 37.294 27.8109 37.0848 27.8125 36.875V19.825C28.0014 19.7159 28.1585 19.5593 28.2682 19.3707C28.3778 19.1821 28.4362 18.9681 28.4375 18.75V17.5C28.4362 17.2819 28.3778 17.0679 28.2682 16.8793C28.1585 16.6907 28.0014 16.5341 27.8125 16.425V13.575C28.0014 13.4659 28.1585 13.3093 28.2682 13.1207C28.3778 12.9321 28.4362 12.7181 28.4375 12.5V6.875C28.4362 6.65686 28.3778 6.44286 28.2682 6.25427C28.1585 6.06568 28.0014 5.90907 27.8125 5.8V3.125C27.8125 2.71462 27.7317 2.30826 27.5746 1.92911C27.4176 1.54997 27.1874 1.20547 26.8972 0.915291C26.607 0.625108 26.2625 0.394922 25.8834 0.237876C25.5042 0.0808305 25.0979 0 24.6875 0L7.1875 0C6.3587 0 5.56384 0.32924 4.97779 0.915291C4.39174 1.50134 4.0625 2.2962 4.0625 3.125V10.625C4.0625 10.9565 4.1942 11.2745 4.42862 11.5089C4.66304 11.7433 4.98098 11.875 5.3125 11.875C5.64402 11.875 5.96196 11.7433 6.19638 11.5089C6.4308 11.2745 6.5625 10.9565 6.5625 10.625V7.5H25.3125V27.5H6.5625V15.625C6.5625 15.2935 6.4308 14.9755 6.19638 14.7411C5.96196 14.5067 5.64402 14.375 5.3125 14.375C4.98098 14.375 4.66304 14.5067 4.42862 14.7411C4.1942 14.9755 4.0625 15.2935 4.0625 15.625V36.875C4.0625 37.7038 4.39174 38.4987 4.97779 39.0847C5.56384 39.6708 6.3587 40 7.1875 40H29.6875C30.019 40 30.337 39.8683 30.5714 39.6339C30.8058 39.3995 30.9375 39.0815 30.9375 38.75C30.9375 38.4185 30.8058 38.1005 30.5714 37.8661C30.337 37.6317 30.019 37.5 29.6875 37.5ZM6.5625 5V3.125C6.5625 2.95924 6.62835 2.80027 6.74556 2.68306C6.86277 2.56585 7.02174 2.5 7.1875 2.5H24.6875C24.8533 2.5 25.0122 2.56585 25.1294 2.68306C25.2467 2.80027 25.3125 2.95924 25.3125 3.125V5H6.5625ZM7.1875 37.5C7.02174 37.5 6.86277 37.4342 6.74556 37.3169C6.62835 37.1997 6.5625 37.0408 6.5625 36.875V30H25.3125V36.875C25.3125 37.0408 25.2467 37.1997 25.1294 37.3169C25.0122 37.4342 24.8533 37.5 24.6875 37.5H7.1875Z" fill="#0065FF"/>
<path d="M19.0625 32.5H12.8125C12.481 32.5 12.163 32.6317 11.9286 32.8661C11.6942 33.1005 11.5625 33.4185 11.5625 33.75C11.5625 34.0815 11.6942 34.3995 11.9286 34.6339C12.163 34.8683 12.481 35 12.8125 35H19.0625C19.394 35 19.712 34.8683 19.9464 34.6339C20.1808 34.3995 20.3125 34.0815 20.3125 33.75C20.3125 33.4185 20.1808 33.1005 19.9464 32.8661C19.712 32.6317 19.394 32.5 19.0625 32.5Z" fill="#F7F9FA"/>
<path d="M15.9375 13.125C15.606 13.125 15.288 13.2567 15.0536 13.4911C14.8192 13.7255 14.6875 14.0435 14.6875 14.375V16.25H12.8125C12.481 16.25 12.163 16.3817 11.9286 16.6161C11.6942 16.8505 11.5625 17.1685 11.5625 17.5C11.5625 17.8315 11.6942 18.1495 11.9286 18.3839C12.163 18.6183 12.481 18.75 12.8125 18.75H14.6875V20.625C14.6875 20.9565 14.8192 21.2745 15.0536 21.5089C15.288 21.7433 15.606 21.875 15.9375 21.875C16.269 21.875 16.587 21.7433 16.8214 21.5089C17.0558 21.2745 17.1875 20.9565 17.1875 20.625V18.75H19.0625C19.394 18.75 19.712 18.6183 19.9464 18.3839C20.1808 18.1495 20.3125 17.8315 20.3125 17.5C20.3125 17.1685 20.1808 16.8505 19.9464 16.6161C19.712 16.3817 19.394 16.25 19.0625 16.25H17.1875V14.375C17.1875 14.0435 17.0558 13.7255 16.8214 13.4911C16.587 13.2567 16.269 13.125 15.9375 13.125Z" fill="#00E1F0"/>
</g>
<defs>
<clipPath id="clip0_908_13477">
<rect width="40" height="40" fill="white"/>
</clipPath>
</defs>
</svg>
