<svg width="24" height="24" viewBox="0 0 24 24" fill="none" xmlns="http://www.w3.org/2000/svg">
<path d="M20.3484 11.4328H20.0693C19.0264 11.4328 18.0105 11.0654 17.2089 10.3982L11.6865 5.80184C11.2695 5.45478 10.741 5.26367 10.1985 5.26367C8.91595 5.26367 7.87252 6.30711 7.87252 7.58966V8.13275C7.87252 9.19081 7.0117 10.0517 5.95359 10.0517C5.21091 10.0517 4.52827 9.61672 4.21444 8.94359L4.06158 8.6157C3.71311 7.86833 2.95514 7.38542 2.13056 7.38542C0.955781 7.38542 0 8.34116 0 9.51598V15.0844C0 17.0978 1.63809 18.7359 3.65156 18.7359H20.3484C22.3619 18.7359 24 17.0978 24 15.0844C24 13.0709 22.3619 11.4328 20.3484 11.4328ZM20.3484 17.3297H3.65156C2.81583 17.3297 2.0858 16.8703 1.69922 16.1912H22.3008C21.9142 16.8703 21.1842 17.3297 20.3484 17.3297ZM1.40625 14.7851V9.51598C1.40625 9.11656 1.73119 8.79167 2.13056 8.79167C2.41087 8.79167 2.66859 8.95588 2.78705 9.20994L2.93991 9.53778C3.4837 10.7042 4.66664 11.4579 5.95364 11.4579C7.78716 11.4579 9.27881 9.96627 9.27881 8.13275V7.58966C9.27881 7.08252 9.69141 6.66992 10.1985 6.66992C10.413 6.66992 10.622 6.74548 10.7869 6.88273L12.1417 8.01031L10.5981 9.55391L11.5924 10.5483L13.227 8.91369L13.8379 9.42209L12.3639 10.896L13.3583 11.8904L14.9233 10.3255L15.5341 10.8339L14.1298 12.2382L15.1242 13.2325L16.6296 11.7271C17.6273 12.4467 18.8338 12.8391 20.0694 12.8391H20.3485C21.4851 12.8391 22.4264 13.6881 22.5733 14.7851H1.40625V14.7851Z" fill="white"/>
</svg>
