<svg width="24" height="24" viewBox="0 0 24 24" fill="none" xmlns="http://www.w3.org/2000/svg">
<g clip-path="url(#clip0_441_3618)">
<path d="M19.9433 5.51897C19.797 5.43282 19.617 5.42682 19.4653 5.50299C19.3139 5.57935 19.2114 5.72733 19.1933 5.89599C19.1753 6.06 19.1473 6.22397 19.1123 6.396C18.1333 10.839 16.1673 13 13.1003 13H8.60032C8.36304 13.0004 8.15876 13.1675 8.11132 13.4L6.61132 20.431L6.34334 22.221C6.18926 23.035 6.7242 23.8198 7.53813 23.9738C7.6279 23.9908 7.71898 23.9996 7.81034 24H10.8203C11.5102 24.0021 12.1117 23.5312 12.2753 22.861L13.4913 18H16.1003C19.1793 18 21.3073 15.545 22.0923 11.087C22.6104 8.96424 21.7532 6.74321 19.9433 5.51897Z" fill="#03A9F4"/>
<path d="M19.0001 1.78203C18.0121 0.661301 16.5942 0.0133958 15.1001 3.64138e-05H6.82013C5.58099 -0.00661982 4.52602 0.899988 4.34617 2.126L1.77517 19.277C1.65203 20.0962 2.21626 20.8601 3.0355 20.9833C3.10984 20.9945 3.18498 21 3.26017 21H7.10016C7.33744 20.9996 7.54172 20.8325 7.58916 20.6L9.00417 14H13.1042C16.6622 14 19.0132 11.513 20.0932 6.60002C20.1366 6.40418 20.17 6.20627 20.1932 6.00701C20.4439 4.49131 20.0066 2.9427 19.0001 1.78203Z" fill="#283593"/>
</g>
<defs>
<clipPath id="clip0_441_3618">
<rect width="24" height="24" fill="white"/>
</clipPath>
</defs>
</svg>
