<svg width="48" height="48" viewBox="0 0 48 48" fill="none" xmlns="http://www.w3.org/2000/svg">
<rect x="0.5" y="0.5" width="47" height="47" rx="23.5" stroke="#F2F4F5"/>
<path fill-rule="evenodd" clip-rule="evenodd" d="M24 21.5C25.3809 21.5 26.5 22.6191 26.5 24C26.5 25.3809 25.3809 26.5 24 26.5C22.6191 26.5 21.5 25.3809 21.5 24C21.5 22.6191 22.6191 21.5 24 21.5Z" stroke="#0065FF" stroke-width="1.5" stroke-linecap="round" stroke-linejoin="round"/>
<path fill-rule="evenodd" clip-rule="evenodd" d="M32.168 19.2502V19.2502C31.4845 18.058 29.9712 17.65 28.7885 18.3385C27.7598 18.9361 26.4741 18.1884 26.4741 16.9922C26.4741 15.6162 25.3659 14.5 23.9998 14.5V14.5C22.6337 14.5 21.5255 15.6162 21.5255 16.9922C21.5255 18.1884 20.2398 18.9361 19.212 18.3385C18.0283 17.65 16.5151 18.058 15.8315 19.2502C15.149 20.4425 15.554 21.9666 16.7377 22.6541C17.7655 23.2527 17.7655 24.7473 16.7377 25.3459C15.554 26.0343 15.149 27.5585 15.8315 28.7498C16.5151 29.942 18.0283 30.35 19.211 29.6625H19.212C20.2398 29.0639 21.5255 29.8116 21.5255 31.0078V31.0078C21.5255 32.3838 22.6337 33.5 23.9998 33.5V33.5C25.3659 33.5 26.4741 32.3838 26.4741 31.0078V31.0078C26.4741 29.8116 27.7598 29.0639 28.7885 29.6625C29.9712 30.35 31.4845 29.942 32.168 28.7498C32.8515 27.5585 32.4455 26.0343 31.2628 25.3459H31.2618C30.2341 24.7473 30.2341 23.2527 31.2628 22.6541C32.4455 21.9666 32.8515 20.4425 32.168 19.2502Z" stroke="#0065FF" stroke-width="1.5" stroke-linecap="round" stroke-linejoin="round"/>
</svg>
